solid AutoSave_LiteArm_i2_REV5_5.25.15 Mould
facet normal -6.58891234555249e-015 1.0 -2.61262237899402e-013
  outer loop
    vertex -1312.32305847861 224.679428117226 -0.19704475558605
    vertex -1305.47527217421 224.679428117227 5.40608024441358
    vertex -1305.47527217421 224.679428117226 -0.197044755586411
  endloop
endfacet
facet normal -6.58891234555249e-015 1.0 -2.61262237899402e-013
  outer loop
    vertex -1305.47527217421 224.679428117227 5.40608024441358
    vertex -1312.32305847861 224.679428117226 -0.19704475558605
    vertex -1312.32305847861 224.679428117227 5.40608024441394
  endloop
endfacet
facet normal 1.0 1.85171424974235e-014 -5.77673896298594e-014
  outer loop
    vertex -1280.10987967421 229.552692307638 -0.197044755589218
    vertex -1280.10987967421 224.679428117227 5.40608024441209
    vertex -1280.10987967421 224.679428117226 -0.1970447555879
  endloop
endfacet
facet normal 1.0 1.85171424974235e-014 -5.77673896298594e-014
  outer loop
    vertex -1280.10987967421 224.679428117227 5.40608024441209
    vertex -1280.10987967421 229.552692307638 -0.197044755589218
    vertex -1280.10987967421 224.679428117228 6.80295524441209
  endloop
endfacet
facet normal 1.0 1.85171424974235e-014 -5.77673896298594e-014
  outer loop
    vertex -1280.10987967421 224.679428117228 6.80295524441209
    vertex -1280.10987967421 229.552692307638 -0.197044755589218
    vertex -1280.10987967421 229.55269230764 6.80295524441079
  endloop
endfacet
facet normal -6.58891234555258e-015 1.0 -2.61262237899402e-013
  outer loop
    vertex -1280.10987967421 224.679428117226 -0.1970447555879
    vertex -1273.26209336981 224.679428117227 5.40608024441171
    vertex -1273.26209336981 224.679428117226 -0.197044755588306
  endloop
endfacet
facet normal -6.58891234555258e-015 1.0 -2.61262237899402e-013
  outer loop
    vertex -1273.26209336981 224.679428117227 5.40608024441171
    vertex -1280.10987967421 224.679428117226 -0.1970447555879
    vertex -1280.10987967421 224.679428117227 5.40608024441209
  endloop
endfacet
facet normal -1.0 -2.03012210215662e-015 5.77673896298551e-014
  outer loop
    vertex -1305.47527217421 207.216928117227 5.40608024441814
    vertex -1305.47527217421 218.329428117226 -0.197044755584752
    vertex -1305.47527217421 207.216928117226 -0.197044755581849
  endloop
endfacet
facet normal -1.0 -2.03012210215662e-015 5.77673896298551e-014
  outer loop
    vertex -1305.47527217421 218.329428117226 -0.197044755584752
    vertex -1305.47527217421 207.216928117227 5.40608024441814
    vertex -1305.47527217421 207.216928117228 6.80295524441814
  endloop
endfacet
facet normal -1.0 -2.03012210215662e-015 5.77673896298551e-014
  outer loop
    vertex -1305.47527217421 218.329428117226 -0.197044755584752
    vertex -1305.47527217421 207.216928117228 6.80295524441814
    vertex -1305.47527217421 218.329428117228 6.80295524441524
  endloop
endfacet
facet normal -1.0 -2.03012210215662e-015 5.77673896298551e-014
  outer loop
    vertex -1305.47527217421 218.329428117226 -0.197044755584752
    vertex -1305.47527217421 218.329428117228 6.80295524441524
    vertex -1305.47527217421 218.329428117227 5.40608024441524
  endloop
endfacet
facet normal 1.0 7.10542735758591e-015 -5.77673896298564e-014
  outer loop
    vertex -1273.26209336981 224.679428117226 -0.197044755588306
    vertex -1273.26209336981 218.329428117227 5.40608024441336
    vertex -1273.26209336981 218.329428117226 -0.197044755586647
  endloop
endfacet
facet normal 1.0 7.10542735758591e-015 -5.77673896298564e-014
  outer loop
    vertex -1273.26209336981 218.329428117227 5.40608024441336
    vertex -1273.26209336981 224.679428117226 -0.197044755588306
    vertex -1273.26209336981 224.679428117227 5.40608024441171
  endloop
endfacet
facet normal -3.55756085546607e-015 1.0 -2.61262237899402e-013
  outer loop
    vertex -1305.47527217421 229.552692307638 -0.197044755587729
    vertex -1280.10987967421 229.55269230764 6.80295524441079
    vertex -1280.10987967421 229.552692307638 -0.197044755589218
  endloop
endfacet
facet normal -3.55756085546607e-015 1.0 -2.61262237899402e-013
  outer loop
    vertex -1280.10987967421 229.55269230764 6.80295524441079
    vertex -1305.47527217421 229.552692307638 -0.197044755587729
    vertex -1305.47527217421 229.55269230764 6.80295524441228
  endloop
endfacet
facet normal 6.58891234555249e-015 -1.0 2.61262237899402e-013
  outer loop
    vertex -1273.26209336981 218.329428117227 5.40608024441336
    vertex -1280.10987967421 218.329428117226 -0.197044755586241
    vertex -1273.26209336981 218.329428117226 -0.197044755586647
  endloop
endfacet
facet normal 6.58891234555249e-015 -1.0 2.61262237899402e-013
  outer loop
    vertex -1280.10987967421 218.329428117226 -0.197044755586241
    vertex -1273.26209336981 218.329428117227 5.40608024441336
    vertex -1280.10987967421 218.329428117227 5.40608024441375
  endloop
endfacet
facet normal 1.0 4.06024420432834e-015 -5.77673896298556e-014
  outer loop
    vertex -1280.10987967421 218.329428117226 -0.197044755586241
    vertex -1280.10987967421 207.216928117227 5.40608024441665
    vertex -1280.10987967421 207.216928117226 -0.197044755583338
  endloop
endfacet
facet normal 1.0 4.06024420432834e-015 -5.77673896298556e-014
  outer loop
    vertex -1280.10987967421 207.216928117227 5.40608024441665
    vertex -1280.10987967421 218.329428117226 -0.197044755586241
    vertex -1280.10987967421 207.216928117228 6.80295524441665
  endloop
endfacet
facet normal 1.0 4.06024420432834e-015 -5.77673896298556e-014
  outer loop
    vertex -1280.10987967421 207.216928117228 6.80295524441665
    vertex -1280.10987967421 218.329428117226 -0.197044755586241
    vertex -1280.10987967421 218.329428117228 6.80295524441375
  endloop
endfacet
facet normal 1.0 4.06024420432834e-015 -5.77673896298556e-014
  outer loop
    vertex -1280.10987967421 218.329428117228 6.80295524441375
    vertex -1280.10987967421 218.329428117226 -0.197044755586241
    vertex -1280.10987967421 218.329428117227 5.40608024441375
  endloop
endfacet
facet normal -1.34755533613664e-031 1.0 -2.61262237899403e-013
  outer loop
    vertex -1280.10987967421 207.216928117226 -0.197044755583338
    vertex -1273.26209336981 207.216928117227 5.40608024441627
    vertex -1273.26209336981 207.216928117226 -0.197044755583744
  endloop
endfacet
facet normal -1.34755533613664e-031 1.0 -2.61262237899403e-013
  outer loop
    vertex -1273.26209336981 207.216928117227 5.40608024441627
    vertex -1280.10987967421 207.216928117226 -0.197044755583338
    vertex -1280.10987967421 207.216928117227 5.40608024441665
  endloop
endfacet
facet normal 1.0 -1.5092298498097e-026 -5.77673896298546e-014
  outer loop
    vertex -1273.26209336981 207.216928117226 -0.197044755583744
    vertex -1273.26209336981 200.866928117227 5.40608024441793
    vertex -1273.26209336981 200.866928117226 -0.197044755582084
  endloop
endfacet
facet normal 1.0 -1.5092298498097e-026 -5.77673896298546e-014
  outer loop
    vertex -1273.26209336981 200.866928117227 5.40608024441793
    vertex -1273.26209336981 207.216928117226 -0.197044755583744
    vertex -1273.26209336981 207.216928117227 5.40608024441627
  endloop
endfacet
facet normal 1.0 -1.48121413968192e-026 -5.77673896298546e-014
  outer loop
    vertex -1280.10987967421 200.866928117226 -0.197044755581678
    vertex -1280.10987967421 196.215192307641 6.8029552444195
    vertex -1280.10987967421 196.215192307639 -0.197044755580508
  endloop
endfacet
facet normal 1.0 -1.48121413968192e-026 -5.77673896298546e-014
  outer loop
    vertex -1280.10987967421 196.215192307641 6.8029552444195
    vertex -1280.10987967421 200.866928117226 -0.197044755581678
    vertex -1280.10987967421 200.866928117228 6.80295524441831
  endloop
endfacet
facet normal 1.0 -1.48121413968192e-026 -5.77673896298546e-014
  outer loop
    vertex -1280.10987967421 200.866928117228 6.80295524441831
    vertex -1280.10987967421 200.866928117226 -0.197044755581678
    vertex -1280.10987967421 200.866928117227 5.40608024441831
  endloop
endfacet
facet normal 3.55756085546608e-014 -1.0 2.61262237899401e-013
  outer loop
    vertex -1280.10987967421 196.215192307641 6.8029552444195
    vertex -1305.47527217421 196.215192307638 -0.19704475557902
    vertex -1280.10987967421 196.215192307639 -0.197044755580508
  endloop
endfacet
facet normal 3.55756085546608e-014 -1.0 2.61262237899401e-013
  outer loop
    vertex -1305.47527217421 196.215192307638 -0.19704475557902
    vertex -1280.10987967421 196.215192307641 6.8029552444195
    vertex -1305.47527217421 196.21519230764 6.80295524442099
  endloop
endfacet
facet normal -1.26828737518742e-031 1.0 -2.61262237899403e-013
  outer loop
    vertex -1312.32305847861 207.216928117226 -0.197044755581488
    vertex -1305.47527217421 207.216928117227 5.40608024441814
    vertex -1305.47527217421 207.216928117226 -0.197044755581849
  endloop
endfacet
facet normal -1.26828737518742e-031 1.0 -2.61262237899403e-013
  outer loop
    vertex -1305.47527217421 207.216928117227 5.40608024441814
    vertex -1312.32305847861 207.216928117226 -0.197044755581488
    vertex -1312.32305847861 207.216928117227 5.4060802444185
  endloop
endfacet
facet normal -1.0 -1.93989794638523e-014 5.77673896298597e-014
  outer loop
    vertex -1305.47527217421 196.21519230764 6.80295524442099
    vertex -1305.47527217421 200.866928117226 -0.197044755580189
    vertex -1305.47527217421 196.215192307638 -0.19704475557902
  endloop
endfacet
facet normal -1.0 -1.93989794638523e-014 5.77673896298597e-014
  outer loop
    vertex -1305.47527217421 200.866928117226 -0.197044755580189
    vertex -1305.47527217421 196.21519230764 6.80295524442099
    vertex -1305.47527217421 200.866928117228 6.8029552444198
  endloop
endfacet
facet normal -1.0 -1.93989794638523e-014 5.77673896298597e-014
  outer loop
    vertex -1305.47527217421 200.866928117226 -0.197044755580189
    vertex -1305.47527217421 200.866928117228 6.8029552444198
    vertex -1305.47527217421 200.866928117227 5.4060802444198
  endloop
endfacet
facet normal 1.34755533613664e-031 -1.0 2.61262237899403e-013
  outer loop
    vertex -1273.26209336981 200.866928117227 5.40608024441793
    vertex -1280.10987967421 200.866928117226 -0.197044755581678
    vertex -1273.26209336981 200.866928117226 -0.197044755582084
  endloop
endfacet
facet normal 1.34755533613664e-031 -1.0 2.61262237899403e-013
  outer loop
    vertex -1280.10987967421 200.866928117226 -0.197044755581678
    vertex -1273.26209336981 200.866928117227 5.40608024441793
    vertex -1280.10987967421 200.866928117227 5.40608024441831
  endloop
endfacet
facet normal -5.77673896298546e-014 -2.61262237899403e-013 -1.0
  outer loop
    vertex -1300.71277217421 200.977692307639 -0.197044755580895
    vertex -1294.33805724627 198.955170684596 -0.19704475558048
    vertex -1294.39257592421 198.541060212432 -0.197044755580372
  endloop
endfacet
facet normal -5.77673896298546e-014 -2.61262237899403e-013 -1.0
  outer loop
    vertex -1294.33805724627 198.955170684596 -0.19704475558048
    vertex -1300.71277217421 200.977692307639 -0.197044755580895
    vertex -1294.17821657026 199.341060212432 -0.197044755580603
  endloop
endfacet
facet normal -5.77673896298546e-014 -2.61262237899403e-013 -1.0
  outer loop
    vertex -1294.17821657026 199.341060212432 -0.197044755580603
    vertex -1300.71277217421 200.977692307639 -0.197044755580895
    vertex -1293.92394677411 199.672431062331 -0.19704475558069
  endloop
endfacet
facet normal -5.77673896298546e-014 -2.61262237899403e-013 -1.0
  outer loop
    vertex -1293.92394677411 199.672431062331 -0.19704475558069
    vertex -1300.71277217421 200.977692307639 -0.197044755580895
    vertex -1293.59257592421 199.926700858487 -0.197044755580778
  endloop
endfacet
facet normal -5.77673896298546e-014 -2.61262237899403e-013 -1.0
  outer loop
    vertex -1293.59257592421 199.926700858487 -0.197044755580778
    vertex -1300.71277217421 200.977692307639 -0.197044755580895
    vertex -1293.20668639637 200.086541534495 -0.197044755580843
  endloop
endfacet
facet normal -5.77673896298546e-014 -2.61262237899403e-013 -1.0
  outer loop
    vertex -1293.20668639637 200.086541534495 -0.197044755580843
    vertex -1300.71277217421 200.977692307639 -0.197044755580895
    vertex -1292.79257592421 200.141060212432 -0.197044755580879
  endloop
endfacet
facet normal -5.77673896298546e-014 -2.61262237899403e-013 -1.0
  outer loop
    vertex -1292.79257592421 200.141060212432 -0.197044755580879
    vertex -1300.71277217421 200.977692307639 -0.197044755580895
    vertex -1284.87237967421 200.977692307639 -0.197044755581572
  endloop
endfacet
facet normal -5.77673896298546e-014 -2.61262237899403e-013 -1.0
  outer loop
    vertex -1292.79257592421 200.141060212432 -0.197044755580879
    vertex -1284.87237967421 200.977692307639 -0.197044755581572
    vertex -1292.37846545204 200.086541534495 -0.197044755580888
  endloop
endfacet
facet normal -5.77673896298546e-014 -2.61262237899403e-013 -1.0
  outer loop
    vertex -1292.37846545204 200.086541534495 -0.197044755580888
    vertex -1284.87237967421 200.977692307639 -0.197044755581572
    vertex -1291.99257592421 199.926700858487 -0.197044755580869
  endloop
endfacet
facet normal -5.77673896298546e-014 -2.61262237899403e-013 -1.0
  outer loop
    vertex -1291.99257592421 199.926700858487 -0.197044755580869
    vertex -1284.87237967421 200.977692307639 -0.197044755581572
    vertex -1291.66120507431 199.672431062331 -0.197044755580825
  endloop
endfacet
facet normal -5.77673896298546e-014 -2.61262237899403e-013 -1.0
  outer loop
    vertex -1291.66120507431 199.672431062331 -0.197044755580825
    vertex -1284.87237967421 200.977692307639 -0.197044755581572
    vertex -1291.40693527815 199.341060212432 -0.197044755580738
  endloop
endfacet
facet normal -5.77673896298546e-014 -2.61262237899403e-013 -1.0
  outer loop
    vertex -1291.40693527815 199.341060212432 -0.197044755580738
    vertex -1284.87237967421 200.977692307639 -0.197044755581572
    vertex -1291.24709460215 198.955170684596 -0.19704475558066
  endloop
endfacet
facet normal -5.77673896298546e-014 -2.61262237899403e-013 -1.0
  outer loop
    vertex -1291.24709460215 198.955170684596 -0.19704475558066
    vertex -1284.87237967421 200.977692307639 -0.197044755581572
    vertex -1291.19257592421 198.541060212432 -0.197044755580552
  endloop
endfacet
facet normal -5.77673896298546e-014 -2.61262237899403e-013 -1.0
  outer loop
    vertex -1305.47527217421 229.552692307638 -0.197044755587729
    vertex -1293.20668639637 228.661541534495 -0.197044755588286
    vertex -1305.47527217421 224.679428117226 -0.197044755586411
  endloop
endfacet
facet normal -5.77673896298546e-014 -2.61262237899403e-013 -1.0
  outer loop
    vertex -1293.20668639637 228.661541534495 -0.197044755588286
    vertex -1305.47527217421 229.552692307638 -0.197044755587729
    vertex -1292.79257592421 228.716060212432 -0.197044755588323
  endloop
endfacet
facet normal -5.77673896298546e-014 -2.61262237899403e-013 -1.0
  outer loop
    vertex -1292.79257592421 228.716060212432 -0.197044755588323
    vertex -1305.47527217421 229.552692307638 -0.197044755587729
    vertex -1280.10987967421 229.552692307638 -0.197044755589218
  endloop
endfacet
facet normal -5.77673896298546e-014 -2.61262237899403e-013 -1.0
  outer loop
    vertex -1305.47527217421 224.679428117226 -0.197044755586411
    vertex -1293.20668639637 228.661541534495 -0.197044755588286
    vertex -1293.59257592421 228.501700858487 -0.197044755588222
  endloop
endfacet
facet normal -5.77673896298546e-014 -2.61262237899403e-013 -1.0
  outer loop
    vertex -1305.47527217421 224.679428117226 -0.197044755586411
    vertex -1293.59257592421 228.501700858487 -0.197044755588222
    vertex -1300.71277217421 224.790192307638 -0.197044755586936
  endloop
endfacet
facet normal -5.77673896298546e-014 -2.61262237899403e-013 -1.0
  outer loop
    vertex -1305.47527217421 224.679428117226 -0.197044755586411
    vertex -1300.71277217421 224.790192307638 -0.197044755586936
    vertex -1305.47527217421 218.329428117226 -0.197044755584752
  endloop
endfacet
facet normal -5.77673896298546e-014 -2.61262237899403e-013 -1.0
  outer loop
    vertex -1305.47527217421 218.329428117226 -0.197044755584752
    vertex -1300.71277217421 224.790192307638 -0.197044755586936
    vertex -1305.47527217421 207.216928117226 -0.197044755581849
  endloop
endfacet
facet normal -5.77673896298546e-014 -2.61262237899403e-013 -1.0
  outer loop
    vertex -1305.47527217421 207.216928117226 -0.197044755581849
    vertex -1300.71277217421 224.790192307638 -0.197044755586936
    vertex -1305.47527217421 196.215192307638 -0.19704475557902
  endloop
endfacet
facet normal -5.77673896298546e-014 -2.61262237899403e-013 -1.0
  outer loop
    vertex -1300.71277217421 224.790192307638 -0.197044755586936
    vertex -1293.59257592421 228.501700858487 -0.197044755588222
    vertex -1293.92394677411 228.247431062331 -0.197044755588132
  endloop
endfacet
facet normal -5.77673896298546e-014 -2.61262237899403e-013 -1.0
  outer loop
    vertex -1300.71277217421 224.790192307638 -0.197044755586936
    vertex -1293.92394677411 228.247431062331 -0.197044755588132
    vertex -1294.17821657026 227.916060212432 -0.197044755588046
  endloop
endfacet
facet normal -5.77673896298546e-014 -2.61262237899403e-013 -1.0
  outer loop
    vertex -1300.71277217421 224.790192307638 -0.197044755586936
    vertex -1294.17821657026 227.916060212432 -0.197044755588046
    vertex -1294.33805724627 227.530170684596 -0.197044755587922
  endloop
endfacet
facet normal -5.77673896298546e-014 -2.61262237899403e-013 -1.0
  outer loop
    vertex -1300.71277217421 224.790192307638 -0.197044755586936
    vertex -1294.33805724627 227.530170684596 -0.197044755587922
    vertex -1294.39257592421 227.116060212432 -0.197044755587814
  endloop
endfacet
facet normal -5.77673896298546e-014 -2.61262237899403e-013 -1.0
  outer loop
    vertex -1292.79257592421 228.716060212432 -0.197044755588323
    vertex -1280.10987967421 229.552692307638 -0.197044755589218
    vertex -1292.37846545204 228.661541534495 -0.197044755588331
  endloop
endfacet
facet normal -5.77673896298546e-014 -2.61262237899403e-013 -1.0
  outer loop
    vertex -1292.37846545204 228.661541534495 -0.197044755588331
    vertex -1280.10987967421 229.552692307638 -0.197044755589218
    vertex -1291.99257592421 228.501700858487 -0.197044755588312
  endloop
endfacet
facet normal -5.77673896298546e-014 -2.61262237899403e-013 -1.0
  outer loop
    vertex -1291.99257592421 228.501700858487 -0.197044755588312
    vertex -1280.10987967421 229.552692307638 -0.197044755589218
    vertex -1291.66120507431 228.247431062331 -0.197044755588268
  endloop
endfacet
facet normal -5.77673896298546e-014 -2.61262237899403e-013 -1.0
  outer loop
    vertex -1291.66120507431 228.247431062331 -0.197044755588268
    vertex -1280.10987967421 229.552692307638 -0.197044755589218
    vertex -1291.40693527815 227.916060212432 -0.197044755588181
  endloop
endfacet
facet normal -5.77673896298546e-014 -2.61262237899403e-013 -1.0
  outer loop
    vertex -1291.40693527815 227.916060212432 -0.197044755588181
    vertex -1280.10987967421 229.552692307638 -0.197044755589218
    vertex -1291.24709460215 227.530170684596 -0.197044755588103
  endloop
endfacet
facet normal -5.77673896298546e-014 -2.61262237899403e-013 -1.0
  outer loop
    vertex -1291.24709460215 227.530170684596 -0.197044755588103
    vertex -1280.10987967421 229.552692307638 -0.197044755589218
    vertex -1291.19257592421 227.116060212432 -0.197044755587995
  endloop
endfacet
facet normal -5.77673896298546e-014 -2.61262237899403e-013 -1.0
  outer loop
    vertex -1291.19257592421 227.116060212432 -0.197044755587995
    vertex -1280.10987967421 229.552692307638 -0.197044755589218
    vertex -1284.87237967421 224.790192307638 -0.197044755587703
  endloop
endfacet
facet normal -5.77673896298546e-014 -2.61262237899403e-013 -1.0
  outer loop
    vertex -1284.87237967421 224.790192307638 -0.197044755587703
    vertex -1280.10987967421 229.552692307638 -0.197044755589218
    vertex -1284.87237967421 200.977692307639 -0.197044755581572
  endloop
endfacet
facet normal -5.77673896298546e-014 -2.61262237899403e-013 -1.0
  outer loop
    vertex -1273.26209336981 224.679428117226 -0.197044755588306
    vertex -1280.10987967421 218.329428117226 -0.197044755586241
    vertex -1280.10987967421 224.679428117226 -0.1970447555879
  endloop
endfacet
facet normal -5.77673896298546e-014 -2.61262237899403e-013 -1.0
  outer loop
    vertex -1280.10987967421 218.329428117226 -0.197044755586241
    vertex -1273.26209336981 224.679428117226 -0.197044755588306
    vertex -1273.26209336981 218.329428117226 -0.197044755586647
  endloop
endfacet
facet normal -5.77673896298546e-014 -2.61262237899403e-013 -1.0
  outer loop
    vertex -1273.26209336981 207.216928117226 -0.197044755583744
    vertex -1280.10987967421 200.866928117226 -0.197044755581678
    vertex -1280.10987967421 207.216928117226 -0.197044755583338
  endloop
endfacet
facet normal -5.77673896298546e-014 -2.61262237899403e-013 -1.0
  outer loop
    vertex -1280.10987967421 200.866928117226 -0.197044755581678
    vertex -1273.26209336981 207.216928117226 -0.197044755583744
    vertex -1273.26209336981 200.866928117226 -0.197044755582084
  endloop
endfacet
facet normal -5.77673896298546e-014 -2.61262237899403e-013 -1.0
  outer loop
    vertex -1305.47527217421 196.215192307638 -0.19704475557902
    vertex -1292.79257592421 196.941060212432 -0.197044755580044
    vertex -1280.10987967421 196.215192307639 -0.197044755580508
  endloop
endfacet
facet normal -5.77673896298546e-014 -2.61262237899403e-013 -1.0
  outer loop
    vertex -1292.79257592421 196.941060212432 -0.197044755580044
    vertex -1305.47527217421 196.215192307638 -0.19704475557902
    vertex -1293.20668639637 196.99557889037 -0.197044755580035
  endloop
endfacet
facet normal -5.77673896298546e-014 -2.61262237899403e-013 -1.0
  outer loop
    vertex -1293.20668639637 196.99557889037 -0.197044755580035
    vertex -1305.47527217421 196.215192307638 -0.19704475557902
    vertex -1293.59257592421 197.155419566377 -0.197044755580054
  endloop
endfacet
facet normal -5.77673896298546e-014 -2.61262237899403e-013 -1.0
  outer loop
    vertex -1293.59257592421 197.155419566377 -0.197044755580054
    vertex -1305.47527217421 196.215192307638 -0.19704475557902
    vertex -1300.71277217421 200.977692307639 -0.197044755580895
  endloop
endfacet
facet normal -5.77673896298546e-014 -2.61262237899403e-013 -1.0
  outer loop
    vertex -1300.71277217421 200.977692307639 -0.197044755580895
    vertex -1305.47527217421 196.215192307638 -0.19704475557902
    vertex -1300.71277217421 224.790192307638 -0.197044755586936
  endloop
endfacet
facet normal -5.77673896298546e-014 -2.61262237899403e-013 -1.0
  outer loop
    vertex -1293.59257592421 197.155419566377 -0.197044755580054
    vertex -1300.71277217421 200.977692307639 -0.197044755580895
    vertex -1293.92394677411 197.409689362534 -0.197044755580098
  endloop
endfacet
facet normal -5.77673896298546e-014 -2.61262237899403e-013 -1.0
  outer loop
    vertex -1293.92394677411 197.409689362534 -0.197044755580098
    vertex -1300.71277217421 200.977692307639 -0.197044755580895
    vertex -1294.17821657026 197.741060212432 -0.197044755580185
  endloop
endfacet
facet normal -5.77673896298546e-014 -2.61262237899403e-013 -1.0
  outer loop
    vertex -1294.17821657026 197.741060212432 -0.197044755580185
    vertex -1300.71277217421 200.977692307639 -0.197044755580895
    vertex -1294.33805724627 198.126949740268 -0.197044755580263
  endloop
endfacet
facet normal -5.77673896298546e-014 -2.61262237899403e-013 -1.0
  outer loop
    vertex -1294.33805724627 198.126949740268 -0.197044755580263
    vertex -1300.71277217421 200.977692307639 -0.197044755580895
    vertex -1294.39257592421 198.541060212432 -0.197044755580372
  endloop
endfacet
facet normal -5.77673896298546e-014 -2.61262237899403e-013 -1.0
  outer loop
    vertex -1280.10987967421 196.215192307639 -0.197044755580508
    vertex -1292.79257592421 196.941060212432 -0.197044755580044
    vertex -1292.37846545204 196.99557889037 -0.197044755580081
  endloop
endfacet
facet normal -5.77673896298546e-014 -2.61262237899403e-013 -1.0
  outer loop
    vertex -1280.10987967421 196.215192307639 -0.197044755580508
    vertex -1292.37846545204 196.99557889037 -0.197044755580081
    vertex -1291.99257592421 197.155419566377 -0.197044755580145
  endloop
endfacet
facet normal -5.77673896298546e-014 -2.61262237899403e-013 -1.0
  outer loop
    vertex -1280.10987967421 196.215192307639 -0.197044755580508
    vertex -1291.99257592421 197.155419566377 -0.197044755580145
    vertex -1291.66120507431 197.409689362534 -0.197044755580234
  endloop
endfacet
facet normal -5.77673896298546e-014 -2.61262237899403e-013 -1.0
  outer loop
    vertex -1280.10987967421 196.215192307639 -0.197044755580508
    vertex -1291.66120507431 197.409689362534 -0.197044755580234
    vertex -1291.40693527815 197.741060212432 -0.19704475558032
  endloop
endfacet
facet normal -5.77673896298546e-014 -2.61262237899403e-013 -1.0
  outer loop
    vertex -1280.10987967421 196.215192307639 -0.197044755580508
    vertex -1291.40693527815 197.741060212432 -0.19704475558032
    vertex -1291.24709460215 198.126949740268 -0.197044755580444
  endloop
endfacet
facet normal -5.77673896298546e-014 -2.61262237899403e-013 -1.0
  outer loop
    vertex -1280.10987967421 196.215192307639 -0.197044755580508
    vertex -1291.24709460215 198.126949740268 -0.197044755580444
    vertex -1291.19257592421 198.541060212432 -0.197044755580552
  endloop
endfacet
facet normal -5.77673896298546e-014 -2.61262237899403e-013 -1.0
  outer loop
    vertex -1280.10987967421 196.215192307639 -0.197044755580508
    vertex -1291.19257592421 198.541060212432 -0.197044755580552
    vertex -1284.87237967421 200.977692307639 -0.197044755581572
  endloop
endfacet
facet normal -5.77673896298546e-014 -2.61262237899403e-013 -1.0
  outer loop
    vertex -1280.10987967421 196.215192307639 -0.197044755580508
    vertex -1284.87237967421 200.977692307639 -0.197044755581572
    vertex -1280.10987967421 229.552692307638 -0.197044755589218
  endloop
endfacet
facet normal -5.77673896298546e-014 -2.61262237899403e-013 -1.0
  outer loop
    vertex -1280.10987967421 196.215192307639 -0.197044755580508
    vertex -1280.10987967421 229.552692307638 -0.197044755589218
    vertex -1280.10987967421 224.679428117226 -0.1970447555879
  endloop
endfacet
facet normal -5.77673896298546e-014 -2.61262237899403e-013 -1.0
  outer loop
    vertex -1280.10987967421 196.215192307639 -0.197044755580508
    vertex -1280.10987967421 224.679428117226 -0.1970447555879
    vertex -1280.10987967421 218.329428117226 -0.197044755586241
  endloop
endfacet
facet normal -5.77673896298546e-014 -2.61262237899403e-013 -1.0
  outer loop
    vertex -1280.10987967421 196.215192307639 -0.197044755580508
    vertex -1280.10987967421 218.329428117226 -0.197044755586241
    vertex -1280.10987967421 207.216928117226 -0.197044755583338
  endloop
endfacet
facet normal -5.77673896298546e-014 -2.61262237899403e-013 -1.0
  outer loop
    vertex -1280.10987967421 196.215192307639 -0.197044755580508
    vertex -1280.10987967421 207.216928117226 -0.197044755583338
    vertex -1280.10987967421 200.866928117226 -0.197044755581678
  endloop
endfacet
facet normal -5.77673896298546e-014 -2.61262237899403e-013 -1.0
  outer loop
    vertex -1300.71277217421 224.790192307638 -0.197044755586936
    vertex -1292.79257592421 225.516060212432 -0.197044755587486
    vertex -1284.87237967421 224.790192307638 -0.197044755587703
  endloop
endfacet
facet normal -5.77673896298546e-014 -2.61262237899403e-013 -1.0
  outer loop
    vertex -1292.79257592421 225.516060212432 -0.197044755587486
    vertex -1300.71277217421 224.790192307638 -0.197044755586936
    vertex -1293.20668639637 225.57057889037 -0.197044755587478
  endloop
endfacet
facet normal -5.77673896298546e-014 -2.61262237899403e-013 -1.0
  outer loop
    vertex -1293.20668639637 225.57057889037 -0.197044755587478
    vertex -1300.71277217421 224.790192307638 -0.197044755586936
    vertex -1293.59257592421 225.730419566377 -0.197044755587498
  endloop
endfacet
facet normal -5.77673896298546e-014 -2.61262237899403e-013 -1.0
  outer loop
    vertex -1293.59257592421 225.730419566377 -0.197044755587498
    vertex -1300.71277217421 224.790192307638 -0.197044755586936
    vertex -1293.92394677411 225.984689362534 -0.197044755587541
  endloop
endfacet
facet normal -5.77673896298546e-014 -2.61262237899403e-013 -1.0
  outer loop
    vertex -1293.92394677411 225.984689362534 -0.197044755587541
    vertex -1300.71277217421 224.790192307638 -0.197044755586936
    vertex -1294.17821657026 226.316060212432 -0.197044755587628
  endloop
endfacet
facet normal -5.77673896298546e-014 -2.61262237899403e-013 -1.0
  outer loop
    vertex -1294.17821657026 226.316060212432 -0.197044755587628
    vertex -1300.71277217421 224.790192307638 -0.197044755586936
    vertex -1294.33805724627 226.701949740268 -0.197044755587706
  endloop
endfacet
facet normal -5.77673896298546e-014 -2.61262237899403e-013 -1.0
  outer loop
    vertex -1294.33805724627 226.701949740268 -0.197044755587706
    vertex -1300.71277217421 224.790192307638 -0.197044755586936
    vertex -1294.39257592421 227.116060212432 -0.197044755587814
  endloop
endfacet
facet normal -5.77673896298546e-014 -2.61262237899403e-013 -1.0
  outer loop
    vertex -1284.87237967421 224.790192307638 -0.197044755587703
    vertex -1292.79257592421 225.516060212432 -0.197044755587486
    vertex -1292.37846545204 225.57057889037 -0.197044755587523
  endloop
endfacet
facet normal -5.77673896298546e-014 -2.61262237899403e-013 -1.0
  outer loop
    vertex -1284.87237967421 224.790192307638 -0.197044755587703
    vertex -1292.37846545204 225.57057889037 -0.197044755587523
    vertex -1291.99257592421 225.730419566377 -0.197044755587588
  endloop
endfacet
facet normal -5.77673896298546e-014 -2.61262237899403e-013 -1.0
  outer loop
    vertex -1284.87237967421 224.790192307638 -0.197044755587703
    vertex -1291.99257592421 225.730419566377 -0.197044755587588
    vertex -1291.66120507431 225.984689362534 -0.197044755587677
  endloop
endfacet
facet normal -5.77673896298546e-014 -2.61262237899403e-013 -1.0
  outer loop
    vertex -1284.87237967421 224.790192307638 -0.197044755587703
    vertex -1291.66120507431 225.984689362534 -0.197044755587677
    vertex -1291.40693527815 226.316060212432 -0.197044755587764
  endloop
endfacet
facet normal -5.77673896298546e-014 -2.61262237899403e-013 -1.0
  outer loop
    vertex -1284.87237967421 224.790192307638 -0.197044755587703
    vertex -1291.40693527815 226.316060212432 -0.197044755587764
    vertex -1291.24709460215 226.701949740268 -0.197044755587887
  endloop
endfacet
facet normal -5.77673896298546e-014 -2.61262237899403e-013 -1.0
  outer loop
    vertex -1284.87237967421 224.790192307638 -0.197044755587703
    vertex -1291.24709460215 226.701949740268 -0.197044755587887
    vertex -1291.19257592421 227.116060212432 -0.197044755587995
  endloop
endfacet
facet normal -5.77673896298546e-014 -2.61262237899403e-013 -1.0
  outer loop
    vertex -1312.32305847861 207.216928117226 -0.197044755581488
    vertex -1305.47527217421 200.866928117226 -0.197044755580189
    vertex -1312.32305847861 200.866928117226 -0.197044755579828
  endloop
endfacet
facet normal -5.77673896298546e-014 -2.61262237899403e-013 -1.0
  outer loop
    vertex -1305.47527217421 200.866928117226 -0.197044755580189
    vertex -1312.32305847861 207.216928117226 -0.197044755581488
    vertex -1305.47527217421 207.216928117226 -0.197044755581849
  endloop
endfacet
facet normal -5.77673896298546e-014 -2.61262237899403e-013 -1.0
  outer loop
    vertex -1305.47527217421 200.866928117226 -0.197044755580189
    vertex -1305.47527217421 207.216928117226 -0.197044755581849
    vertex -1305.47527217421 196.215192307638 -0.19704475557902
  endloop
endfacet
facet normal -5.77673896298546e-014 -2.61262237899403e-013 -1.0
  outer loop
    vertex -1305.47527217421 224.679428117226 -0.197044755586411
    vertex -1312.32305847861 218.329428117226 -0.197044755584391
    vertex -1312.32305847861 224.679428117226 -0.19704475558605
  endloop
endfacet
facet normal -5.77673896298546e-014 -2.61262237899403e-013 -1.0
  outer loop
    vertex -1312.32305847861 218.329428117226 -0.197044755584391
    vertex -1305.47527217421 224.679428117226 -0.197044755586411
    vertex -1305.47527217421 218.329428117226 -0.197044755584752
  endloop
endfacet
facet normal -1.0 7.10542735761609e-015 5.77673896298527e-014
  outer loop
    vertex -1312.32305847861 200.866928117227 5.40608024442016
    vertex -1312.32305847861 207.216928117226 -0.197044755581488
    vertex -1312.32305847861 200.866928117226 -0.197044755579828
  endloop
endfacet
facet normal -1.0 7.10542735761609e-015 5.77673896298527e-014
  outer loop
    vertex -1312.32305847861 207.216928117226 -0.197044755581488
    vertex -1312.32305847861 200.866928117227 5.40608024442016
    vertex -1312.32305847861 207.216928117227 5.4060802444185
  endloop
endfacet
facet normal 1.26828737518742e-031 -1.0 2.61262237899403e-013
  outer loop
    vertex -1305.47527217421 200.866928117227 5.4060802444198
    vertex -1312.32305847861 200.866928117226 -0.197044755579828
    vertex -1305.47527217421 200.866928117226 -0.197044755580189
  endloop
endfacet
facet normal 1.26828737518742e-031 -1.0 2.61262237899403e-013
  outer loop
    vertex -1312.32305847861 200.866928117226 -0.197044755579828
    vertex -1305.47527217421 200.866928117227 5.4060802444198
    vertex -1312.32305847861 200.866928117227 5.40608024442016
  endloop
endfacet
facet normal 6.58891234555247e-015 -1.0 2.61262237899402e-013
  outer loop
    vertex -1305.47527217421 218.329428117227 5.40608024441524
    vertex -1312.32305847861 218.329428117226 -0.197044755584391
    vertex -1305.47527217421 218.329428117226 -0.197044755584752
  endloop
endfacet
facet normal 6.58891234555247e-015 -1.0 2.61262237899402e-013
  outer loop
    vertex -1312.32305847861 218.329428117226 -0.197044755584391
    vertex -1305.47527217421 218.329428117227 5.40608024441524
    vertex -1312.32305847861 218.329428117227 5.4060802444156
  endloop
endfacet
facet normal -1.0 -1.06581410363864e-014 5.77673896298574e-014
  outer loop
    vertex -1312.32305847861 218.329428117227 5.4060802444156
    vertex -1312.32305847861 224.679428117226 -0.19704475558605
    vertex -1312.32305847861 218.329428117226 -0.197044755584391
  endloop
endfacet
facet normal -1.0 -1.06581410363864e-014 5.77673896298574e-014
  outer loop
    vertex -1312.32305847861 224.679428117226 -0.19704475558605
    vertex -1312.32305847861 218.329428117227 5.4060802444156
    vertex -1312.32305847861 224.679428117227 5.40608024441394
  endloop
endfacet
facet normal -1.0 9.25857124873481e-015 5.77673896298522e-014
  outer loop
    vertex -1305.47527217421 224.679428117227 5.40608024441358
    vertex -1305.47527217421 229.552692307638 -0.197044755587729
    vertex -1305.47527217421 224.679428117226 -0.197044755586411
  endloop
endfacet
facet normal -1.0 9.25857124873481e-015 5.77673896298522e-014
  outer loop
    vertex -1305.47527217421 229.552692307638 -0.197044755587729
    vertex -1305.47527217421 224.679428117227 5.40608024441358
    vertex -1305.47527217421 224.679428117228 6.80295524441358
  endloop
endfacet
facet normal -1.0 9.25857124873481e-015 5.77673896298522e-014
  outer loop
    vertex -1305.47527217421 229.552692307638 -0.197044755587729
    vertex -1305.47527217421 224.679428117228 6.80295524441358
    vertex -1305.47527217421 229.55269230764 6.80295524441228
  endloop
endfacet
facet normal -0.866025403784432 0.500000000000011 -8.24300965638004e-014
  outer loop
    vertex -1291.40693527815 226.316060212434 6.80295524441225
    vertex -1291.24709460215 226.701949740268 -0.197044755587887
    vertex -1291.40693527815 226.316060212432 -0.197044755587764
  endloop
endfacet
facet normal -0.965925826289069 0.258819045102518 -1.38591072414941e-014
  outer loop
    vertex -1291.24709460215 226.701949740268 -0.197044755587887
    vertex -1291.40693527815 226.316060212434 6.80295524441225
    vertex -1291.24709460215 226.70194974027 6.8029552444121
  endloop
endfacet
facet normal 0.258819045102534 0.965925826289065 -2.66762544165089e-013
  outer loop
    vertex -1293.20668639637 225.57057889037 -0.197044755587478
    vertex -1292.79257592421 225.516060212434 6.8029552444125
    vertex -1292.79257592421 225.516060212432 -0.197044755587486
  endloop
endfacet
facet normal 2.40599967182457e-016 1.0 -2.61259831797855e-013
  outer loop
    vertex -1292.79257592421 225.516060212434 6.8029552444125
    vertex -1293.20668639637 225.57057889037 -0.197044755587478
    vertex -1293.20668639637 225.570578890371 6.80295524441253
  endloop
endfacet
facet normal 0.707106781186534 0.707106781186561 -2.24093586404391e-013
  outer loop
    vertex -1293.92394677411 225.984689362535 6.80295524441247
    vertex -1293.59257592421 225.730419566377 -0.197044755587498
    vertex -1293.92394677411 225.984689362534 -0.197044755587541
  endloop
endfacet
facet normal 0.500000000000024 0.866025403784425 -2.54085829993419e-013
  outer loop
    vertex -1293.59257592421 225.730419566377 -0.197044755587498
    vertex -1293.92394677411 225.984689362535 6.80295524441247
    vertex -1293.59257592421 225.730419566379 6.80295524441249
  endloop
endfacet
facet normal -0.707106781186535 0.70710678118656 -1.45383611027456e-013
  outer loop
    vertex -1291.66120507431 225.984689362535 6.80295524441233
    vertex -1291.40693527815 226.316060212432 -0.197044755587764
    vertex -1291.66120507431 225.984689362534 -0.197044755587677
  endloop
endfacet
facet normal -0.866025403784433 0.500000000000009 -8.24300965637999e-014
  outer loop
    vertex -1291.40693527815 226.316060212432 -0.197044755587764
    vertex -1291.66120507431 225.984689362535 6.80295524441233
    vertex -1291.40693527815 226.316060212434 6.80295524441225
  endloop
endfacet
facet normal -0.258819045102535 0.965925826289064 -2.37952693645881e-013
  outer loop
    vertex -1292.37846545204 196.99557889037 -0.197044755580081
    vertex -1291.99257592421 197.155419566379 6.80295524441986
    vertex -1291.99257592421 197.155419566377 -0.197044755580145
  endloop
endfacet
facet normal -0.500000000000024 0.866025403784425 -1.98429472657358e-013
  outer loop
    vertex -1291.99257592421 197.155419566379 6.80295524441986
    vertex -1292.37846545204 196.99557889037 -0.197044755580081
    vertex -1292.37846545204 196.995578890372 6.80295524441991
  endloop
endfacet
facet normal -1.0 -7.35166566390873e-015 5.56563573360597e-014
  outer loop
    vertex -1291.19257592421 227.116060212434 6.80295524441199
    vertex -1291.24709460215 227.530170684596 -0.197044755588103
    vertex -1291.19257592421 227.116060212432 -0.197044755587995
  endloop
endfacet
facet normal -0.965925826289073 -0.258819045102505 1.21378933137633e-013
  outer loop
    vertex -1291.24709460215 227.530170684596 -0.197044755588103
    vertex -1291.19257592421 227.116060212434 6.80295524441199
    vertex -1291.24709460215 227.530170684598 6.80295524441188
  endloop
endfacet
facet normal -0.866025403784442 -0.499999999999994 1.78829735234057e-013
  outer loop
    vertex -1291.40693527815 227.916060212434 6.80295524441183
    vertex -1291.66120507431 228.247431062331 -0.197044755588268
    vertex -1291.40693527815 227.916060212432 -0.197044755588181
  endloop
endfacet
facet normal -0.707106781186532 -0.707106781186563 2.24093586404392e-013
  outer loop
    vertex -1291.66120507431 228.247431062331 -0.197044755588268
    vertex -1291.40693527815 227.916060212434 6.80295524441183
    vertex -1291.66120507431 228.247431062332 6.80295524441174
  endloop
endfacet
facet normal 2.84838041233902e-015 -1.0 2.55575489911774e-013
  outer loop
    vertex -1284.87237967421 224.79019230764 6.80295524441228
    vertex -1300.71277217421 224.790192307638 -0.197044755586936
    vertex -1284.87237967421 224.790192307638 -0.197044755587703
  endloop
endfacet
facet normal 2.84838041233902e-015 -1.0 2.55575489911774e-013
  outer loop
    vertex -1300.71277217421 224.790192307638 -0.197044755586936
    vertex -1284.87237967421 224.79019230764 6.80295524441228
    vertex -1300.71277217421 224.79019230764 6.80295524441305
  endloop
endfacet
facet normal 0.965925826289069 -0.258819045102519 1.38591072414944e-014
  outer loop
    vertex -1294.33805724627 227.530170684596 -0.197044755587922
    vertex -1294.39257592421 227.116060212434 6.80295524441217
    vertex -1294.39257592421 227.116060212432 -0.197044755587814
  endloop
endfacet
facet normal 1.0 -3.20799956243287e-016 -5.56563573360577e-014
  outer loop
    vertex -1294.39257592421 227.116060212434 6.80295524441217
    vertex -1294.33805724627 227.530170684596 -0.197044755587922
    vertex -1294.33805724627 227.530170684598 6.80295524441206
  endloop
endfacet
facet normal -0.500000000000026 0.866025403784424 -1.98429472657358e-013
  outer loop
    vertex -1291.99257592421 225.730419566377 -0.197044755587588
    vertex -1291.66120507431 225.984689362535 6.80295524441233
    vertex -1291.66120507431 225.984689362534 -0.197044755587677
  endloop
endfacet
facet normal -0.707106781186535 0.70710678118656 -1.45383611027456e-013
  outer loop
    vertex -1291.66120507431 225.984689362535 6.80295524441233
    vertex -1291.99257592421 225.730419566377 -0.197044755587588
    vertex -1291.99257592421 225.730419566379 6.8029552444124
  endloop
endfacet
facet normal -0.258819045102535 0.965925826289064 -2.37952693645881e-013
  outer loop
    vertex -1292.37846545204 225.57057889037 -0.197044755587523
    vertex -1291.99257592421 225.730419566379 6.8029552444124
    vertex -1291.99257592421 225.730419566377 -0.197044755587588
  endloop
endfacet
facet normal -0.500000000000024 0.866025403784425 -1.98429472657358e-013
  outer loop
    vertex -1291.99257592421 225.730419566379 6.8029552444124
    vertex -1292.37846545204 225.57057889037 -0.197044755587523
    vertex -1292.37846545204 225.570578890371 6.80295524441249
  endloop
endfacet
facet normal -0.500000000000026 0.866025403784424 -1.98429472657358e-013
  outer loop
    vertex -1291.99257592421 197.155419566377 -0.197044755580145
    vertex -1291.66120507431 197.409689362536 6.80295524441975
    vertex -1291.66120507431 197.409689362534 -0.197044755580234
  endloop
endfacet
facet normal -0.707106781186532 0.707106781186564 -1.45383611027457e-013
  outer loop
    vertex -1291.66120507431 197.409689362536 6.80295524441975
    vertex -1291.99257592421 197.155419566377 -0.197044755580145
    vertex -1291.99257592421 197.155419566379 6.80295524441986
  endloop
endfacet
facet normal 0.707106781186533 -0.707106781186562 1.45383611027457e-013
  outer loop
    vertex -1293.92394677411 228.247431062331 -0.197044755588132
    vertex -1294.17821657026 227.916060212434 6.80295524441196
    vertex -1294.17821657026 227.916060212432 -0.197044755588046
  endloop
endfacet
facet normal 0.866025403784432 -0.500000000000011 8.24300965638005e-014
  outer loop
    vertex -1294.17821657026 227.916060212434 6.80295524441196
    vertex -1293.92394677411 228.247431062331 -0.197044755588132
    vertex -1293.92394677411 228.247431062332 6.80295524441188
  endloop
endfacet
facet normal 0.258819045102534 0.965925826289065 -2.66762544165089e-013
  outer loop
    vertex -1293.20668639637 196.99557889037 -0.197044755580035
    vertex -1292.79257592421 196.941060212434 6.80295524441997
    vertex -1292.79257592421 196.941060212432 -0.197044755580044
  endloop
endfacet
facet normal 2.40599967182473e-016 1.0 -2.61259831797855e-013
  outer loop
    vertex -1292.79257592421 196.941060212434 6.80295524441997
    vertex -1293.20668639637 196.99557889037 -0.197044755580035
    vertex -1293.20668639637 196.995578890372 6.80295524441995
  endloop
endfacet
facet normal -2.40599967182465e-016 1.0 -2.61259831797855e-013
  outer loop
    vertex -1292.79257592421 225.516060212432 -0.197044755587486
    vertex -1292.37846545204 225.570578890371 6.80295524441249
    vertex -1292.37846545204 225.57057889037 -0.197044755587523
  endloop
endfacet
facet normal -0.258819045102535 0.965925826289065 -2.37952693645881e-013
  outer loop
    vertex -1292.37846545204 225.570578890371 6.80295524441249
    vertex -1292.79257592421 225.516060212432 -0.197044755587486
    vertex -1292.79257592421 225.516060212434 6.8029552444125
  endloop
endfacet
facet normal -2.40599967182465e-016 1.0 -2.61259831797855e-013
  outer loop
    vertex -1292.79257592421 196.941060212432 -0.197044755580044
    vertex -1292.37846545204 196.995578890372 6.80295524441991
    vertex -1292.37846545204 196.99557889037 -0.197044755580081
  endloop
endfacet
facet normal -0.258819045102535 0.965925826289065 -2.37952693645881e-013
  outer loop
    vertex -1292.37846545204 196.995578890372 6.80295524441991
    vertex -1292.79257592421 196.941060212432 -0.197044755580044
    vertex -1292.79257592421 196.941060212434 6.80295524441997
  endloop
endfacet
facet normal 0.500000000000026 -0.866025403784424 1.98429472657358e-013
  outer loop
    vertex -1293.59257592421 228.501700858489 6.80295524441177
    vertex -1293.92394677411 228.247431062331 -0.197044755588132
    vertex -1293.59257592421 228.501700858487 -0.197044755588222
  endloop
endfacet
facet normal 0.707106781186533 -0.707106781186562 1.45383611027457e-013
  outer loop
    vertex -1293.92394677411 228.247431062331 -0.197044755588132
    vertex -1293.59257592421 228.501700858489 6.80295524441177
    vertex -1293.92394677411 228.247431062332 6.80295524441188
  endloop
endfacet
facet normal 0.866025403784433 -0.500000000000009 8.24300965637999e-014
  outer loop
    vertex -1294.17821657026 227.916060212432 -0.197044755588046
    vertex -1294.33805724627 227.530170684598 6.80295524441206
    vertex -1294.33805724627 227.530170684596 -0.197044755587922
  endloop
endfacet
facet normal 0.965925826289068 -0.258819045102521 1.38591072414949e-014
  outer loop
    vertex -1294.33805724627 227.530170684598 6.80295524441206
    vertex -1294.17821657026 227.916060212432 -0.197044755588046
    vertex -1294.17821657026 227.916060212434 6.80295524441196
  endloop
endfacet
facet normal -0.500000000000026 -0.866025403784424 2.54085829993419e-013
  outer loop
    vertex -1291.99257592421 228.501700858487 -0.197044755588312
    vertex -1292.37846545204 228.661541534496 6.80295524441168
    vertex -1292.37846545204 228.661541534495 -0.197044755588331
  endloop
endfacet
facet normal -0.258819045102535 -0.965925826289065 2.66762544165089e-013
  outer loop
    vertex -1292.37846545204 228.661541534496 6.80295524441168
    vertex -1291.99257592421 228.501700858487 -0.197044755588312
    vertex -1291.99257592421 228.501700858489 6.80295524441168
  endloop
endfacet
facet normal -0.965925826289071 -0.25881904510251 1.21378933137635e-013
  outer loop
    vertex -1291.24709460215 227.530170684598 6.80295524441188
    vertex -1291.40693527815 227.916060212432 -0.197044755588181
    vertex -1291.24709460215 227.530170684596 -0.197044755588103
  endloop
endfacet
facet normal -0.866025403784444 -0.499999999999991 1.78829735234056e-013
  outer loop
    vertex -1291.40693527815 227.916060212432 -0.197044755588181
    vertex -1291.24709460215 227.530170684598 6.80295524441188
    vertex -1291.40693527815 227.916060212434 6.80295524441183
  endloop
endfacet
facet normal -1.0 1.17339724058747e-026 4.55740865974287e-014
  outer loop
    vertex -1284.87237967421 200.97769230764 6.80295524441842
    vertex -1284.87237967421 224.790192307638 -0.197044755587703
    vertex -1284.87237967421 200.977692307639 -0.197044755581572
  endloop
endfacet
facet normal -1.0 1.17339724058747e-026 4.55740865974287e-014
  outer loop
    vertex -1284.87237967421 224.790192307638 -0.197044755587703
    vertex -1284.87237967421 200.97769230764 6.80295524441842
    vertex -1284.87237967421 224.79019230764 6.80295524441228
  endloop
endfacet
facet normal -0.965925826289068 0.258819045102522 -1.38591072414952e-014
  outer loop
    vertex -1291.24709460215 226.70194974027 6.8029552444121
    vertex -1291.19257592421 227.116060212432 -0.197044755587995
    vertex -1291.24709460215 226.701949740268 -0.197044755587887
  endloop
endfacet
facet normal -1.0 -6.72788797121339e-015 5.56563573360596e-014
  outer loop
    vertex -1291.19257592421 227.116060212432 -0.197044755587995
    vertex -1291.24709460215 226.70194974027 6.8029552444121
    vertex -1291.19257592421 227.116060212434 6.80295524441199
  endloop
endfacet
facet normal 2.42867521280289e-028 1.0 -2.55575489911774e-013
  outer loop
    vertex -1300.71277217421 200.977692307639 -0.197044755580895
    vertex -1284.87237967421 200.97769230764 6.80295524441842
    vertex -1284.87237967421 200.977692307639 -0.197044755581572
  endloop
endfacet
facet normal 2.42867521280289e-028 1.0 -2.55575489911774e-013
  outer loop
    vertex -1284.87237967421 200.97769230764 6.80295524441842
    vertex -1300.71277217421 200.977692307639 -0.197044755580895
    vertex -1300.71277217421 200.97769230764 6.80295524441909
  endloop
endfacet
facet normal 1.0 -1.15612666129643e-026 -4.55740865974287e-014
  outer loop
    vertex -1300.71277217421 224.790192307638 -0.197044755586936
    vertex -1300.71277217421 200.97769230764 6.80295524441909
    vertex -1300.71277217421 200.977692307639 -0.197044755580895
  endloop
endfacet
facet normal 1.0 -1.15612666129643e-026 -4.55740865974287e-014
  outer loop
    vertex -1300.71277217421 200.97769230764 6.80295524441909
    vertex -1300.71277217421 224.790192307638 -0.197044755586936
    vertex -1300.71277217421 224.79019230764 6.80295524441305
  endloop
endfacet
facet normal 0.500000000000026 0.866025403784424 -2.54085829993419e-013
  outer loop
    vertex -1293.59257592421 225.730419566379 6.80295524441249
    vertex -1293.20668639637 225.57057889037 -0.197044755587478
    vertex -1293.59257592421 225.730419566377 -0.197044755587498
  endloop
endfacet
facet normal 0.258819045102534 0.965925826289065 -2.66762544165089e-013
  outer loop
    vertex -1293.20668639637 225.57057889037 -0.197044755587478
    vertex -1293.59257592421 225.730419566379 6.80295524441249
    vertex -1293.20668639637 225.570578890371 6.80295524441253
  endloop
endfacet
facet normal 0.965925826289069 0.25881904510252 -1.21378933137637e-013
  outer loop
    vertex -1294.33805724627 226.701949740268 -0.197044755587706
    vertex -1294.17821657026 226.316060212434 6.80295524441238
    vertex -1294.17821657026 226.316060212432 -0.197044755587628
  endloop
endfacet
facet normal 0.866025403784432 0.500000000000011 -1.78829735234061e-013
  outer loop
    vertex -1294.17821657026 226.316060212434 6.80295524441238
    vertex -1294.33805724627 226.701949740268 -0.197044755587706
    vertex -1294.33805724627 226.70194974027 6.80295524441228
  endloop
endfacet
facet normal -0.258819045102535 -0.965925826289065 2.66762544165089e-013
  outer loop
    vertex -1292.37846545204 228.661541534496 6.80295524441168
    vertex -1292.79257592421 228.716060212432 -0.197044755588323
    vertex -1292.37846545204 228.661541534495 -0.197044755588331
  endloop
endfacet
facet normal -2.40599967182465e-016 -1.0 2.61259831797855e-013
  outer loop
    vertex -1292.79257592421 228.716060212432 -0.197044755588323
    vertex -1292.37846545204 228.661541534496 6.80295524441168
    vertex -1292.79257592421 228.716060212434 6.80295524441167
  endloop
endfacet
facet normal -0.707106781186532 -0.707106781186563 2.24093586404392e-013
  outer loop
    vertex -1291.66120507431 228.247431062331 -0.197044755588268
    vertex -1291.99257592421 228.501700858489 6.80295524441168
    vertex -1291.99257592421 228.501700858487 -0.197044755588312
  endloop
endfacet
facet normal -0.500000000000024 -0.866025403784425 2.54085829993419e-013
  outer loop
    vertex -1291.99257592421 228.501700858489 6.80295524441168
    vertex -1291.66120507431 228.247431062331 -0.197044755588268
    vertex -1291.66120507431 228.247431062332 6.80295524441174
  endloop
endfacet
facet normal 0.866025403784433 0.50000000000001 -1.7882973523406e-013
  outer loop
    vertex -1294.17821657026 226.316060212432 -0.197044755587628
    vertex -1293.92394677411 225.984689362535 6.80295524441247
    vertex -1293.92394677411 225.984689362534 -0.197044755587541
  endloop
endfacet
facet normal 0.707106781186534 0.707106781186561 -2.24093586404391e-013
  outer loop
    vertex -1293.92394677411 225.984689362535 6.80295524441247
    vertex -1294.17821657026 226.316060212432 -0.197044755587628
    vertex -1294.17821657026 226.316060212434 6.80295524441238
  endloop
endfacet
facet normal 2.40599967182457e-016 -1.0 2.61259831797855e-013
  outer loop
    vertex -1292.79257592421 228.716060212434 6.80295524441167
    vertex -1293.20668639637 228.661541534495 -0.197044755588286
    vertex -1292.79257592421 228.716060212432 -0.197044755588323
  endloop
endfacet
facet normal 0.258819045102535 -0.965925826289064 2.37952693645881e-013
  outer loop
    vertex -1293.20668639637 228.661541534495 -0.197044755588286
    vertex -1292.79257592421 228.716060212434 6.80295524441167
    vertex -1293.20668639637 228.661541534496 6.80295524441172
  endloop
endfacet
facet normal 0.258819045102535 -0.965925826289064 2.37952693645881e-013
  outer loop
    vertex -1293.20668639637 228.661541534496 6.80295524441172
    vertex -1293.59257592421 228.501700858487 -0.197044755588222
    vertex -1293.20668639637 228.661541534495 -0.197044755588286
  endloop
endfacet
facet normal 0.500000000000024 -0.866025403784425 1.98429472657358e-013
  outer loop
    vertex -1293.59257592421 228.501700858487 -0.197044755588222
    vertex -1293.20668639637 228.661541534496 6.80295524441172
    vertex -1293.59257592421 228.501700858489 6.80295524441177
  endloop
endfacet
facet normal 1.0 3.2079995624329e-016 -5.56563573360579e-014
  outer loop
    vertex -1294.39257592421 227.116060212432 -0.197044755587814
    vertex -1294.33805724627 226.70194974027 6.80295524441228
    vertex -1294.33805724627 226.701949740268 -0.197044755587706
  endloop
endfacet
facet normal 0.965925826289068 0.258819045102521 -1.21378933137637e-013
  outer loop
    vertex -1294.33805724627 226.70194974027 6.80295524441228
    vertex -1294.39257592421 227.116060212432 -0.197044755587814
    vertex -1294.39257592421 227.116060212434 6.80295524441217
  endloop
endfacet
facet normal 0.258819045102535 -0.965925826289065 2.37952693645881e-013
  outer loop
    vertex -1293.20668639637 200.086541534497 6.80295524441914
    vertex -1293.59257592421 199.926700858487 -0.197044755580778
    vertex -1293.20668639637 200.086541534495 -0.197044755580843
  endloop
endfacet
facet normal 0.500000000000024 -0.866025403784425 1.98429472657358e-013
  outer loop
    vertex -1293.59257592421 199.926700858487 -0.197044755580778
    vertex -1293.20668639637 200.086541534497 6.80295524441914
    vertex -1293.59257592421 199.926700858489 6.80295524441923
  endloop
endfacet
facet normal 0.70710678118653 0.707106781186565 -2.24093586404392e-013
  outer loop
    vertex -1293.92394677411 197.409689362536 6.80295524441989
    vertex -1293.59257592421 197.155419566377 -0.197044755580054
    vertex -1293.92394677411 197.409689362534 -0.197044755580098
  endloop
endfacet
facet normal 0.500000000000024 0.866025403784425 -2.54085829993419e-013
  outer loop
    vertex -1293.59257592421 197.155419566377 -0.197044755580054
    vertex -1293.92394677411 197.409689362536 6.80295524441989
    vertex -1293.59257592421 197.155419566379 6.80295524441996
  endloop
endfacet
facet normal 5.60057549371962e-014 2.61259831797855e-013 1.0
  outer loop
    vertex -1273.26209336981 200.866928117227 5.40608024441793
    vertex -1280.10987967421 207.216928117227 5.40608024441665
    vertex -1280.10987967421 200.866928117227 5.40608024441831
  endloop
endfacet
facet normal 5.60057549371962e-014 2.61259831797855e-013 1.0
  outer loop
    vertex -1280.10987967421 207.216928117227 5.40608024441665
    vertex -1273.26209336981 200.866928117227 5.40608024441793
    vertex -1273.26209336981 207.216928117227 5.40608024441627
  endloop
endfacet
facet normal 0.866025403784433 0.50000000000001 -1.7882973523406e-013
  outer loop
    vertex -1294.17821657026 197.741060212432 -0.197044755580185
    vertex -1293.92394677411 197.409689362536 6.80295524441989
    vertex -1293.92394677411 197.409689362534 -0.197044755580098
  endloop
endfacet
facet normal 0.70710678118653 0.707106781186565 -2.24093586404392e-013
  outer loop
    vertex -1293.92394677411 197.409689362536 6.80295524441989
    vertex -1294.17821657026 197.741060212432 -0.197044755580185
    vertex -1294.17821657026 197.741060212434 6.8029552444198
  endloop
endfacet
facet normal -1.0 -1.42108547151882e-014 5.27112987644235e-014
  outer loop
    vertex -1305.47527217421 218.329428117228 6.80295524441524
    vertex -1305.47527217421 224.679428117227 5.40608024441358
    vertex -1305.47527217421 218.329428117227 5.40608024441524
  endloop
endfacet
facet normal -1.0 -1.42108547151882e-014 5.27112987644235e-014
  outer loop
    vertex -1305.47527217421 224.679428117227 5.40608024441358
    vertex -1305.47527217421 218.329428117228 6.80295524441524
    vertex -1305.47527217421 224.679428117228 6.80295524441358
  endloop
endfacet
facet normal -0.258819045102534 -0.965925826289065 2.66762544165089e-013
  outer loop
    vertex -1292.37846545204 200.086541534497 6.8029552444191
    vertex -1292.79257592421 200.141060212432 -0.197044755580879
    vertex -1292.37846545204 200.086541534495 -0.197044755580888
  endloop
endfacet
facet normal -2.40599967182465e-016 -1.0 2.61259831797855e-013
  outer loop
    vertex -1292.79257592421 200.141060212432 -0.197044755580879
    vertex -1292.37846545204 200.086541534497 6.8029552444191
    vertex -1292.79257592421 200.141060212434 6.80295524441913
  endloop
endfacet
facet normal 5.27112987644199e-014 2.61259831797855e-013 1.0
  outer loop
    vertex -1305.47527217421 200.866928117227 5.4060802444198
    vertex -1312.32305847861 207.216928117227 5.4060802444185
    vertex -1312.32305847861 200.866928117227 5.40608024442016
  endloop
endfacet
facet normal 5.27112987644199e-014 2.61259831797855e-013 1.0
  outer loop
    vertex -1312.32305847861 207.216928117227 5.4060802444185
    vertex -1305.47527217421 200.866928117227 5.4060802444198
    vertex -1305.47527217421 207.216928117227 5.40608024441814
  endloop
endfacet
facet normal -1.0 7.10542735761477e-015 5.27112987644181e-014
  outer loop
    vertex -1305.47527217421 200.866928117228 6.8029552444198
    vertex -1305.47527217421 207.216928117227 5.40608024441814
    vertex -1305.47527217421 200.866928117227 5.4060802444198
  endloop
endfacet
facet normal -1.0 7.10542735761477e-015 5.27112987644181e-014
  outer loop
    vertex -1305.47527217421 207.216928117227 5.40608024441814
    vertex -1305.47527217421 200.866928117228 6.8029552444198
    vertex -1305.47527217421 207.216928117228 6.80295524441814
  endloop
endfacet
facet normal 0.866025403784433 -0.500000000000009 8.24300965637998e-014
  outer loop
    vertex -1294.17821657026 199.341060212432 -0.197044755580603
    vertex -1294.33805724627 198.955170684598 6.80295524441953
    vertex -1294.33805724627 198.955170684596 -0.19704475558048
  endloop
endfacet
facet normal 0.96592582628907 -0.258819045102516 1.38591072414935e-014
  outer loop
    vertex -1294.33805724627 198.955170684598 6.80295524441953
    vertex -1294.17821657026 199.341060212432 -0.197044755580603
    vertex -1294.17821657026 199.341060212434 6.80295524441938
  endloop
endfacet
facet normal 5.60057549371965e-014 2.61259831797855e-013 1.0
  outer loop
    vertex -1273.26209336981 218.329428117227 5.40608024441336
    vertex -1280.10987967421 224.679428117227 5.40608024441209
    vertex -1280.10987967421 218.329428117227 5.40608024441375
  endloop
endfacet
facet normal 5.60057549371965e-014 2.61259831797855e-013 1.0
  outer loop
    vertex -1280.10987967421 224.679428117227 5.40608024441209
    vertex -1273.26209336981 218.329428117227 5.40608024441336
    vertex -1273.26209336981 224.679428117227 5.40608024441171
  endloop
endfacet
facet normal -0.500000000000026 -0.866025403784424 2.54085829993418e-013
  outer loop
    vertex -1291.99257592421 199.926700858487 -0.197044755580869
    vertex -1292.37846545204 200.086541534497 6.8029552444191
    vertex -1292.37846545204 200.086541534495 -0.197044755580888
  endloop
endfacet
facet normal -0.258819045102534 -0.965925826289065 2.66762544165089e-013
  outer loop
    vertex -1292.37846545204 200.086541534497 6.8029552444191
    vertex -1291.99257592421 199.926700858487 -0.197044755580869
    vertex -1291.99257592421 199.926700858489 6.80295524441914
  endloop
endfacet
facet normal 1.0 2.40599967182468e-016 -5.56563573360579e-014
  outer loop
    vertex -1294.39257592421 198.541060212432 -0.197044755580372
    vertex -1294.33805724627 198.12694974027 6.80295524441975
    vertex -1294.33805724627 198.126949740268 -0.197044755580263
  endloop
endfacet
facet normal 0.96592582628907 0.258819045102516 -1.21378933137636e-013
  outer loop
    vertex -1294.33805724627 198.12694974027 6.80295524441975
    vertex -1294.39257592421 198.541060212432 -0.197044755580372
    vertex -1294.39257592421 198.541060212434 6.80295524441964
  endloop
endfacet
facet normal 0.707106781186533 -0.707106781186562 1.45383611027457e-013
  outer loop
    vertex -1293.92394677411 199.672431062331 -0.19704475558069
    vertex -1294.17821657026 199.341060212434 6.80295524441938
    vertex -1294.17821657026 199.341060212432 -0.197044755580603
  endloop
endfacet
facet normal 0.866025403784434 -0.500000000000007 8.24300965637993e-014
  outer loop
    vertex -1294.17821657026 199.341060212434 6.80295524441938
    vertex -1293.92394677411 199.672431062331 -0.19704475558069
    vertex -1293.92394677411 199.672431062333 6.8029552444193
  endloop
endfacet
facet normal -0.707106781186532 -0.707106781186563 2.24093586404392e-013
  outer loop
    vertex -1291.66120507431 199.672431062331 -0.197044755580825
    vertex -1291.99257592421 199.926700858489 6.80295524441914
    vertex -1291.99257592421 199.926700858487 -0.197044755580869
  endloop
endfacet
facet normal -0.500000000000024 -0.866025403784425 2.54085829993419e-013
  outer loop
    vertex -1291.99257592421 199.926700858489 6.80295524441914
    vertex -1291.66120507431 199.672431062331 -0.197044755580825
    vertex -1291.66120507431 199.672431062333 6.80295524441916
  endloop
endfacet
facet normal -0.866025403784445 -0.49999999999999 1.78829735234056e-013
  outer loop
    vertex -1291.40693527815 199.341060212434 6.80295524441925
    vertex -1291.66120507431 199.672431062331 -0.197044755580825
    vertex -1291.40693527815 199.341060212432 -0.197044755580738
  endloop
endfacet
facet normal -0.707106781186532 -0.707106781186563 2.24093586404392e-013
  outer loop
    vertex -1291.66120507431 199.672431062331 -0.197044755580825
    vertex -1291.40693527815 199.341060212434 6.80295524441925
    vertex -1291.66120507431 199.672431062333 6.80295524441916
  endloop
endfacet
facet normal 1.0 -1.46320541146038e-026 -5.60057549371962e-014
  outer loop
    vertex -1280.10987967421 207.216928117227 5.40608024441665
    vertex -1280.10987967421 200.866928117228 6.80295524441831
    vertex -1280.10987967421 200.866928117227 5.40608024441831
  endloop
endfacet
facet normal 1.0 -1.46320541146038e-026 -5.60057549371962e-014
  outer loop
    vertex -1280.10987967421 200.866928117228 6.80295524441831
    vertex -1280.10987967421 207.216928117227 5.40608024441665
    vertex -1280.10987967421 207.216928117228 6.80295524441665
  endloop
endfacet
facet normal 5.27112987644198e-014 2.61259831797856e-013 1.0
  outer loop
    vertex -1305.47527217421 218.329428117227 5.40608024441524
    vertex -1312.32305847861 224.679428117227 5.40608024441394
    vertex -1312.32305847861 218.329428117227 5.4060802444156
  endloop
endfacet
facet normal 5.27112987644198e-014 2.61259831797856e-013 1.0
  outer loop
    vertex -1312.32305847861 224.679428117227 5.40608024441394
    vertex -1305.47527217421 218.329428117227 5.40608024441524
    vertex -1305.47527217421 224.679428117227 5.40608024441358
  endloop
endfacet
facet normal -1.0 -7.20908790557839e-015 5.56563573360597e-014
  outer loop
    vertex -1291.19257592421 198.541060212434 6.80295524441946
    vertex -1291.24709460215 198.955170684596 -0.19704475558066
    vertex -1291.19257592421 198.541060212432 -0.197044755580552
  endloop
endfacet
facet normal -0.965925826289072 -0.258819045102505 1.21378933137634e-013
  outer loop
    vertex -1291.24709460215 198.955170684596 -0.19704475558066
    vertex -1291.19257592421 198.541060212434 6.80295524441946
    vertex -1291.24709460215 198.955170684598 6.80295524441935
  endloop
endfacet
facet normal 0.500000000000026 -0.866025403784424 1.98429472657358e-013
  outer loop
    vertex -1293.59257592421 199.926700858489 6.80295524441923
    vertex -1293.92394677411 199.672431062331 -0.19704475558069
    vertex -1293.59257592421 199.926700858487 -0.197044755580778
  endloop
endfacet
facet normal 0.707106781186533 -0.707106781186562 1.45383611027457e-013
  outer loop
    vertex -1293.92394677411 199.672431062331 -0.19704475558069
    vertex -1293.59257592421 199.926700858489 6.80295524441923
    vertex -1293.92394677411 199.672431062333 6.8029552444193
  endloop
endfacet
facet normal 0.500000000000026 0.866025403784424 -2.54085829993419e-013
  outer loop
    vertex -1293.59257592421 197.155419566379 6.80295524441996
    vertex -1293.20668639637 196.99557889037 -0.197044755580035
    vertex -1293.59257592421 197.155419566377 -0.197044755580054
  endloop
endfacet
facet normal 0.258819045102534 0.965925826289065 -2.66762544165089e-013
  outer loop
    vertex -1293.20668639637 196.99557889037 -0.197044755580035
    vertex -1293.59257592421 197.155419566379 6.80295524441996
    vertex -1293.20668639637 196.995578890372 6.80295524441995
  endloop
endfacet
facet normal 0.965925826289068 0.25881904510252 -1.21378933137637e-013
  outer loop
    vertex -1294.33805724627 198.126949740268 -0.197044755580263
    vertex -1294.17821657026 197.741060212434 6.8029552444198
    vertex -1294.17821657026 197.741060212432 -0.197044755580185
  endloop
endfacet
facet normal 0.866025403784435 0.500000000000007 -1.7882973523406e-013
  outer loop
    vertex -1294.17821657026 197.741060212434 6.8029552444198
    vertex -1294.33805724627 198.126949740268 -0.197044755580263
    vertex -1294.33805724627 198.12694974027 6.80295524441975
  endloop
endfacet
facet normal 0.965925826289069 -0.25881904510252 1.38591072414946e-014
  outer loop
    vertex -1294.33805724627 198.955170684596 -0.19704475558048
    vertex -1294.39257592421 198.541060212434 6.80295524441964
    vertex -1294.39257592421 198.541060212432 -0.197044755580372
  endloop
endfacet
facet normal 1.0 -1.78222197912937e-016 -5.56563573360578e-014
  outer loop
    vertex -1294.39257592421 198.541060212434 6.80295524441964
    vertex -1294.33805724627 198.955170684596 -0.19704475558048
    vertex -1294.33805724627 198.955170684598 6.80295524441953
  endloop
endfacet
facet normal -0.965925826289069 0.258819045102517 -1.38591072414938e-014
  outer loop
    vertex -1291.24709460215 198.12694974027 6.80295524441957
    vertex -1291.19257592421 198.541060212432 -0.197044755580552
    vertex -1291.24709460215 198.126949740268 -0.197044755580444
  endloop
endfacet
facet normal -1.0 -6.79917685037857e-015 5.56563573360596e-014
  outer loop
    vertex -1291.19257592421 198.541060212432 -0.197044755580552
    vertex -1291.24709460215 198.12694974027 6.80295524441957
    vertex -1291.19257592421 198.541060212434 6.80295524441946
  endloop
endfacet
facet normal 1.0 -7.10542735761563e-015 -5.60057549371947e-014
  outer loop
    vertex -1280.10987967421 224.679428117227 5.40608024441209
    vertex -1280.10987967421 218.329428117228 6.80295524441375
    vertex -1280.10987967421 218.329428117227 5.40608024441375
  endloop
endfacet
facet normal 1.0 -7.10542735761563e-015 -5.60057549371947e-014
  outer loop
    vertex -1280.10987967421 218.329428117228 6.80295524441375
    vertex -1280.10987967421 224.679428117227 5.40608024441209
    vertex -1280.10987967421 224.679428117228 6.80295524441209
  endloop
endfacet
facet normal -0.866025403784434 0.500000000000007 -8.24300965637993e-014
  outer loop
    vertex -1291.40693527815 197.741060212434 6.80295524441967
    vertex -1291.24709460215 198.126949740268 -0.197044755580444
    vertex -1291.40693527815 197.741060212432 -0.19704475558032
  endloop
endfacet
facet normal -0.965925826289069 0.258819045102519 -1.38591072414942e-014
  outer loop
    vertex -1291.24709460215 198.126949740268 -0.197044755580444
    vertex -1291.40693527815 197.741060212434 6.80295524441967
    vertex -1291.24709460215 198.12694974027 6.80295524441957
  endloop
endfacet
facet normal -0.965925826289073 -0.258819045102505 1.21378933137633e-013
  outer loop
    vertex -1291.24709460215 198.955170684598 6.80295524441935
    vertex -1291.40693527815 199.341060212432 -0.197044755580738
    vertex -1291.24709460215 198.955170684596 -0.19704475558066
  endloop
endfacet
facet normal -0.866025403784444 -0.499999999999991 1.78829735234056e-013
  outer loop
    vertex -1291.40693527815 199.341060212432 -0.197044755580738
    vertex -1291.24709460215 198.955170684598 6.80295524441935
    vertex -1291.40693527815 199.341060212434 6.80295524441925
  endloop
endfacet
facet normal -0.707106781186532 0.707106781186564 -1.45383611027457e-013
  outer loop
    vertex -1291.66120507431 197.409689362536 6.80295524441975
    vertex -1291.40693527815 197.741060212432 -0.19704475558032
    vertex -1291.66120507431 197.409689362534 -0.197044755580234
  endloop
endfacet
facet normal -0.866025403784433 0.500000000000009 -8.24300965637999e-014
  outer loop
    vertex -1291.40693527815 197.741060212432 -0.19704475558032
    vertex -1291.66120507431 197.409689362536 6.80295524441975
    vertex -1291.40693527815 197.741060212434 6.80295524441967
  endloop
endfacet
facet normal 5.86997541151902e-014 2.61263529744565e-013 1.0
  outer loop
    vertex -1300.71277217421 224.79019230764 6.80295524441305
    vertex -1294.33805724627 226.70194974027 6.80295524441228
    vertex -1294.39257592421 227.116060212434 6.80295524441217
  endloop
endfacet
facet normal 5.86997541151902e-014 2.61263529744565e-013 1.0
  outer loop
    vertex -1294.33805724627 226.70194974027 6.80295524441228
    vertex -1300.71277217421 224.79019230764 6.80295524441305
    vertex -1294.17821657026 226.316060212434 6.80295524441238
  endloop
endfacet
facet normal 5.86997541151902e-014 2.61263529744565e-013 1.0
  outer loop
    vertex -1294.17821657026 226.316060212434 6.80295524441238
    vertex -1300.71277217421 224.79019230764 6.80295524441305
    vertex -1293.92394677411 225.984689362535 6.80295524441247
  endloop
endfacet
facet normal 5.86997541151902e-014 2.61263529744565e-013 1.0
  outer loop
    vertex -1293.92394677411 225.984689362535 6.80295524441247
    vertex -1300.71277217421 224.79019230764 6.80295524441305
    vertex -1293.59257592421 225.730419566379 6.80295524441249
  endloop
endfacet
facet normal 5.86997541151902e-014 2.61263529744565e-013 1.0
  outer loop
    vertex -1293.59257592421 225.730419566379 6.80295524441249
    vertex -1300.71277217421 224.79019230764 6.80295524441305
    vertex -1293.20668639637 225.570578890371 6.80295524441253
  endloop
endfacet
facet normal 5.86997541151902e-014 2.61263529744565e-013 1.0
  outer loop
    vertex -1293.20668639637 225.570578890371 6.80295524441253
    vertex -1300.71277217421 224.79019230764 6.80295524441305
    vertex -1292.79257592421 225.516060212434 6.8029552444125
  endloop
endfacet
facet normal 5.86997541151902e-014 2.61263529744565e-013 1.0
  outer loop
    vertex -1292.79257592421 225.516060212434 6.8029552444125
    vertex -1300.71277217421 224.79019230764 6.80295524441305
    vertex -1284.87237967421 224.79019230764 6.80295524441228
  endloop
endfacet
facet normal 5.86997541151902e-014 2.61263529744565e-013 1.0
  outer loop
    vertex -1292.79257592421 225.516060212434 6.8029552444125
    vertex -1284.87237967421 224.79019230764 6.80295524441228
    vertex -1292.37846545204 225.570578890371 6.80295524441249
  endloop
endfacet
facet normal 5.86997541151902e-014 2.61263529744565e-013 1.0
  outer loop
    vertex -1292.37846545204 225.570578890371 6.80295524441249
    vertex -1284.87237967421 224.79019230764 6.80295524441228
    vertex -1291.99257592421 225.730419566379 6.8029552444124
  endloop
endfacet
facet normal 5.86997541151902e-014 2.61263529744565e-013 1.0
  outer loop
    vertex -1291.99257592421 225.730419566379 6.8029552444124
    vertex -1284.87237967421 224.79019230764 6.80295524441228
    vertex -1291.66120507431 225.984689362535 6.80295524441233
  endloop
endfacet
facet normal 5.86997541151902e-014 2.61263529744565e-013 1.0
  outer loop
    vertex -1291.66120507431 225.984689362535 6.80295524441233
    vertex -1284.87237967421 224.79019230764 6.80295524441228
    vertex -1291.40693527815 226.316060212434 6.80295524441225
  endloop
endfacet
facet normal 5.86997541151902e-014 2.61263529744565e-013 1.0
  outer loop
    vertex -1291.40693527815 226.316060212434 6.80295524441225
    vertex -1284.87237967421 224.79019230764 6.80295524441228
    vertex -1291.24709460215 226.70194974027 6.8029552444121
  endloop
endfacet
facet normal 5.86997541151902e-014 2.61263529744565e-013 1.0
  outer loop
    vertex -1291.24709460215 226.70194974027 6.8029552444121
    vertex -1284.87237967421 224.79019230764 6.80295524441228
    vertex -1291.19257592421 227.116060212434 6.80295524441199
  endloop
endfacet
facet normal 5.86997541151902e-014 2.61263529744565e-013 1.0
  outer loop
    vertex -1305.47527217421 196.21519230764 6.80295524442099
    vertex -1293.20668639637 196.995578890372 6.80295524441995
    vertex -1305.47527217421 200.866928117228 6.8029552444198
  endloop
endfacet
facet normal 5.86997541151902e-014 2.61263529744565e-013 1.0
  outer loop
    vertex -1293.20668639637 196.995578890372 6.80295524441995
    vertex -1305.47527217421 196.21519230764 6.80295524442099
    vertex -1292.79257592421 196.941060212434 6.80295524441997
  endloop
endfacet
facet normal 5.86997541151902e-014 2.61263529744565e-013 1.0
  outer loop
    vertex -1292.79257592421 196.941060212434 6.80295524441997
    vertex -1305.47527217421 196.21519230764 6.80295524442099
    vertex -1280.10987967421 196.215192307641 6.8029552444195
  endloop
endfacet
facet normal 5.86997541151902e-014 2.61263529744565e-013 1.0
  outer loop
    vertex -1305.47527217421 200.866928117228 6.8029552444198
    vertex -1293.20668639637 196.995578890372 6.80295524441995
    vertex -1293.59257592421 197.155419566379 6.80295524441996
  endloop
endfacet
facet normal 5.86997541151902e-014 2.61263529744565e-013 1.0
  outer loop
    vertex -1305.47527217421 200.866928117228 6.8029552444198
    vertex -1293.59257592421 197.155419566379 6.80295524441996
    vertex -1300.71277217421 200.97769230764 6.80295524441909
  endloop
endfacet
facet normal 5.86997541151902e-014 2.61263529744565e-013 1.0
  outer loop
    vertex -1305.47527217421 200.866928117228 6.8029552444198
    vertex -1300.71277217421 200.97769230764 6.80295524441909
    vertex -1305.47527217421 207.216928117228 6.80295524441814
  endloop
endfacet
facet normal 5.86997541151902e-014 2.61263529744565e-013 1.0
  outer loop
    vertex -1305.47527217421 207.216928117228 6.80295524441814
    vertex -1300.71277217421 200.97769230764 6.80295524441909
    vertex -1305.47527217421 218.329428117228 6.80295524441524
  endloop
endfacet
facet normal 5.86997541151902e-014 2.61263529744565e-013 1.0
  outer loop
    vertex -1300.71277217421 200.97769230764 6.80295524441909
    vertex -1293.59257592421 197.155419566379 6.80295524441996
    vertex -1293.92394677411 197.409689362536 6.80295524441989
  endloop
endfacet
facet normal 5.86997541151902e-014 2.61263529744565e-013 1.0
  outer loop
    vertex -1300.71277217421 200.97769230764 6.80295524441909
    vertex -1293.92394677411 197.409689362536 6.80295524441989
    vertex -1294.17821657026 197.741060212434 6.8029552444198
  endloop
endfacet
facet normal 5.86997541151902e-014 2.61263529744565e-013 1.0
  outer loop
    vertex -1300.71277217421 200.97769230764 6.80295524441909
    vertex -1294.17821657026 197.741060212434 6.8029552444198
    vertex -1294.33805724627 198.12694974027 6.80295524441975
  endloop
endfacet
facet normal 5.86997541151902e-014 2.61263529744565e-013 1.0
  outer loop
    vertex -1300.71277217421 200.97769230764 6.80295524441909
    vertex -1294.33805724627 198.12694974027 6.80295524441975
    vertex -1294.39257592421 198.541060212434 6.80295524441964
  endloop
endfacet
facet normal 5.86997541151902e-014 2.61263529744565e-013 1.0
  outer loop
    vertex -1292.79257592421 196.941060212434 6.80295524441997
    vertex -1280.10987967421 196.215192307641 6.8029552444195
    vertex -1292.37846545204 196.995578890372 6.80295524441991
  endloop
endfacet
facet normal 5.86997541151902e-014 2.61263529744565e-013 1.0
  outer loop
    vertex -1292.37846545204 196.995578890372 6.80295524441991
    vertex -1280.10987967421 196.215192307641 6.8029552444195
    vertex -1291.99257592421 197.155419566379 6.80295524441986
  endloop
endfacet
facet normal 5.86997541151902e-014 2.61263529744565e-013 1.0
  outer loop
    vertex -1291.99257592421 197.155419566379 6.80295524441986
    vertex -1280.10987967421 196.215192307641 6.8029552444195
    vertex -1291.66120507431 197.409689362536 6.80295524441975
  endloop
endfacet
facet normal 5.86997541151902e-014 2.61263529744565e-013 1.0
  outer loop
    vertex -1291.66120507431 197.409689362536 6.80295524441975
    vertex -1280.10987967421 196.215192307641 6.8029552444195
    vertex -1291.40693527815 197.741060212434 6.80295524441967
  endloop
endfacet
facet normal 5.86997541151902e-014 2.61263529744565e-013 1.0
  outer loop
    vertex -1291.40693527815 197.741060212434 6.80295524441967
    vertex -1280.10987967421 196.215192307641 6.8029552444195
    vertex -1291.24709460215 198.12694974027 6.80295524441957
  endloop
endfacet
facet normal 5.86997541151902e-014 2.61263529744565e-013 1.0
  outer loop
    vertex -1291.24709460215 198.12694974027 6.80295524441957
    vertex -1280.10987967421 196.215192307641 6.8029552444195
    vertex -1291.19257592421 198.541060212434 6.80295524441946
  endloop
endfacet
facet normal 5.86997541151902e-014 2.61263529744565e-013 1.0
  outer loop
    vertex -1291.19257592421 198.541060212434 6.80295524441946
    vertex -1280.10987967421 196.215192307641 6.8029552444195
    vertex -1284.87237967421 200.97769230764 6.80295524441842
  endloop
endfacet
facet normal 5.86997541151902e-014 2.61263529744565e-013 1.0
  outer loop
    vertex -1284.87237967421 200.97769230764 6.80295524441842
    vertex -1280.10987967421 196.215192307641 6.8029552444195
    vertex -1284.87237967421 224.79019230764 6.80295524441228
  endloop
endfacet
facet normal 5.86997541151902e-014 2.61263529744565e-013 1.0
  outer loop
    vertex -1284.87237967421 224.79019230764 6.80295524441228
    vertex -1280.10987967421 196.215192307641 6.8029552444195
    vertex -1280.10987967421 229.55269230764 6.80295524441079
  endloop
endfacet
facet normal 5.86997541151902e-014 2.61263529744565e-013 1.0
  outer loop
    vertex -1280.10987967421 229.55269230764 6.80295524441079
    vertex -1280.10987967421 196.215192307641 6.8029552444195
    vertex -1280.10987967421 224.679428117228 6.80295524441209
  endloop
endfacet
facet normal 5.86997541151902e-014 2.61263529744565e-013 1.0
  outer loop
    vertex -1280.10987967421 224.679428117228 6.80295524441209
    vertex -1280.10987967421 196.215192307641 6.8029552444195
    vertex -1280.10987967421 200.866928117228 6.80295524441831
  endloop
endfacet
facet normal 5.86997541151902e-014 2.61263529744565e-013 1.0
  outer loop
    vertex -1280.10987967421 224.679428117228 6.80295524441209
    vertex -1280.10987967421 200.866928117228 6.80295524441831
    vertex -1280.10987967421 207.216928117228 6.80295524441665
  endloop
endfacet
facet normal 5.86997541151902e-014 2.61263529744565e-013 1.0
  outer loop
    vertex -1280.10987967421 224.679428117228 6.80295524441209
    vertex -1280.10987967421 207.216928117228 6.80295524441665
    vertex -1280.10987967421 218.329428117228 6.80295524441375
  endloop
endfacet
facet normal 5.86997541151902e-014 2.61263529744565e-013 1.0
  outer loop
    vertex -1305.47527217421 218.329428117228 6.80295524441524
    vertex -1305.47527217421 229.55269230764 6.80295524441228
    vertex -1305.47527217421 224.679428117228 6.80295524441358
  endloop
endfacet
facet normal 5.86997541151902e-014 2.61263529744565e-013 1.0
  outer loop
    vertex -1305.47527217421 229.55269230764 6.80295524441228
    vertex -1305.47527217421 218.329428117228 6.80295524441524
    vertex -1300.71277217421 224.79019230764 6.80295524441305
  endloop
endfacet
facet normal 5.86997541151902e-014 2.61263529744565e-013 1.0
  outer loop
    vertex -1305.47527217421 229.55269230764 6.80295524441228
    vertex -1300.71277217421 224.79019230764 6.80295524441305
    vertex -1293.59257592421 228.501700858489 6.80295524441177
  endloop
endfacet
facet normal 5.86997541151902e-014 2.61263529744565e-013 1.0
  outer loop
    vertex -1305.47527217421 229.55269230764 6.80295524441228
    vertex -1293.59257592421 228.501700858489 6.80295524441177
    vertex -1293.20668639637 228.661541534496 6.80295524441172
  endloop
endfacet
facet normal 5.86997541151902e-014 2.61263529744565e-013 1.0
  outer loop
    vertex -1305.47527217421 229.55269230764 6.80295524441228
    vertex -1293.20668639637 228.661541534496 6.80295524441172
    vertex -1292.79257592421 228.716060212434 6.80295524441167
  endloop
endfacet
facet normal 5.86997541151902e-014 2.61263529744565e-013 1.0
  outer loop
    vertex -1305.47527217421 229.55269230764 6.80295524441228
    vertex -1292.79257592421 228.716060212434 6.80295524441167
    vertex -1280.10987967421 229.55269230764 6.80295524441079
  endloop
endfacet
facet normal 5.86997541151902e-014 2.61263529744565e-013 1.0
  outer loop
    vertex -1300.71277217421 224.79019230764 6.80295524441305
    vertex -1305.47527217421 218.329428117228 6.80295524441524
    vertex -1300.71277217421 200.97769230764 6.80295524441909
  endloop
endfacet
facet normal 5.86997541151902e-014 2.61263529744565e-013 1.0
  outer loop
    vertex -1293.59257592421 228.501700858489 6.80295524441177
    vertex -1300.71277217421 224.79019230764 6.80295524441305
    vertex -1293.92394677411 228.247431062332 6.80295524441188
  endloop
endfacet
facet normal 5.86997541151902e-014 2.61263529744565e-013 1.0
  outer loop
    vertex -1293.92394677411 228.247431062332 6.80295524441188
    vertex -1300.71277217421 224.79019230764 6.80295524441305
    vertex -1294.17821657026 227.916060212434 6.80295524441196
  endloop
endfacet
facet normal 5.86997541151902e-014 2.61263529744565e-013 1.0
  outer loop
    vertex -1294.17821657026 227.916060212434 6.80295524441196
    vertex -1300.71277217421 224.79019230764 6.80295524441305
    vertex -1294.33805724627 227.530170684598 6.80295524441206
  endloop
endfacet
facet normal 5.86997541151902e-014 2.61263529744565e-013 1.0
  outer loop
    vertex -1294.33805724627 227.530170684598 6.80295524441206
    vertex -1300.71277217421 224.79019230764 6.80295524441305
    vertex -1294.39257592421 227.116060212434 6.80295524441217
  endloop
endfacet
facet normal 5.86997541151902e-014 2.61263529744565e-013 1.0
  outer loop
    vertex -1280.10987967421 229.55269230764 6.80295524441079
    vertex -1292.79257592421 228.716060212434 6.80295524441167
    vertex -1292.37846545204 228.661541534496 6.80295524441168
  endloop
endfacet
facet normal 5.86997541151902e-014 2.61263529744565e-013 1.0
  outer loop
    vertex -1280.10987967421 229.55269230764 6.80295524441079
    vertex -1292.37846545204 228.661541534496 6.80295524441168
    vertex -1291.99257592421 228.501700858489 6.80295524441168
  endloop
endfacet
facet normal 5.86997541151902e-014 2.61263529744565e-013 1.0
  outer loop
    vertex -1280.10987967421 229.55269230764 6.80295524441079
    vertex -1291.99257592421 228.501700858489 6.80295524441168
    vertex -1291.66120507431 228.247431062332 6.80295524441174
  endloop
endfacet
facet normal 5.86997541151902e-014 2.61263529744565e-013 1.0
  outer loop
    vertex -1280.10987967421 229.55269230764 6.80295524441079
    vertex -1291.66120507431 228.247431062332 6.80295524441174
    vertex -1291.40693527815 227.916060212434 6.80295524441183
  endloop
endfacet
facet normal 5.86997541151902e-014 2.61263529744565e-013 1.0
  outer loop
    vertex -1280.10987967421 229.55269230764 6.80295524441079
    vertex -1291.40693527815 227.916060212434 6.80295524441183
    vertex -1291.24709460215 227.530170684598 6.80295524441188
  endloop
endfacet
facet normal 5.86997541151902e-014 2.61263529744565e-013 1.0
  outer loop
    vertex -1280.10987967421 229.55269230764 6.80295524441079
    vertex -1291.24709460215 227.530170684598 6.80295524441188
    vertex -1291.19257592421 227.116060212434 6.80295524441199
  endloop
endfacet
facet normal 5.86997541151902e-014 2.61263529744565e-013 1.0
  outer loop
    vertex -1280.10987967421 229.55269230764 6.80295524441079
    vertex -1291.19257592421 227.116060212434 6.80295524441199
    vertex -1284.87237967421 224.79019230764 6.80295524441228
  endloop
endfacet
facet normal 5.86997541151902e-014 2.61263529744565e-013 1.0
  outer loop
    vertex -1300.71277217421 200.97769230764 6.80295524441909
    vertex -1292.79257592421 200.141060212434 6.80295524441913
    vertex -1284.87237967421 200.97769230764 6.80295524441842
  endloop
endfacet
facet normal 5.86997541151902e-014 2.61263529744565e-013 1.0
  outer loop
    vertex -1292.79257592421 200.141060212434 6.80295524441913
    vertex -1300.71277217421 200.97769230764 6.80295524441909
    vertex -1293.20668639637 200.086541534497 6.80295524441914
  endloop
endfacet
facet normal 5.86997541151902e-014 2.61263529744565e-013 1.0
  outer loop
    vertex -1293.20668639637 200.086541534497 6.80295524441914
    vertex -1300.71277217421 200.97769230764 6.80295524441909
    vertex -1293.59257592421 199.926700858489 6.80295524441923
  endloop
endfacet
facet normal 5.86997541151902e-014 2.61263529744565e-013 1.0
  outer loop
    vertex -1293.59257592421 199.926700858489 6.80295524441923
    vertex -1300.71277217421 200.97769230764 6.80295524441909
    vertex -1293.92394677411 199.672431062333 6.8029552444193
  endloop
endfacet
facet normal 5.86997541151902e-014 2.61263529744565e-013 1.0
  outer loop
    vertex -1293.92394677411 199.672431062333 6.8029552444193
    vertex -1300.71277217421 200.97769230764 6.80295524441909
    vertex -1294.17821657026 199.341060212434 6.80295524441938
  endloop
endfacet
facet normal 5.86997541151902e-014 2.61263529744565e-013 1.0
  outer loop
    vertex -1294.17821657026 199.341060212434 6.80295524441938
    vertex -1300.71277217421 200.97769230764 6.80295524441909
    vertex -1294.33805724627 198.955170684598 6.80295524441953
  endloop
endfacet
facet normal 5.86997541151902e-014 2.61263529744565e-013 1.0
  outer loop
    vertex -1294.33805724627 198.955170684598 6.80295524441953
    vertex -1300.71277217421 200.97769230764 6.80295524441909
    vertex -1294.39257592421 198.541060212434 6.80295524441964
  endloop
endfacet
facet normal 5.86997541151902e-014 2.61263529744565e-013 1.0
  outer loop
    vertex -1284.87237967421 200.97769230764 6.80295524441842
    vertex -1292.79257592421 200.141060212434 6.80295524441913
    vertex -1292.37846545204 200.086541534497 6.8029552444191
  endloop
endfacet
facet normal 5.86997541151902e-014 2.61263529744565e-013 1.0
  outer loop
    vertex -1284.87237967421 200.97769230764 6.80295524441842
    vertex -1292.37846545204 200.086541534497 6.8029552444191
    vertex -1291.99257592421 199.926700858489 6.80295524441914
  endloop
endfacet
facet normal 5.86997541151902e-014 2.61263529744565e-013 1.0
  outer loop
    vertex -1284.87237967421 200.97769230764 6.80295524441842
    vertex -1291.99257592421 199.926700858489 6.80295524441914
    vertex -1291.66120507431 199.672431062333 6.80295524441916
  endloop
endfacet
facet normal 5.86997541151902e-014 2.61263529744565e-013 1.0
  outer loop
    vertex -1284.87237967421 200.97769230764 6.80295524441842
    vertex -1291.66120507431 199.672431062333 6.80295524441916
    vertex -1291.40693527815 199.341060212434 6.80295524441925
  endloop
endfacet
facet normal 5.86997541151902e-014 2.61263529744565e-013 1.0
  outer loop
    vertex -1284.87237967421 200.97769230764 6.80295524441842
    vertex -1291.40693527815 199.341060212434 6.80295524441925
    vertex -1291.24709460215 198.955170684598 6.80295524441935
  endloop
endfacet
facet normal 5.86997541151902e-014 2.61263529744565e-013 1.0
  outer loop
    vertex -1284.87237967421 200.97769230764 6.80295524441842
    vertex -1291.24709460215 198.955170684598 6.80295524441935
    vertex -1291.19257592421 198.541060212434 6.80295524441946
  endloop
endfacet
facet normal 2.40599967182473e-016 -1.0 2.61259831797855e-013
  outer loop
    vertex -1292.79257592421 200.141060212434 6.80295524441913
    vertex -1293.20668639637 200.086541534495 -0.197044755580843
    vertex -1292.79257592421 200.141060212432 -0.197044755580879
  endloop
endfacet
facet normal 0.258819045102535 -0.965925826289064 2.37952693645881e-013
  outer loop
    vertex -1293.20668639637 200.086541534495 -0.197044755580843
    vertex -1292.79257592421 200.141060212434 6.80295524441913
    vertex -1293.20668639637 200.086541534497 6.80295524441914
  endloop
endfacet
endsolid AutoSave_LiteArm_i2_REV5_5.25.15 Mould
