solid LiteArm_i2_REV4_10
facet normal 1.90954588211343e-014 -3.51721308970242e-015 -1.0
outer loop
vertex -1450.41802141816 263.341043769321 20.9329188302627
vertex -1450.41802141816 260.875792364719 20.9329188302627
vertex -1450.58029967046 262.10841806702 20.9329188302627
endloop
endfacet
facet normal 1.90954588211343e-014 -3.51721308970242e-015 -1.0
outer loop
vertex -1450.41802141816 260.875792364719 20.9329188302627
vertex -1450.41802141816 263.341043769321 20.9329188302627
vertex -1449.94224565598 264.48966806702 20.9329188302627
endloop
endfacet
facet normal 1.90954588211343e-014 -3.51721308970242e-015 -1.0
outer loop
vertex -1450.41802141816 260.875792364719 20.9329188302627
vertex -1449.94224565598 264.48966806702 20.9329188302627
vertex -1449.94224565598 259.72716806702 20.9329188302627
endloop
endfacet
facet normal 1.90954588211343e-014 -3.51721308970242e-015 -1.0
outer loop
vertex -1449.94224565598 259.72716806702 20.9329188302627
vertex -1449.94224565598 264.48966806702 20.9329188302627
vertex -1449.18539571586 265.476014112421 20.9329188302627
endloop
endfacet
facet normal 1.90954588211343e-014 -3.51721308970242e-015 -1.0
outer loop
vertex -1449.94224565598 259.72716806702 20.9329188302627
vertex -1449.18539571586 265.476014112421 20.9329188302627
vertex -1449.18539571586 258.740822021619 20.9329188302627
endloop
endfacet
facet normal 1.90954588211343e-014 -3.51721308970242e-015 -1.0
outer loop
vertex -1449.18539571586 258.740822021619 20.9329188302627
vertex -1449.18539571586 265.476014112421 20.9329188302627
vertex -1448.19904967046 266.232864052543 20.9329188302627
endloop
endfacet
facet normal 1.90954588211343e-014 -3.51721308970242e-015 -1.0
outer loop
vertex -1449.18539571586 258.740822021619 20.9329188302627
vertex -1448.19904967046 266.232864052543 20.9329188302627
vertex -1448.19904967046 257.983972081496 20.9329188302627
endloop
endfacet
facet normal 1.90954588211343e-014 -3.51721308970242e-015 -1.0
outer loop
vertex -1448.19904967046 257.983972081496 20.9329188302627
vertex -1448.19904967046 266.232864052543 20.9329188302627
vertex -1448.01779967046 262.10841806702 20.9329188302627
endloop
endfacet
facet normal 1.90954588211343e-014 -3.51721308970242e-015 -1.0
outer loop
vertex -1448.01779967046 262.10841806702 20.9329188302627
vertex -1448.19904967046 266.232864052543 20.9329188302627
vertex -1447.94283648829 262.677819966245 20.9329188302627
endloop
endfacet
facet normal 1.90954588211343e-014 -3.51721308970242e-015 -1.0
outer loop
vertex -1447.94283648829 262.677819966245 20.9329188302627
vertex -1448.19904967046 266.232864052543 20.9329188302627
vertex -1447.05042537276 266.708639814722 20.9329188302627
endloop
endfacet
facet normal 1.90954588211343e-014 -3.51721308970242e-015 -1.0
outer loop
vertex -1447.94283648829 262.677819966245 20.9329188302627
vertex -1447.05042537276 266.708639814722 20.9329188302627
vertex -1447.72305555878 263.20841806702 20.9329188302627
endloop
endfacet
facet normal 1.90954588211343e-014 -3.51721308970242e-015 -1.0
outer loop
vertex -1447.72305555878 263.20841806702 20.9329188302627
vertex -1447.05042537276 266.708639814722 20.9329188302627
vertex -1447.37343458907 263.66405298563 20.9329188302627
endloop
endfacet
facet normal 1.90954588211343e-014 -3.51721308970242e-015 -1.0
outer loop
vertex -1447.37343458907 263.66405298563 20.9329188302627
vertex -1447.05042537276 266.708639814722 20.9329188302627
vertex -1446.91779967046 264.013673955346 20.9329188302627
endloop
endfacet
facet normal 1.90954588211343e-014 -3.51721308970242e-015 -1.0
outer loop
vertex -1446.91779967046 264.013673955346 20.9329188302627
vertex -1447.05042537276 266.708639814722 20.9329188302627
vertex -1445.81779967046 266.87091806702 20.9329188302627
endloop
endfacet
facet normal 1.90954588211343e-014 -3.51721308970242e-015 -1.0
outer loop
vertex -1446.91779967046 264.013673955346 20.9329188302627
vertex -1445.81779967046 266.87091806702 20.9329188302627
vertex -1446.38720156968 264.233454884856 20.9329188302627
endloop
endfacet
facet normal 1.90954588211343e-014 -3.51721308970242e-015 -1.0
outer loop
vertex -1446.38720156968 264.233454884856 20.9329188302627
vertex -1445.81779967046 266.87091806702 20.9329188302627
vertex -1445.81779967046 264.30841806702 20.9329188302627
endloop
endfacet
facet normal 1.90954588211343e-014 -3.51721308970242e-015 -1.0
outer loop
vertex -1445.81779967046 264.30841806702 20.9329188302627
vertex -1445.81779967046 266.87091806702 20.9329188302627
vertex -1444.58517396815 266.708639814722 20.9329188302628
endloop
endfacet
facet normal 1.90954588211343e-014 -3.51721308970242e-015 -1.0
outer loop
vertex -1445.81779967046 264.30841806702 20.9329188302627
vertex -1444.58517396815 266.708639814722 20.9329188302628
vertex -1445.24839777123 264.233454884856 20.9329188302627
endloop
endfacet
facet normal 1.90954588211343e-014 -3.51721308970242e-015 -1.0
outer loop
vertex -1445.24839777123 264.233454884856 20.9329188302627
vertex -1444.58517396815 266.708639814722 20.9329188302628
vertex -1444.71779967046 264.013673955346 20.9329188302627
endloop
endfacet
facet normal 1.90954588211343e-014 -3.51721308970242e-015 -1.0
outer loop
vertex -1444.71779967046 264.013673955346 20.9329188302627
vertex -1444.58517396815 266.708639814722 20.9329188302628
vertex -1444.26216475185 263.66405298563 20.9329188302628
endloop
endfacet
facet normal 1.90954588211343e-014 -3.51721308970242e-015 -1.0
outer loop
vertex -1444.26216475185 263.66405298563 20.9329188302628
vertex -1444.58517396815 266.708639814722 20.9329188302628
vertex -1443.43654967046 266.232864052543 20.9329188302628
endloop
endfacet
facet normal 1.90954588211343e-014 -3.51721308970242e-015 -1.0
outer loop
vertex -1444.26216475185 263.66405298563 20.9329188302628
vertex -1443.43654967046 266.232864052543 20.9329188302628
vertex -1443.91254378213 263.20841806702 20.9329188302628
endloop
endfacet
facet normal 1.90954588211343e-014 -3.51721308970242e-015 -1.0
outer loop
vertex -1443.91254378213 263.20841806702 20.9329188302628
vertex -1443.43654967046 266.232864052543 20.9329188302628
vertex -1443.69276285262 262.677819966245 20.9329188302628
endloop
endfacet
facet normal 1.90954588211343e-014 -3.51721308970242e-015 -1.0
outer loop
vertex -1443.69276285262 262.677819966245 20.9329188302628
vertex -1443.43654967046 266.232864052543 20.9329188302628
vertex -1443.61779967046 262.10841806702 20.9329188302628
endloop
endfacet
facet normal 1.90954588211343e-014 -3.51721308970242e-015 -1.0
outer loop
vertex -1448.19904967046 257.983972081496 20.9329188302627
vertex -1447.94283648829 261.539016167794 20.9329188302627
vertex -1447.05042537276 257.508196319318 20.9329188302627
endloop
endfacet
facet normal 1.90954588211343e-014 -3.51721308970242e-015 -1.0
outer loop
vertex -1447.94283648829 261.539016167794 20.9329188302627
vertex -1448.19904967046 257.983972081496 20.9329188302627
vertex -1448.01779967046 262.10841806702 20.9329188302627
endloop
endfacet
facet normal 1.90954588211343e-014 -3.51721308970242e-015 -1.0
outer loop
vertex -1447.05042537276 257.508196319318 20.9329188302627
vertex -1447.94283648829 261.539016167794 20.9329188302627
vertex -1447.72305555878 261.00841806702 20.9329188302627
endloop
endfacet
facet normal 1.90954588211343e-014 -3.51721308970242e-015 -1.0
outer loop
vertex -1447.05042537276 257.508196319318 20.9329188302627
vertex -1447.72305555878 261.00841806702 20.9329188302627
vertex -1447.37343458907 260.55278314841 20.9329188302627
endloop
endfacet
facet normal 1.90954588211343e-014 -3.51721308970242e-015 -1.0
outer loop
vertex -1447.05042537276 257.508196319318 20.9329188302627
vertex -1447.37343458907 260.55278314841 20.9329188302627
vertex -1446.91779967046 260.203162178694 20.9329188302627
endloop
endfacet
facet normal 1.90954588211343e-014 -3.51721308970242e-015 -1.0
outer loop
vertex -1447.05042537276 257.508196319318 20.9329188302627
vertex -1446.91779967046 260.203162178694 20.9329188302627
vertex -1445.81779967046 257.34591806702 20.9329188302628
endloop
endfacet
facet normal 1.90954588211343e-014 -3.51721308970242e-015 -1.0
outer loop
vertex -1445.81779967046 257.34591806702 20.9329188302628
vertex -1446.91779967046 260.203162178694 20.9329188302627
vertex -1446.38720156968 259.983381249184 20.9329188302627
endloop
endfacet
facet normal 1.90954588211343e-014 -3.51721308970242e-015 -1.0
outer loop
vertex -1445.81779967046 257.34591806702 20.9329188302628
vertex -1446.38720156968 259.983381249184 20.9329188302627
vertex -1445.81779967046 259.90841806702 20.9329188302628
endloop
endfacet
facet normal 1.90954588211343e-014 -3.51721308970242e-015 -1.0
outer loop
vertex -1445.81779967046 257.34591806702 20.9329188302628
vertex -1445.81779967046 259.90841806702 20.9329188302628
vertex -1445.24839777123 259.983381249184 20.9329188302628
endloop
endfacet
facet normal 1.90954588211343e-014 -3.51721308970242e-015 -1.0
outer loop
vertex -1445.81779967046 257.34591806702 20.9329188302628
vertex -1445.24839777123 259.983381249184 20.9329188302628
vertex -1444.58517396815 257.508196319318 20.9329188302628
endloop
endfacet
facet normal 1.90954588211343e-014 -3.51721308970242e-015 -1.0
outer loop
vertex -1444.58517396815 257.508196319318 20.9329188302628
vertex -1445.24839777123 259.983381249184 20.9329188302628
vertex -1444.71779967046 260.203162178694 20.9329188302628
endloop
endfacet
facet normal 1.90954588211343e-014 -3.51721308970242e-015 -1.0
outer loop
vertex -1444.58517396815 257.508196319318 20.9329188302628
vertex -1444.71779967046 260.203162178694 20.9329188302628
vertex -1444.26216475185 260.55278314841 20.9329188302628
endloop
endfacet
facet normal 1.90954588211343e-014 -3.51721308970242e-015 -1.0
outer loop
vertex -1444.58517396815 257.508196319318 20.9329188302628
vertex -1444.26216475185 260.55278314841 20.9329188302628
vertex -1443.43654967046 257.983972081496 20.9329188302628
endloop
endfacet
facet normal 1.90954588211343e-014 -3.51721308970242e-015 -1.0
outer loop
vertex -1443.43654967046 257.983972081496 20.9329188302628
vertex -1444.26216475185 260.55278314841 20.9329188302628
vertex -1443.91254378213 261.00841806702 20.9329188302628
endloop
endfacet
facet normal 1.90954588211343e-014 -3.51721308970242e-015 -1.0
outer loop
vertex -1443.43654967046 257.983972081496 20.9329188302628
vertex -1443.91254378213 261.00841806702 20.9329188302628
vertex -1443.69276285262 261.539016167794 20.9329188302628
endloop
endfacet
facet normal 1.90954588211343e-014 -3.51721308970242e-015 -1.0
outer loop
vertex -1443.43654967046 257.983972081496 20.9329188302628
vertex -1443.69276285262 261.539016167794 20.9329188302628
vertex -1443.61779967046 262.10841806702 20.9329188302628
endloop
endfacet
facet normal 1.90954588211343e-014 -3.51721308970242e-015 -1.0
outer loop
vertex -1443.43654967046 257.983972081496 20.9329188302628
vertex -1443.61779967046 262.10841806702 20.9329188302628
vertex -1443.43654967046 266.232864052543 20.9329188302628
endloop
endfacet
facet normal 1.90954588211343e-014 -3.51721308970242e-015 -1.0
outer loop
vertex -1443.43654967046 257.983972081496 20.9329188302628
vertex -1443.43654967046 266.232864052543 20.9329188302628
vertex -1442.45020362505 265.476014112421 20.9329188302628
endloop
endfacet
facet normal 1.90954588211343e-014 -3.51721308970242e-015 -1.0
outer loop
vertex -1443.43654967046 257.983972081496 20.9329188302628
vertex -1442.45020362505 265.476014112421 20.9329188302628
vertex -1442.45020362505 258.740822021619 20.9329188302628
endloop
endfacet
facet normal 1.90954588211343e-014 -3.51721308970242e-015 -1.0
outer loop
vertex -1442.45020362505 258.740822021619 20.9329188302628
vertex -1442.45020362505 265.476014112421 20.9329188302628
vertex -1441.69335368493 264.48966806702 20.9329188302628
endloop
endfacet
facet normal 1.90954588211343e-014 -3.51721308970242e-015 -1.0
outer loop
vertex -1442.45020362505 258.740822021619 20.9329188302628
vertex -1441.69335368493 264.48966806702 20.9329188302628
vertex -1441.69335368493 259.72716806702 20.9329188302628
endloop
endfacet
facet normal 1.90954588211343e-014 -3.51721308970242e-015 -1.0
outer loop
vertex -1441.69335368493 259.72716806702 20.9329188302628
vertex -1441.69335368493 264.48966806702 20.9329188302628
vertex -1441.21757792275 263.341043769321 20.9329188302628
endloop
endfacet
facet normal 1.90954588211343e-014 -3.51721308970242e-015 -1.0
outer loop
vertex -1441.69335368493 259.72716806702 20.9329188302628
vertex -1441.21757792275 263.341043769321 20.9329188302628
vertex -1441.21757792275 260.875792364719 20.9329188302628
endloop
endfacet
facet normal 1.90954588211343e-014 -3.51721308970242e-015 -1.0
outer loop
vertex -1441.21757792275 260.875792364719 20.9329188302628
vertex -1441.21757792275 263.341043769321 20.9329188302628
vertex -1441.05529967046 262.10841806702 20.9329188302628
endloop
endfacet
facet normal 0.258819045102522 -0.965925826289068 8.33963537778605e-015
outer loop
vertex -1444.58517396815 257.508196319318 20.9329188302628
vertex -1445.81779967046 257.34591806702 27.2736732302628
vertex -1445.81779967046 257.34591806702 20.9329188302628
endloop
endfacet
facet normal -1.04259985779069e-015 -1.0 3.5172130897024e-015
outer loop
vertex -1445.81779967046 257.34591806702 27.2736732302628
vertex -1444.58517396815 257.508196319318 20.9329188302628
vertex -1444.58517396816 257.508196319318 27.2736732302628
endloop
endfacet
facet normal 5.61399923425757e-016 -1.0 3.51721308970243e-015
outer loop
vertex -1445.81779967046 257.34591806702 20.9329188302628
vertex -1447.05042537276 257.508196319318 27.2736732302627
vertex -1447.05042537276 257.508196319318 20.9329188302627
endloop
endfacet
facet normal -0.25881904510252 -0.965925826289069 -1.54490145797495e-015
outer loop
vertex -1447.05042537276 257.508196319318 27.2736732302627
vertex -1445.81779967046 257.34591806702 20.9329188302628
vertex -1445.81779967046 257.34591806702 27.2736732302628
endloop
endfacet
facet normal -0.866025403784439 0.499999999999999 -1.82957589808732e-014
outer loop
vertex -1449.94224565598 264.48966806702 27.2736732302627
vertex -1450.41802141816 263.341043769321 20.9329188302627
vertex -1450.41802141816 263.341043769321 27.2736732302627
endloop
endfacet
facet normal -0.965925826289068 0.258819045102522 -1.93551185734719e-014
outer loop
vertex -1450.41802141816 263.341043769321 20.9329188302627
vertex -1449.94224565598 264.48966806702 27.2736732302627
vertex -1449.94224565598 264.48966806702 20.9329188302627
endloop
endfacet
facet normal 1.0 0.0 1.90954588211343e-014
outer loop
vertex -1441.05529967046 262.10841806702 20.9329188302628
vertex -1441.21757792275 260.875792364719 27.2736732302628
vertex -1441.21757792275 260.875792364719 20.9329188302628
endloop
endfacet
facet normal 0.965925826289068 -0.258819045102522 1.93551185734719e-014
outer loop
vertex -1441.21757792275 260.875792364719 27.2736732302628
vertex -1441.05529967046 262.10841806702 20.9329188302628
vertex -1441.05529967046 262.10841806702 27.2736732302628
endloop
endfacet
facet normal -1.0 0.0 -1.90954588211343e-014
outer loop
vertex -1450.58029967046 262.10841806702 27.2736732302627
vertex -1450.41802141816 260.875792364719 20.9329188302627
vertex -1450.41802141816 260.875792364719 27.2736732302627
endloop
endfacet
facet normal -0.965925826289068 -0.258819045102521 -1.75344751068742e-014
outer loop
vertex -1450.41802141816 260.875792364719 20.9329188302627
vertex -1450.58029967046 262.10841806702 27.2736732302627
vertex -1450.58029967046 262.10841806702 20.9329188302627
endloop
endfacet
facet normal -0.707106781186549 0.707106781186546 -1.59895736488992e-014
outer loop
vertex -1449.18539571586 265.476014112421 27.2736732302627
vertex -1448.19904967046 266.232864052543 20.9329188302627
vertex -1449.18539571586 265.476014112421 20.9329188302627
endloop
endfacet
facet normal -0.500000000000001 0.866025403784438 -1.25937252967726e-014
outer loop
vertex -1448.19904967046 266.232864052543 20.9329188302627
vertex -1449.18539571586 265.476014112421 27.2736732302627
vertex -1448.19904967046 266.232864052543 27.2736732302627
endloop
endfacet
facet normal -2.76244406765056e-016 1.0 -3.51721308970242e-015
outer loop
vertex -1445.81779967046 266.87091806702 27.2736732302627
vertex -1444.58517396815 266.708639814722 20.9329188302628
vertex -1445.81779967046 266.87091806702 20.9329188302627
endloop
endfacet
facet normal 0.258819045102523 0.965925826289068 1.54490145797499e-015
outer loop
vertex -1444.58517396815 266.708639814722 20.9329188302628
vertex -1445.81779967046 266.87091806702 27.2736732302627
vertex -1444.58517396816 266.708639814722 27.2736732302628
endloop
endfacet
facet normal 0.258819045102521 0.965925826289068 1.54490145797495e-015
outer loop
vertex -1444.58517396816 266.708639814722 27.2736732302628
vertex -1443.43654967046 266.232864052543 20.9329188302628
vertex -1444.58517396815 266.708639814722 20.9329188302628
endloop
endfacet
facet normal 0.500000000000002 0.866025403784438 6.50173352436174e-015
outer loop
vertex -1443.43654967046 266.232864052543 20.9329188302628
vertex -1444.58517396816 266.708639814722 27.2736732302628
vertex -1443.43654967046 266.232864052543 27.2736732302628
endloop
endfacet
facet normal 0.500000000000001 0.866025403784438 6.50173352436172e-015
outer loop
vertex -1443.43654967046 266.232864052543 27.2736732302628
vertex -1442.45020362505 265.476014112421 20.9329188302628
vertex -1443.43654967046 266.232864052543 20.9329188302628
endloop
endfacet
facet normal 0.707106781186548 0.707106781186547 1.10154831956859e-014
outer loop
vertex -1442.45020362505 265.476014112421 20.9329188302628
vertex -1443.43654967046 266.232864052543 27.2736732302628
vertex -1442.45020362505 265.476014112421 27.2736732302628
endloop
endfacet
facet normal -0.707106781186549 0.707106781186546 -1.59895736488992e-014
outer loop
vertex -1449.18539571586 265.476014112421 27.2736732302627
vertex -1449.94224565598 264.48966806702 20.9329188302627
vertex -1449.94224565598 264.48966806702 27.2736732302627
endloop
endfacet
facet normal -0.866025403784438 0.500000000000001 -1.82957589808732e-014
outer loop
vertex -1449.94224565598 264.48966806702 20.9329188302627
vertex -1449.18539571586 265.476014112421 27.2736732302627
vertex -1449.18539571586 265.476014112421 20.9329188302627
endloop
endfacet
facet normal 0.707106781186548 -0.707106781186547 1.59895736488992e-014
outer loop
vertex -1442.45020362505 258.740822021619 20.9329188302628
vertex -1443.43654967046 257.983972081496 27.2736732302628
vertex -1443.43654967046 257.983972081496 20.9329188302628
endloop
endfacet
facet normal 0.500000000000001 -0.866025403784438 1.25937252967726e-014
outer loop
vertex -1443.43654967046 257.983972081496 27.2736732302628
vertex -1442.45020362505 258.740822021619 20.9329188302628
vertex -1442.45020362505 258.740822021619 27.2736732302628
endloop
endfacet
facet normal 0.965925826289068 0.258819045102522 1.75344751068742e-014
outer loop
vertex -1441.21757792275 263.341043769321 20.9329188302628
vertex -1441.05529967046 262.10841806702 27.2736732302628
vertex -1441.05529967046 262.10841806702 20.9329188302628
endloop
endfacet
facet normal 1.0 0.0 1.90954588211343e-014
outer loop
vertex -1441.05529967046 262.10841806702 27.2736732302628
vertex -1441.21757792275 263.341043769321 20.9329188302628
vertex -1441.21757792275 263.341043769321 27.2736732302628
endloop
endfacet
facet normal -0.500000000000002 0.866025403784437 -1.25937252967726e-014
outer loop
vertex -1448.19904967046 266.232864052543 27.2736732302627
vertex -1447.05042537276 266.708639814722 20.9329188302627
vertex -1448.19904967046 266.232864052543 20.9329188302627
endloop
endfacet
facet normal -0.258819045102523 0.965925826289068 -8.33963537778607e-015
outer loop
vertex -1447.05042537276 266.708639814722 20.9329188302627
vertex -1448.19904967046 266.232864052543 27.2736732302627
vertex -1447.05042537276 266.708639814722 27.2736732302627
endloop
endfacet
facet normal 0.96592582628907 0.258819045102513 1.48063901311022e-014
outer loop
vertex -1447.94283648829 261.539016167794 20.9329188302627
vertex -1447.72305555878 261.00841806702 27.2736732302627
vertex -1447.72305555878 261.00841806702 20.9329188302627
endloop
endfacet
facet normal 0.866025403784433 0.50000000000001 1.22071429485533e-014
outer loop
vertex -1447.72305555878 261.00841806702 27.2736732302627
vertex -1447.94283648829 261.539016167794 20.9329188302627
vertex -1447.94283648829 261.539016167794 27.2736732302627
endloop
endfacet
facet normal 0.500000000000023 0.866025403784425 4.74678550721835e-015
outer loop
vertex -1446.91779967046 260.203162178694 27.2736732302628
vertex -1446.38720156968 259.983381249184 20.9329188302627
vertex -1446.91779967046 260.203162178694 20.9329188302627
endloop
endfacet
facet normal 0.258819045102505 0.965925826289072 3.94086279234231e-016
outer loop
vertex -1446.38720156968 259.983381249184 20.9329188302627
vertex -1446.91779967046 260.203162178694 27.2736732302628
vertex -1446.38720156968 259.983381249184 27.2736732302628
endloop
endfacet
facet normal -1.90954588211343e-014 3.51721308970242e-015 1.0
outer loop
vertex -1450.41802141816 260.875792364719 27.2736732302627
vertex -1450.41802141816 263.341043769321 27.2736732302627
vertex -1450.58029967046 262.10841806702 27.2736732302627
endloop
endfacet
facet normal -1.90954588211343e-014 3.51721308970242e-015 1.0
outer loop
vertex -1450.41802141816 263.341043769321 27.2736732302627
vertex -1450.41802141816 260.875792364719 27.2736732302627
vertex -1449.94224565598 259.72716806702 27.2736732302627
endloop
endfacet
facet normal -1.90954588211343e-014 3.51721308970242e-015 1.0
outer loop
vertex -1450.41802141816 263.341043769321 27.2736732302627
vertex -1449.94224565598 259.72716806702 27.2736732302627
vertex -1449.94224565598 264.48966806702 27.2736732302627
endloop
endfacet
facet normal -1.90954588211343e-014 3.51721308970242e-015 1.0
outer loop
vertex -1449.94224565598 264.48966806702 27.2736732302627
vertex -1449.94224565598 259.72716806702 27.2736732302627
vertex -1449.18539571586 258.740822021619 27.2736732302627
endloop
endfacet
facet normal -1.90954588211343e-014 3.51721308970242e-015 1.0
outer loop
vertex -1449.94224565598 264.48966806702 27.2736732302627
vertex -1449.18539571586 258.740822021619 27.2736732302627
vertex -1449.18539571586 265.476014112421 27.2736732302627
endloop
endfacet
facet normal -1.90954588211343e-014 3.51721308970242e-015 1.0
outer loop
vertex -1449.18539571586 265.476014112421 27.2736732302627
vertex -1449.18539571586 258.740822021619 27.2736732302627
vertex -1448.19904967046 257.983972081496 27.2736732302627
endloop
endfacet
facet normal -1.90954588211343e-014 3.51721308970242e-015 1.0
outer loop
vertex -1449.18539571586 265.476014112421 27.2736732302627
vertex -1448.19904967046 257.983972081496 27.2736732302627
vertex -1448.19904967046 266.232864052543 27.2736732302627
endloop
endfacet
facet normal -1.90954588211343e-014 3.51721308970242e-015 1.0
outer loop
vertex -1448.19904967046 266.232864052543 27.2736732302627
vertex -1448.19904967046 257.983972081496 27.2736732302627
vertex -1448.01779967046 262.10841806702 27.2736732302627
endloop
endfacet
facet normal -1.90954588211343e-014 3.51721308970242e-015 1.0
outer loop
vertex -1448.01779967046 262.10841806702 27.2736732302627
vertex -1448.19904967046 257.983972081496 27.2736732302627
vertex -1447.94283648829 261.539016167794 27.2736732302627
endloop
endfacet
facet normal -1.90954588211343e-014 3.51721308970242e-015 1.0
outer loop
vertex -1447.94283648829 261.539016167794 27.2736732302627
vertex -1448.19904967046 257.983972081496 27.2736732302627
vertex -1447.05042537276 257.508196319318 27.2736732302627
endloop
endfacet
facet normal -1.90954588211343e-014 3.51721308970242e-015 1.0
outer loop
vertex -1447.94283648829 261.539016167794 27.2736732302627
vertex -1447.05042537276 257.508196319318 27.2736732302627
vertex -1447.72305555878 261.00841806702 27.2736732302627
endloop
endfacet
facet normal -1.90954588211343e-014 3.51721308970242e-015 1.0
outer loop
vertex -1447.72305555878 261.00841806702 27.2736732302627
vertex -1447.05042537276 257.508196319318 27.2736732302627
vertex -1447.37343458907 260.55278314841 27.2736732302627
endloop
endfacet
facet normal -1.90954588211343e-014 3.51721308970242e-015 1.0
outer loop
vertex -1447.37343458907 260.55278314841 27.2736732302627
vertex -1447.05042537276 257.508196319318 27.2736732302627
vertex -1446.91779967046 260.203162178694 27.2736732302628
endloop
endfacet
facet normal -1.90954588211343e-014 3.51721308970242e-015 1.0
outer loop
vertex -1446.91779967046 260.203162178694 27.2736732302628
vertex -1447.05042537276 257.508196319318 27.2736732302627
vertex -1445.81779967046 257.34591806702 27.2736732302628
endloop
endfacet
facet normal -1.90954588211343e-014 3.51721308970242e-015 1.0
outer loop
vertex -1446.91779967046 260.203162178694 27.2736732302628
vertex -1445.81779967046 257.34591806702 27.2736732302628
vertex -1446.38720156968 259.983381249184 27.2736732302628
endloop
endfacet
facet normal -1.90954588211343e-014 3.51721308970242e-015 1.0
outer loop
vertex -1446.38720156968 259.983381249184 27.2736732302628
vertex -1445.81779967046 257.34591806702 27.2736732302628
vertex -1445.81779967046 259.90841806702 27.2736732302628
endloop
endfacet
facet normal -1.90954588211343e-014 3.51721308970242e-015 1.0
outer loop
vertex -1445.81779967046 259.90841806702 27.2736732302628
vertex -1445.81779967046 257.34591806702 27.2736732302628
vertex -1444.58517396816 257.508196319318 27.2736732302628
endloop
endfacet
facet normal -1.90954588211343e-014 3.51721308970242e-015 1.0
outer loop
vertex -1445.81779967046 259.90841806702 27.2736732302628
vertex -1444.58517396816 257.508196319318 27.2736732302628
vertex -1445.24839777123 259.983381249184 27.2736732302628
endloop
endfacet
facet normal -1.90954588211343e-014 3.51721308970242e-015 1.0
outer loop
vertex -1445.24839777123 259.983381249184 27.2736732302628
vertex -1444.58517396816 257.508196319318 27.2736732302628
vertex -1444.71779967046 260.203162178694 27.2736732302628
endloop
endfacet
facet normal -1.90954588211343e-014 3.51721308970242e-015 1.0
outer loop
vertex -1444.71779967046 260.203162178694 27.2736732302628
vertex -1444.58517396816 257.508196319318 27.2736732302628
vertex -1444.26216475185 260.55278314841 27.2736732302628
endloop
endfacet
facet normal -1.90954588211343e-014 3.51721308970242e-015 1.0
outer loop
vertex -1444.26216475185 260.55278314841 27.2736732302628
vertex -1444.58517396816 257.508196319318 27.2736732302628
vertex -1443.43654967046 257.983972081496 27.2736732302628
endloop
endfacet
facet normal -1.90954588211343e-014 3.51721308970242e-015 1.0
outer loop
vertex -1444.26216475185 260.55278314841 27.2736732302628
vertex -1443.43654967046 257.983972081496 27.2736732302628
vertex -1443.91254378213 261.00841806702 27.2736732302628
endloop
endfacet
facet normal -1.90954588211343e-014 3.51721308970242e-015 1.0
outer loop
vertex -1443.91254378213 261.00841806702 27.2736732302628
vertex -1443.43654967046 257.983972081496 27.2736732302628
vertex -1443.69276285262 261.539016167794 27.2736732302628
endloop
endfacet
facet normal -1.90954588211343e-014 3.51721308970242e-015 1.0
outer loop
vertex -1443.69276285262 261.539016167794 27.2736732302628
vertex -1443.43654967046 257.983972081496 27.2736732302628
vertex -1443.61779967046 262.10841806702 27.2736732302628
endloop
endfacet
facet normal -1.90954588211343e-014 3.51721308970242e-015 1.0
outer loop
vertex -1448.19904967046 266.232864052543 27.2736732302627
vertex -1447.94283648829 262.677819966245 27.2736732302627
vertex -1447.05042537276 266.708639814722 27.2736732302627
endloop
endfacet
facet normal -1.90954588211343e-014 3.51721308970242e-015 1.0
outer loop
vertex -1447.94283648829 262.677819966245 27.2736732302627
vertex -1448.19904967046 266.232864052543 27.2736732302627
vertex -1448.01779967046 262.10841806702 27.2736732302627
endloop
endfacet
facet normal -1.90954588211343e-014 3.51721308970242e-015 1.0
outer loop
vertex -1447.05042537276 266.708639814722 27.2736732302627
vertex -1447.94283648829 262.677819966245 27.2736732302627
vertex -1447.72305555878 263.20841806702 27.2736732302627
endloop
endfacet
facet normal -1.90954588211343e-014 3.51721308970242e-015 1.0
outer loop
vertex -1447.05042537276 266.708639814722 27.2736732302627
vertex -1447.72305555878 263.20841806702 27.2736732302627
vertex -1447.37343458907 263.66405298563 27.2736732302627
endloop
endfacet
facet normal -1.90954588211343e-014 3.51721308970242e-015 1.0
outer loop
vertex -1447.05042537276 266.708639814722 27.2736732302627
vertex -1447.37343458907 263.66405298563 27.2736732302627
vertex -1446.91779967046 264.013673955346 27.2736732302627
endloop
endfacet
facet normal -1.90954588211343e-014 3.51721308970242e-015 1.0
outer loop
vertex -1447.05042537276 266.708639814722 27.2736732302627
vertex -1446.91779967046 264.013673955346 27.2736732302627
vertex -1445.81779967046 266.87091806702 27.2736732302627
endloop
endfacet
facet normal -1.90954588211343e-014 3.51721308970242e-015 1.0
outer loop
vertex -1445.81779967046 266.87091806702 27.2736732302627
vertex -1446.91779967046 264.013673955346 27.2736732302627
vertex -1446.38720156968 264.233454884856 27.2736732302627
endloop
endfacet
facet normal -1.90954588211343e-014 3.51721308970242e-015 1.0
outer loop
vertex -1445.81779967046 266.87091806702 27.2736732302627
vertex -1446.38720156968 264.233454884856 27.2736732302627
vertex -1445.81779967046 264.30841806702 27.2736732302627
endloop
endfacet
facet normal -1.90954588211343e-014 3.51721308970242e-015 1.0
outer loop
vertex -1445.81779967046 266.87091806702 27.2736732302627
vertex -1445.81779967046 264.30841806702 27.2736732302627
vertex -1445.24839777123 264.233454884856 27.2736732302628
endloop
endfacet
facet normal -1.90954588211343e-014 3.51721308970242e-015 1.0
outer loop
vertex -1445.81779967046 266.87091806702 27.2736732302627
vertex -1445.24839777123 264.233454884856 27.2736732302628
vertex -1444.58517396816 266.708639814722 27.2736732302628
endloop
endfacet
facet normal -1.90954588211343e-014 3.51721308970242e-015 1.0
outer loop
vertex -1444.58517396816 266.708639814722 27.2736732302628
vertex -1445.24839777123 264.233454884856 27.2736732302628
vertex -1444.71779967046 264.013673955346 27.2736732302628
endloop
endfacet
facet normal -1.90954588211343e-014 3.51721308970242e-015 1.0
outer loop
vertex -1444.58517396816 266.708639814722 27.2736732302628
vertex -1444.71779967046 264.013673955346 27.2736732302628
vertex -1444.26216475185 263.66405298563 27.2736732302628
endloop
endfacet
facet normal -1.90954588211343e-014 3.51721308970242e-015 1.0
outer loop
vertex -1444.58517396816 266.708639814722 27.2736732302628
vertex -1444.26216475185 263.66405298563 27.2736732302628
vertex -1443.43654967046 266.232864052543 27.2736732302628
endloop
endfacet
facet normal -1.90954588211343e-014 3.51721308970242e-015 1.0
outer loop
vertex -1443.43654967046 266.232864052543 27.2736732302628
vertex -1444.26216475185 263.66405298563 27.2736732302628
vertex -1443.91254378213 263.20841806702 27.2736732302628
endloop
endfacet
facet normal -1.90954588211343e-014 3.51721308970242e-015 1.0
outer loop
vertex -1443.43654967046 266.232864052543 27.2736732302628
vertex -1443.91254378213 263.20841806702 27.2736732302628
vertex -1443.69276285262 262.677819966245 27.2736732302628
endloop
endfacet
facet normal -1.90954588211343e-014 3.51721308970242e-015 1.0
outer loop
vertex -1443.43654967046 266.232864052543 27.2736732302628
vertex -1443.69276285262 262.677819966245 27.2736732302628
vertex -1443.61779967046 262.10841806702 27.2736732302628
endloop
endfacet
facet normal -1.90954588211343e-014 3.51721308970242e-015 1.0
outer loop
vertex -1443.43654967046 266.232864052543 27.2736732302628
vertex -1443.61779967046 262.10841806702 27.2736732302628
vertex -1443.43654967046 257.983972081496 27.2736732302628
endloop
endfacet
facet normal -1.90954588211343e-014 3.51721308970242e-015 1.0
outer loop
vertex -1443.43654967046 266.232864052543 27.2736732302628
vertex -1443.43654967046 257.983972081496 27.2736732302628
vertex -1442.45020362505 258.740822021619 27.2736732302628
endloop
endfacet
facet normal -1.90954588211343e-014 3.51721308970242e-015 1.0
outer loop
vertex -1443.43654967046 266.232864052543 27.2736732302628
vertex -1442.45020362505 258.740822021619 27.2736732302628
vertex -1442.45020362505 265.476014112421 27.2736732302628
endloop
endfacet
facet normal -1.90954588211343e-014 3.51721308970242e-015 1.0
outer loop
vertex -1442.45020362505 265.476014112421 27.2736732302628
vertex -1442.45020362505 258.740822021619 27.2736732302628
vertex -1441.69335368493 259.72716806702 27.2736732302628
endloop
endfacet
facet normal -1.90954588211343e-014 3.51721308970242e-015 1.0
outer loop
vertex -1442.45020362505 265.476014112421 27.2736732302628
vertex -1441.69335368493 259.72716806702 27.2736732302628
vertex -1441.69335368493 264.48966806702 27.2736732302628
endloop
endfacet
facet normal -1.90954588211343e-014 3.51721308970242e-015 1.0
outer loop
vertex -1441.69335368493 264.48966806702 27.2736732302628
vertex -1441.69335368493 259.72716806702 27.2736732302628
vertex -1441.21757792275 260.875792364719 27.2736732302628
endloop
endfacet
facet normal -1.90954588211343e-014 3.51721308970242e-015 1.0
outer loop
vertex -1441.69335368493 264.48966806702 27.2736732302628
vertex -1441.21757792275 260.875792364719 27.2736732302628
vertex -1441.21757792275 263.341043769321 27.2736732302628
endloop
endfacet
facet normal -1.90954588211343e-014 3.51721308970242e-015 1.0
outer loop
vertex -1441.21757792275 263.341043769321 27.2736732302628
vertex -1441.21757792275 260.875792364719 27.2736732302628
vertex -1441.05529967046 262.10841806702 27.2736732302628
endloop
endfacet
facet normal -0.866025403784433 -0.50000000000001 -1.22071429485533e-014
outer loop
vertex -1443.91254378213 263.20841806702 27.2736732302628
vertex -1443.69276285262 262.677819966245 20.9329188302628
vertex -1443.69276285262 262.677819966245 27.2736732302628
endloop
endfacet
facet normal -0.96592582628907 -0.258819045102513 -1.48063901311022e-014
outer loop
vertex -1443.69276285262 262.677819966245 20.9329188302628
vertex -1443.91254378213 263.20841806702 27.2736732302628
vertex -1443.91254378213 263.20841806702 20.9329188302628
endloop
endfacet
facet normal 0.866025403784438 -0.5 1.82957589808732e-014
outer loop
vertex -1441.69335368493 259.72716806702 20.9329188302628
vertex -1442.45020362505 258.740822021619 27.2736732302628
vertex -1442.45020362505 258.740822021619 20.9329188302628
endloop
endfacet
facet normal 0.707106781186549 -0.707106781186546 1.59895736488992e-014
outer loop
vertex -1442.45020362505 258.740822021619 27.2736732302628
vertex -1441.69335368493 259.72716806702 20.9329188302628
vertex -1441.69335368493 259.72716806702 27.2736732302628
endloop
endfacet
facet normal 1.0 0.0 1.63966062949328e-014
outer loop
vertex -1448.01779967046 262.10841806702 20.9329188302627
vertex -1447.94283648829 261.539016167794 27.2736732302627
vertex -1447.94283648829 261.539016167794 20.9329188302627
endloop
endfacet
facet normal 0.96592582628907 0.258819045102513 1.48063901311022e-014
outer loop
vertex -1447.94283648829 261.539016167794 27.2736732302627
vertex -1448.01779967046 262.10841806702 20.9329188302627
vertex -1448.01779967046 262.10841806702 27.2736732302627
endloop
endfacet
facet normal 0.707106781186548 0.707106781186547 1.10154831956859e-014
outer loop
vertex -1442.45020362505 265.476014112421 20.9329188302628
vertex -1441.69335368493 264.48966806702 27.2736732302628
vertex -1441.69335368493 264.48966806702 20.9329188302628
endloop
endfacet
facet normal 0.866025403784439 0.499999999999999 1.47785458911708e-014
outer loop
vertex -1441.69335368493 264.48966806702 27.2736732302628
vertex -1442.45020362505 265.476014112421 20.9329188302628
vertex -1442.45020362505 265.476014112421 27.2736732302628
endloop
endfacet
facet normal -0.866025403784439 -0.5 -1.47785458911708e-014
outer loop
vertex -1449.94224565598 259.72716806702 27.2736732302627
vertex -1449.18539571586 258.740822021619 20.9329188302627
vertex -1449.18539571586 258.740822021619 27.2736732302627
endloop
endfacet
facet normal -0.707106781186548 -0.707106781186546 -1.10154831956859e-014
outer loop
vertex -1449.18539571586 258.740822021619 20.9329188302627
vertex -1449.94224565598 259.72716806702 27.2736732302627
vertex -1449.94224565598 259.72716806702 20.9329188302627
endloop
endfacet
facet normal -0.707106781186551 -0.707106781186544 -8.77599914731846e-015
outer loop
vertex -1444.26216475185 263.66405298563 27.2736732302628
vertex -1443.91254378213 263.20841806702 20.9329188302628
vertex -1443.91254378213 263.20841806702 27.2736732302628
endloop
endfacet
facet normal -0.866025403784433 -0.500000000000009 -1.22071429485533e-014
outer loop
vertex -1443.91254378213 263.20841806702 20.9329188302628
vertex -1444.26216475185 263.66405298563 27.2736732302628
vertex -1444.26216475185 263.66405298563 20.9329188302628
endloop
endfacet
facet normal 0.500000000000014 -0.866025403784431 1.16498207877151e-014
outer loop
vertex -1446.91779967046 264.013673955346 27.2736732302627
vertex -1447.37343458907 263.66405298563 20.9329188302627
vertex -1446.91779967046 264.013673955346 20.9329188302627
endloop
endfacet
facet normal 0.707106781186569 -0.707106781186527 1.44123038518679e-014
outer loop
vertex -1447.37343458907 263.66405298563 20.9329188302627
vertex -1446.91779967046 264.013673955346 27.2736732302627
vertex -1447.37343458907 263.66405298563 27.2736732302627
endloop
endfacet
facet normal -1.0 0.0 -1.63966062949328e-014
outer loop
vertex -1443.61779967046 262.10841806702 27.2736732302628
vertex -1443.69276285262 261.539016167794 20.9329188302628
vertex -1443.69276285262 261.539016167794 27.2736732302628
endloop
endfacet
facet normal -0.965925826289066 0.258819045102528 -1.68694208364369e-014
outer loop
vertex -1443.69276285262 261.539016167794 20.9329188302628
vertex -1443.61779967046 262.10841806702 27.2736732302628
vertex -1443.61779967046 262.10841806702 20.9329188302628
endloop
endfacet
facet normal 0.866025403784434 0.500000000000009 1.22071429485533e-014
outer loop
vertex -1447.72305555878 261.00841806702 20.9329188302627
vertex -1447.37343458907 260.55278314841 27.2736732302627
vertex -1447.37343458907 260.55278314841 20.9329188302627
endloop
endfacet
facet normal 0.707106781186549 0.707106781186546 8.77599914731843e-015
outer loop
vertex -1447.37343458907 260.55278314841 27.2736732302627
vertex -1447.72305555878 261.00841806702 20.9329188302627
vertex -1447.72305555878 261.00841806702 27.2736732302627
endloop
endfacet
facet normal -0.707106781186549 -0.707106781186546 -8.77599914731842e-015
outer loop
vertex -1444.26216475185 263.66405298563 20.9329188302628
vertex -1444.71779967046 264.013673955346 27.2736732302628
vertex -1444.71779967046 264.013673955346 20.9329188302627
endloop
endfacet
facet normal -0.500000000000024 -0.866025403784425 -4.74678550721838e-015
outer loop
vertex -1444.71779967046 264.013673955346 27.2736732302628
vertex -1444.26216475185 263.66405298563 20.9329188302628
vertex -1444.26216475185 263.66405298563 27.2736732302628
endloop
endfacet
facet normal -0.258819045102523 -0.965925826289068 -1.544901457975e-015
outer loop
vertex -1447.05042537276 257.508196319318 20.9329188302627
vertex -1448.19904967046 257.983972081496 27.2736732302627
vertex -1448.19904967046 257.983972081496 20.9329188302627
endloop
endfacet
facet normal -0.500000000000001 -0.866025403784438 -6.50173352436174e-015
outer loop
vertex -1448.19904967046 257.983972081496 27.2736732302627
vertex -1447.05042537276 257.508196319318 20.9329188302627
vertex -1447.05042537276 257.508196319318 27.2736732302627
endloop
endfacet
facet normal -0.25881904510252 0.965925826289069 -8.33963537778601e-015
outer loop
vertex -1447.05042537276 266.708639814722 27.2736732302627
vertex -1445.81779967046 266.87091806702 20.9329188302627
vertex -1447.05042537276 266.708639814722 20.9329188302627
endloop
endfacet
facet normal 5.52488813530107e-016 1.0 -3.51721308970241e-015
outer loop
vertex -1445.81779967046 266.87091806702 20.9329188302627
vertex -1447.05042537276 266.708639814722 27.2736732302627
vertex -1445.81779967046 266.87091806702 27.2736732302627
endloop
endfacet
facet normal 0.500000000000002 -0.866025403784437 1.25937252967726e-014
outer loop
vertex -1443.43654967046 257.983972081496 20.9329188302628
vertex -1444.58517396816 257.508196319318 27.2736732302628
vertex -1444.58517396815 257.508196319318 20.9329188302628
endloop
endfacet
facet normal 0.258819045102521 -0.965925826289068 8.33963537778603e-015
outer loop
vertex -1444.58517396816 257.508196319318 27.2736732302628
vertex -1443.43654967046 257.983972081496 20.9329188302628
vertex -1443.43654967046 257.983972081496 27.2736732302628
endloop
endfacet
facet normal -0.965925826289068 0.258819045102521 -1.93551185734719e-014
outer loop
vertex -1450.41802141816 263.341043769321 27.2736732302627
vertex -1450.58029967046 262.10841806702 20.9329188302627
vertex -1450.58029967046 262.10841806702 27.2736732302627
endloop
endfacet
facet normal -1.0 0.0 -1.90954588211343e-014
outer loop
vertex -1450.58029967046 262.10841806702 20.9329188302627
vertex -1450.41802141816 263.341043769321 27.2736732302627
vertex -1450.41802141816 263.341043769321 20.9329188302627
endloop
endfacet
facet normal -0.500000000000001 -0.866025403784438 -6.50173352436172e-015
outer loop
vertex -1448.19904967046 257.983972081496 20.9329188302627
vertex -1449.18539571586 258.740822021619 27.2736732302627
vertex -1449.18539571586 258.740822021619 20.9329188302627
endloop
endfacet
facet normal -0.707106781186549 -0.707106781186546 -1.10154831956859e-014
outer loop
vertex -1449.18539571586 258.740822021619 27.2736732302627
vertex -1448.19904967046 257.983972081496 20.9329188302627
vertex -1448.19904967046 257.983972081496 27.2736732302627
endloop
endfacet
facet normal 0.707106781186549 0.707106781186546 8.77599914731843e-015
outer loop
vertex -1447.37343458907 260.55278314841 27.2736732302627
vertex -1446.91779967046 260.203162178694 20.9329188302627
vertex -1447.37343458907 260.55278314841 20.9329188302627
endloop
endfacet
facet normal 0.500000000000027 0.866025403784423 4.74678550721843e-015
outer loop
vertex -1446.91779967046 260.203162178694 20.9329188302627
vertex -1447.37343458907 260.55278314841 27.2736732302627
vertex -1446.91779967046 260.203162178694 27.2736732302628
endloop
endfacet
facet normal 0.258819045102507 0.965925826289072 3.94086279234263e-016
outer loop
vertex -1446.38720156968 259.983381249184 27.2736732302628
vertex -1445.81779967046 259.90841806702 20.9329188302628
vertex -1446.38720156968 259.983381249184 20.9329188302627
endloop
endfacet
facet normal -9.26755429147272e-016 1.0 -3.98546927742041e-015
outer loop
vertex -1445.81779967046 259.90841806702 20.9329188302628
vertex -1446.38720156968 259.983381249184 27.2736732302628
vertex -1445.81779967046 259.90841806702 27.2736732302628
endloop
endfacet
facet normal 7.21799901547396e-016 1.0 -3.98546927742038e-015
outer loop
vertex -1445.81779967046 259.90841806702 27.2736732302628
vertex -1445.24839777123 259.983381249184 20.9329188302628
vertex -1445.81779967046 259.90841806702 20.9329188302628
endloop
endfacet
facet normal -0.258819045102505 0.965925826289072 -8.09342168911823e-015
outer loop
vertex -1445.24839777123 259.983381249184 20.9329188302628
vertex -1445.81779967046 259.90841806702 27.2736732302628
vertex -1445.24839777123 259.983381249184 27.2736732302628
endloop
endfacet
facet normal -0.500000000000017 0.866025403784429 -1.16498207877151e-014
outer loop
vertex -1444.71779967046 260.203162178694 20.9329188302628
vertex -1444.26216475185 260.55278314841 27.2736732302628
vertex -1444.26216475185 260.55278314841 20.9329188302628
endloop
endfacet
facet normal -0.707106781186569 0.707106781186526 -1.44123038518679e-014
outer loop
vertex -1444.26216475185 260.55278314841 27.2736732302628
vertex -1444.71779967046 260.203162178694 20.9329188302628
vertex -1444.71779967046 260.203162178694 27.2736732302628
endloop
endfacet
facet normal 0.965925826289068 -0.258819045102521 1.93551185734719e-014
outer loop
vertex -1441.21757792275 260.875792364719 20.9329188302628
vertex -1441.69335368493 259.72716806702 27.2736732302628
vertex -1441.69335368493 259.72716806702 20.9329188302628
endloop
endfacet
facet normal 0.866025403784439 -0.5 1.82957589808732e-014
outer loop
vertex -1441.69335368493 259.72716806702 27.2736732302628
vertex -1441.21757792275 260.875792364719 20.9329188302628
vertex -1441.21757792275 260.875792364719 27.2736732302628
endloop
endfacet
facet normal -0.965925826289068 -0.258819045102522 -1.75344751068742e-014
outer loop
vertex -1450.41802141816 260.875792364719 27.2736732302627
vertex -1449.94224565598 259.72716806702 20.9329188302627
vertex -1449.94224565598 259.72716806702 27.2736732302627
endloop
endfacet
facet normal -0.866025403784439 -0.5 -1.47785458911708e-014
outer loop
vertex -1449.94224565598 259.72716806702 20.9329188302627
vertex -1450.41802141816 260.875792364719 27.2736732302627
vertex -1450.41802141816 260.875792364719 20.9329188302627
endloop
endfacet
facet normal 0.866025403784446 -0.499999999999987 1.61926122259739e-014
outer loop
vertex -1447.72305555878 263.20841806702 20.9329188302627
vertex -1447.94283648829 262.677819966245 27.2736732302627
vertex -1447.94283648829 262.677819966245 20.9329188302627
endloop
endfacet
facet normal 0.965925826289067 -0.258819045102527 1.68694208364369e-014
outer loop
vertex -1447.94283648829 262.677819966245 27.2736732302627
vertex -1447.72305555878 263.20841806702 20.9329188302627
vertex -1447.72305555878 263.20841806702 27.2736732302627
endloop
endfacet
facet normal -0.258819045102507 0.965925826289072 -8.09342168911827e-015
outer loop
vertex -1445.24839777123 259.983381249184 27.2736732302628
vertex -1444.71779967046 260.203162178694 20.9329188302628
vertex -1445.24839777123 259.983381249184 20.9329188302628
endloop
endfacet
facet normal -0.500000000000017 0.866025403784429 -1.16498207877151e-014
outer loop
vertex -1444.71779967046 260.203162178694 20.9329188302628
vertex -1445.24839777123 259.983381249184 27.2736732302628
vertex -1444.71779967046 260.203162178694 27.2736732302628
endloop
endfacet
facet normal -9.26755429147272e-016 -1.0 3.98546927742038e-015
outer loop
vertex -1445.81779967046 264.30841806702 20.9329188302627
vertex -1446.38720156968 264.233454884856 27.2736732302627
vertex -1446.38720156968 264.233454884856 20.9329188302627
endloop
endfacet
facet normal 0.258819045102507 -0.965925826289072 8.09342168911826e-015
outer loop
vertex -1446.38720156968 264.233454884856 27.2736732302627
vertex -1445.81779967046 264.30841806702 20.9329188302627
vertex -1445.81779967046 264.30841806702 27.2736732302627
endloop
endfacet
facet normal 0.965925826289066 -0.258819045102528 1.68694208364369e-014
outer loop
vertex -1447.94283648829 262.677819966245 20.9329188302627
vertex -1448.01779967046 262.10841806702 27.2736732302627
vertex -1448.01779967046 262.10841806702 20.9329188302627
endloop
endfacet
facet normal 1.0 0.0 1.63966062949328e-014
outer loop
vertex -1448.01779967046 262.10841806702 27.2736732302627
vertex -1447.94283648829 262.677819966245 20.9329188302627
vertex -1447.94283648829 262.677819966245 27.2736732302627
endloop
endfacet
facet normal 0.866025403784438 0.500000000000001 1.47785458911707e-014
outer loop
vertex -1441.69335368493 264.48966806702 20.9329188302628
vertex -1441.21757792275 263.341043769321 27.2736732302628
vertex -1441.21757792275 263.341043769321 20.9329188302628
endloop
endfacet
facet normal 0.965925826289068 0.258819045102521 1.75344751068742e-014
outer loop
vertex -1441.21757792275 263.341043769321 27.2736732302628
vertex -1441.69335368493 264.48966806702 20.9329188302628
vertex -1441.69335368493 264.48966806702 27.2736732302628
endloop
endfacet
facet normal 0.258819045102505 -0.965925826289072 8.09342168911824e-015
outer loop
vertex -1446.38720156968 264.233454884856 20.9329188302627
vertex -1446.91779967046 264.013673955346 27.2736732302627
vertex -1446.91779967046 264.013673955346 20.9329188302627
endloop
endfacet
facet normal 0.500000000000014 -0.866025403784431 1.16498207877151e-014
outer loop
vertex -1446.91779967046 264.013673955346 27.2736732302627
vertex -1446.38720156968 264.233454884856 20.9329188302627
vertex -1446.38720156968 264.233454884856 27.2736732302627
endloop
endfacet
facet normal -0.866025403784445 0.499999999999988 -1.61926122259739e-014
outer loop
vertex -1443.91254378213 261.00841806702 27.2736732302628
vertex -1444.26216475185 260.55278314841 20.9329188302628
vertex -1444.26216475185 260.55278314841 27.2736732302628
endloop
endfacet
facet normal -0.707106781186569 0.707106781186526 -1.44123038518679e-014
outer loop
vertex -1444.26216475185 260.55278314841 20.9329188302628
vertex -1443.91254378213 261.00841806702 27.2736732302628
vertex -1443.91254378213 261.00841806702 20.9329188302628
endloop
endfacet
facet normal -0.96592582628907 -0.258819045102513 -1.48063901311022e-014
outer loop
vertex -1443.69276285262 262.677819966245 27.2736732302628
vertex -1443.61779967046 262.10841806702 20.9329188302628
vertex -1443.61779967046 262.10841806702 27.2736732302628
endloop
endfacet
facet normal -1.0 0.0 -1.63966062949328e-014
outer loop
vertex -1443.61779967046 262.10841806702 20.9329188302628
vertex -1443.69276285262 262.677819966245 27.2736732302628
vertex -1443.69276285262 262.677819966245 20.9329188302628
endloop
endfacet
facet normal -0.965925826289067 0.258819045102527 -1.68694208364369e-014
outer loop
vertex -1443.69276285262 261.539016167794 27.2736732302628
vertex -1443.91254378213 261.00841806702 20.9329188302628
vertex -1443.91254378213 261.00841806702 27.2736732302628
endloop
endfacet
facet normal -0.866025403784446 0.499999999999988 -1.61926122259739e-014
outer loop
vertex -1443.91254378213 261.00841806702 20.9329188302628
vertex -1443.69276285262 261.539016167794 27.2736732302628
vertex -1443.69276285262 261.539016167794 20.9329188302628
endloop
endfacet
facet normal -0.258819045102505 -0.965925826289072 -3.94086279234224e-016
outer loop
vertex -1445.24839777123 264.233454884856 20.9329188302627
vertex -1445.81779967046 264.30841806702 27.2736732302627
vertex -1445.81779967046 264.30841806702 20.9329188302627
endloop
endfacet
facet normal 7.21799901547396e-016 -1.0 3.9854692774204e-015
outer loop
vertex -1445.81779967046 264.30841806702 27.2736732302627
vertex -1445.24839777123 264.233454884856 20.9329188302627
vertex -1445.24839777123 264.233454884856 27.2736732302628
endloop
endfacet
facet normal -0.500000000000026 -0.866025403784424 -4.7467855072184e-015
outer loop
vertex -1444.71779967046 264.013673955346 20.9329188302627
vertex -1445.24839777123 264.233454884856 27.2736732302628
vertex -1445.24839777123 264.233454884856 20.9329188302627
endloop
endfacet
facet normal -0.258819045102507 -0.965925826289072 -3.94086279234266e-016
outer loop
vertex -1445.24839777123 264.233454884856 27.2736732302628
vertex -1444.71779967046 264.013673955346 20.9329188302627
vertex -1444.71779967046 264.013673955346 27.2736732302628
endloop
endfacet
facet normal 0.707106781186569 -0.707106781186527 1.44123038518679e-014
outer loop
vertex -1447.37343458907 263.66405298563 20.9329188302627
vertex -1447.72305555878 263.20841806702 27.2736732302627
vertex -1447.72305555878 263.20841806702 20.9329188302627
endloop
endfacet
facet normal 0.866025403784445 -0.499999999999988 1.61926122259739e-014
outer loop
vertex -1447.72305555878 263.20841806702 27.2736732302627
vertex -1447.37343458907 263.66405298563 20.9329188302627
vertex -1447.37343458907 263.66405298563 27.2736732302627
endloop
endfacet
endsolid LiteArm_i2_REV4_10
