solid LiteArm_i2_REV4_10
facet normal 0.707106781186546 -0.707106781186549 1.05368362426956e-008
outer loop
vertex -1229.8554050793 309.881909185092 15.454363867812
vertex -1230.84175150319 309.12505924497 40.8543638531141
vertex -1230.8417511247 309.12505924497 15.4543638531141
endloop
endfacet
facet normal 0.500000000000003 -0.866025403784437 7.45066964685166e-009
outer loop
vertex -1230.84175150319 309.12505924497 40.8543638531141
vertex -1229.8554050793 309.881909185092 15.454363867812
vertex -1229.85540545779 309.881909185092 40.854363867812
endloop
endfacet
facet normal 0.500000000000003 -0.866025403784437 7.45066964685165e-009
outer loop
vertex -1230.8417511247 309.12505924497 15.4543638531141
vertex -1231.99037580089 308.649283482791 40.8543638359981
vertex -1231.9903754224 308.649283482791 15.4543638359981
endloop
endfacet
facet normal 0.25881904510252 -0.965925826289068 3.85675222738839e-009
outer loop
vertex -1231.99037580089 308.649283482791 40.8543638359981
vertex -1230.8417511247 309.12505924497 15.4543638531141
vertex -1230.84175150319 309.12505924497 40.8543638531141
endloop
endfacet
facet normal -1.0 2.85155516660701e-016 -1.49013332017114e-008
outer loop
vertex -1237.98550150319 313.249505230493 40.8543637466627
vertex -1237.8232228724 314.482130932794 15.4543637490808
vertex -1237.9855011247 313.249505230493 15.4543637466627
endloop
endfacet
facet normal -0.965925826289068 0.258819045102521 -1.43935834959936e-008
outer loop
vertex -1237.8232228724 314.482130932794 15.4543637490808
vertex -1237.98550150319 313.249505230493 40.8543637466627
vertex -1237.8232232509 314.482130932794 40.8543637490808
endloop
endfacet
facet normal -0.500000000000004 -0.866025403784437 -7.45066355485989e-009
outer loop
vertex -1235.6042511247 309.12505924497 15.4543637821465
vertex -1236.5905975486 309.881909185092 40.8543637674486
vertex -1236.5905971701 309.881909185092 15.4543637674486
endloop
endfacet
facet normal -0.707106781186546 -0.707106781186549 -1.05368312686052e-008
outer loop
vertex -1236.5905975486 309.881909185092 40.8543637674486
vertex -1235.6042511247 309.12505924497 15.4543637821465
vertex -1235.60425150319 309.12505924497 40.8543637821465
endloop
endfacet
facet normal -0.707106781186546 -0.707106781186549 -1.05368312686052e-008
outer loop
vertex -1236.5905975486 309.881909185092 40.8543637674486
vertex -1237.34744711022 310.868255230493 15.4543637561705
vertex -1236.5905971701 309.881909185092 15.4543637674486
endloop
endfacet
facet normal -0.866025403784444 -0.49999999999999 -1.29049313443321e-008
outer loop
vertex -1237.34744711022 310.868255230493 15.4543637561705
vertex -1236.5905975486 309.881909185092 40.8543637674486
vertex -1237.34744748872 310.868255230493 40.8543637561705
endloop
endfacet
facet normal -0.25881904510252 -0.965925826289069 -3.85674543265447e-009
outer loop
vertex -1234.455626827 308.649283482791 15.4543637992625
vertex -1235.60425150319 309.12505924497 40.8543637821465
vertex -1235.6042511247 309.12505924497 15.4543637821465
endloop
endfacet
facet normal -0.500000000000003 -0.866025403784437 -7.45066355485988e-009
outer loop
vertex -1235.60425150319 309.12505924497 40.8543637821465
vertex -1234.455626827 308.649283482791 15.4543637992625
vertex -1234.4556272055 308.649283482791 40.8543637992625
endloop
endfacet
facet normal 1.69311088017291e-016 1.0 -3.5172130869714e-015
outer loop
vertex -1233.22300150319 318.012005230493 40.8543638176303
vertex -1231.9903754224 317.849726978195 15.454363835998
vertex -1233.2230011247 318.012005230493 15.4543638176303
endloop
endfacet
facet normal 0.258819045102521 0.965925826289068 3.85674543265449e-009
outer loop
vertex -1231.9903754224 317.849726978195 15.454363835998
vertex -1233.22300150319 318.012005230493 40.8543638176303
vertex -1231.99037580089 317.849726978195 40.854363835998
endloop
endfacet
facet normal -0.258819045102521 0.965925826289068 -3.8567522273884e-009
outer loop
vertex -1234.4556272055 317.849726978195 40.8543637992625
vertex -1233.2230011247 318.012005230493 15.4543638176303
vertex -1234.455626827 317.849726978195 15.4543637992625
endloop
endfacet
facet normal 9.80222088521155e-017 1.0 -3.51721308803368e-015
outer loop
vertex -1233.2230011247 318.012005230493 15.4543638176303
vertex -1234.4556272055 317.849726978195 40.8543637992625
vertex -1233.22300150319 318.012005230493 40.8543638176303
endloop
endfacet
facet normal 0.965925826289068 -0.258819045102522 1.43935834959936e-008
outer loop
vertex -1228.622779377 312.016879528192 15.4543638861797
vertex -1229.09855551767 310.868255230493 40.85436387909
vertex -1229.09855513918 310.868255230493 15.45436387909
endloop
endfacet
facet normal 0.866025403784444 -0.499999999999991 1.29049348615452e-008
outer loop
vertex -1229.09855551767 310.868255230493 40.85436387909
vertex -1228.622779377 312.016879528192 15.4543638861797
vertex -1228.62277975549 312.016879528192 40.8543638861797
endloop
endfacet
facet normal 1.06933318747762e-016 -1.0 3.51721309108775e-015
outer loop
vertex -1233.2230011247 308.487005230493 15.4543638176303
vertex -1234.4556272055 308.649283482791 40.8543637992625
vertex -1234.455626827 308.649283482791 15.4543637992625
endloop
endfacet
facet normal -0.258819045102521 -0.965925826289068 -3.85674543265449e-009
outer loop
vertex -1234.4556272055 308.649283482791 40.8543637992625
vertex -1233.2230011247 308.487005230493 15.4543638176303
vertex -1233.22300150319 308.487005230493 40.8543638176303
endloop
endfacet
facet normal -0.965925826289068 -0.258819045102522 -1.43935816753501e-008
outer loop
vertex -1237.8232232509 312.016879528192 40.8543637490808
vertex -1237.9855011247 313.249505230493 15.4543637466627
vertex -1237.8232228724 312.016879528192 15.4543637490808
endloop
endfacet
facet normal -1.0 -3.02977736451995e-016 -1.49013332017114e-008
outer loop
vertex -1237.9855011247 313.249505230493 15.4543637466627
vertex -1237.8232232509 312.016879528192 40.8543637490808
vertex -1237.98550150319 313.249505230493 40.8543637466627
endloop
endfacet
facet normal -0.500000000000003 0.866025403784437 -7.45066964685165e-009
outer loop
vertex -1235.60425150319 317.373951216017 40.8543637821465
vertex -1234.455626827 317.849726978195 15.4543637992625
vertex -1235.6042511247 317.373951216017 15.4543637821465
endloop
endfacet
facet normal -0.25881904510252 0.965925826289069 -3.85675222738839e-009
outer loop
vertex -1234.455626827 317.849726978195 15.4543637992625
vertex -1235.60425150319 317.373951216017 40.8543637821465
vertex -1234.4556272055 317.849726978195 40.8543637992625
endloop
endfacet
facet normal 0.707106781186546 0.707106781186549 1.05368312686052e-008
outer loop
vertex -1229.8554050793 316.617101275894 15.4543638678119
vertex -1229.09855551767 315.630755230493 40.85436387909
vertex -1229.09855513918 315.630755230493 15.45436387909
endloop
endfacet
facet normal 0.866025403784444 0.49999999999999 1.29049313443321e-008
outer loop
vertex -1229.09855551767 315.630755230493 40.85436387909
vertex -1229.8554050793 316.617101275894 15.4543638678119
vertex -1229.85540545779 316.617101275894 40.8543638678119
endloop
endfacet
facet normal 0.25881904510252 0.965925826289069 3.85674543265447e-009
outer loop
vertex -1231.99037580089 317.849726978195 40.854363835998
vertex -1230.8417511247 317.373951216017 15.454363853114
vertex -1231.9903754224 317.849726978195 15.454363835998
endloop
endfacet
facet normal 0.500000000000003 0.866025403784437 7.45066355485988e-009
outer loop
vertex -1230.8417511247 317.373951216017 15.454363853114
vertex -1231.99037580089 317.849726978195 40.854363835998
vertex -1230.84175150319 317.373951216017 40.8543638531141
endloop
endfacet
facet normal -0.965925826289068 0.258819045102522 -1.43935834959936e-008
outer loop
vertex -1237.8232232509 314.482130932794 40.8543637490808
vertex -1237.34744711022 315.630755230493 15.4543637561705
vertex -1237.8232228724 314.482130932794 15.4543637490808
endloop
endfacet
facet normal -0.866025403784444 0.49999999999999 -1.29049348615452e-008
outer loop
vertex -1237.34744711022 315.630755230493 15.4543637561705
vertex -1237.8232232509 314.482130932794 40.8543637490808
vertex -1237.34744748872 315.630755230493 40.8543637561705
endloop
endfacet
facet normal -1.49013332017114e-008 3.5172130897024e-015 1.0
outer loop
vertex -1237.8232232509 312.016879528192 40.8543637490808
vertex -1237.8232232509 314.482130932794 40.8543637490808
vertex -1237.98550150319 313.249505230493 40.8543637466627
endloop
endfacet
facet normal -1.49013332017114e-008 3.5172130897024e-015 1.0
outer loop
vertex -1237.8232232509 314.482130932794 40.8543637490808
vertex -1237.8232232509 312.016879528192 40.8543637490808
vertex -1237.34744748872 310.868255230493 40.8543637561705
endloop
endfacet
facet normal -1.49013332017114e-008 3.5172130897024e-015 1.0
outer loop
vertex -1237.8232232509 314.482130932794 40.8543637490808
vertex -1237.34744748872 310.868255230493 40.8543637561705
vertex -1237.34744748872 315.630755230493 40.8543637561705
endloop
endfacet
facet normal -1.49013332017114e-008 3.5172130897024e-015 1.0
outer loop
vertex -1237.34744748872 315.630755230493 40.8543637561705
vertex -1237.34744748872 310.868255230493 40.8543637561705
vertex -1236.5905975486 309.881909185092 40.8543637674486
endloop
endfacet
facet normal -1.49013332017114e-008 3.5172130897024e-015 1.0
outer loop
vertex -1237.34744748872 315.630755230493 40.8543637561705
vertex -1236.5905975486 309.881909185092 40.8543637674486
vertex -1236.5905975486 316.617101275894 40.8543637674486
endloop
endfacet
facet normal -1.49013332017114e-008 3.5172130897024e-015 1.0
outer loop
vertex -1236.5905975486 316.617101275894 40.8543637674486
vertex -1236.5905975486 309.881909185092 40.8543637674486
vertex -1235.60425150319 309.12505924497 40.8543637821465
endloop
endfacet
facet normal -1.49013332017114e-008 3.5172130897024e-015 1.0
outer loop
vertex -1236.5905975486 316.617101275894 40.8543637674486
vertex -1235.60425150319 309.12505924497 40.8543637821465
vertex -1235.60425150319 317.373951216017 40.8543637821465
endloop
endfacet
facet normal -1.49013332017114e-008 3.5172130897024e-015 1.0
outer loop
vertex -1235.60425150319 317.373951216017 40.8543637821465
vertex -1235.60425150319 309.12505924497 40.8543637821465
vertex -1235.42300150319 313.249505230493 40.8543637848473
endloop
endfacet
facet normal -1.49013332017114e-008 3.5172130897024e-015 1.0
outer loop
vertex -1235.42300150319 313.249505230493 40.8543637848473
vertex -1235.60425150319 309.12505924497 40.8543637821465
vertex -1235.34803832103 312.680103331268 40.8543637859644
endloop
endfacet
facet normal -1.49013332017114e-008 3.5172130897024e-015 1.0
outer loop
vertex -1235.34803832103 312.680103331268 40.8543637859644
vertex -1235.60425150319 309.12505924497 40.8543637821465
vertex -1234.4556272055 308.649283482791 40.8543637992625
endloop
endfacet
facet normal -1.49013332017114e-008 3.5172130897024e-015 1.0
outer loop
vertex -1235.34803832103 312.680103331268 40.8543637859644
vertex -1234.4556272055 308.649283482791 40.8543637992625
vertex -1235.12825739152 312.149505230493 40.8543637892394
endloop
endfacet
facet normal -1.49013332017114e-008 3.5172130897024e-015 1.0
outer loop
vertex -1235.12825739152 312.149505230493 40.8543637892394
vertex -1234.4556272055 308.649283482791 40.8543637992625
vertex -1234.77863642181 311.693870311883 40.8543637944492
endloop
endfacet
facet normal -1.49013332017114e-008 3.5172130897024e-015 1.0
outer loop
vertex -1234.77863642181 311.693870311883 40.8543637944492
vertex -1234.4556272055 308.649283482791 40.8543637992625
vertex -1234.32300150319 311.344249342167 40.8543638012388
endloop
endfacet
facet normal -1.49013332017114e-008 3.5172130897024e-015 1.0
outer loop
vertex -1234.32300150319 311.344249342167 40.8543638012388
vertex -1234.4556272055 308.649283482791 40.8543637992625
vertex -1233.22300150319 308.487005230493 40.8543638176303
endloop
endfacet
facet normal -1.49013332017114e-008 3.5172130897024e-015 1.0
outer loop
vertex -1234.32300150319 311.344249342167 40.8543638012388
vertex -1233.22300150319 308.487005230493 40.8543638176303
vertex -1233.79240340242 311.124468412657 40.8543638091454
endloop
endfacet
facet normal -1.49013332017114e-008 3.5172130897024e-015 1.0
outer loop
vertex -1233.79240340242 311.124468412657 40.8543638091454
vertex -1233.22300150319 308.487005230493 40.8543638176303
vertex -1233.22300150319 311.049505230493 40.8543638176303
endloop
endfacet
facet normal -1.49013332017114e-008 3.5172130897024e-015 1.0
outer loop
vertex -1233.22300150319 311.049505230493 40.8543638176303
vertex -1233.22300150319 308.487005230493 40.8543638176303
vertex -1231.99037580089 308.649283482791 40.8543638359981
endloop
endfacet
facet normal -1.49013332017114e-008 3.5172130897024e-015 1.0
outer loop
vertex -1233.22300150319 311.049505230493 40.8543638176303
vertex -1231.99037580089 308.649283482791 40.8543638359981
vertex -1232.65359960397 311.124468412657 40.8543638261151
endloop
endfacet
facet normal -1.49013332017114e-008 3.5172130897024e-015 1.0
outer loop
vertex -1232.65359960397 311.124468412657 40.8543638261151
vertex -1231.99037580089 308.649283482791 40.8543638359981
vertex -1232.12300150319 311.344249342167 40.8543638340217
endloop
endfacet
facet normal -1.49013332017114e-008 3.5172130897024e-015 1.0
outer loop
vertex -1232.12300150319 311.344249342167 40.8543638340217
vertex -1231.99037580089 308.649283482791 40.8543638359981
vertex -1231.66736658458 311.693870311883 40.8543638408113
endloop
endfacet
facet normal -1.49013332017114e-008 3.5172130897024e-015 1.0
outer loop
vertex -1231.66736658458 311.693870311883 40.8543638408113
vertex -1231.99037580089 308.649283482791 40.8543638359981
vertex -1230.84175150319 309.12505924497 40.8543638531141
endloop
endfacet
facet normal -1.49013332017114e-008 3.5172130897024e-015 1.0
outer loop
vertex -1231.66736658458 311.693870311883 40.8543638408113
vertex -1230.84175150319 309.12505924497 40.8543638531141
vertex -1231.31774561487 312.149505230493 40.8543638460211
endloop
endfacet
facet normal -1.49013332017114e-008 3.5172130897024e-015 1.0
outer loop
vertex -1231.31774561487 312.149505230493 40.8543638460211
vertex -1230.84175150319 309.12505924497 40.8543638531141
vertex -1231.09796468536 312.680103331268 40.8543638492962
endloop
endfacet
facet normal -1.49013332017114e-008 3.5172130897024e-015 1.0
outer loop
vertex -1231.09796468536 312.680103331268 40.8543638492962
vertex -1230.84175150319 309.12505924497 40.8543638531141
vertex -1231.02300150319 313.249505230493 40.8543638504132
endloop
endfacet
facet normal -1.49013332017114e-008 3.5172130897024e-015 1.0
outer loop
vertex -1235.60425150319 317.373951216017 40.8543637821465
vertex -1235.34803832103 313.818907129719 40.8543637859644
vertex -1234.4556272055 317.849726978195 40.8543637992625
endloop
endfacet
facet normal -1.49013332017114e-008 3.5172130897024e-015 1.0
outer loop
vertex -1235.34803832103 313.818907129719 40.8543637859644
vertex -1235.60425150319 317.373951216017 40.8543637821465
vertex -1235.42300150319 313.249505230493 40.8543637848473
endloop
endfacet
facet normal -1.49013332017114e-008 3.5172130897024e-015 1.0
outer loop
vertex -1234.4556272055 317.849726978195 40.8543637992625
vertex -1235.34803832103 313.818907129719 40.8543637859644
vertex -1235.12825739152 314.349505230493 40.8543637892394
endloop
endfacet
facet normal -1.49013332017114e-008 3.5172130897024e-015 1.0
outer loop
vertex -1234.4556272055 317.849726978195 40.8543637992625
vertex -1235.12825739152 314.349505230493 40.8543637892394
vertex -1234.77863642181 314.805140149104 40.8543637944492
endloop
endfacet
facet normal -1.49013332017114e-008 3.5172130897024e-015 1.0
outer loop
vertex -1234.4556272055 317.849726978195 40.8543637992625
vertex -1234.77863642181 314.805140149104 40.8543637944492
vertex -1234.32300150319 315.154761118819 40.8543638012388
endloop
endfacet
facet normal -1.49013332017114e-008 3.5172130897024e-015 1.0
outer loop
vertex -1234.4556272055 317.849726978195 40.8543637992625
vertex -1234.32300150319 315.154761118819 40.8543638012388
vertex -1233.22300150319 318.012005230493 40.8543638176303
endloop
endfacet
facet normal -1.49013332017114e-008 3.5172130897024e-015 1.0
outer loop
vertex -1233.22300150319 318.012005230493 40.8543638176303
vertex -1234.32300150319 315.154761118819 40.8543638012388
vertex -1233.79240340242 315.374542048329 40.8543638091454
endloop
endfacet
facet normal -1.49013332017114e-008 3.5172130897024e-015 1.0
outer loop
vertex -1233.22300150319 318.012005230493 40.8543638176303
vertex -1233.79240340242 315.374542048329 40.8543638091454
vertex -1233.22300150319 315.449505230493 40.8543638176303
endloop
endfacet
facet normal -1.49013332017114e-008 3.5172130897024e-015 1.0
outer loop
vertex -1233.22300150319 318.012005230493 40.8543638176303
vertex -1233.22300150319 315.449505230493 40.8543638176303
vertex -1232.65359960397 315.374542048329 40.8543638261151
endloop
endfacet
facet normal -1.49013332017114e-008 3.5172130897024e-015 1.0
outer loop
vertex -1233.22300150319 318.012005230493 40.8543638176303
vertex -1232.65359960397 315.374542048329 40.8543638261151
vertex -1231.99037580089 317.849726978195 40.854363835998
endloop
endfacet
facet normal -1.49013332017114e-008 3.5172130897024e-015 1.0
outer loop
vertex -1231.99037580089 317.849726978195 40.854363835998
vertex -1232.65359960397 315.374542048329 40.8543638261151
vertex -1232.12300150319 315.154761118819 40.8543638340217
endloop
endfacet
facet normal -1.49013332017114e-008 3.5172130897024e-015 1.0
outer loop
vertex -1231.99037580089 317.849726978195 40.854363835998
vertex -1232.12300150319 315.154761118819 40.8543638340217
vertex -1231.66736658458 314.805140149104 40.8543638408113
endloop
endfacet
facet normal -1.49013332017114e-008 3.5172130897024e-015 1.0
outer loop
vertex -1231.99037580089 317.849726978195 40.854363835998
vertex -1231.66736658458 314.805140149104 40.8543638408113
vertex -1230.84175150319 317.373951216017 40.8543638531141
endloop
endfacet
facet normal -1.49013332017114e-008 3.5172130897024e-015 1.0
outer loop
vertex -1230.84175150319 317.373951216017 40.8543638531141
vertex -1231.66736658458 314.805140149104 40.8543638408113
vertex -1231.31774561487 314.349505230493 40.8543638460211
endloop
endfacet
facet normal -1.49013332017114e-008 3.5172130897024e-015 1.0
outer loop
vertex -1230.84175150319 317.373951216017 40.8543638531141
vertex -1231.31774561487 314.349505230493 40.8543638460211
vertex -1231.09796468536 313.818907129719 40.8543638492962
endloop
endfacet
facet normal -1.49013332017114e-008 3.5172130897024e-015 1.0
outer loop
vertex -1230.84175150319 317.373951216017 40.8543638531141
vertex -1231.09796468536 313.818907129719 40.8543638492962
vertex -1231.02300150319 313.249505230493 40.8543638504132
endloop
endfacet
facet normal -1.49013332017114e-008 3.5172130897024e-015 1.0
outer loop
vertex -1230.84175150319 317.373951216017 40.8543638531141
vertex -1231.02300150319 313.249505230493 40.8543638504132
vertex -1230.84175150319 309.12505924497 40.8543638531141
endloop
endfacet
facet normal -1.49013332017114e-008 3.5172130897024e-015 1.0
outer loop
vertex -1230.84175150319 317.373951216017 40.8543638531141
vertex -1230.84175150319 309.12505924497 40.8543638531141
vertex -1229.85540545779 309.881909185092 40.854363867812
endloop
endfacet
facet normal -1.49013332017114e-008 3.5172130897024e-015 1.0
outer loop
vertex -1230.84175150319 317.373951216017 40.8543638531141
vertex -1229.85540545779 309.881909185092 40.854363867812
vertex -1229.85540545779 316.617101275894 40.8543638678119
endloop
endfacet
facet normal -1.49013332017114e-008 3.5172130897024e-015 1.0
outer loop
vertex -1229.85540545779 316.617101275894 40.8543638678119
vertex -1229.85540545779 309.881909185092 40.854363867812
vertex -1229.09855551767 310.868255230493 40.85436387909
endloop
endfacet
facet normal -1.49013332017114e-008 3.5172130897024e-015 1.0
outer loop
vertex -1229.85540545779 316.617101275894 40.8543638678119
vertex -1229.09855551767 310.868255230493 40.85436387909
vertex -1229.09855551767 315.630755230493 40.85436387909
endloop
endfacet
facet normal -1.49013332017114e-008 3.5172130897024e-015 1.0
outer loop
vertex -1229.09855551767 315.630755230493 40.85436387909
vertex -1229.09855551767 310.868255230493 40.85436387909
vertex -1228.62277975549 312.016879528192 40.8543638861797
endloop
endfacet
facet normal -1.49013332017114e-008 3.5172130897024e-015 1.0
outer loop
vertex -1229.09855551767 315.630755230493 40.85436387909
vertex -1228.62277975549 312.016879528192 40.8543638861797
vertex -1228.62277975549 314.482130932794 40.8543638861797
endloop
endfacet
facet normal -1.49013332017114e-008 3.5172130897024e-015 1.0
outer loop
vertex -1228.62277975549 314.482130932794 40.8543638861797
vertex -1228.62277975549 312.016879528192 40.8543638861797
vertex -1228.46050150319 313.249505230493 40.8543638885979
endloop
endfacet
facet normal 0.866025403784444 -0.49999999999999 1.29049348615452e-008
outer loop
vertex -1229.09855513918 310.868255230493 15.45436387909
vertex -1229.85540545779 309.881909185092 40.854363867812
vertex -1229.8554050793 309.881909185092 15.454363867812
endloop
endfacet
facet normal 0.707106781186546 -0.707106781186549 1.05368362426956e-008
outer loop
vertex -1229.85540545779 309.881909185092 40.854363867812
vertex -1229.09855513918 310.868255230493 15.45436387909
vertex -1229.09855551767 310.868255230493 40.85436387909
endloop
endfacet
facet normal 1.49013332017114e-008 -3.5172130897024e-015 -1.0
outer loop
vertex -1237.8232228724 314.482130932794 15.4543637490808
vertex -1237.8232228724 312.016879528192 15.4543637490808
vertex -1237.9855011247 313.249505230493 15.4543637466627
endloop
endfacet
facet normal 1.49013332017114e-008 -3.5172130897024e-015 -1.0
outer loop
vertex -1237.8232228724 312.016879528192 15.4543637490808
vertex -1237.8232228724 314.482130932794 15.4543637490808
vertex -1237.34744711022 315.630755230493 15.4543637561705
endloop
endfacet
facet normal 1.49013332017114e-008 -3.5172130897024e-015 -1.0
outer loop
vertex -1237.8232228724 312.016879528192 15.4543637490808
vertex -1237.34744711022 315.630755230493 15.4543637561705
vertex -1237.34744711022 310.868255230493 15.4543637561705
endloop
endfacet
facet normal 1.49013332017114e-008 -3.5172130897024e-015 -1.0
outer loop
vertex -1237.34744711022 310.868255230493 15.4543637561705
vertex -1237.34744711022 315.630755230493 15.4543637561705
vertex -1236.5905971701 316.617101275894 15.4543637674486
endloop
endfacet
facet normal 1.49013332017114e-008 -3.5172130897024e-015 -1.0
outer loop
vertex -1237.34744711022 310.868255230493 15.4543637561705
vertex -1236.5905971701 316.617101275894 15.4543637674486
vertex -1236.5905971701 309.881909185092 15.4543637674486
endloop
endfacet
facet normal 1.49013332017114e-008 -3.5172130897024e-015 -1.0
outer loop
vertex -1236.5905971701 309.881909185092 15.4543637674486
vertex -1236.5905971701 316.617101275894 15.4543637674486
vertex -1235.6042511247 317.373951216017 15.4543637821465
endloop
endfacet
facet normal 1.49013332017114e-008 -3.5172130897024e-015 -1.0
outer loop
vertex -1236.5905971701 309.881909185092 15.4543637674486
vertex -1235.6042511247 317.373951216017 15.4543637821465
vertex -1235.6042511247 309.12505924497 15.4543637821465
endloop
endfacet
facet normal 1.49013332017114e-008 -3.5172130897024e-015 -1.0
outer loop
vertex -1235.6042511247 309.12505924497 15.4543637821465
vertex -1235.6042511247 317.373951216017 15.4543637821465
vertex -1235.4230011247 313.249505230493 15.4543637848473
endloop
endfacet
facet normal 1.49013332017114e-008 -3.5172130897024e-015 -1.0
outer loop
vertex -1235.4230011247 313.249505230493 15.4543637848473
vertex -1235.6042511247 317.373951216017 15.4543637821465
vertex -1235.34803794254 313.818907129719 15.4543637859644
endloop
endfacet
facet normal 1.49013332017114e-008 -3.5172130897024e-015 -1.0
outer loop
vertex -1235.34803794254 313.818907129719 15.4543637859644
vertex -1235.6042511247 317.373951216017 15.4543637821465
vertex -1234.455626827 317.849726978195 15.4543637992625
endloop
endfacet
facet normal 1.49013332017114e-008 -3.5172130897024e-015 -1.0
outer loop
vertex -1235.34803794254 313.818907129719 15.4543637859644
vertex -1234.455626827 317.849726978195 15.4543637992625
vertex -1235.12825701303 314.349505230493 15.4543637892394
endloop
endfacet
facet normal 1.49013332017114e-008 -3.5172130897024e-015 -1.0
outer loop
vertex -1235.12825701303 314.349505230493 15.4543637892394
vertex -1234.455626827 317.849726978195 15.4543637992625
vertex -1234.77863604331 314.805140149104 15.4543637944492
endloop
endfacet
facet normal 1.49013332017114e-008 -3.5172130897024e-015 -1.0
outer loop
vertex -1234.77863604331 314.805140149104 15.4543637944492
vertex -1234.455626827 317.849726978195 15.4543637992625
vertex -1234.3230011247 315.154761118819 15.4543638012388
endloop
endfacet
facet normal 1.49013332017114e-008 -3.5172130897024e-015 -1.0
outer loop
vertex -1234.3230011247 315.154761118819 15.4543638012388
vertex -1234.455626827 317.849726978195 15.4543637992625
vertex -1233.2230011247 318.012005230493 15.4543638176303
endloop
endfacet
facet normal 1.49013332017114e-008 -3.5172130897024e-015 -1.0
outer loop
vertex -1234.3230011247 315.154761118819 15.4543638012388
vertex -1233.2230011247 318.012005230493 15.4543638176303
vertex -1233.79240302393 315.374542048329 15.4543638091454
endloop
endfacet
facet normal 1.49013332017114e-008 -3.5172130897024e-015 -1.0
outer loop
vertex -1233.79240302393 315.374542048329 15.4543638091454
vertex -1233.2230011247 318.012005230493 15.4543638176303
vertex -1233.2230011247 315.449505230493 15.4543638176303
endloop
endfacet
facet normal 1.49013332017114e-008 -3.5172130897024e-015 -1.0
outer loop
vertex -1233.2230011247 315.449505230493 15.4543638176303
vertex -1233.2230011247 318.012005230493 15.4543638176303
vertex -1231.9903754224 317.849726978195 15.454363835998
endloop
endfacet
facet normal 1.49013332017114e-008 -3.5172130897024e-015 -1.0
outer loop
vertex -1233.2230011247 315.449505230493 15.4543638176303
vertex -1231.9903754224 317.849726978195 15.454363835998
vertex -1232.65359922548 315.374542048329 15.4543638261151
endloop
endfacet
facet normal 1.49013332017114e-008 -3.5172130897024e-015 -1.0
outer loop
vertex -1232.65359922548 315.374542048329 15.4543638261151
vertex -1231.9903754224 317.849726978195 15.454363835998
vertex -1232.1230011247 315.154761118819 15.4543638340217
endloop
endfacet
facet normal 1.49013332017114e-008 -3.5172130897024e-015 -1.0
outer loop
vertex -1232.1230011247 315.154761118819 15.4543638340217
vertex -1231.9903754224 317.849726978195 15.454363835998
vertex -1231.66736620609 314.805140149104 15.4543638408113
endloop
endfacet
facet normal 1.49013332017114e-008 -3.5172130897024e-015 -1.0
outer loop
vertex -1231.66736620609 314.805140149104 15.4543638408113
vertex -1231.9903754224 317.849726978195 15.454363835998
vertex -1230.8417511247 317.373951216017 15.454363853114
endloop
endfacet
facet normal 1.49013332017114e-008 -3.5172130897024e-015 -1.0
outer loop
vertex -1231.66736620609 314.805140149104 15.4543638408113
vertex -1230.8417511247 317.373951216017 15.454363853114
vertex -1231.31774523638 314.349505230493 15.4543638460211
endloop
endfacet
facet normal 1.49013332017114e-008 -3.5172130897024e-015 -1.0
outer loop
vertex -1231.31774523638 314.349505230493 15.4543638460211
vertex -1230.8417511247 317.373951216017 15.454363853114
vertex -1231.09796430686 313.818907129719 15.4543638492962
endloop
endfacet
facet normal 1.49013332017114e-008 -3.5172130897024e-015 -1.0
outer loop
vertex -1231.09796430686 313.818907129719 15.4543638492962
vertex -1230.8417511247 317.373951216017 15.454363853114
vertex -1231.0230011247 313.249505230493 15.4543638504132
endloop
endfacet
facet normal 1.49013332017114e-008 -3.5172130897024e-015 -1.0
outer loop
vertex -1235.6042511247 309.12505924497 15.4543637821465
vertex -1235.34803794254 312.680103331268 15.4543637859644
vertex -1234.455626827 308.649283482791 15.4543637992625
endloop
endfacet
facet normal 1.49013332017114e-008 -3.5172130897024e-015 -1.0
outer loop
vertex -1235.34803794254 312.680103331268 15.4543637859644
vertex -1235.6042511247 309.12505924497 15.4543637821465
vertex -1235.4230011247 313.249505230493 15.4543637848473
endloop
endfacet
facet normal 1.49013332017114e-008 -3.5172130897024e-015 -1.0
outer loop
vertex -1234.455626827 308.649283482791 15.4543637992625
vertex -1235.34803794254 312.680103331268 15.4543637859644
vertex -1235.12825701303 312.149505230493 15.4543637892394
endloop
endfacet
facet normal 1.49013332017114e-008 -3.5172130897024e-015 -1.0
outer loop
vertex -1234.455626827 308.649283482791 15.4543637992625
vertex -1235.12825701303 312.149505230493 15.4543637892394
vertex -1234.77863604331 311.693870311883 15.4543637944492
endloop
endfacet
facet normal 1.49013332017114e-008 -3.5172130897024e-015 -1.0
outer loop
vertex -1234.455626827 308.649283482791 15.4543637992625
vertex -1234.77863604331 311.693870311883 15.4543637944492
vertex -1234.3230011247 311.344249342167 15.4543638012388
endloop
endfacet
facet normal 1.49013332017114e-008 -3.5172130897024e-015 -1.0
outer loop
vertex -1234.455626827 308.649283482791 15.4543637992625
vertex -1234.3230011247 311.344249342167 15.4543638012388
vertex -1233.2230011247 308.487005230493 15.4543638176303
endloop
endfacet
facet normal 1.49013332017114e-008 -3.5172130897024e-015 -1.0
outer loop
vertex -1233.2230011247 308.487005230493 15.4543638176303
vertex -1234.3230011247 311.344249342167 15.4543638012388
vertex -1233.79240302393 311.124468412657 15.4543638091454
endloop
endfacet
facet normal 1.49013332017114e-008 -3.5172130897024e-015 -1.0
outer loop
vertex -1233.2230011247 308.487005230493 15.4543638176303
vertex -1233.79240302393 311.124468412657 15.4543638091454
vertex -1233.2230011247 311.049505230493 15.4543638176303
endloop
endfacet
facet normal 1.49013332017114e-008 -3.5172130897024e-015 -1.0
outer loop
vertex -1233.2230011247 308.487005230493 15.4543638176303
vertex -1233.2230011247 311.049505230493 15.4543638176303
vertex -1232.65359922548 311.124468412657 15.4543638261151
endloop
endfacet
facet normal 1.49013332017114e-008 -3.5172130897024e-015 -1.0
outer loop
vertex -1233.2230011247 308.487005230493 15.4543638176303
vertex -1232.65359922548 311.124468412657 15.4543638261151
vertex -1231.9903754224 308.649283482791 15.4543638359981
endloop
endfacet
facet normal 1.49013332017114e-008 -3.5172130897024e-015 -1.0
outer loop
vertex -1231.9903754224 308.649283482791 15.4543638359981
vertex -1232.65359922548 311.124468412657 15.4543638261151
vertex -1232.1230011247 311.344249342167 15.4543638340217
endloop
endfacet
facet normal 1.49013332017114e-008 -3.5172130897024e-015 -1.0
outer loop
vertex -1231.9903754224 308.649283482791 15.4543638359981
vertex -1232.1230011247 311.344249342167 15.4543638340217
vertex -1231.66736620609 311.693870311883 15.4543638408113
endloop
endfacet
facet normal 1.49013332017114e-008 -3.5172130897024e-015 -1.0
outer loop
vertex -1231.9903754224 308.649283482791 15.4543638359981
vertex -1231.66736620609 311.693870311883 15.4543638408113
vertex -1230.8417511247 309.12505924497 15.4543638531141
endloop
endfacet
facet normal 1.49013332017114e-008 -3.5172130897024e-015 -1.0
outer loop
vertex -1230.8417511247 309.12505924497 15.4543638531141
vertex -1231.66736620609 311.693870311883 15.4543638408113
vertex -1231.31774523638 312.149505230493 15.4543638460211
endloop
endfacet
facet normal 1.49013332017114e-008 -3.5172130897024e-015 -1.0
outer loop
vertex -1230.8417511247 309.12505924497 15.4543638531141
vertex -1231.31774523638 312.149505230493 15.4543638460211
vertex -1231.09796430686 312.680103331268 15.4543638492962
endloop
endfacet
facet normal 1.49013332017114e-008 -3.5172130897024e-015 -1.0
outer loop
vertex -1230.8417511247 309.12505924497 15.4543638531141
vertex -1231.09796430686 312.680103331268 15.4543638492962
vertex -1231.0230011247 313.249505230493 15.4543638504132
endloop
endfacet
facet normal 1.49013332017114e-008 -3.5172130897024e-015 -1.0
outer loop
vertex -1230.8417511247 309.12505924497 15.4543638531141
vertex -1231.0230011247 313.249505230493 15.4543638504132
vertex -1230.8417511247 317.373951216017 15.454363853114
endloop
endfacet
facet normal 1.49013332017114e-008 -3.5172130897024e-015 -1.0
outer loop
vertex -1230.8417511247 309.12505924497 15.4543638531141
vertex -1230.8417511247 317.373951216017 15.454363853114
vertex -1229.8554050793 316.617101275894 15.4543638678119
endloop
endfacet
facet normal 1.49013332017114e-008 -3.5172130897024e-015 -1.0
outer loop
vertex -1230.8417511247 309.12505924497 15.4543638531141
vertex -1229.8554050793 316.617101275894 15.4543638678119
vertex -1229.8554050793 309.881909185092 15.454363867812
endloop
endfacet
facet normal 1.49013332017114e-008 -3.5172130897024e-015 -1.0
outer loop
vertex -1229.8554050793 309.881909185092 15.454363867812
vertex -1229.8554050793 316.617101275894 15.4543638678119
vertex -1229.09855513918 315.630755230493 15.45436387909
endloop
endfacet
facet normal 1.49013332017114e-008 -3.5172130897024e-015 -1.0
outer loop
vertex -1229.8554050793 309.881909185092 15.454363867812
vertex -1229.09855513918 315.630755230493 15.45436387909
vertex -1229.09855513918 310.868255230493 15.45436387909
endloop
endfacet
facet normal 1.49013332017114e-008 -3.5172130897024e-015 -1.0
outer loop
vertex -1229.09855513918 310.868255230493 15.45436387909
vertex -1229.09855513918 315.630755230493 15.45436387909
vertex -1228.622779377 314.482130932794 15.4543638861797
endloop
endfacet
facet normal 1.49013332017114e-008 -3.5172130897024e-015 -1.0
outer loop
vertex -1229.09855513918 310.868255230493 15.45436387909
vertex -1228.622779377 314.482130932794 15.4543638861797
vertex -1228.622779377 312.016879528192 15.4543638861797
endloop
endfacet
facet normal 1.49013332017114e-008 -3.5172130897024e-015 -1.0
outer loop
vertex -1228.622779377 312.016879528192 15.4543638861797
vertex -1228.622779377 314.482130932794 15.4543638861797
vertex -1228.4605011247 313.249505230493 15.4543638885979
endloop
endfacet
facet normal 1.0 -2.94066626556348e-016 1.49013332017114e-008
outer loop
vertex -1228.4605011247 313.249505230493 15.4543638885979
vertex -1228.62277975549 312.016879528192 40.8543638861797
vertex -1228.622779377 312.016879528192 15.4543638861797
endloop
endfacet
facet normal 0.965925826289068 -0.258819045102522 1.43935834959936e-008
outer loop
vertex -1228.62277975549 312.016879528192 40.8543638861797
vertex -1228.4605011247 313.249505230493 15.4543638885979
vertex -1228.46050150319 313.249505230493 40.8543638885979
endloop
endfacet
facet normal 0.965925826289068 0.258819045102522 1.43935816753501e-008
outer loop
vertex -1228.622779377 314.482130932794 15.4543638861797
vertex -1228.46050150319 313.249505230493 40.8543638885979
vertex -1228.4605011247 313.249505230493 15.4543638885979
endloop
endfacet
facet normal 1.0 3.02977736451995e-016 1.49013332017114e-008
outer loop
vertex -1228.46050150319 313.249505230493 40.8543638885979
vertex -1228.622779377 314.482130932794 15.4543638861797
vertex -1228.62277975549 314.482130932794 40.8543638861797
endloop
endfacet
facet normal 0.866025403784444 0.49999999999999 1.29049313443321e-008
outer loop
vertex -1229.09855513918 315.630755230493 15.45436387909
vertex -1228.62277975549 314.482130932794 40.8543638861797
vertex -1228.622779377 314.482130932794 15.4543638861797
endloop
endfacet
facet normal 0.965925826289068 0.258819045102522 1.43935816753501e-008
outer loop
vertex -1228.62277975549 314.482130932794 40.8543638861797
vertex -1229.09855513918 315.630755230493 15.45436387909
vertex -1229.09855551767 315.630755230493 40.85436387909
endloop
endfacet
facet normal -0.965925826289068 0.258819045102522 -1.43935823987828e-008
outer loop
vertex -1231.09796468536 312.680103331268 40.8543638492962
vertex -1231.0230011247 313.249505230493 15.4543638504132
vertex -1231.09796430686 312.680103331268 15.4543638492962
endloop
endfacet
facet normal -1.0 2.94066626556347e-016 -1.49013330082296e-008
outer loop
vertex -1231.0230011247 313.249505230493 15.4543638504132
vertex -1231.09796468536 312.680103331268 40.8543638492962
vertex -1231.02300150319 313.249505230493 40.8543638504132
endloop
endfacet
facet normal -0.866025403784444 0.49999999999999 -1.29049348615452e-008
outer loop
vertex -1237.34744748872 315.630755230493 40.8543637561705
vertex -1236.5905971701 316.617101275894 15.4543637674486
vertex -1237.34744711022 315.630755230493 15.4543637561705
endloop
endfacet
facet normal -0.707106781186546 0.707106781186549 -1.05368362426956e-008
outer loop
vertex -1236.5905971701 316.617101275894 15.4543637674486
vertex -1237.34744748872 315.630755230493 40.8543637561705
vertex -1236.5905975486 316.617101275894 40.8543637674486
endloop
endfacet
facet normal 1.0 3.02977736451995e-016 1.49013330082296e-008
outer loop
vertex -1235.4230011247 313.249505230493 15.4543637848473
vertex -1235.34803832103 312.680103331268 40.8543637859644
vertex -1235.34803794254 312.680103331268 15.4543637859644
endloop
endfacet
facet normal 0.965925826289068 0.258819045102523 1.43935823987828e-008
outer loop
vertex -1235.34803832103 312.680103331268 40.8543637859644
vertex -1235.4230011247 313.249505230493 15.4543637848473
vertex -1235.42300150319 313.249505230493 40.8543637848473
endloop
endfacet
facet normal -0.258819045102534 0.965925826289065 -3.85674877994486e-009
outer loop
vertex -1232.65359960397 311.124468412657 40.8543638261151
vertex -1232.1230011247 311.344249342167 15.4543638340217
vertex -1232.65359922548 311.124468412657 15.4543638261151
endloop
endfacet
facet normal -0.500000000000013 0.866025403784431 -7.45066650411502e-009
outer loop
vertex -1232.1230011247 311.344249342167 15.4543638340217
vertex -1232.65359960397 311.124468412657 40.8543638261151
vertex -1232.12300150319 311.344249342167 40.8543638340217
endloop
endfacet
facet normal -0.707106781186546 0.707106781186549 -1.05368362426956e-008
outer loop
vertex -1236.5905975486 316.617101275894 40.8543637674486
vertex -1235.6042511247 317.373951216017 15.4543637821465
vertex -1236.5905971701 316.617101275894 15.4543637674486
endloop
endfacet
facet normal -0.500000000000003 0.866025403784437 -7.45066964685166e-009
outer loop
vertex -1235.6042511247 317.373951216017 15.4543637821465
vertex -1236.5905975486 316.617101275894 40.8543637674486
vertex -1235.60425150319 317.373951216017 40.8543637821465
endloop
endfacet
facet normal -0.500000000000014 -0.866025403784431 -7.45066650411502e-009
outer loop
vertex -1232.1230011247 315.154761118819 15.4543638340217
vertex -1232.65359960397 315.374542048329 40.8543638261151
vertex -1232.65359922548 315.374542048329 15.4543638261151
endloop
endfacet
facet normal -0.258819045102534 -0.965925826289065 -3.85674877994486e-009
outer loop
vertex -1232.65359960397 315.374542048329 40.8543638261151
vertex -1232.1230011247 315.154761118819 15.4543638340217
vertex -1232.12300150319 315.154761118819 40.8543638340217
endloop
endfacet
facet normal -1.0 -3.02977736451995e-016 -1.49013330082296e-008
outer loop
vertex -1231.02300150319 313.249505230493 40.8543638504132
vertex -1231.09796430686 313.818907129719 15.4543638492962
vertex -1231.0230011247 313.249505230493 15.4543638504132
endloop
endfacet
facet normal -0.965925826289067 -0.258819045102524 -1.43935823987828e-008
outer loop
vertex -1231.09796430686 313.818907129719 15.4543638492962
vertex -1231.02300150319 313.249505230493 40.8543638504132
vertex -1231.09796468536 313.818907129719 40.8543638492962
endloop
endfacet
facet normal 0.500000000000013 -0.866025403784431 7.45066650411501e-009
outer loop
vertex -1234.3230011247 315.154761118819 15.4543638012388
vertex -1234.77863642181 314.805140149104 40.8543637944492
vertex -1234.77863604331 314.805140149104 15.4543637944492
endloop
endfacet
facet normal 0.707106781186536 -0.707106781186559 1.05368336188379e-008
outer loop
vertex -1234.77863642181 314.805140149104 40.8543637944492
vertex -1234.3230011247 315.154761118819 15.4543638012388
vertex -1234.32300150319 315.154761118819 40.8543638012388
endloop
endfacet
facet normal 0.258819045102534 -0.965925826289065 3.85674877994487e-009
outer loop
vertex -1233.79240302393 315.374542048329 15.4543638091454
vertex -1234.32300150319 315.154761118819 40.8543638012388
vertex -1234.3230011247 315.154761118819 15.4543638012388
endloop
endfacet
facet normal 0.500000000000013 -0.866025403784431 7.45066650411501e-009
outer loop
vertex -1234.32300150319 315.154761118819 40.8543638012388
vertex -1233.79240302393 315.374542048329 15.4543638091454
vertex -1233.79240340242 315.374542048329 40.8543638091454
endloop
endfacet
facet normal -0.258819045102534 -0.965925826289065 -3.85674877994487e-009
outer loop
vertex -1232.65359922548 315.374542048329 15.4543638261151
vertex -1233.22300150319 315.449505230493 40.8543638176303
vertex -1233.2230011247 315.449505230493 15.4543638176303
endloop
endfacet
facet normal 2.49511077078112e-016 -1.0 3.7180047791915e-024
outer loop
vertex -1233.22300150319 315.449505230493 40.8543638176303
vertex -1232.65359922548 315.374542048329 15.4543638261151
vertex -1232.65359960397 315.374542048329 40.8543638261151
endloop
endfacet
facet normal 0.866025403784438 -0.5 1.29049329353785e-008
outer loop
vertex -1235.12825701303 314.349505230493 15.4543637892394
vertex -1235.34803832103 313.818907129719 40.8543637859644
vertex -1235.34803794254 313.818907129719 15.4543637859644
endloop
endfacet
facet normal 0.965925826289067 -0.258819045102524 1.43935823987828e-008
outer loop
vertex -1235.34803832103 313.818907129719 40.8543637859644
vertex -1235.12825701303 314.349505230493 15.4543637892394
vertex -1235.12825739152 314.349505230493 40.8543637892394
endloop
endfacet
facet normal 0.500000000000003 0.866025403784437 7.45066355485988e-009
outer loop
vertex -1230.84175150319 317.373951216017 40.8543638531141
vertex -1229.8554050793 316.617101275894 15.4543638678119
vertex -1230.8417511247 317.373951216017 15.454363853114
endloop
endfacet
facet normal 0.707106781186546 0.707106781186549 1.05368312686052e-008
outer loop
vertex -1229.8554050793 316.617101275894 15.4543638678119
vertex -1230.84175150319 317.373951216017 40.8543638531141
vertex -1229.85540545779 316.617101275894 40.8543638678119
endloop
endfacet
facet normal 0.500000000000013 0.866025403784431 7.45066650411502e-009
outer loop
vertex -1234.32300150319 311.344249342167 40.8543638012388
vertex -1233.79240302393 311.124468412657 15.4543638091454
vertex -1234.3230011247 311.344249342167 15.4543638012388
endloop
endfacet
facet normal 0.258819045102534 0.965925826289065 3.85674877994486e-009
outer loop
vertex -1233.79240302393 311.124468412657 15.4543638091454
vertex -1234.32300150319 311.344249342167 40.8543638012388
vertex -1233.79240340242 311.124468412657 40.8543638091454
endloop
endfacet
facet normal 0.707106781186537 0.707106781186558 1.0536833618838e-008
outer loop
vertex -1234.77863642181 311.693870311883 40.8543637944492
vertex -1234.3230011247 311.344249342167 15.4543638012388
vertex -1234.77863604331 311.693870311883 15.4543637944492
endloop
endfacet
facet normal 0.500000000000012 0.866025403784431 7.450666504115e-009
outer loop
vertex -1234.3230011247 311.344249342167 15.4543638012388
vertex -1234.77863642181 311.693870311883 40.8543637944492
vertex -1234.32300150319 311.344249342167 40.8543638012388
endloop
endfacet
facet normal -2.49511077078112e-016 -1.0 -3.71800477919149e-024
outer loop
vertex -1233.2230011247 315.449505230493 15.4543638176303
vertex -1233.79240340242 315.374542048329 40.8543638091454
vertex -1233.79240302393 315.374542048329 15.4543638091454
endloop
endfacet
facet normal 0.258819045102534 -0.965925826289065 3.85674877994487e-009
outer loop
vertex -1233.79240340242 315.374542048329 40.8543638091454
vertex -1233.2230011247 315.449505230493 15.4543638176303
vertex -1233.22300150319 315.449505230493 40.8543638176303
endloop
endfacet
facet normal -0.500000000000013 0.866025403784431 -7.45066650411501e-009
outer loop
vertex -1232.12300150319 311.344249342167 40.8543638340217
vertex -1231.66736620609 311.693870311883 15.4543638408113
vertex -1232.1230011247 311.344249342167 15.4543638340217
endloop
endfacet
facet normal -0.707106781186536 0.707106781186559 -1.05368336188379e-008
outer loop
vertex -1231.66736620609 311.693870311883 15.4543638408113
vertex -1232.12300150319 311.344249342167 40.8543638340217
vertex -1231.66736658458 311.693870311883 40.8543638408113
endloop
endfacet
facet normal 0.866025403784438 0.500000000000001 1.29049329353784e-008
outer loop
vertex -1235.12825701303 312.149505230493 15.4543637892394
vertex -1234.77863642181 311.693870311883 40.8543637944492
vertex -1234.77863604331 311.693870311883 15.4543637944492
endloop
endfacet
facet normal 0.707106781186537 0.707106781186558 1.0536833618838e-008
outer loop
vertex -1234.77863642181 311.693870311883 40.8543637944492
vertex -1235.12825701303 312.149505230493 15.4543637892394
vertex -1235.12825739152 312.149505230493 40.8543637892394
endloop
endfacet
facet normal -0.866025403784444 -0.49999999999999 -1.29049313443322e-008
outer loop
vertex -1237.34744748872 310.868255230493 40.8543637561705
vertex -1237.8232228724 312.016879528192 15.4543637490808
vertex -1237.34744711022 310.868255230493 15.4543637561705
endloop
endfacet
facet normal -0.965925826289068 -0.258819045102521 -1.43935816753501e-008
outer loop
vertex -1237.8232228724 312.016879528192 15.4543637490808
vertex -1237.34744748872 310.868255230493 40.8543637561705
vertex -1237.8232232509 312.016879528192 40.8543637490808
endloop
endfacet
facet normal -0.707106781186537 -0.707106781186558 -1.0536833618838e-008
outer loop
vertex -1231.66736620609 314.805140149104 15.4543638408113
vertex -1232.12300150319 315.154761118819 40.8543638340217
vertex -1232.1230011247 315.154761118819 15.4543638340217
endloop
endfacet
facet normal -0.500000000000013 -0.866025403784431 -7.45066650411501e-009
outer loop
vertex -1232.12300150319 315.154761118819 40.8543638340217
vertex -1231.66736620609 314.805140149104 15.4543638408113
vertex -1231.66736658458 314.805140149104 40.8543638408113
endloop
endfacet
facet normal -0.707106781186537 0.707106781186558 -1.0536833618838e-008
outer loop
vertex -1231.66736658458 311.693870311883 40.8543638408113
vertex -1231.31774523638 312.149505230493 15.4543638460211
vertex -1231.66736620609 311.693870311883 15.4543638408113
endloop
endfacet
facet normal -0.866025403784437 0.500000000000003 -1.29049329353784e-008
outer loop
vertex -1231.31774523638 312.149505230493 15.4543638460211
vertex -1231.66736658458 311.693870311883 40.8543638408113
vertex -1231.31774561487 312.149505230493 40.8543638460211
endloop
endfacet
facet normal 0.965925826289068 0.258819045102521 1.43935823987828e-008
outer loop
vertex -1235.34803794254 312.680103331268 15.4543637859644
vertex -1235.12825739152 312.149505230493 40.8543637892394
vertex -1235.12825701303 312.149505230493 15.4543637892394
endloop
endfacet
facet normal 0.866025403784438 0.500000000000002 1.29049329353784e-008
outer loop
vertex -1235.12825739152 312.149505230493 40.8543637892394
vertex -1235.34803794254 312.680103331268 15.4543637859644
vertex -1235.34803832103 312.680103331268 40.8543637859644
endloop
endfacet
facet normal -0.866025403784438 -0.500000000000001 -1.29049329353784e-008
outer loop
vertex -1231.31774561487 314.349505230493 40.8543638460211
vertex -1231.66736620609 314.805140149104 15.4543638408113
vertex -1231.31774523638 314.349505230493 15.4543638460211
endloop
endfacet
facet normal -0.707106781186537 -0.707106781186558 -1.0536833618838e-008
outer loop
vertex -1231.66736620609 314.805140149104 15.4543638408113
vertex -1231.31774561487 314.349505230493 40.8543638460211
vertex -1231.66736658458 314.805140149104 40.8543638408113
endloop
endfacet
facet normal 2.49511077078112e-016 1.0 3.71800477919149e-024
outer loop
vertex -1233.22300150319 311.049505230493 40.8543638176303
vertex -1232.65359922548 311.124468412657 15.4543638261151
vertex -1233.2230011247 311.049505230493 15.4543638176303
endloop
endfacet
facet normal -0.258819045102534 0.965925826289065 -3.85674877994487e-009
outer loop
vertex -1232.65359922548 311.124468412657 15.4543638261151
vertex -1233.22300150319 311.049505230493 40.8543638176303
vertex -1232.65359960397 311.124468412657 40.8543638261151
endloop
endfacet
facet normal 0.258819045102534 0.965925826289065 3.85674877994487e-009
outer loop
vertex -1233.79240340242 311.124468412657 40.8543638091454
vertex -1233.2230011247 311.049505230493 15.4543638176303
vertex -1233.79240302393 311.124468412657 15.4543638091454
endloop
endfacet
facet normal -2.49511077078112e-016 1.0 -3.7180047791915e-024
outer loop
vertex -1233.2230011247 311.049505230493 15.4543638176303
vertex -1233.79240340242 311.124468412657 40.8543638091454
vertex -1233.22300150319 311.049505230493 40.8543638176303
endloop
endfacet
facet normal -0.866025403784438 0.500000000000001 -1.29049329353784e-008
outer loop
vertex -1231.31774561487 312.149505230493 40.8543638460211
vertex -1231.09796430686 312.680103331268 15.4543638492962
vertex -1231.31774523638 312.149505230493 15.4543638460211
endloop
endfacet
facet normal -0.965925826289067 0.258819045102524 -1.43935823987828e-008
outer loop
vertex -1231.09796430686 312.680103331268 15.4543638492962
vertex -1231.31774561487 312.149505230493 40.8543638460211
vertex -1231.09796468536 312.680103331268 40.8543638492962
endloop
endfacet
facet normal -0.965925826289068 -0.258819045102522 -1.43935823987828e-008
outer loop
vertex -1231.09796468536 313.818907129719 40.8543638492962
vertex -1231.31774523638 314.349505230493 15.4543638460211
vertex -1231.09796430686 313.818907129719 15.4543638492962
endloop
endfacet
facet normal -0.866025403784437 -0.500000000000003 -1.29049329353784e-008
outer loop
vertex -1231.31774523638 314.349505230493 15.4543638460211
vertex -1231.09796468536 313.818907129719 40.8543638492962
vertex -1231.31774561487 314.349505230493 40.8543638460211
endloop
endfacet
facet normal 0.258819045102521 -0.965925826289068 3.85675222738841e-009
outer loop
vertex -1231.9903754224 308.649283482791 15.4543638359981
vertex -1233.22300150319 308.487005230493 40.8543638176303
vertex -1233.2230011247 308.487005230493 15.4543638176303
endloop
endfacet
facet normal 1.78222197912937e-016 -1.0 3.51721309215003e-015
outer loop
vertex -1233.22300150319 308.487005230493 40.8543638176303
vertex -1231.9903754224 308.649283482791 15.4543638359981
vertex -1231.99037580089 308.649283482791 40.8543638359981
endloop
endfacet
facet normal 0.707106781186537 -0.707106781186558 1.05368336188379e-008
outer loop
vertex -1234.77863604331 314.805140149104 15.4543637944492
vertex -1235.12825739152 314.349505230493 40.8543637892394
vertex -1235.12825701303 314.349505230493 15.4543637892394
endloop
endfacet
facet normal 0.866025403784437 -0.500000000000002 1.29049329353784e-008
outer loop
vertex -1235.12825739152 314.349505230493 40.8543637892394
vertex -1234.77863604331 314.805140149104 15.4543637944492
vertex -1234.77863642181 314.805140149104 40.8543637944492
endloop
endfacet
facet normal 0.965925826289068 -0.258819045102521 1.43935823987828e-008
outer loop
vertex -1235.34803794254 313.818907129719 15.4543637859644
vertex -1235.42300150319 313.249505230493 40.8543637848473
vertex -1235.4230011247 313.249505230493 15.4543637848473
endloop
endfacet
facet normal 1.0 -2.94066626556348e-016 1.49013330082296e-008
outer loop
vertex -1235.42300150319 313.249505230493 40.8543637848473
vertex -1235.34803794254 313.818907129719 15.4543637859644
vertex -1235.34803832103 313.818907129719 40.8543637859644
endloop
endfacet
endsolid LiteArm_i2_REV4_10
