solid Resurected_LiteArm_i2_REV4_10
facet normal -0.866025409073268 0.499999990839465 1.15847156772323e-007
outer loop
vertex -1201.95726704892 143.058710525666 33.2287104045415
vertex -1202.43304538629 141.910086222934 13.8868654681856
vertex -1202.43304279895 141.910086222934 33.2287104681854
endloop
endfacet
facet normal -0.965925829026762 0.258819034885277 1.29210714166277e-007
outer loop
vertex -1202.43304538629 141.910086222934 13.8868654681856
vertex -1201.95726704892 143.058710525666 33.2287104045415
vertex -1201.95726963626 143.058710525666 13.8868654045417
endloop
endfacet
facet normal -1.33768774916514e-007 -2.45131132089436e-015 -0.999999999999991
outer loop
vertex -1202.43304538629 141.910086222934 13.8868654681856
vertex -1202.43304536021 139.444834818332 13.8868654681856
vertex -1202.59532362555 140.677460518916 13.8868654898934
endloop
endfacet
facet normal -1.33768774916514e-007 -2.45131132089436e-015 -0.999999999999991
outer loop
vertex -1202.43304536021 139.444834818332 13.8868654681856
vertex -1202.43304538629 141.910086222934 13.8868654681856
vertex -1201.95726963626 143.058710525666 13.8868654045417
endloop
endfacet
facet normal -1.33768774916514e-007 -2.45131132089436e-015 -0.999999999999991
outer loop
vertex -1202.43304536021 139.444834818332 13.8868654681856
vertex -1201.95726963626 143.058710525666 13.8868654045417
vertex -1201.95726958588 138.296210525665 13.8868654045417
endloop
endfacet
facet normal -1.33768774916514e-007 -2.45131132089436e-015 -0.999999999999991
outer loop
vertex -1201.95726958588 138.296210525665 13.8868654045417
vertex -1201.95726963626 143.058710525666 13.8868654045417
vertex -1201.20041970657 144.045056579072 13.8868653032988
endloop
endfacet
facet normal -1.33768774916514e-007 -2.45131132089436e-015 -0.999999999999991
outer loop
vertex -1201.95726958588 138.296210525665 13.8868654045417
vertex -1201.20041970657 144.045056579072 13.8868653032988
vertex -1201.20041963533 137.30986448827 13.8868653032988
endloop
endfacet
facet normal -1.33768774916514e-007 -2.45131132089436e-015 -0.999999999999991
outer loop
vertex -1201.20041963533 137.30986448827 13.8868653032988
vertex -1201.20041970657 144.045056579072 13.8868653032988
vertex -1200.21407366917 144.801906529628 13.8868651713565
endloop
endfacet
facet normal -1.33768774916514e-007 -2.45131132089436e-015 -0.999999999999991
outer loop
vertex -1201.20041963533 137.30986448827 13.8868653032988
vertex -1200.21407366917 144.801906529628 13.8868651713565
vertex -1200.23282362555 140.677460543906 13.8868651738646
endloop
endfacet
facet normal -1.33768774916514e-007 -2.45131132089436e-015 -0.999999999999991
outer loop
vertex -1200.23282362555 140.677460543906 13.8868651738646
vertex -1200.21407366917 144.801906529628 13.8868651713565
vertex -1200.15104561521 141.298626253017 13.8868651629253
endloop
endfacet
facet normal -1.33768774916514e-007 -2.45131132089436e-015 -0.999999999999991
outer loop
vertex -1200.15104561521 141.298626253017 13.8868651629253
vertex -1200.21407366917 144.801906529628 13.8868651713565
vertex -1199.06544937651 145.277682303956 13.8868650177064
endloop
endfacet
facet normal -1.33768774916514e-007 -2.45131132089436e-015 -0.999999999999991
outer loop
vertex -1200.15104561521 141.298626253017 13.8868651629253
vertex -1199.06544937651 145.277682303956 13.8868650177064
vertex -1199.91128460732 141.877460547307 13.8868651308528
endloop
endfacet
facet normal -1.33768774916514e-007 -2.45131132089436e-015 -0.999999999999991
outer loop
vertex -1199.91128460732 141.877460547307 13.8868651308528
vertex -1199.06544937651 145.277682303956 13.8868650177064
vertex -1199.52987991835 142.374516826189 13.8868650798327
endloop
endfacet
facet normal -1.33768774916514e-007 -2.45131132089436e-015 -0.999999999999991
outer loop
vertex -1199.52987991835 142.374516826189 13.8868650798327
vertex -1199.06544937651 145.277682303956 13.8868650177064
vertex -1199.03282364753 142.755921525682 13.8868650133421
endloop
endfacet
facet normal -1.33768774916514e-007 -2.45131132089436e-015 -0.999999999999991
outer loop
vertex -1199.03282364753 142.755921525682 13.8868650133421
vertex -1199.06544937651 145.277682303956 13.8868650177064
vertex -1197.83282367592 145.439960569293 13.8868648528196
endloop
endfacet
facet normal -1.33768774916514e-007 -2.45131132089436e-015 -0.999999999999991
outer loop
vertex -1199.03282364753 142.755921525682 13.8868650133421
vertex -1197.83282367592 145.439960569293 13.8868648528196
vertex -1198.45398935831 142.995682545816 13.8868649359121
endloop
endfacet
facet normal -1.33768774916514e-007 -2.45131132089436e-015 -0.999999999999991
outer loop
vertex -1198.45398935831 142.995682545816 13.8868649359121
vertex -1197.83282367592 145.439960569293 13.8868648528196
vertex -1197.83282365093 143.077460569293 13.8868648528196
endloop
endfacet
facet normal -1.33768774916514e-007 -2.45131132089436e-015 -0.999999999999991
outer loop
vertex -1197.83282365093 143.077460569293 13.8868648528196
vertex -1197.83282367592 145.439960569293 13.8868648528196
vertex -1196.60019797191 145.277682330032 13.8868646879327
endloop
endfacet
facet normal -1.33768774916514e-007 -2.45131132089436e-015 -0.999999999999991
outer loop
vertex -1197.83282365093 143.077460569293 13.8868648528196
vertex -1196.60019797191 145.277682330032 13.8868646879327
vertex -1197.21165794182 142.995682558957 13.886864769727
endloop
endfacet
facet normal -1.33768774916514e-007 -2.45131132089436e-015 -0.999999999999991
outer loop
vertex -1197.21165794182 142.995682558957 13.886864769727
vertex -1196.60019797191 145.277682330032 13.8868646879327
vertex -1196.63282364753 142.755921551068 13.886864692297
endloop
endfacet
facet normal -1.33768774916514e-007 -2.45131132089436e-015 -0.999999999999991
outer loop
vertex -1196.63282364753 142.755921551068 13.886864692297
vertex -1196.60019797191 145.277682330032 13.8868646879327
vertex -1196.13576736865 142.374516862091 13.8868646258064
endloop
endfacet
facet normal -1.33768774916514e-007 -2.45131132089436e-015 -0.999999999999991
outer loop
vertex -1196.13576736865 142.374516862091 13.8868646258064
vertex -1196.60019797191 145.277682330032 13.8868646879327
vertex -1195.45157366917 144.801906580004 13.8868645342827
endloop
endfacet
facet normal -1.33768774916514e-007 -2.45131132089436e-015 -0.999999999999991
outer loop
vertex -1196.13576736865 142.374516862091 13.8868646258064
vertex -1195.45157366917 144.801906580004 13.8868645342827
vertex -1195.75436266916 141.877460591278 13.8868645747864
endloop
endfacet
facet normal -1.33768774916514e-007 -2.45131132089436e-015 -0.999999999999991
outer loop
vertex -1195.75436266916 141.877460591278 13.8868645747864
vertex -1195.45157366917 144.801906580004 13.8868645342827
vertex -1195.51460164902 141.29862630206 13.8868645427139
endloop
endfacet
facet normal -1.33768774916514e-007 -2.45131132089436e-015 -0.999999999999991
outer loop
vertex -1195.51460164902 141.29862630206 13.8868645427139
vertex -1195.45157366917 144.801906580004 13.8868645342827
vertex -1195.43282362555 140.677460594679 13.8868645317745
endloop
endfacet
facet normal -1.33768774916514e-007 -2.45131132089436e-015 -0.999999999999991
outer loop
vertex -1195.43282362555 140.677460594679 13.8868645317745
vertex -1195.45157366917 144.801906580004 13.8868645342827
vertex -1194.46522761577 144.045056650315 13.8868644023404
endloop
endfacet
facet normal -1.33768774916514e-007 -2.45131132089436e-015 -0.999999999999991
outer loop
vertex -1200.23282362555 140.677460543906 13.8868651738646
vertex -1200.21407358192 136.553014558581 13.8868651713565
vertex -1201.20041963533 137.30986448827 13.8868653032988
endloop
endfacet
facet normal -1.33768774916514e-007 -2.45131132089436e-015 -0.999999999999991
outer loop
vertex -1200.21407358192 136.553014558581 13.8868651713565
vertex -1200.23282362555 140.677460543906 13.8868651738646
vertex -1200.15104560207 140.056294836525 13.8868651629253
endloop
endfacet
facet normal -1.33768774916514e-007 -2.45131132089436e-015 -0.999999999999991
outer loop
vertex -1200.21407358192 136.553014558581 13.8868651713565
vertex -1200.15104560207 140.056294836525 13.8868651629253
vertex -1199.06544927919 136.077238808553 13.8868650177064
endloop
endfacet
facet normal -1.33768774916514e-007 -2.45131132089436e-015 -0.999999999999991
outer loop
vertex -1199.06544927919 136.077238808553 13.8868650177064
vertex -1200.15104560207 140.056294836525 13.8868651629253
vertex -1199.91128458194 139.477460547307 13.8868651308527
endloop
endfacet
facet normal -1.33768774916514e-007 -2.45131132089436e-015 -0.999999999999991
outer loop
vertex -1199.06544927919 136.077238808553 13.8868650177064
vertex -1199.91128458194 139.477460547307 13.8868651308527
vertex -1199.52987988244 138.980404276494 13.8868650798327
endloop
endfacet
facet normal -1.33768774916514e-007 -2.45131132089436e-015 -0.999999999999991
outer loop
vertex -1199.06544927919 136.077238808553 13.8868650177064
vertex -1199.52987988244 138.980404276494 13.8868650798327
vertex -1199.03282360356 138.598999587517 13.8868650133421
endloop
endfacet
facet normal -1.33768774916514e-007 -2.45131132089436e-015 -0.999999999999991
outer loop
vertex -1199.06544927919 136.077238808553 13.8868650177064
vertex -1199.03282360356 138.598999587517 13.8868650133421
vertex -1197.83282357517 135.914960569293 13.8868648528196
endloop
endfacet
facet normal -1.33768774916514e-007 -2.45131132089436e-015 -0.999999999999991
outer loop
vertex -1197.83282357517 135.914960569293 13.8868648528196
vertex -1199.03282360356 138.598999587517 13.8868650133421
vertex -1198.45398930927 138.359238579628 13.8868649359122
endloop
endfacet
facet normal -1.33768774916514e-007 -2.45131132089436e-015 -0.999999999999991
outer loop
vertex -1197.83282357517 135.914960569293 13.8868648528196
vertex -1198.45398930927 138.359238579628 13.8868649359122
vertex -1197.83282360016 138.277460569292 13.8868648528196
endloop
endfacet
facet normal -1.33768774916514e-007 -2.45131132089436e-015 -0.999999999999991
outer loop
vertex -1197.83282357517 135.914960569293 13.8868648528196
vertex -1197.83282360016 138.277460569292 13.8868648528196
vertex -1197.21165789278 138.359238592769 13.886864769727
endloop
endfacet
facet normal -1.33768774916514e-007 -2.45131132089436e-015 -0.999999999999991
outer loop
vertex -1197.83282357517 135.914960569293 13.8868648528196
vertex -1197.21165789278 138.359238592769 13.886864769727
vertex -1196.60019787459 136.077238834629 13.8868646879328
endloop
endfacet
facet normal -1.33768774916514e-007 -2.45131132089436e-015 -0.999999999999991
outer loop
vertex -1196.60019787459 136.077238834629 13.8868646879328
vertex -1197.21165789278 138.359238592769 13.886864769727
vertex -1196.63282360356 138.598999612903 13.886864692297
endloop
endfacet
facet normal -1.33768774916514e-007 -2.45131132089436e-015 -0.999999999999991
outer loop
vertex -1196.60019787459 136.077238834629 13.8868646879328
vertex -1196.63282360356 138.598999612903 13.886864692297
vertex -1196.13576733275 138.980404312396 13.8868646258064
endloop
endfacet
facet normal -1.33768774916514e-007 -2.45131132089436e-015 -0.999999999999991
outer loop
vertex -1196.60019787459 136.077238834629 13.8868646879328
vertex -1196.13576733275 138.980404312396 13.8868646258064
vertex -1195.45157358192 136.553014608957 13.8868645342827
endloop
endfacet
facet normal -1.33768774916514e-007 -2.45131132089436e-015 -0.999999999999991
outer loop
vertex -1195.45157358192 136.553014608957 13.8868645342827
vertex -1196.13576733275 138.980404312396 13.8868646258064
vertex -1195.75436264377 139.477460591278 13.8868645747864
endloop
endfacet
facet normal -1.33768774916514e-007 -2.45131132089436e-015 -0.999999999999991
outer loop
vertex -1195.45157358192 136.553014608957 13.8868645342827
vertex -1195.75436264377 139.477460591278 13.8868645747864
vertex -1195.51460163588 140.056294885568 13.8868645427139
endloop
endfacet
facet normal -1.33768774916514e-007 -2.45131132089436e-015 -0.999999999999991
outer loop
vertex -1195.45157358192 136.553014608957 13.8868645342827
vertex -1195.51460163588 140.056294885568 13.8868645427139
vertex -1195.43282362555 140.677460594679 13.8868645317745
endloop
endfacet
facet normal -1.33768774916514e-007 -2.45131132089436e-015 -0.999999999999991
outer loop
vertex -1195.45157358192 136.553014608957 13.8868645342827
vertex -1195.43282362555 140.677460594679 13.8868645317745
vertex -1194.46522754452 137.309864559513 13.8868644023404
endloop
endfacet
facet normal -1.33768774916514e-007 -2.45131132089436e-015 -0.999999999999991
outer loop
vertex -1194.46522754452 137.309864559513 13.8868644023404
vertex -1195.43282362555 140.677460594679 13.8868645317745
vertex -1194.46522761577 144.045056650315 13.8868644023404
endloop
endfacet
facet normal -1.33768774916514e-007 -2.45131132089436e-015 -0.999999999999991
outer loop
vertex -1194.46522754452 137.309864559513 13.8868644023404
vertex -1194.46522761577 144.045056650315 13.8868644023404
vertex -1193.70837766521 143.05871061292 13.8868643010975
endloop
endfacet
facet normal -1.33768774916514e-007 -2.45131132089436e-015 -0.999999999999991
outer loop
vertex -1194.46522754452 137.309864559513 13.8868644023404
vertex -1193.70837766521 143.05871061292 13.8868643010975
vertex -1193.70837761484 138.29621061292 13.8868643010975
endloop
endfacet
facet normal -1.33768774916514e-007 -2.45131132089436e-015 -0.999999999999991
outer loop
vertex -1193.70837761484 138.29621061292 13.8868643010975
vertex -1193.70837766521 143.05871061292 13.8868643010975
vertex -1193.23260189088 141.910086320253 13.8868642374536
endloop
endfacet
facet normal -1.33768774916514e-007 -2.45131132089436e-015 -0.999999999999991
outer loop
vertex -1193.70837761484 138.29621061292 13.8868643010975
vertex -1193.23260189088 141.910086320253 13.8868642374536
vertex -1193.23260186481 139.444834915651 13.8868642374535
endloop
endfacet
facet normal -1.33768774916514e-007 -2.45131132089436e-015 -0.999999999999991
outer loop
vertex -1193.23260186481 139.444834915651 13.8868642374535
vertex -1193.23260189088 141.910086320253 13.8868642374536
vertex -1193.07032362555 140.677460619669 13.8868642157458
endloop
endfacet
facet normal -0.999999999999991 -1.05776688674193e-008 1.33768774918681e-007
outer loop
vertex -1202.59532103821 140.677460518916 33.2287104898932
vertex -1202.43304538629 141.910086222934 13.8868654681856
vertex -1202.59532362555 140.677460518916 13.8868654898934
endloop
endfacet
facet normal -0.965925829026762 0.258819034885277 1.29210714166277e-007
outer loop
vertex -1202.43304538629 141.910086222934 13.8868654681856
vertex -1202.59532103821 140.677460518916 33.2287104898932
vertex -1202.43304279895 141.910086222934 33.2287104681854
endloop
endfacet
facet normal -0.866025398495598 -0.500000009160527 1.15847157845017e-007
outer loop
vertex -1201.95726699855 138.296210525666 33.2287104045415
vertex -1202.43304536021 139.444834818332 13.8868654681856
vertex -1201.95726958588 138.296210525665 13.8868654045417
endloop
endfacet
facet normal -0.965925823551357 -0.258819055319766 1.29210714718169e-007
outer loop
vertex -1202.43304536021 139.444834818332 13.8868654681856
vertex -1201.95726699855 138.296210525666 33.2287104045415
vertex -1202.43304277288 139.444834818332 33.2287104681854
endloop
endfacet
facet normal 0.965925823551357 0.258819055319766 -1.29210714718169e-007
outer loop
vertex -1193.23260189088 141.910086320253 13.8868642374536
vertex -1193.07032103821 140.677460619669 33.2287092157456
vertex -1193.07032362555 140.677460619669 13.8868642157458
endloop
endfacet
facet normal 0.999999999999991 1.05776686446415e-008 -1.33768774918681e-007
outer loop
vertex -1193.07032103821 140.677460619669 33.2287092157456
vertex -1193.23260189088 141.910086320253 13.8868642374536
vertex -1193.23259930355 141.910086320253 33.2287092374534
endloop
endfacet
facet normal -0.258819055319762 0.965925823551366 3.46219055562154e-008
outer loop
vertex -1199.06544937651 145.277682303956 13.8868650177064
vertex -1197.83282108859 145.439960569293 33.2287098528194
vertex -1197.83282367592 145.439960569293 13.8868648528196
endloop
endfacet
facet normal -1.05776704001303e-008 1.0 -1.06394523235358e-015
outer loop
vertex -1197.83282108859 145.439960569293 33.2287098528194
vertex -1199.06544937651 145.277682303956 13.8868650177064
vertex -1199.06544678917 145.277682303956 33.2287100177063
endloop
endfacet
facet normal 0.999999999999991 1.05776686891971e-008 -1.33768774918681e-007
outer loop
vertex -1193.07032362555 140.677460619669 13.8868642157458
vertex -1193.23259927747 139.444834915651 33.2287092374534
vertex -1193.23260186481 139.444834915651 13.8868642374535
endloop
endfacet
facet normal 0.965925829026762 -0.258819034885278 -1.29210714166277e-007
outer loop
vertex -1193.23259927747 139.444834915651 33.2287092374534
vertex -1193.07032362555 140.677460619669 13.8868642157458
vertex -1193.07032103821 140.677460619669 33.2287092157456
endloop
endfacet
facet normal -0.258819034885277 -0.96592582902677 3.46219076116786e-008
outer loop
vertex -1199.06544669185 136.077238808553 33.2287100177062
vertex -1200.21407358192 136.553014558581 13.8868651713565
vertex -1199.06544927919 136.077238808553 13.8868650177064
endloop
endfacet
facet normal -0.499999990839463 -0.866025409073274 6.68843883901662e-008
outer loop
vertex -1200.21407358192 136.553014558581 13.8868651713565
vertex -1199.06544669185 136.077238808553 33.2287100177062
vertex -1200.21407099458 136.553014558581 33.2287101713563
endloop
endfacet
facet normal -1.05776697050635e-008 1.0 -1.06394532477254e-015
outer loop
vertex -1197.83282367592 145.439960569293 13.8868648528196
vertex -1196.60019538457 145.277682330033 33.2287096879326
vertex -1196.60019797191 145.277682330032 13.8868646879327
endloop
endfacet
facet normal 0.258819034885274 0.965925829026771 -3.46219076221764e-008
outer loop
vertex -1196.60019538457 145.277682330033 33.2287096879326
vertex -1197.83282367592 145.439960569293 13.8868648528196
vertex -1197.83282108859 145.439960569293 33.2287098528194
endloop
endfacet
facet normal -0.499999990839463 -0.866025409073274 6.68843883901662e-008
outer loop
vertex -1200.21407099458 136.553014558581 33.2287101713563
vertex -1201.20041963533 137.30986448827 13.8868653032988
vertex -1200.21407358192 136.553014558581 13.8868651713565
endloop
endfacet
facet normal -0.707106773706999 -0.70710678866609 9.4588808617935e-008
outer loop
vertex -1201.20041963533 137.30986448827 13.8868653032988
vertex -1200.21407099458 136.553014558581 33.2287101713563
vertex -1201.20041704799 137.30986448827 33.2287103032986
endloop
endfacet
facet normal 0.866025409073269 -0.499999990839464 -1.15847156772323e-007
outer loop
vertex -1193.70837761484 138.29621061292 13.8868643010975
vertex -1194.46522495719 137.309864559513 33.2287094023403
vertex -1194.46522754452 137.309864559513 13.8868644023404
endloop
endfacet
facet normal 0.707106788666082 -0.707106773707007 -9.4588807105616e-008
outer loop
vertex -1194.46522495719 137.309864559513 33.2287094023403
vertex -1193.70837761484 138.29621061292 13.8868643010975
vertex -1193.7083750275 138.29621061292 33.2287093010974
endloop
endfacet
facet normal -0.707106773706999 -0.707106788666089 9.4588808617935e-008
outer loop
vertex -1201.20041704799 137.30986448827 33.2287103032986
vertex -1201.95726958588 138.296210525665 13.8868654045417
vertex -1201.20041963533 137.30986448827 13.8868653032988
endloop
endfacet
facet normal -0.866025398495599 -0.500000009160525 1.15847157845017e-007
outer loop
vertex -1201.95726958588 138.296210525665 13.8868654045417
vertex -1201.20041704799 137.30986448827 33.2287103032986
vertex -1201.95726699855 138.296210525666 33.2287104045415
endloop
endfacet
facet normal 0.499999990839462 0.866025409073275 -6.68843883901659e-008
outer loop
vertex -1195.45157366917 144.801906580004 13.8868645342827
vertex -1194.46522502843 144.045056650315 33.2287094023402
vertex -1194.46522761577 144.045056650315 13.8868644023404
endloop
endfacet
facet normal 0.707106773707002 0.707106788666086 -9.45888086144361e-008
outer loop
vertex -1194.46522502843 144.045056650315 33.2287094023402
vertex -1195.45157366917 144.801906580004 13.8868645342827
vertex -1195.45157108184 144.801906580004 33.2287095342825
endloop
endfacet
facet normal 1.0577670302108e-008 -1.0 1.0639452461633e-015
outer loop
vertex -1197.83282098784 135.914960569293 33.2287098528194
vertex -1199.06544927919 136.077238808553 13.8868650177064
vertex -1197.83282357517 135.914960569293 13.8868648528196
endloop
endfacet
facet normal -0.258819034885272 -0.965925829026771 3.4621907611678e-008
outer loop
vertex -1199.06544927919 136.077238808553 13.8868650177064
vertex -1197.83282098784 135.914960569293 33.2287098528194
vertex -1199.06544669185 136.077238808553 33.2287100177062
endloop
endfacet
facet normal -0.707106788666084 0.707106773707004 9.45888071056164e-008
outer loop
vertex -1201.20041711923 144.045056579072 33.2287103032986
vertex -1201.95726963626 143.058710525666 13.8868654045417
vertex -1201.95726704892 143.058710525666 33.2287104045415
endloop
endfacet
facet normal -0.866025409073269 0.499999990839464 1.15847156772323e-007
outer loop
vertex -1201.95726963626 143.058710525666 13.8868654045417
vertex -1201.20041711923 144.045056579072 33.2287103032986
vertex -1201.20041970657 144.045056579072 13.8868653032988
endloop
endfacet
facet normal 0.866025398495599 0.500000009160526 -1.15847157845017e-007
outer loop
vertex -1193.70837766521 143.05871061292 13.8868643010975
vertex -1193.23259930355 141.910086320253 33.2287092374534
vertex -1193.23260189088 141.910086320253 13.8868642374536
endloop
endfacet
facet normal 0.965925823551357 0.258819055319765 -1.29210714718169e-007
outer loop
vertex -1193.23259930355 141.910086320253 33.2287092374534
vertex -1193.70837766521 143.05871061292 13.8868643010975
vertex -1193.70837507788 143.05871061292 33.2287093010973
endloop
endfacet
facet normal 0.707106788666082 -0.707106773707007 -9.4588807105616e-008
outer loop
vertex -1194.46522495719 137.309864559513 33.2287094023403
vertex -1195.45157358192 136.553014608957 13.8868645342827
vertex -1194.46522754452 137.309864559513 13.8868644023404
endloop
endfacet
facet normal 0.500000009160524 -0.866025398495605 -6.6884386544262e-008
outer loop
vertex -1195.45157358192 136.553014608957 13.8868645342827
vertex -1194.46522495719 137.309864559513 33.2287094023403
vertex -1195.45157099458 136.553014608957 33.2287095342825
endloop
endfacet
facet normal -0.707106788666086 0.707106773707003 9.45888071056166e-008
outer loop
vertex -1201.20041970657 144.045056579072 13.8868653032988
vertex -1200.21407108184 144.801906529628 33.2287101713563
vertex -1200.21407366917 144.801906529628 13.8868651713565
endloop
endfacet
facet normal -0.500000009160523 0.866025398495606 6.68843865407624e-008
outer loop
vertex -1200.21407108184 144.801906529628 33.2287101713563
vertex -1201.20041970657 144.045056579072 13.8868653032988
vertex -1201.20041711923 144.045056579072 33.2287103032986
endloop
endfacet
facet normal -0.707106773706999 -0.707106788666089 9.45888093633039e-008
outer loop
vertex -1196.13576471443 142.374516862091 33.7287096258063
vertex -1196.63282364753 142.755921551068 13.886864692297
vertex -1196.13576736865 142.374516862091 13.8868646258064
endloop
endfacet
facet normal -0.499999990839463 -0.866025409073274 6.68843895029705e-008
outer loop
vertex -1196.63282364753 142.755921551068 13.886864692297
vertex -1196.13576471443 142.374516862091 33.7287096258063
vertex -1196.63282099331 142.755921551068 33.7287096922969
endloop
endfacet
facet normal -0.965925829026762 0.258819034885277 1.29210713273059e-007
outer loop
vertex -1195.51459898166 140.056294885568 33.7287095427137
vertex -1195.75436264377 139.477460591278 13.8868645747864
vertex -1195.75435998955 139.477460591278 33.7287095747862
endloop
endfacet
facet normal -0.866025409073264 0.499999990839473 1.15847155549287e-007
outer loop
vertex -1195.75436264377 139.477460591278 13.8868645747864
vertex -1195.51459898166 140.056294885568 33.7287095427137
vertex -1195.51460163588 140.056294885568 13.8868645427139
endloop
endfacet
facet normal 0.707106788666082 -0.707106773707007 -9.45888056323751e-008
outer loop
vertex -1199.52987991835 142.374516826189 13.8868650798327
vertex -1199.9112819531 141.877460547307 33.7287101308526
vertex -1199.91128460732 141.877460547307 13.8868651308528
endloop
endfacet
facet normal 0.866025409073263 -0.499999990839474 -1.15847155549287e-007
outer loop
vertex -1199.9112819531 141.877460547307 33.7287101308526
vertex -1199.52987991835 142.374516826189 13.8868650798327
vertex -1199.52987726413 142.374516826189 33.7287100798326
endloop
endfacet
facet normal 0.707106773707001 0.707106788666088 -9.45888086144359e-008
outer loop
vertex -1194.46522761577 144.045056650315 13.8868644023404
vertex -1193.70837507788 143.05871061292 33.2287093010973
vertex -1193.70837766521 143.05871061292 13.8868643010975
endloop
endfacet
facet normal 0.866025398495599 0.500000009160525 -1.15847157845017e-007
outer loop
vertex -1193.70837507788 143.05871061292 33.2287093010973
vertex -1194.46522761577 144.045056650315 13.8868644023404
vertex -1194.46522502843 144.045056650315 33.2287094023402
endloop
endfacet
facet normal -0.866025398495594 -0.500000009160534 1.15847158191455e-007
outer loop
vertex -1195.75436001494 141.877460591278 33.7287095747862
vertex -1196.13576736865 142.374516862091 13.8868646258064
vertex -1195.75436266916 141.877460591278 13.8868645747864
endloop
endfacet
facet normal -0.707106773706997 -0.707106788666092 9.45888093633035e-008
outer loop
vertex -1196.13576736865 142.374516862091 13.8868646258064
vertex -1195.75436001494 141.877460591278 33.7287095747862
vertex -1196.13576471443 142.374516862091 33.7287096258063
endloop
endfacet
facet normal 0.965925823551357 0.258819055319764 -1.29210714639433e-007
outer loop
vertex -1200.15104560207 140.056294836525 13.8868651629253
vertex -1199.91128192772 139.477460547307 33.7287101308526
vertex -1199.91128458194 139.477460547307 13.8868651308527
endloop
endfacet
facet normal 0.866025398495594 0.500000009160535 -1.15847158191455e-007
outer loop
vertex -1199.91128192772 139.477460547307 33.7287101308526
vertex -1200.15104560207 140.056294836525 13.8868651629253
vertex -1200.15104294785 140.056294836525 33.7287101629251
endloop
endfacet
facet normal 0.866025409073263 -0.499999990839474 -1.15847155549287e-007
outer loop
vertex -1199.91128460732 141.877460547307 13.8868651308528
vertex -1200.15104296099 141.298626253017 33.7287101629251
vertex -1200.15104561521 141.298626253017 13.8868651629253
endloop
endfacet
facet normal 0.965925829026762 -0.258819034885276 -1.29210713273059e-007
outer loop
vertex -1200.15104296099 141.298626253017 33.7287101629251
vertex -1199.91128460732 141.877460547307 13.8868651308528
vertex -1199.9112819531 141.877460547307 33.7287101308526
endloop
endfacet
facet normal -0.965925823551357 -0.258819055319765 1.29210714639433e-007
outer loop
vertex -1195.5145989948 141.29862630206 33.7287095427137
vertex -1195.43282362555 140.677460594679 13.8868645317745
vertex -1195.43282097133 140.677460594679 33.7287095317743
endloop
endfacet
facet normal -0.999999999999991 -1.05776695535748e-008 1.33768774413895e-007
outer loop
vertex -1195.43282362555 140.677460594679 13.8868645317745
vertex -1195.5145989948 141.29862630206 33.7287095427137
vertex -1195.51460164902 141.29862630206 13.8868645427139
endloop
endfacet
facet normal 0.965925823551357 0.258819055319764 -1.29210714639433e-007
outer loop
vertex -1200.15104560207 140.056294836525 13.8868651629253
vertex -1200.23282097133 140.677460543906 33.7287101738645
vertex -1200.15104294785 140.056294836525 33.7287101629251
endloop
endfacet
facet normal 0.999999999999991 1.0577668519886e-008 -1.33768774413895e-007
outer loop
vertex -1200.23282097133 140.677460543906 33.7287101738645
vertex -1200.15104560207 140.056294836525 13.8868651629253
vertex -1200.23282362555 140.677460543906 13.8868651738646
endloop
endfacet
facet normal 1.3376877721888e-007 1.81293310608856e-015 0.999999999999991
outer loop
vertex -1200.04556799279 138.464713501023 33.7287101488159
vertex -1200.23282097133 140.677460543906 33.7287101738645
vertex -1200.54287154966 139.112812100153 33.7287102153396
endloop
endfacet
facet normal 1.3376877721888e-007 1.81293310608856e-015 0.999999999999991
outer loop
vertex -1200.23282097133 140.677460543906 33.7287101738645
vertex -1200.04556799279 138.464713501023 33.7287101488159
vertex -1200.15104294785 140.056294836525 33.7287101629251
endloop
endfacet
facet normal 1.3376877721888e-007 1.81293310608856e-015 0.999999999999991
outer loop
vertex -1200.15104294785 140.056294836525 33.7287101629251
vertex -1200.04556799279 138.464713501023 33.7287101488159
vertex -1199.91128192772 139.477460547307 33.7287101308526
endloop
endfacet
facet normal 1.3376877721888e-007 1.81293310608856e-015 0.999999999999991
outer loop
vertex -1199.91128192772 139.477460547307 33.7287101308526
vertex -1200.04556799279 138.464713501023 33.7287101488159
vertex -1199.39746938314 137.967409957858 33.7287100621205
endloop
endfacet
facet normal 1.3376877721888e-007 1.81293310608856e-015 0.999999999999991
outer loop
vertex -1199.91128192772 139.477460547307 33.7287101308526
vertex -1199.39746938314 137.967409957858 33.7287100621205
vertex -1199.52987722822 138.980404276494 33.7287100798326
endloop
endfacet
facet normal 1.3376877721888e-007 1.81293310608856e-015 0.999999999999991
outer loop
vertex -1199.52987722822 138.980404276494 33.7287100798326
vertex -1199.39746938314 137.967409957858 33.7287100621205
vertex -1199.03282094934 138.598999587517 33.728710013342
endloop
endfacet
facet normal 1.3376877721888e-007 1.81293310608856e-015 0.999999999999991
outer loop
vertex -1199.03282094934 138.598999587517 33.728710013342
vertex -1199.39746938314 137.967409957858 33.7287100621205
vertex -1198.64274256992 137.654791885293 33.7287099611617
endloop
endfacet
facet normal 1.3376877721888e-007 1.81293310608856e-015 0.999999999999991
outer loop
vertex -1199.03282094934 138.598999587517 33.728710013342
vertex -1198.64274256992 137.654791885293 33.7287099611617
vertex -1198.45398665505 138.359238579628 33.728709935912
endloop
endfacet
facet normal 1.3376877721888e-007 1.81293310608856e-015 0.999999999999991
outer loop
vertex -1198.45398665505 138.359238579628 33.728709935912
vertex -1198.64274256992 137.654791885293 33.7287099611617
vertex -1197.83282093823 137.548163688345 33.7287098528194
endloop
endfacet
facet normal 1.3376877721888e-007 1.81293310608856e-015 0.999999999999991
outer loop
vertex -1198.45398665505 138.359238579628 33.728709935912
vertex -1197.83282093823 137.548163688345 33.7287098528194
vertex -1197.83282094594 138.277460569293 33.7287098528194
endloop
endfacet
facet normal 1.3376877721888e-007 1.81293310608856e-015 0.999999999999991
outer loop
vertex -1197.83282094594 138.277460569293 33.7287098528194
vertex -1197.83282093823 137.548163688345 33.7287098528194
vertex -1197.21165523856 138.359238592769 33.7287097697269
endloop
endfacet
facet normal 1.3376877721888e-007 1.81293310608856e-015 0.999999999999991
outer loop
vertex -1197.21165523856 138.359238592769 33.7287097697269
vertex -1197.83282093823 137.548163688345 33.7287098528194
vertex -1197.02289930879 137.654791902427 33.7287097444772
endloop
endfacet
facet normal 1.3376877721888e-007 1.81293310608856e-015 0.999999999999991
outer loop
vertex -1197.21165523856 138.359238592769 33.7287097697269
vertex -1197.02289930879 137.654791902427 33.7287097444772
vertex -1196.63282094934 138.598999612903 33.7287096922969
endloop
endfacet
facet normal 1.3376877721888e-007 1.81293310608856e-015 0.999999999999991
outer loop
vertex -1196.63282094934 138.598999612903 33.7287096922969
vertex -1197.02289930879 137.654791902427 33.7287097444772
vertex -1196.26817250219 137.967409990959 33.7287096435183
endloop
endfacet
facet normal 1.3376877721888e-007 1.81293310608856e-015 0.999999999999991
outer loop
vertex -1196.63282094934 138.598999612903 33.7287096922969
vertex -1196.26817250219 137.967409990959 33.7287096435183
vertex -1196.13576467853 138.980404312396 33.7287096258063
endloop
endfacet
facet normal 1.3376877721888e-007 1.81293310608856e-015 0.999999999999991
outer loop
vertex -1196.13576467853 138.980404312396 33.7287096258063
vertex -1196.26817250219 137.967409990959 33.7287096435183
vertex -1195.62007390306 138.464713547834 33.728709556823
endloop
endfacet
facet normal 1.3376877721888e-007 1.81293310608856e-015 0.999999999999991
outer loop
vertex -1196.13576467853 138.980404312396 33.7287096258063
vertex -1195.62007390306 138.464713547834 33.728709556823
vertex -1195.75435998955 139.477460591278 33.7287095747862
endloop
endfacet
facet normal 1.3376877721888e-007 1.81293310608856e-015 0.999999999999991
outer loop
vertex -1195.75435998955 139.477460591278 33.7287095747862
vertex -1195.62007390306 138.464713547834 33.728709556823
vertex -1195.51459898166 140.056294885568 33.7287095427137
endloop
endfacet
facet normal 1.3376877721888e-007 1.81293310608856e-015 0.999999999999991
outer loop
vertex -1195.51459898166 140.056294885568 33.7287095427137
vertex -1195.62007390306 138.464713547834 33.728709556823
vertex -1195.12277035989 139.112812157485 33.7287094902993
endloop
endfacet
facet normal 1.3376877721888e-007 1.81293310608856e-015 0.999999999999991
outer loop
vertex -1195.51459898166 140.056294885568 33.7287095427137
vertex -1195.12277035989 139.112812157485 33.7287094902993
vertex -1195.43282097133 140.677460594679 33.7287095317743
endloop
endfacet
facet normal 1.3376877721888e-007 1.81293310608856e-015 0.999999999999991
outer loop
vertex -1195.43282097133 140.677460594679 33.7287095317743
vertex -1195.12277035989 139.112812157485 33.7287094902993
vertex -1195.12277039299 142.242109038432 33.7287094902993
endloop
endfacet
facet normal 1.3376877721888e-007 1.81293310608856e-015 0.999999999999991
outer loop
vertex -1195.12277039299 142.242109038432 33.7287094902993
vertex -1195.12277035989 139.112812157485 33.7287094902993
vertex -1194.81015230446 141.487382231834 33.7287094484807
endloop
endfacet
facet normal 1.3376877721888e-007 1.81293310608856e-015 0.999999999999991
outer loop
vertex -1194.81015230446 141.487382231834 33.7287094484807
vertex -1195.12277035989 139.112812157485 33.7287094902993
vertex -1194.81015228733 139.867538970696 33.7287094484807
endloop
endfacet
facet normal 1.3376877721888e-007 1.81293310608856e-015 0.999999999999991
outer loop
vertex -1194.81015230446 141.487382231834 33.7287094484807
vertex -1194.81015228733 139.867538970696 33.7287094484807
vertex -1194.70352409038 140.677460602393 33.7287094342172
endloop
endfacet
facet normal 1.3376877721888e-007 1.81293310608856e-015 0.999999999999991
outer loop
vertex -1200.85548963819 139.867538906751 33.7287102571581
vertex -1200.85548965533 141.487382167889 33.7287102571581
vertex -1200.96211785228 140.677460536192 33.7287102714217
endloop
endfacet
facet normal 1.3376877721888e-007 1.81293310608856e-015 0.999999999999991
outer loop
vertex -1200.85548965533 141.487382167889 33.7287102571581
vertex -1200.85548963819 139.867538906751 33.7287102571581
vertex -1200.54287158276 142.2421089811 33.7287102153396
endloop
endfacet
facet normal 1.3376877721888e-007 1.81293310608856e-015 0.999999999999991
outer loop
vertex -1200.54287158276 142.2421089811 33.7287102153396
vertex -1200.85548963819 139.867538906751 33.7287102571581
vertex -1200.54287154966 139.112812100153 33.7287102153396
endloop
endfacet
facet normal 1.3376877721888e-007 1.81293310608856e-015 0.999999999999991
outer loop
vertex -1200.54287158276 142.2421089811 33.7287102153396
vertex -1200.54287154966 139.112812100153 33.7287102153396
vertex -1200.0455680396 142.890207590751 33.7287101488159
endloop
endfacet
facet normal 1.3376877721888e-007 1.81293310608856e-015 0.999999999999991
outer loop
vertex -1200.0455680396 142.890207590751 33.7287101488159
vertex -1200.54287154966 139.112812100153 33.7287102153396
vertex -1200.23282097133 140.677460543906 33.7287101738645
endloop
endfacet
facet normal 1.3376877721888e-007 1.81293310608856e-015 0.999999999999991
outer loop
vertex -1200.0455680396 142.890207590751 33.7287101488159
vertex -1200.23282097133 140.677460543906 33.7287101738645
vertex -1200.15104296099 141.298626253017 33.7287101629251
endloop
endfacet
facet normal 1.3376877721888e-007 1.81293310608856e-015 0.999999999999991
outer loop
vertex -1200.0455680396 142.890207590751 33.7287101488159
vertex -1200.15104296099 141.298626253017 33.7287101629251
vertex -1199.9112819531 141.877460547307 33.7287101308526
endloop
endfacet
facet normal 1.3376877721888e-007 1.81293310608856e-015 0.999999999999991
outer loop
vertex -1200.0455680396 142.890207590751 33.7287101488159
vertex -1199.9112819531 141.877460547307 33.7287101308526
vertex -1199.39746944047 143.387511147626 33.7287100621205
endloop
endfacet
facet normal 1.3376877721888e-007 1.81293310608856e-015 0.999999999999991
outer loop
vertex -1199.39746944047 143.387511147626 33.7287100621205
vertex -1199.9112819531 141.877460547307 33.7287101308526
vertex -1199.52987726413 142.374516826189 33.7287100798326
endloop
endfacet
facet normal 1.3376877721888e-007 1.81293310608856e-015 0.999999999999991
outer loop
vertex -1199.39746944047 143.387511147626 33.7287100621205
vertex -1199.52987726413 142.374516826189 33.7287100798326
vertex -1199.03282099331 142.755921525682 33.728710013342
endloop
endfacet
facet normal 1.3376877721888e-007 1.81293310608856e-015 0.999999999999991
outer loop
vertex -1199.39746944047 143.387511147626 33.7287100621205
vertex -1199.03282099331 142.755921525682 33.728710013342
vertex -1198.64274263387 143.700129236158 33.7287099611617
endloop
endfacet
facet normal 1.3376877721888e-007 1.81293310608856e-015 0.999999999999991
outer loop
vertex -1198.64274263387 143.700129236158 33.7287099611617
vertex -1199.03282099331 142.755921525682 33.728710013342
vertex -1198.4539867041 142.995682545816 33.728709935912
endloop
endfacet
facet normal 1.3376877721888e-007 1.81293310608856e-015 0.999999999999991
outer loop
vertex -1198.64274263387 143.700129236158 33.7287099611617
vertex -1198.4539867041 142.995682545816 33.728709935912
vertex -1197.83282100443 143.80675745024 33.7287098528194
endloop
endfacet
facet normal 1.3376877721888e-007 1.81293310608856e-015 0.999999999999991
outer loop
vertex -1197.83282100443 143.80675745024 33.7287098528194
vertex -1198.4539867041 142.995682545816 33.728709935912
vertex -1197.83282099671 143.077460569293 33.7287098528194
endloop
endfacet
facet normal 1.3376877721888e-007 1.81293310608856e-015 0.999999999999991
outer loop
vertex -1197.83282100443 143.80675745024 33.7287098528194
vertex -1197.83282099671 143.077460569293 33.7287098528194
vertex -1197.02289937273 143.700129253293 33.7287097444772
endloop
endfacet
facet normal 1.3376877721888e-007 1.81293310608856e-015 0.999999999999991
outer loop
vertex -1197.02289937273 143.700129253293 33.7287097444772
vertex -1197.83282099671 143.077460569293 33.7287098528194
vertex -1197.2116552876 142.995682558957 33.7287097697268
endloop
endfacet
facet normal 1.3376877721888e-007 1.81293310608856e-015 0.999999999999991
outer loop
vertex -1197.02289937273 143.700129253293 33.7287097444772
vertex -1197.2116552876 142.995682558957 33.7287097697268
vertex -1196.63282099331 142.755921551068 33.7287096922969
endloop
endfacet
facet normal 1.3376877721888e-007 1.81293310608856e-015 0.999999999999991
outer loop
vertex -1197.02289937273 143.700129253293 33.7287097444772
vertex -1196.63282099331 142.755921551068 33.7287096922969
vertex -1196.26817255952 143.387511180727 33.7287096435183
endloop
endfacet
facet normal 1.3376877721888e-007 1.81293310608856e-015 0.999999999999991
outer loop
vertex -1196.26817255952 143.387511180727 33.7287096435183
vertex -1196.63282099331 142.755921551068 33.7287096922969
vertex -1196.13576471443 142.374516862091 33.7287096258063
endloop
endfacet
facet normal 1.3376877721888e-007 1.81293310608856e-015 0.999999999999991
outer loop
vertex -1196.26817255952 143.387511180727 33.7287096435183
vertex -1196.13576471443 142.374516862091 33.7287096258063
vertex -1195.62007394987 142.890207637562 33.728709556823
endloop
endfacet
facet normal 1.3376877721888e-007 1.81293310608856e-015 0.999999999999991
outer loop
vertex -1195.62007394987 142.890207637562 33.728709556823
vertex -1196.13576471443 142.374516862091 33.7287096258063
vertex -1195.75436001494 141.877460591278 33.7287095747862
endloop
endfacet
facet normal 1.3376877721888e-007 1.81293310608856e-015 0.999999999999991
outer loop
vertex -1195.62007394987 142.890207637562 33.728709556823
vertex -1195.75436001494 141.877460591278 33.7287095747862
vertex -1195.5145989948 141.29862630206 33.7287095427137
endloop
endfacet
facet normal 1.3376877721888e-007 1.81293310608856e-015 0.999999999999991
outer loop
vertex -1195.62007394987 142.890207637562 33.728709556823
vertex -1195.5145989948 141.29862630206 33.7287095427137
vertex -1195.12277039299 142.242109038432 33.7287094902993
endloop
endfacet
facet normal 1.3376877721888e-007 1.81293310608856e-015 0.999999999999991
outer loop
vertex -1195.12277039299 142.242109038432 33.7287094902993
vertex -1195.5145989948 141.29862630206 33.7287095427137
vertex -1195.43282097133 140.677460594679 33.7287095317743
endloop
endfacet
facet normal -0.258819055319762 0.965925823551366 3.46219039010064e-008
outer loop
vertex -1197.21165789278 138.359238592769 13.886864769727
vertex -1196.63282094934 138.598999612903 33.7287096922969
vertex -1196.63282360356 138.598999612903 13.886864692297
endloop
endfacet
facet normal -0.500000009160532 0.8660253984956 6.68843849240481e-008
outer loop
vertex -1196.63282094934 138.598999612903 33.7287096922969
vertex -1197.21165789278 138.359238592769 13.886864769727
vertex -1197.21165523856 138.359238592769 33.7287097697269
endloop
endfacet
facet normal -0.499999990839465 -0.866025409073273 6.68843895029708e-008
outer loop
vertex -1196.63282099331 142.755921551068 33.7287096922969
vertex -1197.21165794182 142.995682558957 13.886864769727
vertex -1196.63282364753 142.755921551068 13.886864692297
endloop
endfacet
facet normal -0.25881903488527 -0.965925829026772 3.46219090114315e-008
outer loop
vertex -1197.21165794182 142.995682558957 13.886864769727
vertex -1196.63282099331 142.755921551068 33.7287096922969
vertex -1197.2116552876 142.995682558957 33.7287097697268
endloop
endfacet
facet normal 1.05776678515529e-008 -1.0 2.6386687460161e-015
outer loop
vertex -1197.83282099671 143.077460569293 33.7287098528194
vertex -1198.45398935831 142.995682545816 13.8868649359121
vertex -1197.83282365093 143.077460569293 13.8868648528196
endloop
endfacet
facet normal 0.258819055319766 -0.965925823551365 -3.4621903901007e-008
outer loop
vertex -1198.45398935831 142.995682545816 13.8868649359121
vertex -1197.83282099671 143.077460569293 33.7287098528194
vertex -1198.4539867041 142.995682545816 33.728709935912
endloop
endfacet
facet normal 0.258819055319762 -0.965925823551366 -3.46219039010065e-008
outer loop
vertex -1198.4539867041 142.995682545816 33.728709935912
vertex -1199.03282364753 142.755921525682 13.8868650133421
vertex -1198.45398935831 142.995682545816 13.8868649359121
endloop
endfacet
facet normal 0.50000000916053 -0.866025398495601 -6.68843849240479e-008
outer loop
vertex -1199.03282364753 142.755921525682 13.8868650133421
vertex -1198.4539867041 142.995682545816 33.728709935912
vertex -1199.03282099331 142.755921525682 33.728710013342
endloop
endfacet
facet normal -1.05776692595082e-008 1.0 -2.6456672568898e-015
outer loop
vertex -1197.83282360016 138.277460569292 13.8868648528196
vertex -1197.21165523856 138.359238592769 33.7287097697269
vertex -1197.21165789278 138.359238592769 13.886864769727
endloop
endfacet
facet normal -0.258819055319766 0.965925823551365 3.4621903901007e-008
outer loop
vertex -1197.21165523856 138.359238592769 33.7287097697269
vertex -1197.83282360016 138.277460569292 13.8868648528196
vertex -1197.83282094594 138.277460569293 33.7287098528194
endloop
endfacet
facet normal 0.866025398495594 0.500000009160534 -1.15847158191455e-007
outer loop
vertex -1199.91128458194 139.477460547307 13.8868651308527
vertex -1199.52987722822 138.980404276494 33.7287100798326
vertex -1199.52987988244 138.980404276494 13.8868650798327
endloop
endfacet
facet normal 0.707106773706998 0.707106788666091 -9.45888093633037e-008
outer loop
vertex -1199.52987722822 138.980404276494 33.7287100798326
vertex -1199.91128458194 139.477460547307 13.8868651308527
vertex -1199.91128192772 139.477460547307 33.7287101308526
endloop
endfacet
facet normal 0.965925829026762 -0.258819034885276 -1.29210714166277e-007
outer loop
vertex -1193.23260186481 139.444834915651 13.8868642374535
vertex -1193.7083750275 138.29621061292 33.2287093010974
vertex -1193.70837761484 138.29621061292 13.8868643010975
endloop
endfacet
facet normal 0.866025409073269 -0.499999990839464 -1.15847156772323e-007
outer loop
vertex -1193.7083750275 138.29621061292 33.2287093010974
vertex -1193.23260186481 139.444834915651 13.8868642374535
vertex -1193.23259927747 139.444834915651 33.2287092374534
endloop
endfacet
facet normal 0.258819034885276 0.96592582902677 -3.46219076221767e-008
outer loop
vertex -1196.60019797191 145.277682330032 13.8868646879327
vertex -1195.45157108184 144.801906580004 33.2287095342825
vertex -1195.45157366917 144.801906580004 13.8868645342827
endloop
endfacet
facet normal 0.499999990839464 0.866025409073274 -6.68843883901663e-008
outer loop
vertex -1195.45157108184 144.801906580004 33.2287095342825
vertex -1196.60019797191 145.277682330032 13.8868646879327
vertex -1196.60019538457 145.277682330033 33.2287096879326
endloop
endfacet
facet normal -0.258819034885272 -0.965925829026771 3.46219090114317e-008
outer loop
vertex -1197.2116552876 142.995682558957 33.7287097697268
vertex -1197.83282365093 143.077460569293 13.8868648528196
vertex -1197.21165794182 142.995682558957 13.886864769727
endloop
endfacet
facet normal 1.05776683327525e-008 -1.0 2.63866868227878e-015
outer loop
vertex -1197.83282365093 143.077460569293 13.8868648528196
vertex -1197.2116552876 142.995682558957 33.7287097697268
vertex -1197.83282099671 143.077460569293 33.7287098528194
endloop
endfacet
facet normal 0.999999999999991 1.0577669419908e-008 -1.33768774413895e-007
outer loop
vertex -1200.23282362555 140.677460543906 13.8868651738646
vertex -1200.15104296099 141.298626253017 33.7287101629251
vertex -1200.23282097133 140.677460543906 33.7287101738645
endloop
endfacet
facet normal 0.965925829026762 -0.258819034885276 -1.29210713273059e-007
outer loop
vertex -1200.15104296099 141.298626253017 33.7287101629251
vertex -1200.23282362555 140.677460543906 13.8868651738646
vertex -1200.15104561521 141.298626253017 13.8868651629253
endloop
endfacet
facet normal 0.258819034885276 0.96592582902677 -3.46219090184312e-008
outer loop
vertex -1198.45398930927 138.359238579628 13.8868649359122
vertex -1197.83282094594 138.277460569293 33.7287098528194
vertex -1197.83282360016 138.277460569292 13.8868648528196
endloop
endfacet
facet normal -1.0577671612041e-008 1.0 -2.64566694139049e-015
outer loop
vertex -1197.83282094594 138.277460569293 33.7287098528194
vertex -1198.45398930927 138.359238579628 13.8868649359122
vertex -1198.45398665505 138.359238579628 33.728709935912
endloop
endfacet
facet normal 0.707106773706998 0.707106788666091 -9.45888093633037e-008
outer loop
vertex -1199.52987988244 138.980404276494 13.8868650798327
vertex -1199.03282094934 138.598999587517 33.728710013342
vertex -1199.03282360356 138.598999587517 13.8868650133421
endloop
endfacet
facet normal 0.499999990839469 0.866025409073271 -6.68843895029715e-008
outer loop
vertex -1199.03282094934 138.598999587517 33.728710013342
vertex -1199.52987988244 138.980404276494 13.8868650798327
vertex -1199.52987722822 138.980404276494 33.7287100798326
endloop
endfacet
facet normal -0.50000000916053 0.866025398495601 6.68843849240479e-008
outer loop
vertex -1196.63282360356 138.598999612903 13.886864692297
vertex -1196.13576467853 138.980404312396 33.7287096258063
vertex -1196.13576733275 138.980404312396 13.8868646258064
endloop
endfacet
facet normal -0.707106788666081 0.707106773707008 9.45888056323749e-008
outer loop
vertex -1196.13576467853 138.980404312396 33.7287096258063
vertex -1196.63282360356 138.598999612903 13.886864692297
vertex -1196.63282094934 138.598999612903 33.7287096922969
endloop
endfacet
facet normal 0.500000009160531 -0.866025398495601 -6.6884384924048e-008
outer loop
vertex -1199.03282099331 142.755921525682 33.728710013342
vertex -1199.52987991835 142.374516826189 13.8868650798327
vertex -1199.03282364753 142.755921525682 13.8868650133421
endloop
endfacet
facet normal 0.707106788666082 -0.707106773707007 -9.45888056323751e-008
outer loop
vertex -1199.52987991835 142.374516826189 13.8868650798327
vertex -1199.03282099331 142.755921525682 33.728710013342
vertex -1199.52987726413 142.374516826189 33.7287100798326
endloop
endfacet
facet normal -0.999999999999991 -1.05776689387081e-008 1.33768774413895e-007
outer loop
vertex -1195.43282097133 140.677460594679 33.7287095317743
vertex -1195.51460163588 140.056294885568 13.8868645427139
vertex -1195.51459898166 140.056294885568 33.7287095427137
endloop
endfacet
facet normal -0.965925829026762 0.258819034885275 1.29210713273059e-007
outer loop
vertex -1195.51460163588 140.056294885568 13.8868645427139
vertex -1195.43282097133 140.677460594679 33.7287095317743
vertex -1195.43282362555 140.677460594679 13.8868645317745
endloop
endfacet
facet normal 0.499999990839471 0.86602540907327 -6.68843895029717e-008
outer loop
vertex -1199.03282360356 138.598999587517 13.8868650133421
vertex -1198.45398665505 138.359238579628 33.728709935912
vertex -1198.45398930927 138.359238579628 13.8868649359122
endloop
endfacet
facet normal 0.258819034885274 0.965925829026771 -3.4621909018431e-008
outer loop
vertex -1198.45398665505 138.359238579628 33.728709935912
vertex -1199.03282360356 138.598999587517 13.8868650133421
vertex -1199.03282094934 138.598999587517 33.728710013342
endloop
endfacet
facet normal -0.500000009160525 0.866025398495605 6.68843865407626e-008
outer loop
vertex -1200.21407366917 144.801906529628 13.8868651713565
vertex -1199.06544678917 145.277682303956 33.2287100177063
vertex -1199.06544937651 145.277682303956 13.8868650177064
endloop
endfacet
facet normal -0.258819055319764 0.965925823551365 3.46219055562157e-008
outer loop
vertex -1199.06544678917 145.277682303956 33.2287100177063
vertex -1200.21407366917 144.801906529628 13.8868651713565
vertex -1200.21407108184 144.801906529628 33.2287101713563
endloop
endfacet
facet normal 0.500000009160524 -0.866025398495605 -6.6884386544262e-008
outer loop
vertex -1195.45157099458 136.553014608957 33.2287095342825
vertex -1196.60019787459 136.077238834629 13.8868646879328
vertex -1195.45157358192 136.553014608957 13.8868645342827
endloop
endfacet
facet normal 0.258819055319763 -0.965925823551366 -3.46219055527161e-008
outer loop
vertex -1196.60019787459 136.077238834629 13.8868646879328
vertex -1195.45157099458 136.553014608957 33.2287095342825
vertex -1196.60019528725 136.077238834629 33.2287096879326
endloop
endfacet
facet normal 0.258819055319763 -0.965925823551366 -3.46219055527161e-008
outer loop
vertex -1196.60019528725 136.077238834629 33.2287096879326
vertex -1197.83282357517 135.914960569293 13.8868648528196
vertex -1196.60019787459 136.077238834629 13.8868646879328
endloop
endfacet
facet normal 1.05776690812859e-008 -1.0 1.06394540975552e-015
outer loop
vertex -1197.83282357517 135.914960569293 13.8868648528196
vertex -1196.60019528725 136.077238834629 33.2287096879326
vertex -1197.83282098784 135.914960569293 33.2287098528194
endloop
endfacet
facet normal -0.965925823551357 -0.258819055319766 1.29210714718169e-007
outer loop
vertex -1202.43304277288 139.444834818332 33.2287104681854
vertex -1202.59532362555 140.677460518916 13.8868654898934
vertex -1202.43304536021 139.444834818332 13.8868654681856
endloop
endfacet
facet normal -0.999999999999991 -1.05776688406859e-008 1.33768774918681e-007
outer loop
vertex -1202.59532362555 140.677460518916 13.8868654898934
vertex -1202.43304277288 139.444834818332 33.2287104681854
vertex -1202.59532103821 140.677460518916 33.2287104898932
endloop
endfacet
facet normal -0.866025409073262 0.499999990839476 1.15847155549287e-007
outer loop
vertex -1195.75435998955 139.477460591278 33.7287095747862
vertex -1196.13576733275 138.980404312396 13.8868646258064
vertex -1196.13576467853 138.980404312396 33.7287096258063
endloop
endfacet
facet normal -0.707106788666081 0.707106773707007 9.4588805632375e-008
outer loop
vertex -1196.13576733275 138.980404312396 13.8868646258064
vertex -1195.75435998955 139.477460591278 33.7287095747862
vertex -1195.75436264377 139.477460591278 13.8868645747864
endloop
endfacet
facet normal -0.965925823551357 -0.258819055319765 1.29210714639433e-007
outer loop
vertex -1195.5145989948 141.29862630206 33.7287095427137
vertex -1195.75436266916 141.877460591278 13.8868645747864
vertex -1195.51460164902 141.29862630206 13.8868645427139
endloop
endfacet
facet normal -0.866025398495593 -0.500000009160535 1.15847158191455e-007
outer loop
vertex -1195.75436266916 141.877460591278 13.8868645747864
vertex -1195.5145989948 141.29862630206 33.7287095427137
vertex -1195.75436001494 141.877460591278 33.7287095747862
endloop
endfacet
facet normal -0.707106788666067 0.707106773707021 9.45888071056142e-008
outer loop
vertex -1200.04556810648 142.890207590751 33.2287101488159
vertex -1199.39746944047 143.387511147626 33.7287100621205
vertex -1199.39746950735 143.387511147626 33.2287100621205
endloop
endfacet
facet normal -0.500000009160546 0.866025398495592 6.68843865407654e-008
outer loop
vertex -1199.39746944047 143.387511147626 33.7287100621205
vertex -1200.04556810648 142.890207590751 33.2287101488159
vertex -1200.0455680396 142.890207590751 33.7287101488159
endloop
endfacet
facet normal 1.33768774916514e-007 2.45131132089436e-015 0.999999999999991
outer loop
vertex -1201.20041704799 137.30986448827 33.2287103032986
vertex -1200.85548970508 139.867538906751 33.2287102571581
vertex -1200.96211791916 140.677460536192 33.2287102714217
endloop
endfacet
facet normal 1.33768774916514e-007 2.45131132089436e-015 0.999999999999991
outer loop
vertex -1200.85548970508 139.867538906751 33.2287102571581
vertex -1201.20041704799 137.30986448827 33.2287103032986
vertex -1200.21407099458 136.553014558581 33.2287101713563
endloop
endfacet
facet normal 1.33768774916514e-007 2.45131132089436e-015 0.999999999999991
outer loop
vertex -1200.85548970508 139.867538906751 33.2287102571581
vertex -1200.21407099458 136.553014558581 33.2287101713563
vertex -1200.54287161655 139.112812100153 33.2287102153396
endloop
endfacet
facet normal 1.33768774916514e-007 2.45131132089436e-015 0.999999999999991
outer loop
vertex -1200.54287161655 139.112812100153 33.2287102153396
vertex -1200.21407099458 136.553014558581 33.2287101713563
vertex -1200.04556805967 138.464713501023 33.2287101488159
endloop
endfacet
facet normal 1.33768774916514e-007 2.45131132089436e-015 0.999999999999991
outer loop
vertex -1200.04556805967 138.464713501023 33.2287101488159
vertex -1200.21407099458 136.553014558581 33.2287101713563
vertex -1199.06544669185 136.077238808553 33.2287100177062
endloop
endfacet
facet normal 1.33768774916514e-007 2.45131132089436e-015 0.999999999999991
outer loop
vertex -1200.04556805967 138.464713501023 33.2287101488159
vertex -1199.06544669185 136.077238808553 33.2287100177062
vertex -1199.39746945002 137.967409957858 33.2287100621206
endloop
endfacet
facet normal 1.33768774916514e-007 2.45131132089436e-015 0.999999999999991
outer loop
vertex -1199.39746945002 137.967409957858 33.2287100621206
vertex -1199.06544669185 136.077238808553 33.2287100177062
vertex -1198.64274263681 137.654791885293 33.2287099611617
endloop
endfacet
facet normal 1.33768774916514e-007 2.45131132089436e-015 0.999999999999991
outer loop
vertex -1198.64274263681 137.654791885293 33.2287099611617
vertex -1199.06544669185 136.077238808553 33.2287100177062
vertex -1197.83282098784 135.914960569293 33.2287098528194
endloop
endfacet
facet normal 1.33768774916514e-007 2.45131132089436e-015 0.999999999999991
outer loop
vertex -1198.64274263681 137.654791885293 33.2287099611617
vertex -1197.83282098784 135.914960569293 33.2287098528194
vertex -1197.83282100511 137.548163688345 33.2287098528194
endloop
endfacet
facet normal 1.33768774916514e-007 2.45131132089436e-015 0.999999999999991
outer loop
vertex -1197.83282100511 137.548163688345 33.2287098528194
vertex -1197.83282098784 135.914960569293 33.2287098528194
vertex -1197.02289937567 137.654791902427 33.2287097444772
endloop
endfacet
facet normal 1.33768774916514e-007 2.45131132089436e-015 0.999999999999991
outer loop
vertex -1197.02289937567 137.654791902427 33.2287097444772
vertex -1197.83282098784 135.914960569293 33.2287098528194
vertex -1196.60019528725 136.077238834629 33.2287096879326
endloop
endfacet
facet normal 1.33768774916514e-007 2.45131132089436e-015 0.999999999999991
outer loop
vertex -1197.02289937567 137.654791902427 33.2287097444772
vertex -1196.60019528725 136.077238834629 33.2287096879326
vertex -1196.26817256907 137.967409990959 33.2287096435183
endloop
endfacet
facet normal 1.33768774916514e-007 2.45131132089436e-015 0.999999999999991
outer loop
vertex -1196.26817256907 137.967409990959 33.2287096435183
vertex -1196.60019528725 136.077238834629 33.2287096879326
vertex -1195.45157099458 136.553014608957 33.2287095342825
endloop
endfacet
facet normal 1.33768774916514e-007 2.45131132089436e-015 0.999999999999991
outer loop
vertex -1196.26817256907 137.967409990959 33.2287096435183
vertex -1195.45157099458 136.553014608957 33.2287095342825
vertex -1195.62007396994 138.464713547834 33.228709556823
endloop
endfacet
facet normal 1.33768774916514e-007 2.45131132089436e-015 0.999999999999991
outer loop
vertex -1195.62007396994 138.464713547834 33.228709556823
vertex -1195.45157099458 136.553014608957 33.2287095342825
vertex -1195.12277042678 139.112812157485 33.2287094902993
endloop
endfacet
facet normal 1.33768774916514e-007 2.45131132089436e-015 0.999999999999991
outer loop
vertex -1195.12277042678 139.112812157485 33.2287094902993
vertex -1195.45157099458 136.553014608957 33.2287095342825
vertex -1194.46522495719 137.309864559513 33.2287094023403
endloop
endfacet
facet normal 1.33768774916514e-007 2.45131132089436e-015 0.999999999999991
outer loop
vertex -1195.12277042678 139.112812157485 33.2287094902993
vertex -1194.46522495719 137.309864559513 33.2287094023403
vertex -1194.81015235421 139.867538970696 33.2287094484808
endloop
endfacet
facet normal 1.33768774916514e-007 2.45131132089436e-015 0.999999999999991
outer loop
vertex -1194.81015235421 139.867538970696 33.2287094484808
vertex -1194.46522495719 137.309864559513 33.2287094023403
vertex -1194.70352415726 140.677460602393 33.2287094342172
endloop
endfacet
facet normal 1.33768774916514e-007 2.45131132089436e-015 0.999999999999991
outer loop
vertex -1194.70352415726 140.677460602393 33.2287094342172
vertex -1194.46522495719 137.309864559513 33.2287094023403
vertex -1194.46522502843 144.045056650315 33.2287094023402
endloop
endfacet
facet normal 1.33768774916514e-007 2.45131132089436e-015 0.999999999999991
outer loop
vertex -1194.46522502843 144.045056650315 33.2287094023402
vertex -1194.46522495719 137.309864559513 33.2287094023403
vertex -1193.70837507788 143.05871061292 33.2287093010973
endloop
endfacet
facet normal 1.33768774916514e-007 2.45131132089436e-015 0.999999999999991
outer loop
vertex -1193.70837507788 143.05871061292 33.2287093010973
vertex -1194.46522495719 137.309864559513 33.2287094023403
vertex -1193.7083750275 138.29621061292 33.2287093010974
endloop
endfacet
facet normal 1.33768774916514e-007 2.45131132089436e-015 0.999999999999991
outer loop
vertex -1193.70837507788 143.05871061292 33.2287093010973
vertex -1193.7083750275 138.29621061292 33.2287093010974
vertex -1193.23259930355 141.910086320253 33.2287092374534
endloop
endfacet
facet normal 1.33768774916514e-007 2.45131132089436e-015 0.999999999999991
outer loop
vertex -1193.23259930355 141.910086320253 33.2287092374534
vertex -1193.7083750275 138.29621061292 33.2287093010974
vertex -1193.23259927747 139.444834915651 33.2287092374534
endloop
endfacet
facet normal 1.33768774916514e-007 2.45131132089436e-015 0.999999999999991
outer loop
vertex -1193.23259930355 141.910086320253 33.2287092374534
vertex -1193.23259927747 139.444834915651 33.2287092374534
vertex -1193.07032103821 140.677460619669 33.2287092157456
endloop
endfacet
facet normal 1.33768774916514e-007 2.45131132089436e-015 0.999999999999991
outer loop
vertex -1202.43304277288 139.444834818332 33.2287104681854
vertex -1202.43304279895 141.910086222934 33.2287104681854
vertex -1202.59532103821 140.677460518916 33.2287104898932
endloop
endfacet
facet normal 1.33768774916514e-007 2.45131132089436e-015 0.999999999999991
outer loop
vertex -1202.43304279895 141.910086222934 33.2287104681854
vertex -1202.43304277288 139.444834818332 33.2287104681854
vertex -1201.95726704892 143.058710525666 33.2287104045415
endloop
endfacet
facet normal 1.33768774916514e-007 2.45131132089436e-015 0.999999999999991
outer loop
vertex -1201.95726704892 143.058710525666 33.2287104045415
vertex -1202.43304277288 139.444834818332 33.2287104681854
vertex -1201.95726699855 138.296210525666 33.2287104045415
endloop
endfacet
facet normal 1.33768774916514e-007 2.45131132089436e-015 0.999999999999991
outer loop
vertex -1201.95726704892 143.058710525666 33.2287104045415
vertex -1201.95726699855 138.296210525666 33.2287104045415
vertex -1201.20041711923 144.045056579072 33.2287103032986
endloop
endfacet
facet normal 1.33768774916514e-007 2.45131132089436e-015 0.999999999999991
outer loop
vertex -1201.20041711923 144.045056579072 33.2287103032986
vertex -1201.95726699855 138.296210525666 33.2287104045415
vertex -1201.20041704799 137.30986448827 33.2287103032986
endloop
endfacet
facet normal 1.33768774916514e-007 2.45131132089436e-015 0.999999999999991
outer loop
vertex -1201.20041711923 144.045056579072 33.2287103032986
vertex -1201.20041704799 137.30986448827 33.2287103032986
vertex -1200.96211791916 140.677460536192 33.2287102714217
endloop
endfacet
facet normal 1.33768774916514e-007 2.45131132089436e-015 0.999999999999991
outer loop
vertex -1201.20041711923 144.045056579072 33.2287103032986
vertex -1200.96211791916 140.677460536192 33.2287102714217
vertex -1200.85548972221 141.487382167889 33.2287102571581
endloop
endfacet
facet normal 1.33768774916514e-007 2.45131132089436e-015 0.999999999999991
outer loop
vertex -1201.20041711923 144.045056579072 33.2287103032986
vertex -1200.85548972221 141.487382167889 33.2287102571581
vertex -1200.21407108184 144.801906529628 33.2287101713563
endloop
endfacet
facet normal 1.33768774916514e-007 2.45131132089436e-015 0.999999999999991
outer loop
vertex -1200.21407108184 144.801906529628 33.2287101713563
vertex -1200.85548972221 141.487382167889 33.2287102571581
vertex -1200.54287164965 142.2421089811 33.2287102153396
endloop
endfacet
facet normal 1.33768774916514e-007 2.45131132089436e-015 0.999999999999991
outer loop
vertex -1200.21407108184 144.801906529628 33.2287101713563
vertex -1200.54287164965 142.2421089811 33.2287102153396
vertex -1200.04556810648 142.890207590751 33.2287101488159
endloop
endfacet
facet normal 1.33768774916514e-007 2.45131132089436e-015 0.999999999999991
outer loop
vertex -1200.21407108184 144.801906529628 33.2287101713563
vertex -1200.04556810648 142.890207590751 33.2287101488159
vertex -1199.06544678917 145.277682303956 33.2287100177063
endloop
endfacet
facet normal 1.33768774916514e-007 2.45131132089436e-015 0.999999999999991
outer loop
vertex -1199.06544678917 145.277682303956 33.2287100177063
vertex -1200.04556810648 142.890207590751 33.2287101488159
vertex -1199.39746950735 143.387511147626 33.2287100621205
endloop
endfacet
facet normal 1.33768774916514e-007 2.45131132089436e-015 0.999999999999991
outer loop
vertex -1199.06544678917 145.277682303956 33.2287100177063
vertex -1199.39746950735 143.387511147626 33.2287100621205
vertex -1198.64274270075 143.700129236158 33.2287099611617
endloop
endfacet
facet normal 1.33768774916514e-007 2.45131132089436e-015 0.999999999999991
outer loop
vertex -1199.06544678917 145.277682303956 33.2287100177063
vertex -1198.64274270075 143.700129236158 33.2287099611617
vertex -1197.83282108859 145.439960569293 33.2287098528194
endloop
endfacet
facet normal 1.33768774916514e-007 2.45131132089436e-015 0.999999999999991
outer loop
vertex -1197.83282108859 145.439960569293 33.2287098528194
vertex -1198.64274270075 143.700129236158 33.2287099611617
vertex -1197.83282107131 143.80675745024 33.2287098528194
endloop
endfacet
facet normal 1.33768774916514e-007 2.45131132089436e-015 0.999999999999991
outer loop
vertex -1197.83282108859 145.439960569293 33.2287098528194
vertex -1197.83282107131 143.80675745024 33.2287098528194
vertex -1196.60019538457 145.277682330033 33.2287096879326
endloop
endfacet
facet normal 1.33768774916514e-007 2.45131132089436e-015 0.999999999999991
outer loop
vertex -1196.60019538457 145.277682330033 33.2287096879326
vertex -1197.83282107131 143.80675745024 33.2287098528194
vertex -1197.02289943962 143.700129253293 33.2287097444772
endloop
endfacet
facet normal 1.33768774916514e-007 2.45131132089436e-015 0.999999999999991
outer loop
vertex -1196.60019538457 145.277682330033 33.2287096879326
vertex -1197.02289943962 143.700129253293 33.2287097444772
vertex -1196.2681726264 143.387511180727 33.2287096435183
endloop
endfacet
facet normal 1.33768774916514e-007 2.45131132089436e-015 0.999999999999991
outer loop
vertex -1196.60019538457 145.277682330033 33.2287096879326
vertex -1196.2681726264 143.387511180727 33.2287096435183
vertex -1195.45157108184 144.801906580004 33.2287095342825
endloop
endfacet
facet normal 1.33768774916514e-007 2.45131132089436e-015 0.999999999999991
outer loop
vertex -1195.45157108184 144.801906580004 33.2287095342825
vertex -1196.2681726264 143.387511180727 33.2287096435183
vertex -1195.62007401675 142.890207637562 33.228709556823
endloop
endfacet
facet normal 1.33768774916514e-007 2.45131132089436e-015 0.999999999999991
outer loop
vertex -1195.45157108184 144.801906580004 33.2287095342825
vertex -1195.62007401675 142.890207637562 33.228709556823
vertex -1195.12277045988 142.242109038432 33.2287094902993
endloop
endfacet
facet normal 1.33768774916514e-007 2.45131132089436e-015 0.999999999999991
outer loop
vertex -1195.45157108184 144.801906580004 33.2287095342825
vertex -1195.12277045988 142.242109038432 33.2287094902993
vertex -1194.46522502843 144.045056650315 33.2287094023402
endloop
endfacet
facet normal 1.33768774916514e-007 2.45131132089436e-015 0.999999999999991
outer loop
vertex -1194.46522502843 144.045056650315 33.2287094023402
vertex -1195.12277045988 142.242109038432 33.2287094902993
vertex -1194.81015237135 141.487382231834 33.2287094484808
endloop
endfacet
facet normal 1.33768774916514e-007 2.45131132089436e-015 0.999999999999991
outer loop
vertex -1194.46522502843 144.045056650315 33.2287094023402
vertex -1194.81015237135 141.487382231834 33.2287094484808
vertex -1194.70352415726 140.677460602393 33.2287094342172
endloop
endfacet
facet normal 0.70710678866609 -0.707106773706999 -9.45888071056172e-008
outer loop
vertex -1195.62007396994 138.464713547834 33.228709556823
vertex -1195.12277035989 139.112812157485 33.7287094902993
vertex -1195.62007390306 138.464713547834 33.728709556823
endloop
endfacet
facet normal 0.866025409073267 -0.499999990839466 -1.15847156774072e-007
outer loop
vertex -1195.12277035989 139.112812157485 33.7287094902993
vertex -1195.62007396994 138.464713547834 33.228709556823
vertex -1195.12277042678 139.112812157485 33.2287094902993
endloop
endfacet
facet normal -0.965925829026765 0.258819034885264 1.29210714168027e-007
outer loop
vertex -1200.85548965533 141.487382167889 33.7287102571581
vertex -1200.96211791916 140.677460536192 33.2287102714217
vertex -1200.96211785228 140.677460536192 33.7287102714217
endloop
endfacet
facet normal -0.999999999999991 -1.05776702753745e-008 1.33768774917807e-007
outer loop
vertex -1200.96211791916 140.677460536192 33.2287102714217
vertex -1200.85548965533 141.487382167889 33.7287102571581
vertex -1200.85548972221 141.487382167889 33.2287102571581
endloop
endfacet
facet normal -0.707106788666107 0.707106773706982 9.45888071056195e-008
outer loop
vertex -1200.0455680396 142.890207590751 33.7287101488159
vertex -1200.54287164965 142.2421089811 33.2287102153396
vertex -1200.54287158276 142.2421089811 33.7287102153396
endloop
endfacet
facet normal -0.866025409073259 0.499999990839481 1.15847156774071e-007
outer loop
vertex -1200.54287164965 142.2421089811 33.2287102153396
vertex -1200.0455680396 142.890207590751 33.7287101488159
vertex -1200.04556810648 142.890207590751 33.2287101488159
endloop
endfacet
facet normal -0.258819055319727 0.965925823551375 3.46219055562106e-008
outer loop
vertex -1198.64274270075 143.700129236158 33.2287099611617
vertex -1197.83282100443 143.80675745024 33.7287098528194
vertex -1197.83282107131 143.80675745024 33.2287098528194
endloop
endfacet
facet normal -1.057767264573e-008 1.0 -1.06394496571952e-015
outer loop
vertex -1197.83282100443 143.80675745024 33.7287098528194
vertex -1198.64274270075 143.700129236158 33.2287099611617
vertex -1198.64274263387 143.700129236158 33.7287099611617
endloop
endfacet
facet normal -0.258819034885308 -0.965925829026762 3.46219076186816e-008
outer loop
vertex -1198.64274256992 137.654791885293 33.7287099611617
vertex -1199.39746945002 137.967409957858 33.2287100621206
vertex -1198.64274263681 137.654791885293 33.2287099611617
endloop
endfacet
facet normal -0.499999990839445 -0.866025409073285 6.68843883901639e-008
outer loop
vertex -1199.39746945002 137.967409957858 33.2287100621206
vertex -1198.64274256992 137.654791885293 33.7287099611617
vertex -1199.39746938314 137.967409957858 33.7287100621205
endloop
endfacet
facet normal 0.258819034885248 0.965925829026778 -3.46219076186735e-008
outer loop
vertex -1197.02289943962 143.700129253293 33.2287097444772
vertex -1196.26817255952 143.387511180727 33.7287096435183
vertex -1196.2681726264 143.387511180727 33.2287096435183
endloop
endfacet
facet normal 0.499999990839462 0.866025409073275 -6.68843883901661e-008
outer loop
vertex -1196.26817255952 143.387511180727 33.7287096435183
vertex -1197.02289943962 143.700129253293 33.2287097444772
vertex -1197.02289937273 143.700129253293 33.7287097444772
endloop
endfacet
facet normal 0.707106773706971 0.707106788666118 -9.45888086109326e-008
outer loop
vertex -1195.62007401675 142.890207637562 33.228709556823
vertex -1195.12277039299 142.242109038432 33.7287094902993
vertex -1195.12277045988 142.242109038432 33.2287094902993
endloop
endfacet
facet normal 0.866025398495586 0.500000009160549 -1.15847157838016e-007
outer loop
vertex -1195.12277039299 142.242109038432 33.7287094902993
vertex -1195.62007401675 142.890207637562 33.228709556823
vertex -1195.62007394987 142.890207637562 33.728709556823
endloop
endfacet
facet normal -0.86602539849559 -0.500000009160541 1.15847157836267e-007
outer loop
vertex -1200.54287154966 139.112812100153 33.7287102153396
vertex -1200.85548970508 139.867538906751 33.2287102571581
vertex -1200.54287161655 139.112812100153 33.2287102153396
endloop
endfacet
facet normal -0.965925823551358 -0.258819055319762 1.29210714715545e-007
outer loop
vertex -1200.85548970508 139.867538906751 33.2287102571581
vertex -1200.54287154966 139.112812100153 33.7287102153396
vertex -1200.85548963819 139.867538906751 33.7287102571581
endloop
endfacet
facet normal 0.965925823551358 0.258819055319762 -1.29210714717295e-007
outer loop
vertex -1194.81015237135 141.487382231834 33.2287094484808
vertex -1194.70352409038 140.677460602393 33.7287094342172
vertex -1194.70352415726 140.677460602393 33.2287094342172
endloop
endfacet
facet normal 0.999999999999991 1.05776691971306e-008 -1.33768774917807e-007
outer loop
vertex -1194.70352409038 140.677460602393 33.7287094342172
vertex -1194.81015237135 141.487382231834 33.2287094484808
vertex -1194.81015230446 141.487382231834 33.7287094484807
endloop
endfacet
facet normal 0.866025398495602 0.50000000916052 -1.15847157838018e-007
outer loop
vertex -1195.12277045988 142.242109038432 33.2287094902993
vertex -1194.81015230446 141.487382231834 33.7287094484807
vertex -1194.81015237135 141.487382231834 33.2287094484808
endloop
endfacet
facet normal 0.965925823551354 0.258819055319777 -1.29210714717294e-007
outer loop
vertex -1194.81015230446 141.487382231834 33.7287094484807
vertex -1195.12277045988 142.242109038432 33.2287094902993
vertex -1195.12277039299 142.242109038432 33.7287094902993
endloop
endfacet
facet normal 0.258819055319755 -0.965925823551368 -3.46219055562143e-008
outer loop
vertex -1197.02289930879 137.654791902427 33.7287097444772
vertex -1197.83282100511 137.548163688345 33.2287098528194
vertex -1197.02289937567 137.654791902427 33.2287097444772
endloop
endfacet
facet normal 1.05777041821479e-008 -1.0 1.063940667706e-015
outer loop
vertex -1197.83282100511 137.548163688345 33.2287098528194
vertex -1197.02289930879 137.654791902427 33.7287097444772
vertex -1197.83282093823 137.548163688345 33.7287098528194
endloop
endfacet
facet normal 0.866025409073267 -0.499999990839467 -1.15847156774072e-007
outer loop
vertex -1195.12277042678 139.112812157485 33.2287094902993
vertex -1194.81015228733 139.867538970696 33.7287094484807
vertex -1195.12277035989 139.112812157485 33.7287094902993
endloop
endfacet
facet normal 0.965925829026762 -0.258819034885278 -1.29210714168027e-007
outer loop
vertex -1194.81015228733 139.867538970696 33.7287094484807
vertex -1195.12277042678 139.112812157485 33.2287094902993
vertex -1194.81015235421 139.867538970696 33.2287094484808
endloop
endfacet
facet normal -0.499999990839496 -0.866025409073256 6.68843883901707e-008
outer loop
vertex -1199.39746938314 137.967409957858 33.7287100621205
vertex -1200.04556805967 138.464713501023 33.2287101488159
vertex -1199.39746945002 137.967409957858 33.2287100621206
endloop
endfacet
facet normal -0.707106773707 -0.707106788666089 9.45888086109364e-008
outer loop
vertex -1200.04556805967 138.464713501023 33.2287101488159
vertex -1199.39746938314 137.967409957858 33.7287100621205
vertex -1200.04556799279 138.464713501023 33.7287101488159
endloop
endfacet
facet normal 0.499999990839468 0.866025409073272 -6.68843883901668e-008
outer loop
vertex -1196.2681726264 143.387511180727 33.2287096435183
vertex -1195.62007394987 142.890207637562 33.728709556823
vertex -1195.62007401675 142.890207637562 33.228709556823
endloop
endfacet
facet normal 0.707106773707031 0.707106788666058 -9.45888086109406e-008
outer loop
vertex -1195.62007394987 142.890207637562 33.728709556823
vertex -1196.2681726264 143.387511180727 33.2287096435183
vertex -1196.26817255952 143.387511180727 33.7287096435183
endloop
endfacet
facet normal 0.96592582902676 -0.258819034885283 -1.29210714168026e-007
outer loop
vertex -1194.81015235421 139.867538970696 33.2287094484808
vertex -1194.70352409038 140.677460602393 33.7287094342172
vertex -1194.81015228733 139.867538970696 33.7287094484807
endloop
endfacet
facet normal 0.999999999999991 1.05776691971306e-008 -1.33768774917807e-007
outer loop
vertex -1194.70352409038 140.677460602393 33.7287094342172
vertex -1194.81015235421 139.867538970696 33.2287094484808
vertex -1194.70352415726 140.677460602393 33.2287094342172
endloop
endfacet
facet normal 0.707106788666085 -0.707106773707004 -9.45888071056165e-008
outer loop
vertex -1195.62007390306 138.464713547834 33.728709556823
vertex -1196.26817256907 137.967409990959 33.2287096435183
vertex -1195.62007396994 138.464713547834 33.228709556823
endloop
endfacet
facet normal 0.500000009160501 -0.866025398495618 -6.68843865407594e-008
outer loop
vertex -1196.26817256907 137.967409990959 33.2287096435183
vertex -1195.62007390306 138.464713547834 33.728709556823
vertex -1196.26817250219 137.967409990959 33.7287096435183
endloop
endfacet
facet normal -0.86602539849559 -0.500000009160541 1.15847157836267e-007
outer loop
vertex -1200.54287154966 139.112812100153 33.7287102153396
vertex -1200.04556805967 138.464713501023 33.2287101488159
vertex -1200.04556799279 138.464713501023 33.7287101488159
endloop
endfacet
facet normal -0.707106773707 -0.707106788666089 9.45888086109364e-008
outer loop
vertex -1200.04556805967 138.464713501023 33.2287101488159
vertex -1200.54287154966 139.112812100153 33.7287102153396
vertex -1200.54287161655 139.112812100153 33.2287102153396
endloop
endfacet
facet normal 1.05776370993124e-008 -1.0 1.06394964296951e-015
outer loop
vertex -1197.83282093823 137.548163688345 33.7287098528194
vertex -1198.64274263681 137.654791885293 33.2287099611617
vertex -1197.83282100511 137.548163688345 33.2287098528194
endloop
endfacet
facet normal -0.258819034885244 -0.965925829026779 3.46219076186731e-008
outer loop
vertex -1198.64274263681 137.654791885293 33.2287099611617
vertex -1197.83282093823 137.548163688345 33.7287098528194
vertex -1198.64274256992 137.654791885293 33.7287099611617
endloop
endfacet
facet normal -0.999999999999991 -1.05776699367525e-008 1.33768774917807e-007
outer loop
vertex -1200.96211785228 140.677460536192 33.7287102714217
vertex -1200.85548970508 139.867538906751 33.2287102571581
vertex -1200.85548963819 139.867538906751 33.7287102571581
endloop
endfacet
facet normal -0.965925823551358 -0.258819055319762 1.29210714715545e-007
outer loop
vertex -1200.85548970508 139.867538906751 33.2287102571581
vertex -1200.96211785228 140.677460536192 33.7287102714217
vertex -1200.96211791916 140.677460536192 33.2287102714217
endloop
endfacet
facet normal 0.500000009160541 -0.866025398495595 -6.68843865407648e-008
outer loop
vertex -1196.26817250219 137.967409990959 33.7287096435183
vertex -1197.02289937567 137.654791902427 33.2287097444772
vertex -1196.26817256907 137.967409990959 33.2287096435183
endloop
endfacet
facet normal 0.258819055319761 -0.965925823551366 -3.46219055562151e-008
outer loop
vertex -1197.02289937567 137.654791902427 33.2287097444772
vertex -1196.26817250219 137.967409990959 33.7287096435183
vertex -1197.02289930879 137.654791902427 33.7287097444772
endloop
endfacet
facet normal -0.866025409073275 0.499999990839453 1.15847156774073e-007
outer loop
vertex -1200.54287158276 142.2421089811 33.7287102153396
vertex -1200.85548972221 141.487382167889 33.2287102571581
vertex -1200.85548965533 141.487382167889 33.7287102571581
endloop
endfacet
facet normal -0.965925829026757 0.258819034885296 1.29210714168026e-007
outer loop
vertex -1200.85548972221 141.487382167889 33.2287102571581
vertex -1200.54287158276 142.2421089811 33.7287102153396
vertex -1200.54287164965 142.2421089811 33.2287102153396
endloop
endfacet
facet normal -0.500000009160496 0.866025398495621 6.68843865407588e-008
outer loop
vertex -1199.39746950735 143.387511147626 33.2287100621205
vertex -1198.64274263387 143.700129236158 33.7287099611617
vertex -1198.64274270075 143.700129236158 33.2287099611617
endloop
endfacet
facet normal -0.258819055319789 0.965925823551359 3.46219055562189e-008
outer loop
vertex -1198.64274263387 143.700129236158 33.7287099611617
vertex -1199.39746950735 143.387511147626 33.2287100621205
vertex -1199.39746944047 143.387511147626 33.7287100621205
endloop
endfacet
facet normal -1.05776640910642e-008 1.0 -1.06394610980268e-015
outer loop
vertex -1197.83282107131 143.80675745024 33.2287098528194
vertex -1197.02289937273 143.700129253293 33.7287097444772
vertex -1197.02289943962 143.700129253293 33.2287097444772
endloop
endfacet
facet normal 0.258819034885298 0.965925829026764 -3.46219076186803e-008
outer loop
vertex -1197.02289937273 143.700129253293 33.7287097444772
vertex -1197.83282107131 143.80675745024 33.2287098528194
vertex -1197.83282100443 143.80675745024 33.7287098528194
endloop
endfacet
endsolid Resurected_LiteArm_i2_REV4_10
