solid LiteArm_i2_REV4_10
facet normal 0.795473471824982 -0.605988412119167 6.71002522129853e-014
outer loop
vertex -913.512233867517 348.268410232446 -7.7909735701112
vertex -914.38827880435 347.386227926008 4.94494225294719
vertex -914.388278804349 347.386227926008 -7.79097357011123
endloop
endfacet
facet normal 0.611527028395708 -0.791223542079933 5.78528437745225e-014
outer loop
vertex -914.38827880435 347.386227926008 4.94494225294719
vertex -913.512233867517 348.268410232446 -7.7909735701112
vertex -913.512233867518 348.268410232446 4.94494225294723
endloop
endfacet
facet normal 0.13398617065153 -0.990983201711381 2.8429175428275e-014
outer loop
vertex -916.662567139355 346.434872547013 -7.79097357011138
vertex -917.90582154594 346.430532771346 4.94494225294696
vertex -917.905821545939 346.430532771346 -7.79097357011144
endloop
endfacet
facet normal -0.127064623381694 -0.991894440696624 1.02580898933757e-014
outer loop
vertex -917.90582154594 346.430532771346 4.94494225294696
vertex -916.662567139355 346.434872547013 -7.79097357011138
vertex -916.662567139357 346.434872547014 4.94494225294704
endloop
endfacet
facet normal 0.127064623381693 0.991894440696624 -1.02580898933758e-014
outer loop
vertex -916.695531008229 355.878327318982 4.94494225294686
vertex -915.493516251668 355.560741302047 -7.79097357011146
vertex -916.695531008228 355.878327318982 -7.79097357011156
endloop
endfacet
facet normal 0.379456173315671 0.925209712731458 8.61206751546192e-015
outer loop
vertex -915.493516251668 355.560741302047 -7.79097357011146
vertex -916.695531008229 355.878327318982 4.94494225294686
vertex -915.493516251669 355.560741302047 4.94494225294695
endloop
endfacet
facet normal -0.795473471824982 0.605988412119167 -6.71002522129853e-014
outer loop
vertex -921.089118686651 354.040449857881 4.94494225294659
vertex -920.213073749818 354.92263216432 -7.79097357011177
vertex -921.08911868665 354.040449857881 -7.79097357011185
endloop
endfacet
facet normal -0.611527028395708 0.791223542079933 -5.78528437745225e-014
outer loop
vertex -920.213073749818 354.92263216432 -7.79097357011177
vertex -921.089118686651 354.040449857881 4.94494225294659
vertex -920.213073749819 354.92263216432 4.94494225294663
endloop
endfacet
facet normal -0.922538095206681 -0.385906028577462 -5.68421623196099e-014
outer loop
vertex -921.694263955506 349.316552584064 4.94494225294664
vertex -922.020233775234 350.516320907436 -7.79097357011183
vertex -921.694263955505 349.316552584064 -7.79097357011176
endloop
endfacet
facet normal -0.990983201711381 -0.133986170651524 -6.64649112899847e-014
outer loop
vertex -922.020233775234 350.516320907436 -7.79097357011183
vertex -921.694263955506 349.316552584064 4.94494225294664
vertex -922.020233775235 350.516320907436 4.94494225294659
endloop
endfacet
facet normal -0.385906028577464 0.92253809520668 -4.46628596391709e-014
outer loop
vertex -919.138553738185 355.548017723586 4.9449422529467
vertex -917.938785414811 355.873987543314 -7.79097357011162
vertex -919.138553738184 355.548017723586 -7.79097357011173
endloop
endfacet
facet normal -0.133986170651527 0.990983201711381 -2.84291754282748e-014
outer loop
vertex -917.938785414811 355.873987543314 -7.79097357011162
vertex -919.138553738185 355.548017723586 4.9449422529467
vertex -917.938785414812 355.873987543314 4.94494225294678
endloop
endfacet
facet normal 0.385906028577463 -0.922538095206681 4.46628596391708e-014
outer loop
vertex -915.462798815983 346.760842366742 -7.79097357011128
vertex -916.662567139357 346.434872547014 4.94494225294704
vertex -916.662567139355 346.434872547013 -7.79097357011138
endloop
endfacet
facet normal 0.133986170651527 -0.990983201711381 2.84291754282748e-014
outer loop
vertex -916.662567139357 346.434872547014 4.94494225294704
vertex -915.462798815983 346.760842366742 -7.79097357011128
vertex -915.462798815984 346.760842366742 4.94494225294712
endloop
endfacet
facet normal -6.96747269420269e-014 1.92674563414878e-014 1.0
outer loop
vertex -920.186696089802 347.365987635597 4.94494225294678
vertex -919.480839320849 350.859660469731 4.94494225294677
vertex -919.482844046617 351.433972216604 4.94494225294675
endloop
endfacet
facet normal -6.96747269420269e-014 1.92674563414878e-014 1.0
outer loop
vertex -919.480839320849 350.859660469731 4.94494225294677
vertex -920.186696089802 347.365987635597 4.94494225294678
vertex -919.1078363025 346.74811878828 4.94494225294687
endloop
endfacet
facet normal -6.96747269420269e-014 1.92674563414878e-014 1.0
outer loop
vertex -919.480839320849 350.859660469731 4.94494225294677
vertex -919.1078363025 346.74811878828 4.94494225294687
vertex -919.330260086539 350.305436782294 4.94494225294679
endloop
endfacet
facet normal -6.96747269420269e-014 1.92674563414878e-014 1.0
outer loop
vertex -919.330260086539 350.305436782294 4.94494225294679
vertex -919.1078363025 346.74811878828 4.94494225294687
vertex -919.04136806966 349.809070582693 4.94494225294682
endloop
endfacet
facet normal -6.96747269420269e-014 1.92674563414878e-014 1.0
outer loop
vertex -919.04136806966 349.809070582693 4.94494225294682
vertex -919.1078363025 346.74811878828 4.94494225294687
vertex -917.90582154594 346.430532771346 4.94494225294696
endloop
endfacet
facet normal -6.96747269420269e-014 1.92674563414878e-014 1.0
outer loop
vertex -919.04136806966 349.809070582693 4.94494225294682
vertex -917.90582154594 346.430532771346 4.94494225294696
vertex -918.633850783747 349.404388407149 4.94494225294685
endloop
endfacet
facet normal -6.96747269420269e-014 1.92674563414878e-014 1.0
outer loop
vertex -918.633850783747 349.404388407149 4.94494225294685
vertex -917.90582154594 346.430532771346 4.94494225294696
vertex -918.135479858379 349.118968677155 4.9449422529469
endloop
endfacet
facet normal -6.96747269420269e-014 1.92674563414878e-014 1.0
outer loop
vertex -918.135479858379 349.118968677155 4.9449422529469
vertex -917.90582154594 346.430532771346 4.94494225294696
vertex -917.580218448524 348.972262275631 4.94494225294693
endloop
endfacet
facet normal -6.96747269420269e-014 1.92674563414878e-014 1.0
outer loop
vertex -917.580218448524 348.972262275631 4.94494225294693
vertex -917.90582154594 346.430532771346 4.94494225294696
vertex -916.662567139357 346.434872547014 4.94494225294704
endloop
endfacet
facet normal -6.96747269420269e-014 1.92674563414878e-014 1.0
outer loop
vertex -917.580218448524 348.972262275631 4.94494225294693
vertex -916.662567139357 346.434872547014 4.94494225294704
vertex -917.005906701651 348.974267001399 4.94494225294698
endloop
endfacet
facet normal -6.96747269420269e-014 1.92674563414878e-014 1.0
outer loop
vertex -917.005906701651 348.974267001399 4.94494225294698
vertex -916.662567139357 346.434872547014 4.94494225294704
vertex -916.451683014214 349.124846235709 4.94494225294702
endloop
endfacet
facet normal -6.96747269420269e-014 1.92674563414878e-014 1.0
outer loop
vertex -916.451683014214 349.124846235709 4.94494225294702
vertex -916.662567139357 346.434872547014 4.94494225294704
vertex -915.462798815984 346.760842366742 4.94494225294712
endloop
endfacet
facet normal -6.96747269420269e-014 1.92674563414878e-014 1.0
outer loop
vertex -916.451683014214 349.124846235709 4.94494225294702
vertex -915.462798815984 346.760842366742 4.94494225294712
vertex -915.955316814614 349.413738252588 4.94494225294704
endloop
endfacet
facet normal -6.96747269420269e-014 1.92674563414878e-014 1.0
outer loop
vertex -915.955316814614 349.413738252588 4.94494225294704
vertex -915.462798815984 346.760842366742 4.94494225294712
vertex -915.550634639069 349.821255538502 4.94494225294706
endloop
endfacet
facet normal -6.96747269420269e-014 1.92674563414878e-014 1.0
outer loop
vertex -915.550634639069 349.821255538502 4.94494225294706
vertex -915.462798815984 346.760842366742 4.94494225294712
vertex -915.265214909075 350.319626463869 4.94494225294707
endloop
endfacet
facet normal -6.96747269420269e-014 1.92674563414878e-014 1.0
outer loop
vertex -915.265214909075 350.319626463869 4.94494225294707
vertex -915.462798815984 346.760842366742 4.94494225294712
vertex -914.38827880435 347.386227926008 4.94494225294719
endloop
endfacet
facet normal -6.96747269420269e-014 1.92674563414878e-014 1.0
outer loop
vertex -915.265214909075 350.319626463869 4.94494225294707
vertex -914.38827880435 347.386227926008 4.94494225294719
vertex -915.118508507552 350.874887873724 4.94494225294707
endloop
endfacet
facet normal -6.96747269420269e-014 1.92674563414878e-014 1.0
outer loop
vertex -915.118508507552 350.874887873724 4.94494225294707
vertex -914.38827880435 347.386227926008 4.94494225294719
vertex -914.414656464367 354.94287245473 4.94494225294704
endloop
endfacet
facet normal -6.96747269420269e-014 1.92674563414878e-014 1.0
outer loop
vertex -914.414656464367 354.94287245473 4.94494225294704
vertex -914.38827880435 347.386227926008 4.94494225294719
vertex -913.532474157929 354.066827517898 4.94494225294712
endloop
endfacet
facet normal -6.96747269420269e-014 1.92674563414878e-014 1.0
outer loop
vertex -913.532474157929 354.066827517898 4.94494225294712
vertex -914.38827880435 347.386227926008 4.94494225294719
vertex -913.512233867518 348.268410232446 4.94494225294723
endloop
endfacet
facet normal -6.96747269420269e-014 1.92674563414878e-014 1.0
outer loop
vertex -913.532474157929 354.066827517898 4.94494225294712
vertex -913.512233867518 348.268410232446 4.94494225294723
vertex -912.907088598663 352.992307506264 4.94494225294718
endloop
endfacet
facet normal -6.96747269420269e-014 1.92674563414878e-014 1.0
outer loop
vertex -912.907088598663 352.992307506264 4.94494225294718
vertex -913.512233867518 348.268410232446 4.94494225294723
vertex -912.894365020201 349.347270019748 4.94494225294725
endloop
endfacet
facet normal -6.96747269420269e-014 1.92674563414878e-014 1.0
outer loop
vertex -912.907088598663 352.992307506264 4.94494225294718
vertex -912.894365020201 349.347270019748 4.94494225294725
vertex -912.581118778934 351.792539182892 4.94494225294723
endloop
endfacet
facet normal -6.96747269420269e-014 1.92674563414878e-014 1.0
outer loop
vertex -912.581118778934 351.792539182892 4.94494225294723
vertex -912.894365020201 349.347270019748 4.94494225294725
vertex -912.576779003267 350.549284776309 4.94494225294725
endloop
endfacet
facet normal -6.96747269420269e-014 1.92674563414878e-014 1.0
outer loop
vertex -922.020233775235 350.516320907436 4.94494225294659
vertex -921.706987533968 352.96159007058 4.94494225294657
vertex -922.024573550902 351.759575314019 4.94494225294657
endloop
endfacet
facet normal -6.96747269420269e-014 1.92674563414878e-014 1.0
outer loop
vertex -921.706987533968 352.96159007058 4.94494225294657
vertex -922.020233775235 350.516320907436 4.94494225294659
vertex -921.694263955506 349.316552584064 4.94494225294664
endloop
endfacet
facet normal -6.96747269420269e-014 1.92674563414878e-014 1.0
outer loop
vertex -921.706987533968 352.96159007058 4.94494225294657
vertex -921.694263955506 349.316552584064 4.94494225294664
vertex -921.089118686651 354.040449857881 4.94494225294659
endloop
endfacet
facet normal -6.96747269420269e-014 1.92674563414878e-014 1.0
outer loop
vertex -921.089118686651 354.040449857881 4.94494225294659
vertex -921.694263955506 349.316552584064 4.94494225294664
vertex -921.06887839624 348.242032572429 4.94494225294671
endloop
endfacet
facet normal -6.96747269420269e-014 1.92674563414878e-014 1.0
outer loop
vertex -921.089118686651 354.040449857881 4.94494225294659
vertex -921.06887839624 348.242032572429 4.94494225294671
vertex -920.213073749819 354.92263216432 4.94494225294663
endloop
endfacet
facet normal -6.96747269420269e-014 1.92674563414878e-014 1.0
outer loop
vertex -920.213073749819 354.92263216432 4.94494225294663
vertex -921.06887839624 348.242032572429 4.94494225294671
vertex -920.186696089802 347.365987635597 4.94494225294678
endloop
endfacet
facet normal -6.96747269420269e-014 1.92674563414878e-014 1.0
outer loop
vertex -920.213073749819 354.92263216432 4.94494225294663
vertex -920.186696089802 347.365987635597 4.94494225294678
vertex -919.138553738185 355.548017723586 4.9449422529467
endloop
endfacet
facet normal -6.96747269420269e-014 1.92674563414878e-014 1.0
outer loop
vertex -919.138553738185 355.548017723586 4.9449422529467
vertex -920.186696089802 347.365987635597 4.94494225294678
vertex -919.482844046617 351.433972216604 4.94494225294675
endloop
endfacet
facet normal -6.96747269420269e-014 1.92674563414878e-014 1.0
outer loop
vertex -919.138553738185 355.548017723586 4.9449422529467
vertex -919.482844046617 351.433972216604 4.94494225294675
vertex -919.336137645094 351.989233626458 4.94494225294675
endloop
endfacet
facet normal -6.96747269420269e-014 1.92674563414878e-014 1.0
outer loop
vertex -919.138553738185 355.548017723586 4.9449422529467
vertex -919.336137645094 351.989233626458 4.94494225294675
vertex -919.050717915099 352.487604551826 4.94494225294676
endloop
endfacet
facet normal -6.96747269420269e-014 1.92674563414878e-014 1.0
outer loop
vertex -919.138553738185 355.548017723586 4.9449422529467
vertex -919.050717915099 352.487604551826 4.94494225294676
vertex -917.938785414812 355.873987543314 4.94494225294678
endloop
endfacet
facet normal -6.96747269420269e-014 1.92674563414878e-014 1.0
outer loop
vertex -917.938785414812 355.873987543314 4.94494225294678
vertex -919.050717915099 352.487604551826 4.94494225294676
vertex -918.646035739555 352.89512183774 4.94494225294679
endloop
endfacet
facet normal -6.96747269420269e-014 1.92674563414878e-014 1.0
outer loop
vertex -917.938785414812 355.873987543314 4.94494225294678
vertex -918.646035739555 352.89512183774 4.94494225294679
vertex -918.149669539955 353.184013854619 4.94494225294681
endloop
endfacet
facet normal -6.96747269420269e-014 1.92674563414878e-014 1.0
outer loop
vertex -917.938785414812 355.873987543314 4.94494225294678
vertex -918.149669539955 353.184013854619 4.94494225294681
vertex -917.595445852518 353.334593088929 4.94494225294684
endloop
endfacet
facet normal -6.96747269420269e-014 1.92674563414878e-014 1.0
outer loop
vertex -917.938785414812 355.873987543314 4.94494225294678
vertex -917.595445852518 353.334593088929 4.94494225294684
vertex -916.695531008229 355.878327318982 4.94494225294686
endloop
endfacet
facet normal -6.96747269420269e-014 1.92674563414878e-014 1.0
outer loop
vertex -916.695531008229 355.878327318982 4.94494225294686
vertex -917.595445852518 353.334593088929 4.94494225294684
vertex -917.021134105645 353.336597814697 4.94494225294689
endloop
endfacet
facet normal -6.96747269420269e-014 1.92674563414878e-014 1.0
outer loop
vertex -916.695531008229 355.878327318982 4.94494225294686
vertex -917.021134105645 353.336597814697 4.94494225294689
vertex -916.46587269579 353.189891413173 4.94494225294692
endloop
endfacet
facet normal -6.96747269420269e-014 1.92674563414878e-014 1.0
outer loop
vertex -916.695531008229 355.878327318982 4.94494225294686
vertex -916.46587269579 353.189891413173 4.94494225294692
vertex -915.493516251669 355.560741302047 4.94494225294695
endloop
endfacet
facet normal -6.96747269420269e-014 1.92674563414878e-014 1.0
outer loop
vertex -915.493516251669 355.560741302047 4.94494225294695
vertex -916.46587269579 353.189891413173 4.94494225294692
vertex -915.967501770422 352.904471683179 4.94494225294697
endloop
endfacet
facet normal -6.96747269420269e-014 1.92674563414878e-014 1.0
outer loop
vertex -915.493516251669 355.560741302047 4.94494225294695
vertex -915.967501770422 352.904471683179 4.94494225294697
vertex -915.559984484509 352.499789507634 4.944942252947
endloop
endfacet
facet normal -6.96747269420269e-014 1.92674563414878e-014 1.0
outer loop
vertex -915.493516251669 355.560741302047 4.94494225294695
vertex -915.559984484509 352.499789507634 4.944942252947
vertex -915.27109246763 352.003423308034 4.94494225294704
endloop
endfacet
facet normal -6.96747269420269e-014 1.92674563414878e-014 1.0
outer loop
vertex -915.493516251669 355.560741302047 4.94494225294695
vertex -915.27109246763 352.003423308034 4.94494225294704
vertex -914.414656464367 354.94287245473 4.94494225294704
endloop
endfacet
facet normal -6.96747269420269e-014 1.92674563414878e-014 1.0
outer loop
vertex -914.414656464367 354.94287245473 4.94494225294704
vertex -915.27109246763 352.003423308034 4.94494225294704
vertex -915.120513233319 351.449199620597 4.94494225294705
endloop
endfacet
facet normal -6.96747269420269e-014 1.92674563414878e-014 1.0
outer loop
vertex -914.414656464367 354.94287245473 4.94494225294704
vertex -915.120513233319 351.449199620597 4.94494225294705
vertex -915.118508507552 350.874887873724 4.94494225294707
endloop
endfacet
facet normal -0.605988412119161 -0.795473471824987 -2.68953267552353e-014
outer loop
vertex -920.186696089801 347.365987635597 -7.79097357011163
vertex -921.06887839624 348.242032572429 4.94494225294671
vertex -921.068878396239 348.242032572429 -7.79097357011171
endloop
endfacet
facet normal -0.791223542079932 -0.611527028395709 -4.33457139232685e-014
outer loop
vertex -921.06887839624 348.242032572429 4.94494225294671
vertex -920.186696089801 347.365987635597 -7.79097357011163
vertex -920.186696089802 347.365987635597 4.94494225294678
endloop
endfacet
facet normal 0.990983201711381 0.133986170651526 6.64649112899846e-014
outer loop
vertex -912.581118778933 351.792539182892 -7.79097357011117
vertex -912.576779003267 350.549284776309 4.94494225294725
vertex -912.576779003266 350.549284776309 -7.79097357011117
endloop
endfacet
facet normal 0.991894440696625 -0.127064623381687 7.15581863944061e-014
outer loop
vertex -912.576779003267 350.549284776309 4.94494225294725
vertex -912.581118778933 351.792539182892 -7.79097357011117
vertex -912.581118778934 351.792539182892 4.94494225294723
endloop
endfacet
facet normal -0.991894440696625 0.127064623381685 -7.15581863944061e-014
outer loop
vertex -922.024573550902 351.759575314019 4.94494225294657
vertex -921.706987533967 352.96159007058 -7.79097357011185
vertex -922.024573550901 351.759575314019 -7.79097357011183
endloop
endfacet
facet normal -0.925209712731457 0.379456173315674 -7.17748893515432e-014
outer loop
vertex -921.706987533967 352.96159007058 -7.79097357011185
vertex -922.024573550902 351.759575314019 4.94494225294657
vertex -921.706987533968 352.96159007058 4.94494225294657
endloop
endfacet
facet normal -0.925209712731459 0.37945617331567 -7.17748893515432e-014
outer loop
vertex -921.706987533968 352.96159007058 4.94494225294657
vertex -921.08911868665 354.040449857881 -7.79097357011185
vertex -921.706987533967 352.96159007058 -7.79097357011185
endloop
endfacet
facet normal -0.795473471824981 0.605988412119169 -6.71002522129853e-014
outer loop
vertex -921.08911868665 354.040449857881 -7.79097357011185
vertex -921.706987533968 352.96159007058 4.94494225294657
vertex -921.089118686651 354.040449857881 4.94494225294659
endloop
endfacet
facet normal 0.37945617331567 0.925209712731459 8.61206751546187e-015
outer loop
vertex -915.493516251669 355.560741302047 4.94494225294695
vertex -914.414656464366 354.94287245473 -7.79097357011137
vertex -915.493516251668 355.560741302047 -7.79097357011146
endloop
endfacet
facet normal 0.605988412119161 0.795473471824986 2.68953267552354e-014
outer loop
vertex -914.414656464366 354.94287245473 -7.79097357011137
vertex -915.493516251669 355.560741302047 4.94494225294695
vertex -914.414656464367 354.94287245473 4.94494225294704
endloop
endfacet
facet normal -0.990983201711381 -0.133986170651526 -6.64649112899846e-014
outer loop
vertex -922.020233775235 350.516320907436 4.94494225294659
vertex -922.024573550901 351.759575314019 -7.79097357011183
vertex -922.020233775234 350.516320907436 -7.79097357011183
endloop
endfacet
facet normal -0.991894440696625 0.127064623381687 -7.15581863944061e-014
outer loop
vertex -922.024573550901 351.759575314019 -7.79097357011183
vertex -922.020233775235 350.516320907436 4.94494225294659
vertex -922.024573550902 351.759575314019 4.94494225294657
endloop
endfacet
facet normal -0.37945617331567 -0.925209712731458 -8.61206751546189e-015
outer loop
vertex -919.107836302499 346.74811878828 -7.79097357011154
vertex -920.186696089802 347.365987635597 4.94494225294678
vertex -920.186696089801 347.365987635597 -7.79097357011163
endloop
endfacet
facet normal -0.605988412119162 -0.795473471824986 -2.68953267552354e-014
outer loop
vertex -920.186696089802 347.365987635597 4.94494225294678
vertex -919.107836302499 346.74811878828 -7.79097357011154
vertex -919.1078363025 346.74811878828 4.94494225294687
endloop
endfacet
facet normal -0.61152702839571 0.791223542079931 -5.78528437745227e-014
outer loop
vertex -920.213073749819 354.92263216432 4.94494225294663
vertex -919.138553738184 355.548017723586 -7.79097357011173
vertex -920.213073749818 354.92263216432 -7.79097357011177
endloop
endfacet
facet normal -0.385906028577461 0.922538095206681 -4.46628596391707e-014
outer loop
vertex -919.138553738184 355.548017723586 -7.79097357011173
vertex -920.213073749819 354.92263216432 4.94494225294663
vertex -919.138553738185 355.548017723586 4.9449422529467
endloop
endfacet
facet normal 0.611527028395711 -0.79122354207993 5.78528437745227e-014
outer loop
vertex -914.388278804349 347.386227926008 -7.79097357011123
vertex -915.462798815984 346.760842366742 4.94494225294712
vertex -915.462798815983 346.760842366742 -7.79097357011128
endloop
endfacet
facet normal 0.385906028577462 -0.922538095206681 4.46628596391708e-014
outer loop
vertex -915.462798815984 346.760842366742 4.94494225294712
vertex -914.388278804349 347.386227926008 -7.79097357011123
vertex -914.38827880435 347.386227926008 4.94494225294719
endloop
endfacet
facet normal 0.922538095206681 0.385906028577463 5.68421623196099e-014
outer loop
vertex -912.907088598662 352.992307506264 -7.79097357011124
vertex -912.581118778934 351.792539182892 4.94494225294723
vertex -912.581118778933 351.792539182892 -7.79097357011117
endloop
endfacet
facet normal 0.990983201711382 0.133986170651524 6.64649112899847e-014
outer loop
vertex -912.581118778934 351.792539182892 4.94494225294723
vertex -912.907088598662 352.992307506264 -7.79097357011124
vertex -912.907088598663 352.992307506264 4.94494225294718
endloop
endfacet
facet normal -0.385906028577451 0.922538095206686 -4.61230305707242e-014
outer loop
vertex -916.451683014214 349.124846235709 4.94494225294702
vertex -915.955316814613 349.413738252588 -7.79097357011137
vertex -916.451683014213 349.124846235709 -7.79097357011141
endloop
endfacet
facet normal -0.611527028395719 0.791223542079925 -5.89917615609342e-014
outer loop
vertex -915.955316814613 349.413738252588 -7.79097357011137
vertex -916.451683014214 349.124846235709 4.94494225294702
vertex -915.955316814614 349.413738252588 4.94494225294704
endloop
endfacet
facet normal -0.991894440696622 0.12706462338171 -7.13798184094647e-014
outer loop
vertex -915.118508507552 350.874887873724 4.94494225294707
vertex -915.120513233318 351.449199620597 -7.79097357011139
vertex -915.118508507551 350.874887873724 -7.79097357011134
endloop
endfacet
facet normal -0.990983201711385 -0.133986170651499 -6.58295831725594e-014
outer loop
vertex -915.120513233318 351.449199620597 -7.79097357011139
vertex -915.118508507552 350.874887873724 4.94494225294707
vertex -915.120513233319 351.449199620597 4.94494225294705
endloop
endfacet
facet normal 0.127064623381665 0.991894440696627 -1.20471308582899e-014
outer loop
vertex -917.580218448524 348.972262275631 4.94494225294693
vertex -917.00590670165 348.974267001399 -7.79097357011146
vertex -917.580218448523 348.972262275631 -7.7909735701115
endloop
endfacet
facet normal -0.13398617065153 0.990983201711381 -3.01110912690333e-014
outer loop
vertex -917.00590670165 348.974267001399 -7.79097357011146
vertex -917.580218448524 348.972262275631 4.94494225294693
vertex -917.005906701651 348.974267001399 4.94494225294698
endloop
endfacet
facet normal 0.990983201711385 0.133986170651497 6.58295831725595e-014
outer loop
vertex -919.480839320848 350.859660469731 -7.79097357011166
vertex -919.330260086539 350.305436782294 4.94494225294679
vertex -919.330260086538 350.305436782293 -7.79097357011165
endloop
endfacet
facet normal 0.922538095206687 0.385906028577447 5.57931706309733e-014
outer loop
vertex -919.330260086539 350.305436782294 4.94494225294679
vertex -919.480839320848 350.859660469731 -7.79097357011166
vertex -919.480839320849 350.859660469731 4.94494225294677
endloop
endfacet
facet normal -0.791223542079932 -0.611527028395709 -4.33457139232685e-014
outer loop
vertex -921.06887839624 348.242032572429 4.94494225294671
vertex -921.694263955505 349.316552584064 -7.79097357011176
vertex -921.068878396239 348.242032572429 -7.79097357011171
endloop
endfacet
facet normal -0.922538095206682 -0.38590602857746 -5.684216231961e-014
outer loop
vertex -921.694263955505 349.316552584064 -7.79097357011176
vertex -921.06887839624 348.242032572429 4.94494225294671
vertex -921.694263955506 349.316552584064 4.94494225294664
endloop
endfacet
facet normal -0.127064623381664 -0.991894440696628 1.204713085829e-014
outer loop
vertex -917.021134105644 353.336597814696 -7.79097357011155
vertex -917.595445852518 353.334593088929 4.94494225294684
vertex -917.595445852517 353.334593088929 -7.79097357011159
endloop
endfacet
facet normal 0.133986170651531 -0.990983201711381 3.01110912690334e-014
outer loop
vertex -917.595445852518 353.334593088929 4.94494225294684
vertex -917.021134105644 353.336597814696 -7.79097357011155
vertex -917.021134105645 353.336597814697 4.94494225294689
endloop
endfacet
facet normal -0.127064623381691 -0.991894440696624 1.02580898933759e-014
outer loop
vertex -917.905821545939 346.430532771346 -7.79097357011144
vertex -919.1078363025 346.74811878828 4.94494225294687
vertex -919.107836302499 346.74811878828 -7.79097357011154
endloop
endfacet
facet normal -0.379456173315671 -0.925209712731458 -8.61206751546196e-015
outer loop
vertex -919.1078363025 346.74811878828 4.94494225294687
vertex -917.905821545939 346.430532771346 -7.79097357011144
vertex -917.90582154594 346.430532771346 4.94494225294696
endloop
endfacet
facet normal 6.96747269420269e-014 -1.92674563414878e-014 -1.0
outer loop
vertex -921.706987533967 352.96159007058 -7.79097357011185
vertex -922.020233775234 350.516320907436 -7.79097357011183
vertex -922.024573550901 351.759575314019 -7.79097357011183
endloop
endfacet
facet normal 6.96747269420269e-014 -1.92674563414878e-014 -1.0
outer loop
vertex -922.020233775234 350.516320907436 -7.79097357011183
vertex -921.706987533967 352.96159007058 -7.79097357011185
vertex -921.694263955505 349.316552584064 -7.79097357011176
endloop
endfacet
facet normal 6.96747269420269e-014 -1.92674563414878e-014 -1.0
outer loop
vertex -921.694263955505 349.316552584064 -7.79097357011176
vertex -921.706987533967 352.96159007058 -7.79097357011185
vertex -921.08911868665 354.040449857881 -7.79097357011185
endloop
endfacet
facet normal 6.96747269420269e-014 -1.92674563414878e-014 -1.0
outer loop
vertex -921.694263955505 349.316552584064 -7.79097357011176
vertex -921.08911868665 354.040449857881 -7.79097357011185
vertex -921.068878396239 348.242032572429 -7.79097357011171
endloop
endfacet
facet normal 6.96747269420269e-014 -1.92674563414878e-014 -1.0
outer loop
vertex -921.068878396239 348.242032572429 -7.79097357011171
vertex -921.08911868665 354.040449857881 -7.79097357011185
vertex -920.213073749818 354.92263216432 -7.79097357011177
endloop
endfacet
facet normal 6.96747269420269e-014 -1.92674563414878e-014 -1.0
outer loop
vertex -921.068878396239 348.242032572429 -7.79097357011171
vertex -920.213073749818 354.92263216432 -7.79097357011177
vertex -920.186696089801 347.365987635597 -7.79097357011163
endloop
endfacet
facet normal 6.96747269420269e-014 -1.92674563414878e-014 -1.0
outer loop
vertex -920.186696089801 347.365987635597 -7.79097357011163
vertex -920.213073749818 354.92263216432 -7.79097357011177
vertex -919.138553738184 355.548017723586 -7.79097357011173
endloop
endfacet
facet normal 6.96747269420269e-014 -1.92674563414878e-014 -1.0
outer loop
vertex -920.186696089801 347.365987635597 -7.79097357011163
vertex -919.138553738184 355.548017723586 -7.79097357011173
vertex -919.482844046616 351.433972216604 -7.79097357011166
endloop
endfacet
facet normal 6.96747269420269e-014 -1.92674563414878e-014 -1.0
outer loop
vertex -919.482844046616 351.433972216604 -7.79097357011166
vertex -919.138553738184 355.548017723586 -7.79097357011173
vertex -919.336137645093 351.989233626458 -7.79097357011165
endloop
endfacet
facet normal 6.96747269420269e-014 -1.92674563414878e-014 -1.0
outer loop
vertex -919.336137645093 351.989233626458 -7.79097357011165
vertex -919.138553738184 355.548017723586 -7.79097357011173
vertex -919.050717915098 352.487604551826 -7.79097357011167
endloop
endfacet
facet normal 6.96747269420269e-014 -1.92674563414878e-014 -1.0
outer loop
vertex -919.050717915098 352.487604551826 -7.79097357011167
vertex -919.138553738184 355.548017723586 -7.79097357011173
vertex -917.938785414811 355.873987543314 -7.79097357011162
endloop
endfacet
facet normal 6.96747269420269e-014 -1.92674563414878e-014 -1.0
outer loop
vertex -919.050717915098 352.487604551826 -7.79097357011167
vertex -917.938785414811 355.873987543314 -7.79097357011162
vertex -918.646035739554 352.89512183774 -7.79097357011164
endloop
endfacet
facet normal 6.96747269420269e-014 -1.92674563414878e-014 -1.0
outer loop
vertex -918.646035739554 352.89512183774 -7.79097357011164
vertex -917.938785414811 355.873987543314 -7.79097357011162
vertex -918.149669539954 353.184013854619 -7.7909735701116
endloop
endfacet
facet normal 6.96747269420269e-014 -1.92674563414878e-014 -1.0
outer loop
vertex -918.149669539954 353.184013854619 -7.7909735701116
vertex -917.938785414811 355.873987543314 -7.79097357011162
vertex -917.595445852517 353.334593088929 -7.79097357011159
endloop
endfacet
facet normal 6.96747269420269e-014 -1.92674563414878e-014 -1.0
outer loop
vertex -917.595445852517 353.334593088929 -7.79097357011159
vertex -917.938785414811 355.873987543314 -7.79097357011162
vertex -916.695531008228 355.878327318982 -7.79097357011156
endloop
endfacet
facet normal 6.96747269420269e-014 -1.92674563414878e-014 -1.0
outer loop
vertex -917.595445852517 353.334593088929 -7.79097357011159
vertex -916.695531008228 355.878327318982 -7.79097357011156
vertex -917.021134105644 353.336597814696 -7.79097357011155
endloop
endfacet
facet normal 6.96747269420269e-014 -1.92674563414878e-014 -1.0
outer loop
vertex -917.021134105644 353.336597814696 -7.79097357011155
vertex -916.695531008228 355.878327318982 -7.79097357011156
vertex -916.465872695789 353.189891413173 -7.7909735701115
endloop
endfacet
facet normal 6.96747269420269e-014 -1.92674563414878e-014 -1.0
outer loop
vertex -916.465872695789 353.189891413173 -7.7909735701115
vertex -916.695531008228 355.878327318982 -7.79097357011156
vertex -915.493516251668 355.560741302047 -7.79097357011146
endloop
endfacet
facet normal 6.96747269420269e-014 -1.92674563414878e-014 -1.0
outer loop
vertex -916.465872695789 353.189891413173 -7.7909735701115
vertex -915.493516251668 355.560741302047 -7.79097357011146
vertex -915.967501770421 352.904471683179 -7.79097357011146
endloop
endfacet
facet normal 6.96747269420269e-014 -1.92674563414878e-014 -1.0
outer loop
vertex -915.967501770421 352.904471683179 -7.79097357011146
vertex -915.493516251668 355.560741302047 -7.79097357011146
vertex -915.559984484508 352.499789507634 -7.79097357011142
endloop
endfacet
facet normal 6.96747269420269e-014 -1.92674563414878e-014 -1.0
outer loop
vertex -915.559984484508 352.499789507634 -7.79097357011142
vertex -915.493516251668 355.560741302047 -7.79097357011146
vertex -915.271092467629 352.003423308034 -7.7909735701114
endloop
endfacet
facet normal 6.96747269420269e-014 -1.92674563414878e-014 -1.0
outer loop
vertex -915.271092467629 352.003423308034 -7.7909735701114
vertex -915.493516251668 355.560741302047 -7.79097357011146
vertex -914.414656464366 354.94287245473 -7.79097357011137
endloop
endfacet
facet normal 6.96747269420269e-014 -1.92674563414878e-014 -1.0
outer loop
vertex -915.271092467629 352.003423308034 -7.7909735701114
vertex -914.414656464366 354.94287245473 -7.79097357011137
vertex -915.120513233318 351.449199620597 -7.79097357011139
endloop
endfacet
facet normal 6.96747269420269e-014 -1.92674563414878e-014 -1.0
outer loop
vertex -915.120513233318 351.449199620597 -7.79097357011139
vertex -914.414656464366 354.94287245473 -7.79097357011137
vertex -915.118508507551 350.874887873724 -7.79097357011134
endloop
endfacet
facet normal 6.96747269420269e-014 -1.92674563414878e-014 -1.0
outer loop
vertex -920.186696089801 347.365987635597 -7.79097357011163
vertex -919.480839320848 350.859660469731 -7.79097357011166
vertex -919.107836302499 346.74811878828 -7.79097357011154
endloop
endfacet
facet normal 6.96747269420269e-014 -1.92674563414878e-014 -1.0
outer loop
vertex -919.480839320848 350.859660469731 -7.79097357011166
vertex -920.186696089801 347.365987635597 -7.79097357011163
vertex -919.482844046616 351.433972216604 -7.79097357011166
endloop
endfacet
facet normal 6.96747269420269e-014 -1.92674563414878e-014 -1.0
outer loop
vertex -919.107836302499 346.74811878828 -7.79097357011154
vertex -919.480839320848 350.859660469731 -7.79097357011166
vertex -919.330260086538 350.305436782293 -7.79097357011165
endloop
endfacet
facet normal 6.96747269420269e-014 -1.92674563414878e-014 -1.0
outer loop
vertex -919.107836302499 346.74811878828 -7.79097357011154
vertex -919.330260086538 350.305436782293 -7.79097357011165
vertex -919.041368069659 349.809070582693 -7.79097357011158
endloop
endfacet
facet normal 6.96747269420269e-014 -1.92674563414878e-014 -1.0
outer loop
vertex -919.107836302499 346.74811878828 -7.79097357011154
vertex -919.041368069659 349.809070582693 -7.79097357011158
vertex -917.905821545939 346.430532771346 -7.79097357011144
endloop
endfacet
facet normal 6.96747269420269e-014 -1.92674563414878e-014 -1.0
outer loop
vertex -917.905821545939 346.430532771346 -7.79097357011144
vertex -919.041368069659 349.809070582693 -7.79097357011158
vertex -918.633850783746 349.404388407149 -7.79097357011155
endloop
endfacet
facet normal 6.96747269420269e-014 -1.92674563414878e-014 -1.0
outer loop
vertex -917.905821545939 346.430532771346 -7.79097357011144
vertex -918.633850783746 349.404388407149 -7.79097357011155
vertex -918.135479858378 349.118968677155 -7.7909735701115
endloop
endfacet
facet normal 6.96747269420269e-014 -1.92674563414878e-014 -1.0
outer loop
vertex -917.905821545939 346.430532771346 -7.79097357011144
vertex -918.135479858378 349.118968677155 -7.7909735701115
vertex -917.580218448523 348.972262275631 -7.7909735701115
endloop
endfacet
facet normal 6.96747269420269e-014 -1.92674563414878e-014 -1.0
outer loop
vertex -917.905821545939 346.430532771346 -7.79097357011144
vertex -917.580218448523 348.972262275631 -7.7909735701115
vertex -916.662567139355 346.434872547013 -7.79097357011138
endloop
endfacet
facet normal 6.96747269420269e-014 -1.92674563414878e-014 -1.0
outer loop
vertex -916.662567139355 346.434872547013 -7.79097357011138
vertex -917.580218448523 348.972262275631 -7.7909735701115
vertex -917.00590670165 348.974267001399 -7.79097357011146
endloop
endfacet
facet normal 6.96747269420269e-014 -1.92674563414878e-014 -1.0
outer loop
vertex -916.662567139355 346.434872547013 -7.79097357011138
vertex -917.00590670165 348.974267001399 -7.79097357011146
vertex -916.451683014213 349.124846235709 -7.79097357011141
endloop
endfacet
facet normal 6.96747269420269e-014 -1.92674563414878e-014 -1.0
outer loop
vertex -916.662567139355 346.434872547013 -7.79097357011138
vertex -916.451683014213 349.124846235709 -7.79097357011141
vertex -915.462798815983 346.760842366742 -7.79097357011128
endloop
endfacet
facet normal 6.96747269420269e-014 -1.92674563414878e-014 -1.0
outer loop
vertex -915.462798815983 346.760842366742 -7.79097357011128
vertex -916.451683014213 349.124846235709 -7.79097357011141
vertex -915.955316814613 349.413738252588 -7.79097357011137
endloop
endfacet
facet normal 6.96747269420269e-014 -1.92674563414878e-014 -1.0
outer loop
vertex -915.462798815983 346.760842366742 -7.79097357011128
vertex -915.955316814613 349.413738252588 -7.79097357011137
vertex -915.550634639068 349.821255538502 -7.79097357011138
endloop
endfacet
facet normal 6.96747269420269e-014 -1.92674563414878e-014 -1.0
outer loop
vertex -915.462798815983 346.760842366742 -7.79097357011128
vertex -915.550634639068 349.821255538502 -7.79097357011138
vertex -915.265214909074 350.319626463869 -7.79097357011135
endloop
endfacet
facet normal 6.96747269420269e-014 -1.92674563414878e-014 -1.0
outer loop
vertex -915.462798815983 346.760842366742 -7.79097357011128
vertex -915.265214909074 350.319626463869 -7.79097357011135
vertex -914.388278804349 347.386227926008 -7.79097357011123
endloop
endfacet
facet normal 6.96747269420269e-014 -1.92674563414878e-014 -1.0
outer loop
vertex -914.388278804349 347.386227926008 -7.79097357011123
vertex -915.265214909074 350.319626463869 -7.79097357011135
vertex -915.118508507551 350.874887873724 -7.79097357011134
endloop
endfacet
facet normal 6.96747269420269e-014 -1.92674563414878e-014 -1.0
outer loop
vertex -914.388278804349 347.386227926008 -7.79097357011123
vertex -915.118508507551 350.874887873724 -7.79097357011134
vertex -914.414656464366 354.94287245473 -7.79097357011137
endloop
endfacet
facet normal 6.96747269420269e-014 -1.92674563414878e-014 -1.0
outer loop
vertex -914.388278804349 347.386227926008 -7.79097357011123
vertex -914.414656464366 354.94287245473 -7.79097357011137
vertex -913.532474157928 354.066827517898 -7.7909735701113
endloop
endfacet
facet normal 6.96747269420269e-014 -1.92674563414878e-014 -1.0
outer loop
vertex -914.388278804349 347.386227926008 -7.79097357011123
vertex -913.532474157928 354.066827517898 -7.7909735701113
vertex -913.512233867517 348.268410232446 -7.7909735701112
endloop
endfacet
facet normal 6.96747269420269e-014 -1.92674563414878e-014 -1.0
outer loop
vertex -913.512233867517 348.268410232446 -7.7909735701112
vertex -913.532474157928 354.066827517898 -7.7909735701113
vertex -912.907088598662 352.992307506264 -7.79097357011124
endloop
endfacet
facet normal 6.96747269420269e-014 -1.92674563414878e-014 -1.0
outer loop
vertex -913.512233867517 348.268410232446 -7.7909735701112
vertex -912.907088598662 352.992307506264 -7.79097357011124
vertex -912.8943650202 349.347270019748 -7.79097357011115
endloop
endfacet
facet normal 6.96747269420269e-014 -1.92674563414878e-014 -1.0
outer loop
vertex -912.8943650202 349.347270019748 -7.79097357011115
vertex -912.907088598662 352.992307506264 -7.79097357011124
vertex -912.581118778933 351.792539182892 -7.79097357011117
endloop
endfacet
facet normal 6.96747269420269e-014 -1.92674563414878e-014 -1.0
outer loop
vertex -912.8943650202 349.347270019748 -7.79097357011115
vertex -912.581118778933 351.792539182892 -7.79097357011117
vertex -912.576779003266 350.549284776309 -7.79097357011117
endloop
endfacet
facet normal 0.925209712731459 -0.37945617331567 7.17748893515432e-014
outer loop
vertex -912.8943650202 349.347270019748 -7.79097357011115
vertex -913.512233867518 348.268410232446 4.94494225294723
vertex -913.512233867517 348.268410232446 -7.7909735701112
endloop
endfacet
facet normal 0.79547347182498 -0.60598841211917 6.71002522129852e-014
outer loop
vertex -913.512233867518 348.268410232446 4.94494225294723
vertex -912.8943650202 349.347270019748 -7.79097357011115
vertex -912.894365020201 349.347270019748 4.94494225294725
endloop
endfacet
facet normal 0.605988412119161 0.795473471824987 2.52567878387396e-014
outer loop
vertex -918.633850783747 349.404388407149 4.94494225294685
vertex -918.135479858378 349.118968677155 -7.7909735701115
vertex -918.633850783746 349.404388407149 -7.79097357011155
endloop
endfacet
facet normal 0.379456173315682 0.925209712731454 6.83782161162562e-015
outer loop
vertex -918.135479858378 349.118968677155 -7.7909735701115
vertex -918.633850783747 349.404388407149 4.94494225294685
vertex -918.135479858379 349.118968677155 4.9449422529469
endloop
endfacet
facet normal -0.605988412119162 -0.795473471824986 -2.52567878387397e-014
outer loop
vertex -915.967501770421 352.904471683179 -7.79097357011146
vertex -916.46587269579 353.189891413173 4.94494225294692
vertex -916.465872695789 353.189891413173 -7.7909735701115
endloop
endfacet
facet normal -0.379456173315684 -0.925209712731453 -6.83782161162578e-015
outer loop
vertex -916.46587269579 353.189891413173 4.94494225294692
vertex -915.967501770421 352.904471683179 -7.79097357011146
vertex -915.967501770422 352.904471683179 4.94494225294697
endloop
endfacet
facet normal 0.379456173315686 0.925209712731452 6.83782161162594e-015
outer loop
vertex -918.135479858379 349.118968677155 4.9449422529469
vertex -917.580218448523 348.972262275631 -7.7909735701115
vertex -918.135479858378 349.118968677155 -7.7909735701115
endloop
endfacet
facet normal 0.127064623381663 0.991894440696628 -1.20471308582901e-014
outer loop
vertex -917.580218448523 348.972262275631 -7.7909735701115
vertex -918.135479858379 349.118968677155 4.9449422529469
vertex -917.580218448524 348.972262275631 4.94494225294693
endloop
endfacet
facet normal 0.991894440696625 -0.127064623381685 7.15581863944061e-014
outer loop
vertex -912.576779003266 350.549284776309 -7.79097357011117
vertex -912.894365020201 349.347270019748 4.94494225294725
vertex -912.8943650202 349.347270019748 -7.79097357011115
endloop
endfacet
facet normal 0.925209712731458 -0.379456173315672 7.17748893515432e-014
outer loop
vertex -912.894365020201 349.347270019748 4.94494225294725
vertex -912.576779003266 350.549284776309 -7.79097357011117
vertex -912.576779003267 350.549284776309 4.94494225294725
endloop
endfacet
facet normal 0.795473471824985 -0.605988412119163 6.78403014892602e-014
outer loop
vertex -919.050717915098 352.487604551826 -7.79097357011167
vertex -919.336137645094 351.989233626458 4.94494225294675
vertex -919.336137645093 351.989233626458 -7.79097357011165
endloop
endfacet
facet normal 0.925209712731461 -0.379456173315664 7.20656369824929e-014
outer loop
vertex -919.336137645094 351.989233626458 4.94494225294675
vertex -919.050717915098 352.487604551826 -7.79097357011167
vertex -919.050717915099 352.487604551826 4.94494225294676
endloop
endfacet
facet normal -0.92520971273146 0.379456173315666 -7.20656369824929e-014
outer loop
vertex -915.265214909075 350.319626463869 4.94494225294707
vertex -915.118508507551 350.874887873724 -7.79097357011134
vertex -915.265214909074 350.319626463869 -7.79097357011135
endloop
endfacet
facet normal -0.991894440696622 0.127064623381705 -7.13798184094647e-014
outer loop
vertex -915.118508507551 350.874887873724 -7.79097357011134
vertex -915.265214909075 350.319626463869 4.94494225294707
vertex -915.118508507552 350.874887873724 4.94494225294707
endloop
endfacet
facet normal 0.38590602857745 -0.922538095206686 4.61230305707241e-014
outer loop
vertex -918.149669539954 353.184013854619 -7.7909735701116
vertex -918.646035739555 352.89512183774 4.94494225294679
vertex -918.646035739554 352.89512183774 -7.79097357011164
endloop
endfacet
facet normal 0.611527028395718 -0.791223542079925 5.89917615609342e-014
outer loop
vertex -918.646035739555 352.89512183774 4.94494225294679
vertex -918.149669539954 353.184013854619 -7.7909735701116
vertex -918.149669539955 353.184013854619 4.94494225294681
endloop
endfacet
facet normal -0.13398617065153 0.990983201711381 -3.01110912690333e-014
outer loop
vertex -917.005906701651 348.974267001399 4.94494225294698
vertex -916.451683014213 349.124846235709 -7.79097357011141
vertex -917.00590670165 348.974267001399 -7.79097357011146
endloop
endfacet
facet normal -0.385906028577452 0.922538095206685 -4.61230305707243e-014
outer loop
vertex -916.451683014213 349.124846235709 -7.79097357011141
vertex -917.005906701651 348.974267001399 4.94494225294698
vertex -916.451683014214 349.124846235709 4.94494225294702
endloop
endfacet
facet normal 0.922538095206689 0.385906028577443 5.57931706309735e-014
outer loop
vertex -919.330260086538 350.305436782293 -7.79097357011165
vertex -919.04136806966 349.809070582693 4.94494225294682
vertex -919.041368069659 349.809070582693 -7.79097357011158
endloop
endfacet
facet normal 0.791223542079921 0.611527028395723 4.19545457134588e-014
outer loop
vertex -919.04136806966 349.809070582693 4.94494225294682
vertex -919.330260086538 350.305436782293 -7.79097357011165
vertex -919.330260086539 350.305436782294 4.94494225294679
endloop
endfacet
facet normal -0.922538095206688 -0.385906028577446 -5.57931706309734e-014
outer loop
vertex -915.27109246763 352.003423308034 4.94494225294704
vertex -915.559984484508 352.499789507634 -7.79097357011142
vertex -915.271092467629 352.003423308034 -7.7909735701114
endloop
endfacet
facet normal -0.791223542079922 -0.611527028395721 -4.19545457134589e-014
outer loop
vertex -915.559984484508 352.499789507634 -7.79097357011142
vertex -915.27109246763 352.003423308034 4.94494225294704
vertex -915.559984484509 352.499789507634 4.944942252947
endloop
endfacet
facet normal 0.991894440696622 -0.127064623381707 7.13798184094647e-014
outer loop
vertex -919.482844046616 351.433972216604 -7.79097357011166
vertex -919.480839320849 350.859660469731 4.94494225294677
vertex -919.480839320848 350.859660469731 -7.79097357011166
endloop
endfacet
facet normal 0.990983201711385 0.133986170651497 6.58295831725594e-014
outer loop
vertex -919.480839320849 350.859660469731 4.94494225294677
vertex -919.482844046616 351.433972216604 -7.79097357011166
vertex -919.482844046617 351.433972216604 4.94494225294675
endloop
endfacet
facet normal 0.92520971273146 -0.379456173315667 7.20656369824929e-014
outer loop
vertex -919.336137645093 351.989233626458 -7.79097357011165
vertex -919.482844046617 351.433972216604 4.94494225294675
vertex -919.482844046616 351.433972216604 -7.79097357011166
endloop
endfacet
facet normal 0.991894440696622 -0.127064623381706 7.13798184094647e-014
outer loop
vertex -919.482844046617 351.433972216604 4.94494225294675
vertex -919.336137645093 351.989233626458 -7.79097357011165
vertex -919.336137645094 351.989233626458 4.94494225294675
endloop
endfacet
facet normal -0.990983201711385 -0.133986170651495 -6.58295831725595e-014
outer loop
vertex -915.120513233319 351.449199620597 4.94494225294705
vertex -915.271092467629 352.003423308034 -7.7909735701114
vertex -915.120513233318 351.449199620597 -7.79097357011139
endloop
endfacet
facet normal -0.922538095206688 -0.385906028577446 -5.57931706309734e-014
outer loop
vertex -915.271092467629 352.003423308034 -7.7909735701114
vertex -915.120513233319 351.449199620597 4.94494225294705
vertex -915.27109246763 352.003423308034 4.94494225294704
endloop
endfacet
facet normal 0.133986170651527 -0.990983201711381 3.01110912690331e-014
outer loop
vertex -917.595445852517 353.334593088929 -7.79097357011159
vertex -918.149669539955 353.184013854619 4.94494225294681
vertex -918.149669539954 353.184013854619 -7.7909735701116
endloop
endfacet
facet normal 0.385906028577455 -0.922538095206684 4.61230305707245e-014
outer loop
vertex -918.149669539955 353.184013854619 4.94494225294681
vertex -917.595445852517 353.334593088929 -7.79097357011159
vertex -917.595445852518 353.334593088929 4.94494225294684
endloop
endfacet
facet normal -0.611527028395714 0.791223542079927 -5.8991761560934e-014
outer loop
vertex -915.955316814614 349.413738252588 4.94494225294704
vertex -915.550634639068 349.821255538502 -7.79097357011138
vertex -915.955316814613 349.413738252588 -7.79097357011137
endloop
endfacet
facet normal -0.795473471824988 0.605988412119159 -6.78403014892604e-014
outer loop
vertex -915.550634639068 349.821255538502 -7.79097357011138
vertex -915.955316814614 349.413738252588 4.94494225294704
vertex -915.550634639069 349.821255538502 4.94494225294706
endloop
endfacet
facet normal -0.795473471824986 0.605988412119162 -6.78403014892603e-014
outer loop
vertex -915.550634639069 349.821255538502 4.94494225294706
vertex -915.265214909074 350.319626463869 -7.79097357011135
vertex -915.550634639068 349.821255538502 -7.79097357011138
endloop
endfacet
facet normal -0.925209712731461 0.379456173315666 -7.20656369824929e-014
outer loop
vertex -915.265214909074 350.319626463869 -7.79097357011135
vertex -915.550634639069 349.821255538502 4.94494225294706
vertex -915.265214909075 350.319626463869 4.94494225294707
endloop
endfacet
facet normal -0.791223542079922 -0.611527028395721 -4.19545457134589e-014
outer loop
vertex -915.559984484508 352.499789507634 -7.79097357011142
vertex -915.967501770422 352.904471683179 4.94494225294697
vertex -915.967501770421 352.904471683179 -7.79097357011146
endloop
endfacet
facet normal -0.605988412119161 -0.795473471824987 -2.52567878387396e-014
outer loop
vertex -915.967501770422 352.904471683179 4.94494225294697
vertex -915.559984484508 352.499789507634 -7.79097357011142
vertex -915.559984484509 352.499789507634 4.944942252947
endloop
endfacet
facet normal 0.791223542079932 0.611527028395709 4.33457139232685e-014
outer loop
vertex -913.532474157928 354.066827517898 -7.7909735701113
vertex -912.907088598663 352.992307506264 4.94494225294718
vertex -912.907088598662 352.992307506264 -7.79097357011124
endloop
endfacet
facet normal 0.922538095206682 0.38590602857746 5.684216231961e-014
outer loop
vertex -912.907088598663 352.992307506264 4.94494225294718
vertex -913.532474157928 354.066827517898 -7.7909735701113
vertex -913.532474157929 354.066827517898 4.94494225294712
endloop
endfacet
facet normal -0.13398617065153 0.990983201711381 -2.8429175428275e-014
outer loop
vertex -917.938785414812 355.873987543314 4.94494225294678
vertex -916.695531008228 355.878327318982 -7.79097357011156
vertex -917.938785414811 355.873987543314 -7.79097357011162
endloop
endfacet
facet normal 0.127064623381693 0.991894440696624 -1.02580898933757e-014
outer loop
vertex -916.695531008228 355.878327318982 -7.79097357011156
vertex -917.938785414812 355.873987543314 4.94494225294678
vertex -916.695531008229 355.878327318982 4.94494225294686
endloop
endfacet
facet normal 0.605988412119161 0.795473471824987 2.68953267552353e-014
outer loop
vertex -914.414656464367 354.94287245473 4.94494225294704
vertex -913.532474157928 354.066827517898 -7.7909735701113
vertex -914.414656464366 354.94287245473 -7.79097357011137
endloop
endfacet
facet normal 0.791223542079932 0.611527028395709 4.33457139232685e-014
outer loop
vertex -913.532474157928 354.066827517898 -7.7909735701113
vertex -914.414656464367 354.94287245473 4.94494225294704
vertex -913.532474157929 354.066827517898 4.94494225294712
endloop
endfacet
facet normal 0.611527028395716 -0.791223542079926 5.89917615609341e-014
outer loop
vertex -918.646035739554 352.89512183774 -7.79097357011164
vertex -919.050717915099 352.487604551826 4.94494225294676
vertex -919.050717915098 352.487604551826 -7.79097357011167
endloop
endfacet
facet normal 0.795473471824987 -0.60598841211916 6.78403014892604e-014
outer loop
vertex -919.050717915099 352.487604551826 4.94494225294676
vertex -918.646035739554 352.89512183774 -7.79097357011164
vertex -918.646035739555 352.89512183774 4.94494225294679
endloop
endfacet
facet normal 0.791223542079921 0.611527028395723 4.19545457134588e-014
outer loop
vertex -919.04136806966 349.809070582693 4.94494225294682
vertex -918.633850783746 349.404388407149 -7.79097357011155
vertex -919.041368069659 349.809070582693 -7.79097357011158
endloop
endfacet
facet normal 0.605988412119162 0.795473471824986 2.52567878387397e-014
outer loop
vertex -918.633850783746 349.404388407149 -7.79097357011155
vertex -919.04136806966 349.809070582693 4.94494225294682
vertex -918.633850783747 349.404388407149 4.94494225294685
endloop
endfacet
facet normal -0.379456173315686 -0.925209712731452 -6.83782161162589e-015
outer loop
vertex -916.465872695789 353.189891413173 -7.7909735701115
vertex -917.021134105645 353.336597814697 4.94494225294689
vertex -917.021134105644 353.336597814696 -7.79097357011155
endloop
endfacet
facet normal -0.127064623381665 -0.991894440696628 1.20471308582899e-014
outer loop
vertex -917.021134105645 353.336597814697 4.94494225294689
vertex -916.465872695789 353.189891413173 -7.7909735701115
vertex -916.46587269579 353.189891413173 4.94494225294692
endloop
endfacet
endsolid LiteArm_i2_REV4_10
