solid LiteArm_i2_REV4_10
facet normal 9.34267413191099e-014 1.43734177126349e-014 -1.0
outer loop
vertex -1270.44389571717 510.070752132379 19.333857580708
vertex -1269.99075358423 506.596330246737 19.333857580708
vertex -1270.0027812757 505.969919985176 19.333857580708
endloop
endfacet
facet normal 9.34267413191099e-014 1.43734177126349e-014 -1.0
outer loop
vertex -1269.99075358423 506.596330246737 19.333857580708
vertex -1270.44389571717 510.070752132379 19.333857580708
vertex -1269.35546395513 510.671598745517 19.3338575807081
endloop
endfacet
facet normal 9.34267413191099e-014 1.43734177126349e-014 -1.0
outer loop
vertex -1269.99075358423 506.596330246737 19.333857580708
vertex -1269.35546395513 510.671598745517 19.3338575807081
vertex -1269.81700882066 507.198283100608 19.3338575807081
endloop
endfacet
facet normal 9.34267413191099e-014 1.43734177126349e-014 -1.0
outer loop
vertex -1269.81700882066 507.198283100608 19.3338575807081
vertex -1269.35546395513 510.671598745517 19.3338575807081
vertex -1269.49338740352 507.734756454574 19.3338575807081
endloop
endfacet
facet normal 9.34267413191099e-014 1.43734177126349e-014 -1.0
outer loop
vertex -1269.49338740352 507.734756454574 19.3338575807081
vertex -1269.35546395513 510.671598745517 19.3338575807081
vertex -1269.04194359756 508.169190536126 19.3338575807081
endloop
endfacet
facet normal 9.34267413191099e-014 1.43734177126349e-014 -1.0
outer loop
vertex -1269.04194359756 508.169190536126 19.3338575807081
vertex -1269.35546395513 510.671598745517 19.3338575807081
vertex -1268.14860905935 510.970265137475 19.3338575807082
endloop
endfacet
facet normal 9.34267413191099e-014 1.43734177126349e-014 -1.0
outer loop
vertex -1269.04194359756 508.169190536126 19.3338575807081
vertex -1268.14860905935 510.970265137475 19.3338575807082
vertex -1268.49344255213 508.471979380543 19.3338575807082
endloop
endfacet
facet normal 9.34267413191099e-014 1.43734177126349e-014 -1.0
outer loop
vertex -1268.49344255213 508.471979380543 19.3338575807082
vertex -1268.14860905935 510.970265137475 19.3338575807082
vertex -1267.88526370701 508.622488428458 19.3338575807082
endloop
endfacet
facet normal 9.34267413191099e-014 1.43734177126349e-014 -1.0
outer loop
vertex -1267.88526370701 508.622488428458 19.3338575807082
vertex -1268.14860905935 510.970265137475 19.3338575807082
vertex -1266.90557619657 510.94639768721 19.3338575807086
endloop
endfacet
facet normal 9.34267413191099e-014 1.43734177126349e-014 -1.0
outer loop
vertex -1267.88526370701 508.622488428458 19.3338575807082
vertex -1266.90557619657 510.94639768721 19.3338575807086
vertex -1267.25885344545 508.610460736986 19.3338575807082
endloop
endfacet
facet normal 9.34267413191099e-014 1.43734177126349e-014 -1.0
outer loop
vertex -1267.25885344545 508.610460736986 19.3338575807082
vertex -1266.90557619657 510.94639768721 19.3338575807086
vertex -1266.65690059158 508.436715973423 19.3338575807083
endloop
endfacet
facet normal 9.34267413191099e-014 1.43734177126349e-014 -1.0
outer loop
vertex -1266.65690059158 508.436715973423 19.3338575807083
vertex -1266.90557619657 510.94639768721 19.3338575807086
vertex -1265.71107600216 510.601622922014 19.3338575807087
endloop
endfacet
facet normal 9.34267413191099e-014 1.43734177126349e-014 -1.0
outer loop
vertex -1266.65690059158 508.436715973423 19.3338575807083
vertex -1265.71107600216 510.601622922014 19.3338575807087
vertex -1266.12042723761 508.113094556279 19.3338575807083
endloop
endfacet
facet normal 9.34267413191099e-014 1.43734177126349e-014 -1.0
outer loop
vertex -1266.12042723761 508.113094556279 19.3338575807083
vertex -1265.71107600216 510.601622922014 19.3338575807087
vertex -1265.68599315606 507.661650750323 19.3338575807084
endloop
endfacet
facet normal 9.34267413191099e-014 1.43734177126349e-014 -1.0
outer loop
vertex -1265.68599315606 507.661650750323 19.3338575807084
vertex -1265.71107600216 510.601622922014 19.3338575807087
vertex -1264.64651169039 509.959436672369 19.3338575807088
endloop
endfacet
facet normal 9.34267413191099e-014 1.43734177126349e-014 -1.0
outer loop
vertex -1265.68599315606 507.661650750323 19.3338575807084
vertex -1264.64651169039 509.959436672369 19.3338575807088
vertex -1265.38320431164 507.113149704885 19.3338575807084
endloop
endfacet
facet normal 9.34267413191099e-014 1.43734177126349e-014 -1.0
outer loop
vertex -1265.38320431164 507.113149704885 19.3338575807084
vertex -1264.64651169039 509.959436672369 19.3338575807088
vertex -1265.23269526373 506.50497085977 19.3338575807084
endloop
endfacet
facet normal 9.34267413191099e-014 1.43734177126349e-014 -1.0
outer loop
vertex -1265.23269526373 506.50497085977 19.3338575807084
vertex -1264.64651169039 509.959436672369 19.3338575807088
vertex -1264.79158082226 502.404138712567 19.3338575807084
endloop
endfacet
facet normal 9.34267413191099e-014 1.43734177126349e-014 -1.0
outer loop
vertex -1264.79158082226 502.404138712567 19.3338575807084
vertex -1264.64651169039 509.959436672369 19.3338575807088
vertex -1263.89574701982 503.266218843147 19.3338575807085
endloop
endfacet
facet normal 9.34267413191099e-014 1.43734177126349e-014 -1.0
outer loop
vertex -1263.89574701982 503.266218843147 19.3338575807085
vertex -1264.64651169039 509.959436672369 19.3338575807088
vertex -1263.78443155981 509.063602869925 19.3338575807089
endloop
endfacet
facet normal 9.34267413191099e-014 1.43734177126349e-014 -1.0
outer loop
vertex -1263.89574701982 503.266218843147 19.3338575807085
vertex -1263.78443155981 509.063602869925 19.3338575807089
vertex -1263.25356077017 504.330783154923 19.3338575807085
endloop
endfacet
facet normal 9.34267413191099e-014 1.43734177126349e-014 -1.0
outer loop
vertex -1263.25356077017 504.330783154923 19.3338575807085
vertex -1263.78443155981 509.063602869925 19.3338575807089
vertex -1263.18358494667 507.975171107883 19.3338575807089
endloop
endfacet
facet normal 9.34267413191099e-014 1.43734177126349e-014 -1.0
outer loop
vertex -1263.25356077017 504.330783154923 19.3338575807085
vertex -1263.18358494667 507.975171107883 19.3338575807089
vertex -1262.90878600498 505.525283349325 19.3338575807089
endloop
endfacet
facet normal 9.34267413191099e-014 1.43734177126349e-014 -1.0
outer loop
vertex -1262.90878600498 505.525283349325 19.3338575807089
vertex -1263.18358494667 507.975171107883 19.3338575807089
vertex -1262.88491855471 506.768316212108 19.3338575807089
endloop
endfacet
facet normal 9.34267413191099e-014 1.43734177126349e-014 -1.0
outer loop
vertex -1272.32669053445 506.949607495621 19.3338575807079
vertex -1272.05189159276 504.499719737062 19.3338575807079
vertex -1272.35055798472 505.706574632838 19.3338575807079
endloop
endfacet
facet normal 9.34267413191099e-014 1.43734177126349e-014 -1.0
outer loop
vertex -1272.05189159276 504.499719737062 19.3338575807079
vertex -1272.32669053445 506.949607495621 19.3338575807079
vertex -1271.98191576926 508.144107690023 19.3338575807079
endloop
endfacet
facet normal 9.34267413191099e-014 1.43734177126349e-014 -1.0
outer loop
vertex -1272.05189159276 504.499719737062 19.3338575807079
vertex -1271.98191576926 508.144107690023 19.3338575807079
vertex -1271.45104497962 503.411287975021 19.3338575807079
endloop
endfacet
facet normal 9.34267413191099e-014 1.43734177126349e-014 -1.0
outer loop
vertex -1271.45104497962 503.411287975021 19.3338575807079
vertex -1271.98191576926 508.144107690023 19.3338575807079
vertex -1271.33972951961 509.208672001799 19.3338575807079
endloop
endfacet
facet normal 9.34267413191099e-014 1.43734177126349e-014 -1.0
outer loop
vertex -1271.45104497962 503.411287975021 19.3338575807079
vertex -1271.33972951961 509.208672001799 19.3338575807079
vertex -1270.58896484904 502.515454172577 19.333857580708
endloop
endfacet
facet normal 9.34267413191099e-014 1.43734177126349e-014 -1.0
outer loop
vertex -1270.58896484904 502.515454172577 19.333857580708
vertex -1271.33972951961 509.208672001799 19.3338575807079
vertex -1270.44389571717 510.070752132379 19.333857580708
endloop
endfacet
facet normal 9.34267413191099e-014 1.43734177126349e-014 -1.0
outer loop
vertex -1270.58896484904 502.515454172577 19.333857580708
vertex -1270.44389571717 510.070752132379 19.333857580708
vertex -1270.0027812757 505.969919985176 19.333857580708
endloop
endfacet
facet normal 9.34267413191099e-014 1.43734177126349e-014 -1.0
outer loop
vertex -1270.58896484904 502.515454172577 19.333857580708
vertex -1270.0027812757 505.969919985176 19.333857580708
vertex -1269.52440053726 501.873267922932 19.3338575807081
endloop
endfacet
facet normal 9.34267413191099e-014 1.43734177126349e-014 -1.0
outer loop
vertex -1269.52440053726 501.873267922932 19.3338575807081
vertex -1270.0027812757 505.969919985176 19.333857580708
vertex -1269.85227222778 505.361741140061 19.333857580708
endloop
endfacet
facet normal 9.34267413191099e-014 1.43734177126349e-014 -1.0
outer loop
vertex -1269.52440053726 501.873267922932 19.3338575807081
vertex -1269.85227222778 505.361741140061 19.333857580708
vertex -1269.54948338337 504.813240094623 19.3338575807081
endloop
endfacet
facet normal 9.34267413191099e-014 1.43734177126349e-014 -1.0
outer loop
vertex -1269.52440053726 501.873267922932 19.3338575807081
vertex -1269.54948338337 504.813240094623 19.3338575807081
vertex -1269.11504930182 504.361796288667 19.3338575807081
endloop
endfacet
facet normal 9.34267413191099e-014 1.43734177126349e-014 -1.0
outer loop
vertex -1269.52440053726 501.873267922932 19.3338575807081
vertex -1269.11504930182 504.361796288667 19.3338575807081
vertex -1268.32990034286 501.528493157736 19.3338575807082
endloop
endfacet
facet normal 9.34267413191099e-014 1.43734177126349e-014 -1.0
outer loop
vertex -1268.32990034286 501.528493157736 19.3338575807082
vertex -1269.11504930182 504.361796288667 19.3338575807081
vertex -1268.57857594785 504.038174871523 19.3338575807082
endloop
endfacet
facet normal 9.34267413191099e-014 1.43734177126349e-014 -1.0
outer loop
vertex -1268.32990034286 501.528493157736 19.3338575807082
vertex -1268.57857594785 504.038174871523 19.3338575807082
vertex -1267.97662309398 503.86443010796 19.3338575807082
endloop
endfacet
facet normal 9.34267413191099e-014 1.43734177126349e-014 -1.0
outer loop
vertex -1268.32990034286 501.528493157736 19.3338575807082
vertex -1267.97662309398 503.86443010796 19.3338575807082
vertex -1267.08686748008 501.504625707471 19.3338575807082
endloop
endfacet
facet normal 9.34267413191099e-014 1.43734177126349e-014 -1.0
outer loop
vertex -1267.08686748008 501.504625707471 19.3338575807082
vertex -1267.97662309398 503.86443010796 19.3338575807082
vertex -1267.35021283242 503.852402416488 19.3338575807082
endloop
endfacet
facet normal 9.34267413191099e-014 1.43734177126349e-014 -1.0
outer loop
vertex -1267.08686748008 501.504625707471 19.3338575807082
vertex -1267.35021283242 503.852402416488 19.3338575807082
vertex -1266.7420339873 504.002911464403 19.3338575807083
endloop
endfacet
facet normal 9.34267413191099e-014 1.43734177126349e-014 -1.0
outer loop
vertex -1267.08686748008 501.504625707471 19.3338575807082
vertex -1266.7420339873 504.002911464403 19.3338575807083
vertex -1265.8800125843 501.803292099429 19.3338575807083
endloop
endfacet
facet normal 9.34267413191099e-014 1.43734177126349e-014 -1.0
outer loop
vertex -1265.8800125843 501.803292099429 19.3338575807083
vertex -1266.7420339873 504.002911464403 19.3338575807083
vertex -1266.19353294186 504.30570030882 19.3338575807083
endloop
endfacet
facet normal 9.34267413191099e-014 1.43734177126349e-014 -1.0
outer loop
vertex -1265.8800125843 501.803292099429 19.3338575807083
vertex -1266.19353294186 504.30570030882 19.3338575807083
vertex -1265.74208913591 504.740134390372 19.3338575807084
endloop
endfacet
facet normal 9.34267413191099e-014 1.43734177126349e-014 -1.0
outer loop
vertex -1265.8800125843 501.803292099429 19.3338575807083
vertex -1265.74208913591 504.740134390372 19.3338575807084
vertex -1264.79158082226 502.404138712567 19.3338575807084
endloop
endfacet
facet normal 9.34267413191099e-014 1.43734177126349e-014 -1.0
outer loop
vertex -1264.79158082226 502.404138712567 19.3338575807084
vertex -1265.74208913591 504.740134390372 19.3338575807084
vertex -1265.41846771876 505.276607744338 19.3338575807084
endloop
endfacet
facet normal 9.34267413191099e-014 1.43734177126349e-014 -1.0
outer loop
vertex -1264.79158082226 502.404138712567 19.3338575807084
vertex -1265.41846771876 505.276607744338 19.3338575807084
vertex -1265.2447229552 505.878560598209 19.3338575807084
endloop
endfacet
facet normal 9.34267413191099e-014 1.43734177126349e-014 -1.0
outer loop
vertex -1264.79158082226 502.404138712567 19.3338575807084
vertex -1265.2447229552 505.878560598209 19.3338575807084
vertex -1265.23269526373 506.50497085977 19.3338575807084
endloop
endfacet
facet normal -0.993767919160533 -0.111468932206891 -9.44466878392323e-014
outer loop
vertex -1272.35055798472 505.706574632838 24.449569980708
vertex -1272.05189159276 504.499719737062 19.3338575807079
vertex -1272.05189159276 504.499719737062 24.449569980708
endloop
endfacet
facet normal -0.931055815862318 -0.364876784338156 -9.22300372971569e-014
outer loop
vertex -1272.05189159276 504.499719737062 19.3338575807079
vertex -1272.35055798472 505.706574632838 24.449569980708
vertex -1272.35055798472 505.706574632838 19.3338575807079
endloop
endfacet
facet normal 0.993767919160533 0.111468932206891 9.44466878392322e-014
outer loop
vertex -1262.88491855471 506.768316212108 19.3338575807089
vertex -1262.90878600498 505.525283349325 24.4495699807087
vertex -1262.90878600498 505.525283349325 19.3338575807089
endloop
endfacet
facet normal 0.988756381047092 -0.149535343443139 9.02269526855954e-014
outer loop
vertex -1262.90878600498 505.525283349325 24.4495699807087
vertex -1262.88491855471 506.768316212108 19.3338575807089
vertex -1262.88491855471 506.768316212108 24.4495699807087
endloop
endfacet
facet normal -0.781520472419181 0.623879596708933 -6.40476289664077e-014
outer loop
vertex -1271.33972951961 509.208672001799 24.4495699807081
vertex -1271.98191576926 508.144107690023 19.3338575807079
vertex -1271.98191576926 508.144107690023 24.449569980708
endloop
endfacet
facet normal -0.91636272956247 0.400349032556367 -7.98583998135245e-014
outer loop
vertex -1271.98191576926 508.144107690023 19.3338575807079
vertex -1271.33972951961 509.208672001799 24.4495699807081
vertex -1271.33972951961 509.208672001799 19.3338575807079
endloop
endfacet
facet normal -0.149535343443139 -0.988756381047092 -2.81824083307495e-014
outer loop
vertex -1268.32990034286 501.528493157736 19.3338575807082
vertex -1269.52440053726 501.873267922932 24.4495699807082
vertex -1269.52440053726 501.873267922932 19.3338575807081
endloop
endfacet
facet normal -0.400349032556369 -0.916362729562469 -5.05745697902915e-014
outer loop
vertex -1269.52440053726 501.873267922932 24.4495699807082
vertex -1268.32990034286 501.528493157736 19.3338575807082
vertex -1268.32990034286 501.528493157736 24.4495699807083
endloop
endfacet
facet normal 0.149535343443139 0.988756381047092 2.81824083307495e-014
outer loop
vertex -1266.90557619657 510.94639768721 24.4495699807084
vertex -1265.71107600216 510.601622922014 19.3338575807087
vertex -1266.90557619657 510.94639768721 19.3338575807086
endloop
endfacet
facet normal 0.400349032556369 0.916362729562469 5.05745697902914e-014
outer loop
vertex -1265.71107600216 510.601622922014 19.3338575807087
vertex -1266.90557619657 510.94639768721 24.4495699807084
vertex -1265.71107600217 510.601622922014 24.4495699807085
endloop
endfacet
facet normal -0.400349032556366 -0.916362729562471 -5.05745697902912e-014
outer loop
vertex -1269.52440053726 501.873267922932 19.3338575807081
vertex -1270.58896484904 502.515454172577 24.4495699807081
vertex -1270.58896484904 502.515454172577 19.333857580708
endloop
endfacet
facet normal -0.623879596708937 -0.781520472419178 -6.95201578970531e-014
outer loop
vertex -1270.58896484904 502.515454172577 24.4495699807081
vertex -1269.52440053726 501.873267922932 19.3338575807081
vertex -1269.52440053726 501.873267922932 24.4495699807082
endloop
endfacet
facet normal 0.111468932206899 -0.993767919160532 -3.86966231709897e-015
outer loop
vertex -1267.08686748008 501.504625707471 19.3338575807082
vertex -1268.32990034286 501.528493157736 24.4495699807083
vertex -1268.32990034286 501.528493157736 19.3338575807082
endloop
endfacet
facet normal -0.149535343443145 -0.988756381047091 -2.818240833075e-014
outer loop
vertex -1268.32990034286 501.528493157736 24.4495699807083
vertex -1267.08686748008 501.504625707471 19.3338575807082
vertex -1267.08686748008 501.504625707471 24.4495699807084
endloop
endfacet
facet normal 0.781520472419181 -0.623879596708933 6.40476289664077e-014
outer loop
vertex -1263.89574701982 503.266218843147 19.3338575807085
vertex -1264.79158082226 502.404138712567 24.4495699807086
vertex -1264.79158082226 502.404138712567 19.3338575807084
endloop
endfacet
facet normal 0.593418886604163 -0.804893797355574 4.38721180489408e-014
outer loop
vertex -1264.79158082226 502.404138712567 24.4495699807086
vertex -1263.89574701982 503.266218843147 19.3338575807085
vertex -1263.89574701982 503.266218843147 24.4495699807086
endloop
endfacet
facet normal 0.593418886604167 -0.804893797355571 4.38721180489412e-014
outer loop
vertex -1264.79158082226 502.404138712567 19.3338575807084
vertex -1265.8800125843 501.803292099429 24.4495699807085
vertex -1265.8800125843 501.803292099429 19.3338575807083
endloop
endfacet
facet normal 0.364876784338153 -0.93105581586232 2.0706794788542e-014
outer loop
vertex -1265.8800125843 501.803292099429 24.4495699807085
vertex -1264.79158082226 502.404138712567 19.3338575807084
vertex -1264.79158082226 502.404138712567 24.4495699807086
endloop
endfacet
facet normal -0.931055815862319 -0.364876784338155 -9.2230037297157e-014
outer loop
vertex -1272.05189159276 504.499719737062 24.449569980708
vertex -1271.45104497962 503.411287975021 19.3338575807079
vertex -1271.45104497962 503.411287975021 24.4495699807081
endloop
endfacet
facet normal -0.804893797355566 -0.593418886604174 -8.37280621306231e-014
outer loop
vertex -1271.45104497962 503.411287975021 19.3338575807079
vertex -1272.05189159276 504.499719737062 24.449569980708
vertex -1272.05189159276 504.499719737062 19.3338575807079
endloop
endfacet
facet normal 0.781520472419181 -0.623879596708933 6.40476289664077e-014
outer loop
vertex -1263.89574701982 503.266218843147 19.3338575807085
vertex -1263.25356077017 504.330783154923 24.4495699807087
vertex -1263.89574701982 503.266218843147 24.4495699807086
endloop
endfacet
facet normal 0.91636272956247 -0.400349032556367 7.98583998135245e-014
outer loop
vertex -1263.25356077017 504.330783154923 24.4495699807087
vertex -1263.89574701982 503.266218843147 19.3338575807085
vertex -1263.25356077017 504.330783154923 19.3338575807085
endloop
endfacet
facet normal -0.916362729562471 0.400349032556365 -7.98583998135246e-014
outer loop
vertex -1271.98191576926 508.144107690023 24.449569980708
vertex -1272.32669053445 506.949607495621 19.3338575807079
vertex -1272.32669053445 506.949607495621 24.449569980708
endloop
endfacet
facet normal -0.988756381047092 0.14953534344314 -9.02269526855953e-014
outer loop
vertex -1272.32669053445 506.949607495621 19.3338575807079
vertex -1271.98191576926 508.144107690023 24.449569980708
vertex -1271.98191576926 508.144107690023 19.3338575807079
endloop
endfacet
facet normal 0.400349032556366 0.91636272956247 5.05745697902912e-014
outer loop
vertex -1265.71107600217 510.601622922014 24.4495699807085
vertex -1264.64651169039 509.959436672369 19.3338575807088
vertex -1265.71107600216 510.601622922014 19.3338575807087
endloop
endfacet
facet normal 0.623879596708937 0.781520472419178 6.95201578970531e-014
outer loop
vertex -1264.64651169039 509.959436672369 19.3338575807088
vertex -1265.71107600217 510.601622922014 24.4495699807085
vertex -1264.64651169039 509.959436672369 24.4495699807086
endloop
endfacet
facet normal -9.34267413191099e-014 -1.43734177126349e-014 1.0
outer loop
vertex -1272.05189159276 504.499719737062 24.449569980708
vertex -1272.32669053445 506.949607495621 24.449569980708
vertex -1272.35055798472 505.706574632838 24.449569980708
endloop
endfacet
facet normal -9.34267413191099e-014 -1.43734177126349e-014 1.0
outer loop
vertex -1272.32669053445 506.949607495621 24.449569980708
vertex -1272.05189159276 504.499719737062 24.449569980708
vertex -1271.98191576926 508.144107690023 24.449569980708
endloop
endfacet
facet normal -9.34267413191099e-014 -1.43734177126349e-014 1.0
outer loop
vertex -1271.98191576926 508.144107690023 24.449569980708
vertex -1272.05189159276 504.499719737062 24.449569980708
vertex -1271.45104497962 503.411287975021 24.4495699807081
endloop
endfacet
facet normal -9.34267413191099e-014 -1.43734177126349e-014 1.0
outer loop
vertex -1271.98191576926 508.144107690023 24.449569980708
vertex -1271.45104497962 503.411287975021 24.4495699807081
vertex -1271.33972951961 509.208672001799 24.4495699807081
endloop
endfacet
facet normal -9.34267413191099e-014 -1.43734177126349e-014 1.0
outer loop
vertex -1271.33972951961 509.208672001799 24.4495699807081
vertex -1271.45104497962 503.411287975021 24.4495699807081
vertex -1270.58896484904 502.515454172577 24.4495699807081
endloop
endfacet
facet normal -9.34267413191099e-014 -1.43734177126349e-014 1.0
outer loop
vertex -1271.33972951961 509.208672001799 24.4495699807081
vertex -1270.58896484904 502.515454172577 24.4495699807081
vertex -1270.44389571717 510.070752132379 24.4495699807081
endloop
endfacet
facet normal -9.34267413191099e-014 -1.43734177126349e-014 1.0
outer loop
vertex -1270.44389571717 510.070752132379 24.4495699807081
vertex -1270.58896484904 502.515454172577 24.4495699807081
vertex -1270.20153485953 505.947626198735 24.4495699807082
endloop
endfacet
facet normal -9.34267413191099e-014 -1.43734177126349e-014 1.0
outer loop
vertex -1270.20153485953 505.947626198735 24.4495699807082
vertex -1270.58896484904 502.515454172577 24.4495699807081
vertex -1269.52440053726 501.873267922932 24.4495699807082
endloop
endfacet
facet normal -9.34267413191099e-014 -1.43734177126349e-014 1.0
outer loop
vertex -1270.20153485953 505.947626198735 24.4495699807082
vertex -1269.52440053726 501.873267922932 24.4495699807082
vertex -1270.03848339096 505.288765783194 24.4495699807082
endloop
endfacet
facet normal -9.34267413191099e-014 -1.43734177126349e-014 1.0
outer loop
vertex -1270.03848339096 505.288765783194 24.4495699807082
vertex -1269.52440053726 501.873267922932 24.4495699807082
vertex -1269.71046214284 504.694556317302 24.4495699807082
endloop
endfacet
facet normal -9.34267413191099e-014 -1.43734177126349e-014 1.0
outer loop
vertex -1269.71046214284 504.694556317302 24.4495699807082
vertex -1269.52440053726 501.873267922932 24.4495699807082
vertex -1269.23982522116 504.205492194183 24.4495699807082
endloop
endfacet
facet normal -9.34267413191099e-014 -1.43734177126349e-014 1.0
outer loop
vertex -1269.23982522116 504.205492194183 24.4495699807082
vertex -1269.52440053726 501.873267922932 24.4495699807082
vertex -1268.32990034286 501.528493157736 24.4495699807083
endloop
endfacet
facet normal -9.34267413191099e-014 -1.43734177126349e-014 1.0
outer loop
vertex -1269.23982522116 504.205492194183 24.4495699807082
vertex -1268.32990034286 501.528493157736 24.4495699807083
vertex -1268.65864575436 503.854902325611 24.4495699807083
endloop
endfacet
facet normal -9.34267413191099e-014 -1.43734177126349e-014 1.0
outer loop
vertex -1268.65864575436 503.854902325611 24.4495699807083
vertex -1268.32990034286 501.528493157736 24.4495699807083
vertex -1268.00653016267 503.66667883175 24.4495699807083
endloop
endfacet
facet normal -9.34267413191099e-014 -1.43734177126349e-014 1.0
outer loop
vertex -1268.00653016267 503.66667883175 24.4495699807083
vertex -1268.32990034286 501.528493157736 24.4495699807083
vertex -1267.08686748008 501.504625707471 24.4495699807084
endloop
endfacet
facet normal -9.34267413191099e-014 -1.43734177126349e-014 1.0
outer loop
vertex -1268.00653016267 503.66667883175 24.4495699807083
vertex -1267.08686748008 501.504625707471 24.4495699807084
vertex -1267.32791904598 503.653648832656 24.4495699807084
endloop
endfacet
facet normal -9.34267413191099e-014 -1.43734177126349e-014 1.0
outer loop
vertex -1267.32791904598 503.653648832656 24.4495699807084
vertex -1267.08686748008 501.504625707471 24.4495699807084
vertex -1266.66905863044 503.816700301231 24.4495699807084
endloop
endfacet
facet normal -9.34267413191099e-014 -1.43734177126349e-014 1.0
outer loop
vertex -1266.66905863044 503.816700301231 24.4495699807084
vertex -1267.08686748008 501.504625707471 24.4495699807084
vertex -1265.8800125843 501.803292099429 24.4495699807085
endloop
endfacet
facet normal -9.34267413191099e-014 -1.43734177126349e-014 1.0
outer loop
vertex -1266.66905863044 503.816700301231 24.4495699807084
vertex -1265.8800125843 501.803292099429 24.4495699807085
vertex -1266.07484916454 504.144721549349 24.4495699807085
endloop
endfacet
facet normal -9.34267413191099e-014 -1.43734177126349e-014 1.0
outer loop
vertex -1266.07484916454 504.144721549349 24.4495699807085
vertex -1265.8800125843 501.803292099429 24.4495699807085
vertex -1265.58578504143 504.61535847103 24.4495699807085
endloop
endfacet
facet normal -9.34267413191099e-014 -1.43734177126349e-014 1.0
outer loop
vertex -1265.58578504143 504.61535847103 24.4495699807085
vertex -1265.8800125843 501.803292099429 24.4495699807085
vertex -1264.79158082226 502.404138712567 24.4495699807086
endloop
endfacet
facet normal -9.34267413191099e-014 -1.43734177126349e-014 1.0
outer loop
vertex -1265.58578504143 504.61535847103 24.4495699807085
vertex -1264.79158082226 502.404138712567 24.4495699807086
vertex -1265.23519517285 505.196537937826 24.4495699807085
endloop
endfacet
facet normal -9.34267413191099e-014 -1.43734177126349e-014 1.0
outer loop
vertex -1265.23519517285 505.196537937826 24.4495699807085
vertex -1264.79158082226 502.404138712567 24.4495699807086
vertex -1265.04697167899 505.848653529521 24.4495699807086
endloop
endfacet
facet normal -9.34267413191099e-014 -1.43734177126349e-014 1.0
outer loop
vertex -1265.04697167899 505.848653529521 24.4495699807086
vertex -1264.79158082226 502.404138712567 24.4495699807086
vertex -1265.0339416799 506.527264646211 24.4495699807086
endloop
endfacet
facet normal -9.34267413191099e-014 -1.43734177126349e-014 1.0
outer loop
vertex -1270.44389571717 510.070752132379 24.4495699807081
vertex -1270.18850486044 506.626237315425 24.4495699807082
vertex -1269.35546395513 510.671598745517 24.4495699807082
endloop
endfacet
facet normal -9.34267413191099e-014 -1.43734177126349e-014 1.0
outer loop
vertex -1270.18850486044 506.626237315425 24.4495699807082
vertex -1270.44389571717 510.070752132379 24.4495699807081
vertex -1270.20153485953 505.947626198735 24.4495699807082
endloop
endfacet
facet normal -9.34267413191099e-014 -1.43734177126349e-014 1.0
outer loop
vertex -1269.35546395513 510.671598745517 24.4495699807082
vertex -1270.18850486044 506.626237315425 24.4495699807082
vertex -1270.00028136658 507.278352907119 24.4495699807082
endloop
endfacet
facet normal -9.34267413191099e-014 -1.43734177126349e-014 1.0
outer loop
vertex -1269.35546395513 510.671598745517 24.4495699807082
vertex -1270.00028136658 507.278352907119 24.4495699807082
vertex -1269.649691498 507.859532373916 24.4495699807082
endloop
endfacet
facet normal -9.34267413191099e-014 -1.43734177126349e-014 1.0
outer loop
vertex -1269.35546395513 510.671598745517 24.4495699807082
vertex -1269.649691498 507.859532373916 24.4495699807082
vertex -1269.16062737489 508.330169295597 24.4495699807083
endloop
endfacet
facet normal -9.34267413191099e-014 -1.43734177126349e-014 1.0
outer loop
vertex -1269.35546395513 510.671598745517 24.4495699807082
vertex -1269.16062737489 508.330169295597 24.4495699807083
vertex -1268.14860905935 510.970265137475 24.4495699807083
endloop
endfacet
facet normal -9.34267413191099e-014 -1.43734177126349e-014 1.0
outer loop
vertex -1268.14860905935 510.970265137475 24.4495699807083
vertex -1269.16062737489 508.330169295597 24.4495699807083
vertex -1268.56641790899 508.658190543715 24.4495699807083
endloop
endfacet
facet normal -9.34267413191099e-014 -1.43734177126349e-014 1.0
outer loop
vertex -1268.14860905935 510.970265137475 24.4495699807083
vertex -1268.56641790899 508.658190543715 24.4495699807083
vertex -1267.90755749345 508.82124201229 24.4495699807084
endloop
endfacet
facet normal -9.34267413191099e-014 -1.43734177126349e-014 1.0
outer loop
vertex -1268.14860905935 510.970265137475 24.4495699807083
vertex -1267.90755749345 508.82124201229 24.4495699807084
vertex -1266.90557619657 510.94639768721 24.4495699807084
endloop
endfacet
facet normal -9.34267413191099e-014 -1.43734177126349e-014 1.0
outer loop
vertex -1266.90557619657 510.94639768721 24.4495699807084
vertex -1267.90755749345 508.82124201229 24.4495699807084
vertex -1267.22894637676 508.808212013195 24.4495699807084
endloop
endfacet
facet normal -9.34267413191099e-014 -1.43734177126349e-014 1.0
outer loop
vertex -1266.90557619657 510.94639768721 24.4495699807084
vertex -1267.22894637676 508.808212013195 24.4495699807084
vertex -1266.57683078507 508.619988519335 24.4495699807084
endloop
endfacet
facet normal -9.34267413191099e-014 -1.43734177126349e-014 1.0
outer loop
vertex -1266.90557619657 510.94639768721 24.4495699807084
vertex -1266.57683078507 508.619988519335 24.4495699807084
vertex -1265.71107600217 510.601622922014 24.4495699807085
endloop
endfacet
facet normal -9.34267413191099e-014 -1.43734177126349e-014 1.0
outer loop
vertex -1265.71107600217 510.601622922014 24.4495699807085
vertex -1266.57683078507 508.619988519335 24.4495699807084
vertex -1265.99565131827 508.269398650763 24.4495699807085
endloop
endfacet
facet normal -9.34267413191099e-014 -1.43734177126349e-014 1.0
outer loop
vertex -1265.71107600217 510.601622922014 24.4495699807085
vertex -1265.99565131827 508.269398650763 24.4495699807085
vertex -1265.52501439659 507.780334527644 24.4495699807085
endloop
endfacet
facet normal -9.34267413191099e-014 -1.43734177126349e-014 1.0
outer loop
vertex -1265.71107600217 510.601622922014 24.4495699807085
vertex -1265.52501439659 507.780334527644 24.4495699807085
vertex -1264.64651169039 509.959436672369 24.4495699807086
endloop
endfacet
facet normal -9.34267413191099e-014 -1.43734177126349e-014 1.0
outer loop
vertex -1264.64651169039 509.959436672369 24.4495699807086
vertex -1265.52501439659 507.780334527644 24.4495699807085
vertex -1265.19699314847 507.186125061752 24.4495699807085
endloop
endfacet
facet normal -9.34267413191099e-014 -1.43734177126349e-014 1.0
outer loop
vertex -1264.64651169039 509.959436672369 24.4495699807086
vertex -1265.19699314847 507.186125061752 24.4495699807085
vertex -1265.0339416799 506.527264646211 24.4495699807086
endloop
endfacet
facet normal -9.34267413191099e-014 -1.43734177126349e-014 1.0
outer loop
vertex -1264.64651169039 509.959436672369 24.4495699807086
vertex -1265.0339416799 506.527264646211 24.4495699807086
vertex -1264.79158082226 502.404138712567 24.4495699807086
endloop
endfacet
facet normal -9.34267413191099e-014 -1.43734177126349e-014 1.0
outer loop
vertex -1264.64651169039 509.959436672369 24.4495699807086
vertex -1264.79158082226 502.404138712567 24.4495699807086
vertex -1263.89574701982 503.266218843147 24.4495699807086
endloop
endfacet
facet normal -9.34267413191099e-014 -1.43734177126349e-014 1.0
outer loop
vertex -1264.64651169039 509.959436672369 24.4495699807086
vertex -1263.89574701982 503.266218843147 24.4495699807086
vertex -1263.78443155981 509.063602869925 24.4495699807086
endloop
endfacet
facet normal -9.34267413191099e-014 -1.43734177126349e-014 1.0
outer loop
vertex -1263.78443155981 509.063602869925 24.4495699807086
vertex -1263.89574701982 503.266218843147 24.4495699807086
vertex -1263.25356077017 504.330783154923 24.4495699807087
endloop
endfacet
facet normal -9.34267413191099e-014 -1.43734177126349e-014 1.0
outer loop
vertex -1263.78443155981 509.063602869925 24.4495699807086
vertex -1263.25356077017 504.330783154923 24.4495699807087
vertex -1263.18358494667 507.975171107883 24.4495699807087
endloop
endfacet
facet normal -9.34267413191099e-014 -1.43734177126349e-014 1.0
outer loop
vertex -1263.18358494667 507.975171107883 24.4495699807087
vertex -1263.25356077017 504.330783154923 24.4495699807087
vertex -1262.90878600498 505.525283349325 24.4495699807087
endloop
endfacet
facet normal -9.34267413191099e-014 -1.43734177126349e-014 1.0
outer loop
vertex -1263.18358494667 507.975171107883 24.4495699807087
vertex -1262.90878600498 505.525283349325 24.4495699807087
vertex -1262.88491855471 506.768316212108 24.4495699807087
endloop
endfacet
facet normal -0.111468932206899 0.993767919160532 3.86966231709897e-015
outer loop
vertex -1268.14860905935 510.970265137475 24.4495699807083
vertex -1266.90557619657 510.94639768721 19.3338575807086
vertex -1268.14860905935 510.970265137475 19.3338575807082
endloop
endfacet
facet normal 0.149535343443133 0.988756381047093 2.81824083307489e-014
outer loop
vertex -1266.90557619657 510.94639768721 19.3338575807086
vertex -1268.14860905935 510.970265137475 24.4495699807083
vertex -1266.90557619657 510.94639768721 24.4495699807084
endloop
endfacet
facet normal 0.993767919160533 0.111468932206891 9.44466878392322e-014
outer loop
vertex -1262.88491855471 506.768316212108 19.3338575807089
vertex -1263.18358494667 507.975171107883 24.4495699807087
vertex -1262.88491855471 506.768316212108 24.4495699807087
endloop
endfacet
facet normal 0.931055815862318 0.364876784338156 9.2230037297157e-014
outer loop
vertex -1263.18358494667 507.975171107883 24.4495699807087
vertex -1262.88491855471 506.768316212108 19.3338575807089
vertex -1263.18358494667 507.975171107883 19.3338575807089
endloop
endfacet
facet normal -0.781520472419181 0.623879596708933 -6.40476289664077e-014
outer loop
vertex -1271.33972951961 509.208672001799 24.4495699807081
vertex -1270.44389571717 510.070752132379 19.333857580708
vertex -1271.33972951961 509.208672001799 19.3338575807079
endloop
endfacet
facet normal -0.593418886604163 0.804893797355574 -4.38721180489408e-014
outer loop
vertex -1270.44389571717 510.070752132379 19.333857580708
vertex -1271.33972951961 509.208672001799 24.4495699807081
vertex -1270.44389571717 510.070752132379 24.4495699807081
endloop
endfacet
facet normal 0.804893797355568 0.593418886604171 8.37280621306232e-014
outer loop
vertex -1263.78443155981 509.063602869925 19.3338575807089
vertex -1263.18358494667 507.975171107883 24.4495699807087
vertex -1263.18358494667 507.975171107883 19.3338575807089
endloop
endfacet
facet normal 0.931055815862318 0.364876784338156 9.2230037297157e-014
outer loop
vertex -1263.18358494667 507.975171107883 24.4495699807087
vertex -1263.78443155981 509.063602869925 19.3338575807089
vertex -1263.78443155981 509.063602869925 24.4495699807086
endloop
endfacet
facet normal 0.988756381047091 -0.14953534344315 9.02269526855951e-014
outer loop
vertex -1262.90878600498 505.525283349325 19.3338575807089
vertex -1263.25356077017 504.330783154923 24.4495699807087
vertex -1263.25356077017 504.330783154923 19.3338575807085
endloop
endfacet
facet normal 0.91636272956247 -0.400349032556367 7.98583998135245e-014
outer loop
vertex -1263.25356077017 504.330783154923 24.4495699807087
vertex -1262.90878600498 505.525283349325 19.3338575807089
vertex -1262.90878600498 505.525283349325 24.4495699807087
endloop
endfacet
facet normal -0.988756381047092 0.149535343443137 -9.02269526855954e-014
outer loop
vertex -1272.32669053445 506.949607495621 24.449569980708
vertex -1272.35055798472 505.706574632838 19.3338575807079
vertex -1272.35055798472 505.706574632838 24.449569980708
endloop
endfacet
facet normal -0.993767919160533 -0.111468932206888 -9.44466878392322e-014
outer loop
vertex -1272.35055798472 505.706574632838 19.3338575807079
vertex -1272.32669053445 506.949607495621 24.449569980708
vertex -1272.32669053445 506.949607495621 19.3338575807079
endloop
endfacet
facet normal 0.593418886604164 -0.804893797355573 4.38721180489409e-014
outer loop
vertex -1269.04194359756 508.169190536126 19.3338575807081
vertex -1269.49338740352 507.734756454574 24.9495699807081
vertex -1269.49338740352 507.734756454574 19.3338575807081
endloop
endfacet
facet normal 0.781520472419179 -0.623879596708934 6.4015330579881e-014
outer loop
vertex -1269.49338740352 507.734756454574 24.9495699807081
vertex -1269.04194359756 508.169190536126 19.3338575807081
vertex -1269.04194359757 508.169190536126 24.9495699807081
endloop
endfacet
facet normal -0.623879596708939 -0.781520472419176 -6.93996186775338e-014
outer loop
vertex -1266.12042723761 508.113094556279 19.3338575807083
vertex -1266.65690059158 508.436715973423 24.9495699807083
vertex -1266.65690059158 508.436715973423 19.3338575807083
endloop
endfacet
facet normal -0.400349032556371 -0.916362729562469 -5.04664972826362e-014
outer loop
vertex -1266.65690059158 508.436715973423 24.9495699807083
vertex -1266.12042723761 508.113094556279 19.3338575807083
vertex -1266.12042723761 508.113094556279 24.9495699807084
endloop
endfacet
facet normal -0.400349032556373 -0.916362729562468 -5.04664972826364e-014
outer loop
vertex -1266.65690059158 508.436715973423 19.3338575807083
vertex -1267.25885344545 508.610460736986 24.9495699807083
vertex -1267.25885344545 508.610460736986 19.3338575807082
endloop
endfacet
facet normal -0.149535343443134 -0.988756381047093 -2.80941674977561e-014
outer loop
vertex -1267.25885344545 508.610460736986 24.9495699807083
vertex -1266.65690059158 508.436715973423 19.3338575807083
vertex -1266.65690059158 508.436715973423 24.9495699807083
endloop
endfacet
facet normal 0.364876784338153 -0.931055815862319 2.07390931750686e-014
outer loop
vertex -1268.49344255213 508.471979380543 19.3338575807082
vertex -1269.04194359757 508.169190536126 24.9495699807081
vertex -1269.04194359756 508.169190536126 19.3338575807081
endloop
endfacet
facet normal 0.593418886604166 -0.804893797355572 4.38721180489411e-014
outer loop
vertex -1269.04194359757 508.169190536126 24.9495699807081
vertex -1268.49344255213 508.471979380543 19.3338575807082
vertex -1268.49344255213 508.471979380542 24.9495699807082
endloop
endfacet
facet normal -0.593418886604167 0.804893797355571 -4.38721180489412e-014
outer loop
vertex -1270.44389571717 510.070752132379 24.4495699807081
vertex -1269.35546395513 510.671598745517 19.3338575807081
vertex -1270.44389571717 510.070752132379 19.333857580708
endloop
endfacet
facet normal -0.364876784338153 0.931055815862319 -2.07067947885421e-014
outer loop
vertex -1269.35546395513 510.671598745517 19.3338575807081
vertex -1270.44389571717 510.070752132379 24.4495699807081
vertex -1269.35546395513 510.671598745517 24.4495699807082
endloop
endfacet
facet normal -0.364876784338157 0.931055815862318 -2.07067947885424e-014
outer loop
vertex -1269.35546395513 510.671598745517 24.4495699807082
vertex -1268.14860905935 510.970265137475 19.3338575807082
vertex -1269.35546395513 510.671598745517 19.3338575807081
endloop
endfacet
facet normal -0.111468932206905 0.993767919160531 3.86966231709836e-015
outer loop
vertex -1268.14860905935 510.970265137475 19.3338575807082
vertex -1269.35546395513 510.671598745517 24.4495699807082
vertex -1268.14860905935 510.970265137475 24.4495699807083
endloop
endfacet
facet normal 0.781520472419178 -0.623879596708936 6.40153305798809e-014
outer loop
vertex -1269.49338740352 507.734756454574 19.3338575807081
vertex -1269.81700882066 507.198283100608 24.9495699807081
vertex -1269.81700882066 507.198283100608 19.3338575807081
endloop
endfacet
facet normal 0.91636272956247 -0.400349032556368 7.97960041221376e-014
outer loop
vertex -1269.81700882066 507.198283100608 24.9495699807081
vertex -1269.49338740352 507.734756454574 19.3338575807081
vertex -1269.49338740352 507.734756454574 24.9495699807081
endloop
endfacet
facet normal -0.993767919160532 -0.111468932206902 -9.43386153315769e-014
outer loop
vertex -1265.23269526373 506.50497085977 24.9495699807084
vertex -1265.2447229552 505.878560598209 19.3338575807084
vertex -1265.2447229552 505.878560598209 24.9495699807084
endloop
endfacet
facet normal -0.988756381047092 0.149535343443143 -9.01387118526023e-014
outer loop
vertex -1265.2447229552 505.878560598209 19.3338575807084
vertex -1265.23269526373 506.50497085977 24.9495699807084
vertex -1265.23269526373 506.50497085977 19.3338575807084
endloop
endfacet
facet normal -0.804893797355568 -0.59341888660417 -8.37280621306232e-014
outer loop
vertex -1271.45104497962 503.411287975021 24.4495699807081
vertex -1270.58896484904 502.515454172577 19.333857580708
vertex -1270.58896484904 502.515454172577 24.4495699807081
endloop
endfacet
facet normal -0.623879596708934 -0.781520472419179 -6.95201578970529e-014
outer loop
vertex -1270.58896484904 502.515454172577 19.333857580708
vertex -1271.45104497962 503.411287975021 24.4495699807081
vertex -1271.45104497962 503.411287975021 19.3338575807079
endloop
endfacet
facet normal 0.804893797355568 0.593418886604171 8.37280621306232e-014
outer loop
vertex -1263.78443155981 509.063602869925 19.3338575807089
vertex -1264.64651169039 509.959436672369 24.4495699807086
vertex -1263.78443155981 509.063602869925 24.4495699807086
endloop
endfacet
facet normal 0.623879596708935 0.781520472419179 6.95201578970529e-014
outer loop
vertex -1264.64651169039 509.959436672369 24.4495699807086
vertex -1263.78443155981 509.063602869925 19.3338575807089
vertex -1264.64651169039 509.959436672369 19.3338575807088
endloop
endfacet
facet normal 0.364876784338157 -0.931055815862318 2.07067947885425e-014
outer loop
vertex -1265.8800125843 501.803292099429 19.3338575807083
vertex -1267.08686748008 501.504625707471 24.4495699807084
vertex -1267.08686748008 501.504625707471 19.3338575807082
endloop
endfacet
facet normal 0.111468932206893 -0.993767919160533 -3.86966231709951e-015
outer loop
vertex -1267.08686748008 501.504625707471 24.4495699807084
vertex -1265.8800125843 501.803292099429 19.3338575807083
vertex -1265.8800125843 501.803292099429 24.4495699807085
endloop
endfacet
facet normal -0.804893797355572 -0.593418886604165 -8.36032707478498e-014
outer loop
vertex -1265.68599315606 507.661650750323 24.9495699807084
vertex -1265.38320431164 507.113149704885 19.3338575807084
vertex -1265.38320431165 507.113149704885 24.9495699807084
endloop
endfacet
facet normal -0.931055815862317 -0.364876784338159 -9.21094980776374e-014
outer loop
vertex -1265.38320431164 507.113149704885 19.3338575807084
vertex -1265.68599315606 507.661650750323 24.9495699807084
vertex -1265.68599315606 507.661650750323 19.3338575807084
endloop
endfacet
facet normal 0.149535343443139 0.988756381047092 2.80941674977566e-014
outer loop
vertex -1267.97662309398 503.86443010796 24.9495699807082
vertex -1267.35021283242 503.852402416488 19.3338575807082
vertex -1267.97662309398 503.86443010796 19.3338575807082
endloop
endfacet
facet normal -0.111468932206909 0.993767919160531 3.80726662571123e-015
outer loop
vertex -1267.35021283242 503.852402416488 19.3338575807082
vertex -1267.97662309398 503.86443010796 24.9495699807082
vertex -1267.35021283242 503.852402416488 24.9495699807083
endloop
endfacet
facet normal -0.111468932206903 0.993767919160532 3.80726662571179e-015
outer loop
vertex -1267.35021283242 503.852402416488 24.9495699807083
vertex -1266.7420339873 504.002911464403 19.3338575807083
vertex -1267.35021283242 503.852402416488 19.3338575807082
endloop
endfacet
facet normal -0.36487678433816 0.931055815862317 -2.07390931750693e-014
outer loop
vertex -1266.7420339873 504.002911464403 19.3338575807083
vertex -1267.35021283242 503.852402416488 24.9495699807083
vertex -1266.7420339873 504.002911464403 24.9495699807083
endloop
endfacet
facet normal 0.988756381047091 -0.149535343443145 9.01387118526023e-014
outer loop
vertex -1269.99075358423 506.596330246737 19.333857580708
vertex -1269.81700882066 507.198283100608 24.9495699807081
vertex -1269.99075358423 506.596330246736 24.9495699807081
endloop
endfacet
facet normal 0.91636272956247 -0.400349032556368 7.97960041221376e-014
outer loop
vertex -1269.81700882066 507.198283100608 24.9495699807081
vertex -1269.99075358423 506.596330246737 19.333857580708
vertex -1269.81700882066 507.198283100608 19.3338575807081
endloop
endfacet
facet normal -0.931055815862317 -0.364876784338158 -9.21094980776375e-014
outer loop
vertex -1265.38320431165 507.113149704885 24.9495699807084
vertex -1265.23269526373 506.50497085977 19.3338575807084
vertex -1265.23269526373 506.50497085977 24.9495699807084
endloop
endfacet
facet normal -0.993767919160532 -0.111468932206902 -9.43386153315769e-014
outer loop
vertex -1265.23269526373 506.50497085977 19.3338575807084
vertex -1265.38320431165 507.113149704885 24.9495699807084
vertex -1265.38320431164 507.113149704885 19.3338575807084
endloop
endfacet
facet normal 0.111468932206896 -0.993767919160532 -3.80726662571244e-015
outer loop
vertex -1267.88526370701 508.622488428458 19.3338575807082
vertex -1268.49344255213 508.471979380542 24.9495699807082
vertex -1268.49344255213 508.471979380543 19.3338575807082
endloop
endfacet
facet normal 0.364876784338156 -0.931055815862318 2.07390931750689e-014
outer loop
vertex -1268.49344255213 508.471979380542 24.9495699807082
vertex -1267.88526370701 508.622488428458 19.3338575807082
vertex -1267.88526370701 508.622488428458 24.9495699807082
endloop
endfacet
facet normal -0.623879596708939 -0.781520472419176 -6.93996186775338e-014
outer loop
vertex -1266.12042723761 508.113094556279 24.9495699807084
vertex -1265.68599315606 507.661650750323 19.3338575807084
vertex -1265.68599315606 507.661650750323 24.9495699807084
endloop
endfacet
facet normal -0.804893797355573 -0.593418886604164 -8.36032707478499e-014
outer loop
vertex -1265.68599315606 507.661650750323 19.3338575807084
vertex -1266.12042723761 508.113094556279 24.9495699807084
vertex -1266.12042723761 508.113094556279 19.3338575807083
endloop
endfacet
facet normal 0.62387959670894 0.781520472419175 6.93996186775339e-014
outer loop
vertex -1269.11504930182 504.361796288667 24.9495699807081
vertex -1268.57857594785 504.038174871523 19.3338575807082
vertex -1269.11504930182 504.361796288667 19.3338575807081
endloop
endfacet
facet normal 0.400349032556375 0.916362729562467 5.04664972826366e-014
outer loop
vertex -1268.57857594785 504.038174871523 19.3338575807082
vertex -1269.11504930182 504.361796288667 24.9495699807081
vertex -1268.57857594785 504.038174871523 24.9495699807082
endloop
endfacet
facet normal -0.593418886604162 0.804893797355575 -4.38721180489407e-014
outer loop
vertex -1266.19353294187 504.30570030882 24.9495699807084
vertex -1265.74208913591 504.740134390372 19.3338575807084
vertex -1266.19353294186 504.30570030882 19.3338575807083
endloop
endfacet
facet normal -0.781520472419179 0.623879596708934 -6.4015330579881e-014
outer loop
vertex -1265.74208913591 504.740134390372 19.3338575807084
vertex -1266.19353294187 504.30570030882 24.9495699807084
vertex -1265.74208913591 504.740134390372 24.9495699807084
endloop
endfacet
facet normal 0.931055815862317 0.364876784338158 9.21094980776375e-014
outer loop
vertex -1269.85227222778 505.361741140061 19.333857580708
vertex -1269.54948338337 504.813240094623 24.9495699807081
vertex -1269.54948338337 504.813240094623 19.3338575807081
endloop
endfacet
facet normal 0.804893797355573 0.593418886604164 8.36032707478499e-014
outer loop
vertex -1269.54948338337 504.813240094623 24.9495699807081
vertex -1269.85227222778 505.361741140061 19.333857580708
vertex -1269.85227222778 505.361741140061 24.9495699807081
endloop
endfacet
facet normal 0.111468932206899 -0.993767919160532 -4.75377911944187e-015
outer loop
vertex -1267.32791904598 503.653648832656 24.4495699807084
vertex -1268.00653016267 503.66667883175 24.9495699807082
vertex -1268.00653016267 503.66667883175 24.4495699807083
endloop
endfacet
facet normal -0.149535343443112 -0.988756381047096 -2.94327383033423e-014
outer loop
vertex -1268.00653016267 503.66667883175 24.9495699807082
vertex -1267.32791904598 503.653648832656 24.4495699807084
vertex -1267.32791904598 503.653648832656 24.9495699807083
endloop
endfacet
facet normal 0.80489379735557 0.593418886604168 8.54962957353092e-014
outer loop
vertex -1265.52501439659 507.780334527644 24.4495699807085
vertex -1265.19699314847 507.186125061752 24.9495699807084
vertex -1265.19699314847 507.186125061752 24.4495699807085
endloop
endfacet
facet normal 0.93105581586232 0.364876784338151 9.39380198028353e-014
outer loop
vertex -1265.19699314847 507.186125061752 24.9495699807084
vertex -1265.52501439659 507.780334527644 24.4495699807085
vertex -1265.52501439659 507.780334527644 24.9495699807084
endloop
endfacet
facet normal 0.931055815862318 0.364876784338156 9.39380198028352e-014
outer loop
vertex -1265.19699314847 507.186125061752 24.4495699807085
vertex -1265.0339416799 506.527264646211 24.9495699807084
vertex -1265.0339416799 506.527264646211 24.4495699807086
endloop
endfacet
facet normal 0.993767919160531 0.11146893220691 9.59780230607157e-014
outer loop
vertex -1265.0339416799 506.527264646211 24.9495699807084
vertex -1265.19699314847 507.186125061752 24.4495699807085
vertex -1265.19699314847 507.186125061752 24.9495699807084
endloop
endfacet
facet normal -0.14953534344314 -0.988756381047092 -2.80941674977566e-014
outer loop
vertex -1267.25885344545 508.610460736986 19.3338575807082
vertex -1267.88526370701 508.622488428458 24.9495699807082
vertex -1267.88526370701 508.622488428458 19.3338575807082
endloop
endfacet
facet normal 0.111468932206902 -0.993767919160532 -3.80726662571187e-015
outer loop
vertex -1267.88526370701 508.622488428458 24.9495699807082
vertex -1267.25885344545 508.610460736986 19.3338575807082
vertex -1267.25885344545 508.610460736986 24.9495699807083
endloop
endfacet
facet normal 0.400349032556368 0.91636272956247 5.0466497282636e-014
outer loop
vertex -1268.57857594785 504.038174871523 24.9495699807082
vertex -1267.97662309398 503.86443010796 19.3338575807082
vertex -1268.57857594785 504.038174871523 19.3338575807082
endloop
endfacet
facet normal 0.149535343443134 0.988756381047093 2.80941674977561e-014
outer loop
vertex -1267.97662309398 503.86443010796 19.3338575807082
vertex -1268.57857594785 504.038174871523 24.9495699807082
vertex -1267.97662309398 503.86443010796 24.9495699807082
endloop
endfacet
facet normal -0.916362729562469 0.400349032556369 -7.97960041221375e-014
outer loop
vertex -1265.41846771877 505.276607744338 24.9495699807084
vertex -1265.74208913591 504.740134390372 19.3338575807084
vertex -1265.74208913591 504.740134390372 24.9495699807084
endloop
endfacet
facet normal -0.781520472419179 0.623879596708934 -6.4015330579881e-014
outer loop
vertex -1265.74208913591 504.740134390372 19.3338575807084
vertex -1265.41846771877 505.276607744338 24.9495699807084
vertex -1265.41846771876 505.276607744338 19.3338575807084
endloop
endfacet
facet normal -0.988756381047091 0.149535343443144 -9.01387118526023e-014
outer loop
vertex -1265.2447229552 505.878560598209 24.9495699807084
vertex -1265.41846771876 505.276607744338 19.3338575807084
vertex -1265.41846771877 505.276607744338 24.9495699807084
endloop
endfacet
facet normal -0.91636272956247 0.400349032556368 -7.97960041221376e-014
outer loop
vertex -1265.41846771876 505.276607744338 19.3338575807084
vertex -1265.2447229552 505.878560598209 24.9495699807084
vertex -1265.2447229552 505.878560598209 19.3338575807084
endloop
endfacet
facet normal 0.988756381047091 -0.149535343443145 9.01387118526023e-014
outer loop
vertex -1269.99075358423 506.596330246737 19.333857580708
vertex -1270.0027812757 505.969919985176 24.9495699807081
vertex -1270.0027812757 505.969919985176 19.333857580708
endloop
endfacet
facet normal 0.993767919160532 0.111468932206902 9.43386153315769e-014
outer loop
vertex -1270.0027812757 505.969919985176 24.9495699807081
vertex -1269.99075358423 506.596330246737 19.333857580708
vertex -1269.99075358423 506.596330246736 24.9495699807081
endloop
endfacet
facet normal 0.804893797355572 0.593418886604165 8.36032707478498e-014
outer loop
vertex -1269.54948338337 504.813240094623 19.3338575807081
vertex -1269.11504930182 504.361796288667 24.9495699807081
vertex -1269.11504930182 504.361796288667 19.3338575807081
endloop
endfacet
facet normal 0.62387959670894 0.781520472419175 6.93996186775339e-014
outer loop
vertex -1269.11504930182 504.361796288667 24.9495699807081
vertex -1269.54948338337 504.813240094623 19.3338575807081
vertex -1269.54948338337 504.813240094623 24.9495699807081
endloop
endfacet
facet normal 0.149535343443122 0.988756381047095 2.94327383033432e-014
outer loop
vertex -1267.22894637676 508.808212013195 24.9495699807083
vertex -1266.57683078507 508.619988519335 24.4495699807084
vertex -1267.22894637676 508.808212013195 24.4495699807084
endloop
endfacet
facet normal 0.400349032556367 0.91636272956247 5.21059050117746e-014
outer loop
vertex -1266.57683078507 508.619988519335 24.4495699807084
vertex -1267.22894637676 508.808212013195 24.9495699807083
vertex -1266.57683078507 508.619988519335 24.9495699807083
endloop
endfacet
facet normal 0.993767919160531 0.111468932206911 9.59780230607157e-014
outer loop
vertex -1265.0339416799 506.527264646211 24.4495699807086
vertex -1265.04697167899 505.848653529521 24.9495699807084
vertex -1265.04697167899 505.848653529521 24.4495699807086
endloop
endfacet
facet normal 0.988756381047092 -0.149535343443142 9.14772826581906e-014
outer loop
vertex -1265.04697167899 505.848653529521 24.9495699807084
vertex -1265.0339416799 506.527264646211 24.4495699807086
vertex -1265.0339416799 506.527264646211 24.9495699807084
endloop
endfacet
facet normal -0.36487678433814 0.931055815862325 -2.02491422554577e-014
outer loop
vertex -1268.56641790899 508.658190543715 24.9495699807082
vertex -1267.90755749345 508.82124201229 24.4495699807084
vertex -1268.56641790899 508.658190543715 24.4495699807083
endloop
endfacet
facet normal -0.11146893220691 0.993767919160531 4.75377911944086e-015
outer loop
vertex -1267.90755749345 508.82124201229 24.4495699807084
vertex -1268.56641790899 508.658190543715 24.9495699807082
vertex -1267.90755749345 508.82124201229 24.9495699807082
endloop
endfacet
facet normal 0.931055815862317 0.364876784338158 9.21094980776375e-014
outer loop
vertex -1269.85227222778 505.361741140061 19.333857580708
vertex -1270.0027812757 505.969919985176 24.9495699807081
vertex -1269.85227222778 505.361741140061 24.9495699807081
endloop
endfacet
facet normal 0.993767919160532 0.111468932206902 9.43386153315769e-014
outer loop
vertex -1270.0027812757 505.969919985176 24.9495699807081
vertex -1269.85227222778 505.361741140061 19.333857580708
vertex -1270.0027812757 505.969919985176 19.333857580708
endloop
endfacet
facet normal -0.364876784338157 0.931055815862318 -2.0739093175069e-014
outer loop
vertex -1266.7420339873 504.002911464403 24.9495699807083
vertex -1266.19353294186 504.30570030882 19.3338575807083
vertex -1266.7420339873 504.002911464403 19.3338575807083
endloop
endfacet
facet normal -0.593418886604164 0.804893797355573 -4.38721180489409e-014
outer loop
vertex -1266.19353294186 504.30570030882 19.3338575807083
vertex -1266.7420339873 504.002911464403 24.9495699807083
vertex -1266.19353294187 504.30570030882 24.9495699807084
endloop
endfacet
facet normal 0.62387959670894 0.781520472419174 7.12281404027317e-014
outer loop
vertex -1265.99565131827 508.269398650763 24.4495699807085
vertex -1265.52501439659 507.780334527644 24.9495699807084
vertex -1265.52501439659 507.780334527644 24.4495699807085
endloop
endfacet
facet normal 0.804893797355575 0.593418886604162 8.54962957353096e-014
outer loop
vertex -1265.52501439659 507.780334527644 24.9495699807084
vertex -1265.99565131827 508.269398650763 24.4495699807085
vertex -1265.99565131827 508.269398650763 24.9495699807084
endloop
endfacet
facet normal -0.80489379735557 -0.593418886604168 -8.54962957353092e-014
outer loop
vertex -1269.71046214284 504.694556317302 24.9495699807081
vertex -1269.23982522116 504.205492194183 24.4495699807082
vertex -1269.23982522116 504.205492194183 24.9495699807081
endloop
endfacet
facet normal -0.623879596708949 -0.781520472419168 -7.12281404027323e-014
outer loop
vertex -1269.23982522116 504.205492194183 24.4495699807082
vertex -1269.71046214284 504.694556317302 24.9495699807081
vertex -1269.71046214284 504.694556317302 24.4495699807082
endloop
endfacet
facet normal -0.400349032556378 -0.916362729562465 -5.21059050117755e-014
outer loop
vertex -1268.65864575436 503.854902325611 24.4495699807083
vertex -1269.23982522116 504.205492194183 24.9495699807081
vertex -1269.23982522116 504.205492194183 24.4495699807082
endloop
endfacet
facet normal -0.62387959670894 -0.781520472419174 -7.12281404027317e-014
outer loop
vertex -1269.23982522116 504.205492194183 24.9495699807081
vertex -1268.65864575436 503.854902325611 24.4495699807083
vertex -1268.65864575436 503.854902325611 24.9495699807082
endloop
endfacet
facet normal -0.149535343443122 -0.988756381047095 -2.94327383033432e-014
outer loop
vertex -1268.00653016267 503.66667883175 24.4495699807083
vertex -1268.65864575436 503.854902325611 24.9495699807082
vertex -1268.65864575436 503.854902325611 24.4495699807083
endloop
endfacet
facet normal -0.400349032556367 -0.91636272956247 -5.21059050117746e-014
outer loop
vertex -1268.65864575436 503.854902325611 24.9495699807082
vertex -1268.00653016267 503.66667883175 24.4495699807083
vertex -1268.00653016267 503.66667883175 24.9495699807082
endloop
endfacet
facet normal 0.593418886604161 -0.804893797355576 4.38721180489405e-014
outer loop
vertex -1266.07484916454 504.144721549349 24.4495699807085
vertex -1266.66905863044 503.816700301231 24.9495699807083
vertex -1266.66905863044 503.816700301231 24.4495699807084
endloop
endfacet
facet normal 0.364876784338151 -0.93105581586232 2.02491422554589e-014
outer loop
vertex -1266.66905863044 503.816700301231 24.9495699807083
vertex -1266.07484916454 504.144721549349 24.4495699807085
vertex -1266.07484916454 504.144721549349 24.9495699807084
endloop
endfacet
facet normal -0.781520472419182 0.623879596708931 -6.45052814994909e-014
outer loop
vertex -1269.649691498 507.859532373916 24.9495699807081
vertex -1270.00028136658 507.278352907119 24.4495699807082
vertex -1270.00028136658 507.278352907119 24.9495699807081
endloop
endfacet
facet normal -0.916362729562468 0.400349032556371 -8.07425166158672e-014
outer loop
vertex -1270.00028136658 507.278352907119 24.4495699807082
vertex -1269.649691498 507.859532373916 24.9495699807081
vertex -1269.649691498 507.859532373916 24.4495699807082
endloop
endfacet
facet normal -0.993767919160531 -0.111468932206911 -9.59780230607157e-014
outer loop
vertex -1270.20153485953 505.947626198735 24.9495699807081
vertex -1270.03848339096 505.288765783194 24.4495699807082
vertex -1270.03848339096 505.288765783194 24.9495699807081
endloop
endfacet
facet normal -0.93105581586232 -0.364876784338151 -9.39380198028353e-014
outer loop
vertex -1270.03848339096 505.288765783194 24.4495699807082
vertex -1270.20153485953 505.947626198735 24.9495699807081
vertex -1270.20153485953 505.947626198735 24.4495699807082
endloop
endfacet
facet normal -0.916362729562466 0.400349032556376 -8.07425166158669e-014
outer loop
vertex -1270.00028136658 507.278352907119 24.9495699807081
vertex -1270.18850486044 506.626237315425 24.4495699807082
vertex -1270.18850486044 506.626237315425 24.9495699807081
endloop
endfacet
facet normal -0.988756381047092 0.149535343443142 -9.14772826581906e-014
outer loop
vertex -1270.18850486044 506.626237315425 24.4495699807082
vertex -1270.00028136658 507.278352907119 24.9495699807081
vertex -1270.00028136658 507.278352907119 24.4495699807082
endloop
endfacet
facet normal -0.111468932206899 0.993767919160532 4.75377911944187e-015
outer loop
vertex -1267.90755749345 508.82124201229 24.9495699807082
vertex -1267.22894637676 508.808212013195 24.4495699807084
vertex -1267.90755749345 508.82124201229 24.4495699807084
endloop
endfacet
facet normal 0.149535343443112 0.988756381047096 2.94327383033423e-014
outer loop
vertex -1267.22894637676 508.808212013195 24.4495699807084
vertex -1267.90755749345 508.82124201229 24.9495699807082
vertex -1267.22894637676 508.808212013195 24.9495699807083
endloop
endfacet
facet normal 0.781520472419182 -0.623879596708931 6.45052814994909e-014
outer loop
vertex -1265.58578504143 504.61535847103 24.4495699807085
vertex -1266.07484916454 504.144721549349 24.9495699807084
vertex -1266.07484916454 504.144721549349 24.4495699807085
endloop
endfacet
facet normal 0.593418886604169 -0.804893797355569 4.38721180489415e-014
outer loop
vertex -1266.07484916454 504.144721549349 24.9495699807084
vertex -1265.58578504143 504.61535847103 24.4495699807085
vertex -1265.58578504143 504.61535847103 24.9495699807084
endloop
endfacet
facet normal -0.988756381047091 0.149535343443144 -9.14772826581906e-014
outer loop
vertex -1270.18850486044 506.626237315425 24.9495699807081
vertex -1270.20153485953 505.947626198735 24.4495699807082
vertex -1270.20153485953 505.947626198735 24.9495699807081
endloop
endfacet
facet normal -0.993767919160531 -0.11146893220691 -9.59780230607157e-014
outer loop
vertex -1270.20153485953 505.947626198735 24.4495699807082
vertex -1270.18850486044 506.626237315425 24.9495699807081
vertex -1270.18850486044 506.626237315425 24.4495699807082
endloop
endfacet
facet normal 0.916362729562466 -0.400349032556376 8.07425166158669e-014
outer loop
vertex -1265.23519517285 505.196537937826 24.4495699807085
vertex -1265.58578504143 504.61535847103 24.9495699807084
vertex -1265.58578504143 504.61535847103 24.4495699807085
endloop
endfacet
facet normal 0.781520472419188 -0.623879596708924 6.45052814994915e-014
outer loop
vertex -1265.58578504143 504.61535847103 24.9495699807084
vertex -1265.23519517285 505.196537937826 24.4495699807085
vertex -1265.23519517285 505.196537937826 24.9495699807084
endloop
endfacet
facet normal 0.988756381047091 -0.149535343443144 9.14772826581906e-014
outer loop
vertex -1265.04697167899 505.848653529521 24.4495699807086
vertex -1265.23519517285 505.196537937826 24.9495699807084
vertex -1265.23519517285 505.196537937826 24.4495699807085
endloop
endfacet
facet normal 0.916362729562468 -0.400349032556371 8.07425166158672e-014
outer loop
vertex -1265.23519517285 505.196537937826 24.9495699807084
vertex -1265.04697167899 505.848653529521 24.4495699807086
vertex -1265.04697167899 505.848653529521 24.9495699807084
endloop
endfacet
facet normal -0.781520472419182 0.623879596708931 -6.45052814994909e-014
outer loop
vertex -1269.649691498 507.859532373916 24.9495699807081
vertex -1269.16062737489 508.330169295597 24.4495699807083
vertex -1269.649691498 507.859532373916 24.4495699807082
endloop
endfacet
facet normal -0.593418886604169 0.804893797355569 -4.38721180489415e-014
outer loop
vertex -1269.16062737489 508.330169295597 24.4495699807083
vertex -1269.649691498 507.859532373916 24.9495699807081
vertex -1269.16062737489 508.330169295597 24.9495699807081
endloop
endfacet
facet normal -0.931055815862318 -0.364876784338156 -9.39380198028352e-014
outer loop
vertex -1270.03848339096 505.288765783194 24.9495699807081
vertex -1269.71046214284 504.694556317302 24.4495699807082
vertex -1269.71046214284 504.694556317302 24.9495699807081
endloop
endfacet
facet normal -0.804893797355575 -0.593418886604162 -8.54962957353096e-014
outer loop
vertex -1269.71046214284 504.694556317302 24.4495699807082
vertex -1270.03848339096 505.288765783194 24.9495699807081
vertex -1270.03848339096 505.288765783194 24.4495699807082
endloop
endfacet
facet normal -0.593418886604161 0.804893797355576 -4.38721180489405e-014
outer loop
vertex -1269.16062737489 508.330169295597 24.9495699807081
vertex -1268.56641790899 508.658190543715 24.4495699807083
vertex -1269.16062737489 508.330169295597 24.4495699807083
endloop
endfacet
facet normal -0.364876784338151 0.93105581586232 -2.02491422554589e-014
outer loop
vertex -1268.56641790899 508.658190543715 24.4495699807083
vertex -1269.16062737489 508.330169295597 24.9495699807081
vertex -1268.56641790899 508.658190543715 24.9495699807082
endloop
endfacet
facet normal 0.400349032556378 0.916362729562465 5.21059050117755e-014
outer loop
vertex -1266.57683078507 508.619988519335 24.9495699807083
vertex -1265.99565131827 508.269398650763 24.4495699807085
vertex -1266.57683078507 508.619988519335 24.4495699807084
endloop
endfacet
facet normal 0.62387959670894 0.781520472419174 7.12281404027317e-014
outer loop
vertex -1265.99565131827 508.269398650763 24.4495699807085
vertex -1266.57683078507 508.619988519335 24.9495699807083
vertex -1265.99565131827 508.269398650763 24.9495699807084
endloop
endfacet
facet normal -9.48499815797973e-014 -1.54227209295836e-014 1.0
outer loop
vertex -1269.71046214284 504.694556317302 24.9495699807081
vertex -1270.0027812757 505.969919985176 24.9495699807081
vertex -1270.03848339096 505.288765783194 24.9495699807081
endloop
endfacet
facet normal -9.48499815797973e-014 -1.54227209295836e-014 1.0
outer loop
vertex -1270.0027812757 505.969919985176 24.9495699807081
vertex -1269.71046214284 504.694556317302 24.9495699807081
vertex -1269.85227222778 505.361741140061 24.9495699807081
endloop
endfacet
facet normal -9.48499815797973e-014 -1.54227209295836e-014 1.0
outer loop
vertex -1269.85227222778 505.361741140061 24.9495699807081
vertex -1269.71046214284 504.694556317302 24.9495699807081
vertex -1269.54948338337 504.813240094623 24.9495699807081
endloop
endfacet
facet normal -9.48499815797973e-014 -1.54227209295836e-014 1.0
outer loop
vertex -1269.54948338337 504.813240094623 24.9495699807081
vertex -1269.71046214284 504.694556317302 24.9495699807081
vertex -1269.23982522116 504.205492194183 24.9495699807081
endloop
endfacet
facet normal -9.48499815797973e-014 -1.54227209295836e-014 1.0
outer loop
vertex -1269.54948338337 504.813240094623 24.9495699807081
vertex -1269.23982522116 504.205492194183 24.9495699807081
vertex -1269.11504930182 504.361796288667 24.9495699807081
endloop
endfacet
facet normal -9.48499815797973e-014 -1.54227209295836e-014 1.0
outer loop
vertex -1269.11504930182 504.361796288667 24.9495699807081
vertex -1269.23982522116 504.205492194183 24.9495699807081
vertex -1268.65864575436 503.854902325611 24.9495699807082
endloop
endfacet
facet normal -9.48499815797973e-014 -1.54227209295836e-014 1.0
outer loop
vertex -1269.11504930182 504.361796288667 24.9495699807081
vertex -1268.65864575436 503.854902325611 24.9495699807082
vertex -1268.57857594785 504.038174871523 24.9495699807082
endloop
endfacet
facet normal -9.48499815797973e-014 -1.54227209295836e-014 1.0
outer loop
vertex -1268.57857594785 504.038174871523 24.9495699807082
vertex -1268.65864575436 503.854902325611 24.9495699807082
vertex -1268.00653016267 503.66667883175 24.9495699807082
endloop
endfacet
facet normal -9.48499815797973e-014 -1.54227209295836e-014 1.0
outer loop
vertex -1268.57857594785 504.038174871523 24.9495699807082
vertex -1268.00653016267 503.66667883175 24.9495699807082
vertex -1267.97662309398 503.86443010796 24.9495699807082
endloop
endfacet
facet normal -9.48499815797973e-014 -1.54227209295836e-014 1.0
outer loop
vertex -1267.97662309398 503.86443010796 24.9495699807082
vertex -1268.00653016267 503.66667883175 24.9495699807082
vertex -1267.32791904598 503.653648832656 24.9495699807083
endloop
endfacet
facet normal -9.48499815797973e-014 -1.54227209295836e-014 1.0
outer loop
vertex -1267.97662309398 503.86443010796 24.9495699807082
vertex -1267.32791904598 503.653648832656 24.9495699807083
vertex -1267.35021283242 503.852402416488 24.9495699807083
endloop
endfacet
facet normal -9.48499815797973e-014 -1.54227209295836e-014 1.0
outer loop
vertex -1267.35021283242 503.852402416488 24.9495699807083
vertex -1267.32791904598 503.653648832656 24.9495699807083
vertex -1266.7420339873 504.002911464403 24.9495699807083
endloop
endfacet
facet normal -9.48499815797973e-014 -1.54227209295836e-014 1.0
outer loop
vertex -1266.7420339873 504.002911464403 24.9495699807083
vertex -1267.32791904598 503.653648832656 24.9495699807083
vertex -1266.66905863044 503.816700301231 24.9495699807083
endloop
endfacet
facet normal -9.48499815797973e-014 -1.54227209295836e-014 1.0
outer loop
vertex -1266.7420339873 504.002911464403 24.9495699807083
vertex -1266.66905863044 503.816700301231 24.9495699807083
vertex -1266.19353294187 504.30570030882 24.9495699807084
endloop
endfacet
facet normal -9.48499815797973e-014 -1.54227209295836e-014 1.0
outer loop
vertex -1266.19353294187 504.30570030882 24.9495699807084
vertex -1266.66905863044 503.816700301231 24.9495699807083
vertex -1266.07484916454 504.144721549349 24.9495699807084
endloop
endfacet
facet normal -9.48499815797973e-014 -1.54227209295836e-014 1.0
outer loop
vertex -1266.19353294187 504.30570030882 24.9495699807084
vertex -1266.07484916454 504.144721549349 24.9495699807084
vertex -1265.74208913591 504.740134390372 24.9495699807084
endloop
endfacet
facet normal -9.48499815797973e-014 -1.54227209295836e-014 1.0
outer loop
vertex -1265.74208913591 504.740134390372 24.9495699807084
vertex -1266.07484916454 504.144721549349 24.9495699807084
vertex -1265.58578504143 504.61535847103 24.9495699807084
endloop
endfacet
facet normal -9.48499815797973e-014 -1.54227209295836e-014 1.0
outer loop
vertex -1265.74208913591 504.740134390372 24.9495699807084
vertex -1265.58578504143 504.61535847103 24.9495699807084
vertex -1265.41846771877 505.276607744338 24.9495699807084
endloop
endfacet
facet normal -9.48499815797973e-014 -1.54227209295836e-014 1.0
outer loop
vertex -1265.41846771877 505.276607744338 24.9495699807084
vertex -1265.58578504143 504.61535847103 24.9495699807084
vertex -1265.23519517285 505.196537937826 24.9495699807084
endloop
endfacet
facet normal -9.48499815797973e-014 -1.54227209295836e-014 1.0
outer loop
vertex -1265.41846771877 505.276607744338 24.9495699807084
vertex -1265.23519517285 505.196537937826 24.9495699807084
vertex -1265.2447229552 505.878560598209 24.9495699807084
endloop
endfacet
facet normal -9.48499815797973e-014 -1.54227209295836e-014 1.0
outer loop
vertex -1265.2447229552 505.878560598209 24.9495699807084
vertex -1265.23519517285 505.196537937826 24.9495699807084
vertex -1265.23269526373 506.50497085977 24.9495699807084
endloop
endfacet
facet normal -9.48499815797973e-014 -1.54227209295836e-014 1.0
outer loop
vertex -1265.23269526373 506.50497085977 24.9495699807084
vertex -1265.23519517285 505.196537937826 24.9495699807084
vertex -1265.04697167899 505.848653529521 24.9495699807084
endloop
endfacet
facet normal -9.48499815797973e-014 -1.54227209295836e-014 1.0
outer loop
vertex -1265.23269526373 506.50497085977 24.9495699807084
vertex -1265.04697167899 505.848653529521 24.9495699807084
vertex -1265.19699314847 507.186125061752 24.9495699807084
endloop
endfacet
facet normal -9.48499815797973e-014 -1.54227209295836e-014 1.0
outer loop
vertex -1265.19699314847 507.186125061752 24.9495699807084
vertex -1265.04697167899 505.848653529521 24.9495699807084
vertex -1265.0339416799 506.527264646211 24.9495699807084
endloop
endfacet
facet normal -9.48499815797973e-014 -1.54227209295836e-014 1.0
outer loop
vertex -1270.03848339096 505.288765783194 24.9495699807081
vertex -1270.18850486044 506.626237315425 24.9495699807081
vertex -1270.20153485953 505.947626198735 24.9495699807081
endloop
endfacet
facet normal -9.48499815797973e-014 -1.54227209295836e-014 1.0
outer loop
vertex -1270.18850486044 506.626237315425 24.9495699807081
vertex -1270.03848339096 505.288765783194 24.9495699807081
vertex -1270.00028136658 507.278352907119 24.9495699807081
endloop
endfacet
facet normal -9.48499815797973e-014 -1.54227209295836e-014 1.0
outer loop
vertex -1270.00028136658 507.278352907119 24.9495699807081
vertex -1270.03848339096 505.288765783194 24.9495699807081
vertex -1270.0027812757 505.969919985176 24.9495699807081
endloop
endfacet
facet normal -9.48499815797973e-014 -1.54227209295836e-014 1.0
outer loop
vertex -1270.00028136658 507.278352907119 24.9495699807081
vertex -1270.0027812757 505.969919985176 24.9495699807081
vertex -1269.99075358423 506.596330246736 24.9495699807081
endloop
endfacet
facet normal -9.48499815797973e-014 -1.54227209295836e-014 1.0
outer loop
vertex -1270.00028136658 507.278352907119 24.9495699807081
vertex -1269.99075358423 506.596330246736 24.9495699807081
vertex -1269.649691498 507.859532373916 24.9495699807081
endloop
endfacet
facet normal -9.48499815797973e-014 -1.54227209295836e-014 1.0
outer loop
vertex -1269.649691498 507.859532373916 24.9495699807081
vertex -1269.99075358423 506.596330246736 24.9495699807081
vertex -1269.81700882066 507.198283100608 24.9495699807081
endloop
endfacet
facet normal -9.48499815797973e-014 -1.54227209295836e-014 1.0
outer loop
vertex -1269.649691498 507.859532373916 24.9495699807081
vertex -1269.81700882066 507.198283100608 24.9495699807081
vertex -1269.49338740352 507.734756454574 24.9495699807081
endloop
endfacet
facet normal -9.48499815797973e-014 -1.54227209295836e-014 1.0
outer loop
vertex -1269.649691498 507.859532373916 24.9495699807081
vertex -1269.49338740352 507.734756454574 24.9495699807081
vertex -1269.16062737489 508.330169295597 24.9495699807081
endloop
endfacet
facet normal -9.48499815797973e-014 -1.54227209295836e-014 1.0
outer loop
vertex -1269.16062737489 508.330169295597 24.9495699807081
vertex -1269.49338740352 507.734756454574 24.9495699807081
vertex -1269.04194359757 508.169190536126 24.9495699807081
endloop
endfacet
facet normal -9.48499815797973e-014 -1.54227209295836e-014 1.0
outer loop
vertex -1269.16062737489 508.330169295597 24.9495699807081
vertex -1269.04194359757 508.169190536126 24.9495699807081
vertex -1268.56641790899 508.658190543715 24.9495699807082
endloop
endfacet
facet normal -9.48499815797973e-014 -1.54227209295836e-014 1.0
outer loop
vertex -1268.56641790899 508.658190543715 24.9495699807082
vertex -1269.04194359757 508.169190536126 24.9495699807081
vertex -1268.49344255213 508.471979380542 24.9495699807082
endloop
endfacet
facet normal -9.48499815797973e-014 -1.54227209295836e-014 1.0
outer loop
vertex -1268.56641790899 508.658190543715 24.9495699807082
vertex -1268.49344255213 508.471979380542 24.9495699807082
vertex -1267.90755749345 508.82124201229 24.9495699807082
endloop
endfacet
facet normal -9.48499815797973e-014 -1.54227209295836e-014 1.0
outer loop
vertex -1267.90755749345 508.82124201229 24.9495699807082
vertex -1268.49344255213 508.471979380542 24.9495699807082
vertex -1267.88526370701 508.622488428458 24.9495699807082
endloop
endfacet
facet normal -9.48499815797973e-014 -1.54227209295836e-014 1.0
outer loop
vertex -1267.90755749345 508.82124201229 24.9495699807082
vertex -1267.88526370701 508.622488428458 24.9495699807082
vertex -1267.22894637676 508.808212013195 24.9495699807083
endloop
endfacet
facet normal -9.48499815797973e-014 -1.54227209295836e-014 1.0
outer loop
vertex -1267.22894637676 508.808212013195 24.9495699807083
vertex -1267.88526370701 508.622488428458 24.9495699807082
vertex -1267.25885344545 508.610460736986 24.9495699807083
endloop
endfacet
facet normal -9.48499815797973e-014 -1.54227209295836e-014 1.0
outer loop
vertex -1267.22894637676 508.808212013195 24.9495699807083
vertex -1267.25885344545 508.610460736986 24.9495699807083
vertex -1266.65690059158 508.436715973423 24.9495699807083
endloop
endfacet
facet normal -9.48499815797973e-014 -1.54227209295836e-014 1.0
outer loop
vertex -1267.22894637676 508.808212013195 24.9495699807083
vertex -1266.65690059158 508.436715973423 24.9495699807083
vertex -1266.57683078507 508.619988519335 24.9495699807083
endloop
endfacet
facet normal -9.48499815797973e-014 -1.54227209295836e-014 1.0
outer loop
vertex -1266.57683078507 508.619988519335 24.9495699807083
vertex -1266.65690059158 508.436715973423 24.9495699807083
vertex -1266.12042723761 508.113094556279 24.9495699807084
endloop
endfacet
facet normal -9.48499815797973e-014 -1.54227209295836e-014 1.0
outer loop
vertex -1266.57683078507 508.619988519335 24.9495699807083
vertex -1266.12042723761 508.113094556279 24.9495699807084
vertex -1265.99565131827 508.269398650763 24.9495699807084
endloop
endfacet
facet normal -9.48499815797973e-014 -1.54227209295836e-014 1.0
outer loop
vertex -1265.99565131827 508.269398650763 24.9495699807084
vertex -1266.12042723761 508.113094556279 24.9495699807084
vertex -1265.68599315606 507.661650750323 24.9495699807084
endloop
endfacet
facet normal -9.48499815797973e-014 -1.54227209295836e-014 1.0
outer loop
vertex -1265.99565131827 508.269398650763 24.9495699807084
vertex -1265.68599315606 507.661650750323 24.9495699807084
vertex -1265.52501439659 507.780334527644 24.9495699807084
endloop
endfacet
facet normal -9.48499815797973e-014 -1.54227209295836e-014 1.0
outer loop
vertex -1265.52501439659 507.780334527644 24.9495699807084
vertex -1265.68599315606 507.661650750323 24.9495699807084
vertex -1265.38320431165 507.113149704885 24.9495699807084
endloop
endfacet
facet normal -9.48499815797973e-014 -1.54227209295836e-014 1.0
outer loop
vertex -1265.52501439659 507.780334527644 24.9495699807084
vertex -1265.38320431165 507.113149704885 24.9495699807084
vertex -1265.19699314847 507.186125061752 24.9495699807084
endloop
endfacet
facet normal -9.48499815797973e-014 -1.54227209295836e-014 1.0
outer loop
vertex -1265.19699314847 507.186125061752 24.9495699807084
vertex -1265.38320431165 507.113149704885 24.9495699807084
vertex -1265.23269526373 506.50497085977 24.9495699807084
endloop
endfacet
facet normal 0.36487678433814 -0.931055815862325 2.02491422554577e-014
outer loop
vertex -1266.66905863044 503.816700301231 24.4495699807084
vertex -1267.32791904598 503.653648832656 24.9495699807083
vertex -1267.32791904598 503.653648832656 24.4495699807084
endloop
endfacet
facet normal 0.11146893220691 -0.993767919160531 -4.75377911944086e-015
outer loop
vertex -1267.32791904598 503.653648832656 24.9495699807083
vertex -1266.66905863044 503.816700301231 24.4495699807084
vertex -1266.66905863044 503.816700301231 24.9495699807083
endloop
endfacet
endsolid LiteArm_i2_REV4_10
